<?xml version="1.0" encoding="utf-8"?>
<!-- Generator: Adobe Illustrator 23.0.1, SVG Export Plug-In . SVG Version: 6.00 Build 0)  -->
<svg version="1.1" id="Layer_1" xmlns="http://www.w3.org/2000/svg" xmlns:xlink="http://www.w3.org/1999/xlink" x="0px" y="0px"
	 viewBox="0 0 297 60" style="enable-background:new 0 0 297 60;" xml:space="preserve">
<style type="text/css">
	.st0{fill:#FFFFFF;}
</style>
<path class="st0" d="M33.1,45.6C29.7,49.4,27,53,22.5,55c-0.2-2.2,1.3-3.4,2-5.5c-4.1,0.5-7.9,1-12.4,1.6c2.1-4.1,5.9-4.3,9.6-6.5
	c-5.8-2-11-3.1-15.3-6.3c5.1-1.5,10-0.7,15.3,0c-4.9-5.8-10.5-11-12.9-19.1c8,3.5,14.6,8.2,19.5,15.4c-2.1-10.5-0.9-20.2,4.4-29.5
	c3.5,10.1,4.5,20.1,2.4,31c6.4-6.7,11.7-13.6,21-16.4c-0.7,4.4-3.2,7-5.5,9.6c-2.4,2.6-4.7,5.3-7.4,8.4c5.5,0.8,10.4-1.8,15.3,0.7
	c-4.2,3.5-9.7,3.9-15.3,6.1c3.8,1.7,7,3.2,10.1,5.8c-4.2,1.3-7.9-1-12.1-1c0.8,1.8,1.5,3.3,2.4,5.3C38,53.9,35.8,49.8,33.1,45.6z"/>
<g>
	<path class="st0" d="M89.9,47.2H78l-6.4-6.4V21.6l6.4-6.4h11.4l2.5,7.5l-4.7-1.6h-4.9L80,22.3l-1.1,2.3v13.3l1.1,2.3l2.3,1.1h5.3
		l4.8-1.6L89.9,47.2z"/>
	<path class="st0" d="M115,47.2H96.7l0.9-3.7V18.9l-0.9-3.7H115l5,5v6.2l-3.4,3.4l3.9,3.9v8L115,47.2z M113.2,23.2l-0.9-1.8
		l-1.8-0.9H105l-0.5,0.5v5.9l0.5,0.5h5.5l1.8-0.9l0.9-1.8V23.2z M113.2,35.8l-0.9-1.8l-2.3-1.1h-5l-0.5,0.5v7.5l0.7,0.7h4.8l2.3-1.1
		l0.9-1.8V35.8z"/>
	<path class="st0" d="M145.2,47.2h-17.8l0.9-3.7V18.9l-0.9-3.7h17.8l6.4,6.4v19.2L145.2,47.2z M144.3,24.1l-1.1-2.3l-2.3-1.1h-5
		l-0.5,0.5v19.4l0.7,0.7h4.8l2.3-1.1l1.1-2.3V24.1z"/>
	<path class="st0" d="M188.2,47.2h-17.8l0.9-3.7V18.9l-0.9-3.7h17.8l6.4,6.4v19.2L188.2,47.2z M187.2,24.1l-1.1-2.3l-2.3-1.1h-5
		l-0.5,0.5v19.4l0.7,0.7h4.8l2.3-1.1l1.1-2.3V24.1z"/>
	<path class="st0" d="M217.2,47.2l0.5-3.7l-0.9-3.7l-0.5-0.5h-8.7l-0.5,0.5l-0.9,3.7l0.5,3.7h-8.5l1.8-3.7l6.9-25.4l-0.7-3h12.3
		l-0.7,3l6.9,25.4l1.8,3.7H217.2z M212.2,21.2l-0.2-1.4l-0.2,1.4l-3,12.3l0.5,0.5h5.5l0.5-0.5L212.2,21.2z"/>
	<path class="st0" d="M230.2,47.2l0.9-3.7V18.9l-0.9-3.7h8.7l-0.9,3.7v24.7l0.9,3.7H230.2z"/>
	<path class="st0" d="M264,47.2h-17.8l0.9-3.7V18.9l-0.9-3.7h8.9l-1.1,4.6v20.8l0.7,0.7h7.1l4.8-1.6L264,47.2z"/>
	<path class="st0" d="M285.8,18.9l-7.5,15.3v8.9l1.4,4.1H270l1.4-4.1v-8.5l-8.2-15.8l-2.5-3.7h9.1l0.5,3.2l4.3,8.7l0.2,0.9l0.2-0.9
		l4.3-8.7l0.5-3.2h8.5L285.8,18.9z"/>
</g>
</svg>
