<?xml version="1.0" encoding="utf-8"?>
<!-- Generator: Adobe Illustrator 23.0.1, SVG Export Plug-In . SVG Version: 6.00 Build 0)  -->
<svg version="1.1" id="Layer_1" xmlns="http://www.w3.org/2000/svg" xmlns:xlink="http://www.w3.org/1999/xlink" x="0px" y="0px"
	 viewBox="0 0 138.5 35.9" style="enable-background:new 0 0 138.5 35.9;" xml:space="preserve">
<style type="text/css">
	.st0{fill:#613D20;}
</style>
<g>
	<path class="st0" d="M84.5,19c0.1-0.1,0.1-0.2,0.2-0.3c1.2-1.4,1.9-3,2-4.9c0-0.9-0.2-1.7-1-2.2c-0.2-0.1-0.5-0.2-0.7-0.1
		c-0.3,0.1-0.7,0.3-1,0.5c-1.4,0.9-2.7,2-3.7,3.2c-0.2,0.3-0.5,0.6-0.7,0.9c-0.6,0.6-1.4,0.6-2,0.1c-0.4-0.4-0.7-0.9-0.9-1.4
		c0-0.2,0-0.4,0.1-0.6c1-1.5,1.5-3.1,1.4-4.9c-0.1-1.3-0.5-2.6-1.4-3.6c-0.4-0.4-0.7-0.5-1.2-0.2C74.2,6,73.5,7,72.8,8
		c-1.2,2.1-1.4,4.2-0.6,6.5c0,0.1,0,0.1,0.1,0.2c0,0,0,0,0,0.1c-0.2,0-0.4-0.1-0.5,0c-0.2,0.2-0.3,0.4-0.3,0.6
		c-0.1,0.5-0.1,1.1-0.1,1.6c0,0.3,0,0.6-0.1,0.9s-0.4,0.4-0.6,0.2c-0.2-0.2-0.5-0.4-0.6-0.7c-0.2-0.4-0.3-0.9-0.5-1.5
		c-0.3,0.3-0.5,0.6-0.7,0.9c-1,1.2-1.8,2.6-2.1,4.2c-0.1,0.6-0.1,1.1,0.2,1.6c0.5,0.8,0.9,0.9,1.6,0.6c1-0.4,1.9-1,2.8-1.6
		c1-0.7,1.8-1.4,2.6-2.3c0.3-0.3,0.6-0.6,1.1-0.7c0.6-0.1,1.2,0.2,1.5,0.9c0.1,0.1,0.1,0.3,0.2,0.5c0.2,0.5,0.2,0.9-0.2,1.3
		c-1.2,1.5-1.9,3.1-1.9,5c0,1,0.1,2,0.7,2.8c0.5,0.8,0.8,0.9,1.7,0.5c1.1-0.5,1.9-1.4,2.6-2.3c1.1-1.4,1.6-3.1,1.7-4.9
		c0-0.6-0.1-1.2-0.2-1.8c0.4,0.2,0.7,0.3,1.1,0.5c0.8,0.4,1.6,0.9,2.2,1.6c0.8,0.9,0.9,2,0.8,3.1c-0.4,3.4-3.6,6.2-6.3,6.7
		c-0.5,0.1-1.2,0.1-1.7,0c-1.3-0.3-2.5-0.7-3.6-1.5c-0.8-0.6-1.4-1.2-1.5-2.2c-0.1-0.6,0-1.2,0-1.9c0.1-1.4,0.4-2.8,0.7-4.1
		c0-0.1,0-0.2,0-0.3c-0.2,0.2-0.4,0.4-0.6,0.6c-1.4,1.3-3,2-5,2c-2.9,0-5-2.1-5-5c0-1.1,0.3-2.1,0.7-3c0.9-1.8,2.3-3.2,4.1-4.2
		c0.2-0.1,0.4-0.2,0.6-0.3s0.4-0.1,0.6-0.1c-0.2-0.5-0.4-1.1-0.5-1.6c-0.3-1.4-0.1-2.7,0.6-4c0.8-1.7,2.1-3,3.8-3.8
		c0.9-0.4,1.9-0.5,2.9-0.3c1.3,0.3,2.6,0.7,3.8,1.5c0.8,0.7,1.4,1.7,1.5,3c0.1,1.6,0.1,3.3-0.1,4.9c0,0.1,0,0.2,0,0.3
		c0.5-0.5,1-1,1.6-1.5c1.9-1.4,4-1.8,6.2-0.9c1.9,0.8,2.9,2.3,3.2,4.3c0.3,1.7-0.2,3.3-1.1,4.7c-0.7,1.2-1.7,2.2-3,3
		c-0.4,0.3-0.9,0.4-1.4,0.2c-1-0.3-2-0.6-2.9-1.2c-0.2-0.1-0.3-0.2-0.4-0.4c-0.1-0.1-0.1-0.4-0.1-0.5c0.4-0.7,0.3-1.5,0.1-2.2
		c-0.1-0.2-0.1-0.5-0.1-0.7s0.1-0.5,0.2-0.6c0.2-0.1,0.4,0,0.6,0.1s0.4,0.4,0.5,0.6C84,18,84.2,18.4,84.5,19z"/>
	<path class="st0" d="M38.5,24.1c-0.6,0.5-1.3,0.6-2,0.5s-1.3-0.5-1.7-1.1c-0.2,0.2-0.3,0.3-0.5,0.5c-0.8,0.7-1.7,0.9-2.8,0.5
		c-1-0.4-1.4-1.3-1.5-2.3c0-0.2,0-0.4,0-0.6c0-0.3-0.1-0.5-0.4-0.5c-0.1,0-0.2,0-0.3,0c-0.3,0-0.5,0.1-0.5,0.4
		c-0.1,0.5-0.2,1-0.4,1.4c-0.3,0.9-0.9,1.6-1.9,1.8c-1,0.2-2-0.1-2.6-1l0,0c-0.5,0.3-1,0.6-1.5,0.8c-1.1,0.5-2.5,0.1-3.2-0.9
		c-0.6-0.8-0.5-1.7-0.1-2.5c0.7-1.7,2.7-2.5,4.4-1.8c0.1,0,0.3,0,0.4,0c0.4-0.2,0.8-0.1,1.1,0.1c0.3,0.2,0.6,0.6,0.5,1
		s-0.2,0.8-0.2,1.2c0,0.3,0,0.6,0,0.9c0.1,0.5,0.5,0.8,1,0.7c0.5-0.1,0.8-0.4,1-1c0.1-0.6,0.4-1.1,0.5-1.6s0.1-1.1,0.1-1.6
		c0-0.4,0.3-0.8,0.7-0.9c0.4-0.1,0.8,0.1,0.9,0.5c0,0.1,0,0.1,0.1,0.2c0.2,0.5,0.2,0.6,0.7,0.5c0.5,0,1,0.2,1.3,0.5
		c0.2,0.2,0.3,0.4,0.3,0.7c0,0.4-0.1,0.7-0.1,1.1c0,0.1,0,0.1,0,0.2c-0.1,0.7,0.1,1.2,0.6,1.3c0.7,0.2,1.5-0.2,1.7-0.8
		c0.1-0.2,0.1-0.5,0.1-0.8c0-0.9,0.1-1.7,0.1-2.6c0-0.1,0-0.2,0-0.4c-0.2,0-0.4,0-0.5,0c-0.3,0-0.6,0-1,0c-0.2,0-0.5,0-0.5-0.3
		c-0.1-0.2,0.1-0.6,0.3-0.8c0.3-0.2,0.7-0.3,1.1-0.3c0.8,0,0.8,0,0.9-0.9c0-0.5,0-0.9,0.1-1.4c0.1-0.3,0.3-0.6,0.5-0.8
		s0.7-0.2,1,0.1c0.4,0.4,0.5,0.9,0.4,1.4c-0.1,0.4-0.1,0.8-0.2,1.3c0.4,0,0.7,0,1.1,0c0.2,0,0.3,0,0.5,0c0.4,0,0.5,0.2,0.4,0.6
		s-0.3,0.7-0.8,0.7c-0.4,0-0.8,0.1-1.3,0.2c-0.1,0.5-0.2,1-0.2,1.6c0,0.7,0,1.5,0,2.2c0,0.1,0,0.1,0,0.2c0.1,0.4,0.3,0.8,0.8,0.8
		c0.6,0.1,1.1-0.2,1.3-0.7c0.1-0.3,0.2-0.6,0.2-1c0.1-1.3,0.2-2.6,0.3-3.8c0.1-1,0.1-2,0.2-3c0-0.4,0.1-0.8,0.3-1.2
		c0.1-0.4,0.4-0.5,0.8-0.4c0.6,0.2,1,0.9,1,1.6c-0.2,1.8-0.4,3.6-0.5,5.4c0,0.1,0,0.2,0,0.4c0.1-0.1,0.2-0.2,0.3-0.3
		c0.3-0.3,0.5-0.6,0.8-0.9c0.7-0.6,1.6-0.5,2.1,0.1c0.3,0.4,0.3,0.8,0.2,1.2c-0.1,0.6-0.2,1.2-0.2,1.8c0,0.4,0.1,0.8,0.5,1
		c0.5,0.2,0.9,0,1.2-0.3c0.5-0.6,0.9-1.2,0.8-2.1c-0.2-2.1,0.1-4.2,0.9-6.2c0.2-0.5,0.5-1,1-1.4c0.6-0.5,1.3-0.6,2-0.4
		c0.7,0.3,0.9,0.9,1,1.5c0.2,0.9,0,1.8-0.3,2.7c-0.6,1.6-1.4,3.1-2.4,4.5c-0.2,0.3-0.2,0.5,0,0.7c0.4,0.7,1.1,1,2,0.7
		c0.4-0.1,0.8-0.4,1.1-0.7c0.3-0.2,0.4-0.6,0.4-1c-0.1-0.8,0.1-1.6,0.3-2.4c0.1-0.4,0.3-0.5,0.7-0.3c0.7,0.2,1,0.7,0.9,1.4
		c-0.1,0.4-0.1,0.9-0.1,1.3c0,0.3,0,0.6,0.4,0.8c0.3,0.1,0.6,0,0.9-0.4c0.2-0.4,0.4-0.8,0.6-1.3c0.2-0.4,0.3-0.8,0.4-1.2
		c0.2-0.5,0.4-0.7,0.7-0.6c0.4,0,0.8,0.4,0.8,0.9c0,0.3,0,0.5,0,0.8c-0.1,1-0.2,2-0.3,3c0,0.1,0,0.1,0,0.3c0.8-0.5,1.6-0.8,2-1.7
		c0.1-0.2,0.1-0.4,0.3-0.6c0.1-0.1,0.3-0.2,0.5-0.2s0.3,0.1,0.4,0.4c0.2,0.6,0,1.1-0.4,1.5c-0.6,0.6-1.2,1.2-1.8,1.8
		C58.1,24.9,58,25,57.9,25c-0.7,0.3-0.7,0.9-0.8,1.5c-0.1,0.8-0.3,1.5-0.5,2.3c-0.2,0.4-0.5,0.9-0.8,1.2c-0.9,1-2.1,1-3.1,0.1
		c-0.8-0.7-1.1-1.2-0.5-2.6c0.4-1,1.1-1.8,2.1-2.3c0.4-0.2,0.8-0.4,1.1-0.6c0.1-0.1,0.2-0.2,0.2-0.3c0-0.3,0-0.7-0.1-1.1
		c-0.9,0.9-1.9,0.8-2.9,0.2c-1.5,2-4.5,2-5.6,0.2c-0.4,0.3-0.7,0.7-1.1,1c-0.8,0.6-1.6,0.6-2.5,0.2c-0.9-0.3-1.2-1.1-1.4-1.9
		c0-0.3-0.1-0.5-0.1-0.8c0-0.1-0.1-0.2-0.2-0.3c-0.1,0.1-0.3,0.1-0.3,0.2c-0.3,0.6-0.6,1.2-0.8,1.8c-0.1,0.2-0.1,0.3-0.1,0.5
		c-0.2,0.6-0.4,0.7-0.9,0.7s-0.9-0.3-1.1-0.8C38.5,24.2,38.5,24.2,38.5,24.1z M48.2,19.9C48.2,19.9,48.3,19.9,48.2,19.9
		c0.1,0,0.1-0.1,0.2-0.1c0.4-0.8,0.8-1.5,1.1-2.3c0.3-0.7,0.4-1.4,0.3-2.1c0-0.3-0.2-0.4-0.4-0.2c-0.2,0.1-0.4,0.4-0.4,0.6
		c-0.2,0.8-0.4,1.7-0.5,2.5C48.3,18.7,48.3,19.3,48.2,19.9z M22.5,21c-0.7,0-1.3,0.4-1.5,1.1c-0.1,0.5,0.2,0.9,0.8,0.9
		c0.8-0.1,1.3-0.6,1.6-1.3c0-0.1,0-0.2,0-0.3C23.1,21,22.8,21,22.5,21z M55.6,26.6l-0.1-0.1c-0.6,0.4-1.2,0.8-1.7,1.2
		c-0.1,0.1-0.2,0.3-0.3,0.4c-0.1,0.5,0.1,1,0.4,1.1c0.3,0.1,0.7,0,1-0.5C55.4,28.1,55.5,27.3,55.6,26.6z"/>
	<path class="st0" d="M132.4,22.8c0.9-0.5,1.8-0.9,2.1-2c0-0.1,0.1-0.2,0.2-0.3c0.2-0.1,0.4-0.2,0.5-0.2c0.2,0,0.4,0.2,0.4,0.4
		c0.1,0.5-0.1,1-0.4,1.4c-0.3,0.4-0.6,0.7-0.9,1c-0.5,0.5-1.1,0.9-1.6,1.3c-0.1,0.1-0.2,0.2-0.2,0.4c-0.1,1-0.2,2-0.6,3
		c-0.3,0.7-0.7,1.3-1.3,1.7c-0.7,0.5-1.5,0.5-2.2,0c-0.4-0.3-0.7-0.6-1-0.9c-0.3-0.4-0.3-0.9-0.2-1.3c0.3-1.1,0.9-2.1,1.9-2.7
		c0.5-0.3,1-0.6,1.5-0.8c0.2-0.1,0.2-0.2,0.2-0.4c0-0.3,0-0.7,0-1.1c-1.1,0.9-2.1,0.8-3.1,0.1c0,0-0.1,0.1-0.2,0.2
		c-1,1.1-2.3,1.5-3.7,1.3c-0.6-0.1-1.1-0.6-1.4-1.1c-0.8,0.9-1.8,1.4-3,1.1c-1.1-0.3-1.7-1-1.9-2.5c-0.6,0.1-1.1,0.2-1.7,0.3
		c-0.6,1.7-3.1,2.4-4.7,1.9c-1.3-0.4-2-2-1.5-3.4c0.7-1.7,3.3-3.1,5.5-1.3c0.2,0.1,0.3,0.3,0.4,0.5c0.4,0.8,1.7,1,2.3,0.3
		c0.5-0.6,1-1.1,1.8-1.3c0.8-0.2,1.7-0.2,2.5,0c0.1,0,0.2,0,0.2,0.1c0,0,0,0,0.1,0c0-0.3,0-0.6,0-0.9c0-1.2,0.1-2.4,0.4-3.6
		c0.1-0.4,0.3-0.7,0.4-1c0.1-0.2,0.3-0.4,0.5-0.5c0.6-0.3,1.1-0.1,1.1,0.5c0.1,0.7,0.1,1.5,0,2.2c-0.2,1.2-0.5,2.3-0.7,3.5
		c-0.1,0.8-0.2,1.6-0.2,2.3c0,1.1,0.8,1.6,1.8,1.2c0.8-0.3,1.1-1,1.2-1.8c0.1-0.7,0.2-1.3,0.3-1.9c0.1-0.5,0.4-0.6,0.9-0.4
		c0.6,0.3,0.8,0.7,0.7,1.2s-0.1,1-0.1,1.5c0,0.3,0.1,0.5,0.4,0.6c0.3,0.1,0.6,0,0.7-0.3c0.2-0.3,0.4-0.6,0.5-0.9
		c0.2-0.4,0.3-0.9,0.5-1.3c0.1-0.1,0.1-0.3,0.2-0.4c0.1-0.3,0.3-0.6,0.7-0.6s0.7,0.3,0.8,0.7c0.1,0.3,0,0.7,0,1
		c-0.1,0.9-0.2,1.9-0.3,2.8C132.4,22.5,132.4,22.6,132.4,22.8z M113.9,21.2c-0.4-0.3-0.6-0.7-0.7-1.1c0-0.2-0.2-0.3-0.4-0.3
		c-0.6,0.1-1,0.3-1.3,0.9c-0.2,0.4-0.1,0.9,0.2,1.1C112.4,22.2,113.7,21.9,113.9,21.2z M130.8,25.5c-0.3,0.2-0.5,0.3-0.7,0.4
		c-0.4,0.3-0.8,0.6-1.2,0.9s-0.2,1.1,0.1,1.4c0.3,0.2,0.8,0.1,1.1-0.4c0-0.1,0.1-0.1,0.1-0.2C130.6,26.9,130.7,26.2,130.8,25.5z
		 M120.4,21.9c0.9,0,1.5-0.8,1.6-1.5c0-0.1-0.1-0.1-0.1-0.2c-0.7-0.3-1.3-0.2-1.8,0.2c-0.3,0.2-0.4,0.7-0.2,1.1
		C119.9,21.9,120.2,21.9,120.4,21.9z"/>
	<path class="st0" d="M98,13.2c-1.1,0.3-2.2,0.6-3.1,1.3c-0.1,0.1-0.4,0.1-0.6,0c-0.6-0.3-0.7-1-0.3-1.6c0.4-0.5,0.9-0.8,1.4-1.1
		c1.4-0.7,2.9-1,4.5-1.3s3.3-0.5,4.9-0.4c1,0.1,2.1,0.2,3,0.6c1.6,0.8,1.5,2.2,0.8,3.2c-0.6,0.8-1.3,1.4-2.2,2
		c-0.1,0.1-0.2,0.1-0.3,0.2c0.2,0.1,0.4,0.1,0.6,0.2c0.7,0.2,1.3,0.5,1.8,1c1,0.9,1.1,2.4,0.2,3.4c-0.6,0.8-1.5,1.4-2.4,1.8
		c-1.5,0.7-3.1,1.1-4.8,1.4c-0.5,0.1-1,0.1-1.5,0.1c-0.7,0-1.1-0.3-1.4-0.9c-0.1-0.2-0.2-0.4-0.5-0.5c-0.7-0.3-0.9-1-0.9-1.6
		c0-0.8,0.1-1.6,0.1-2.5c0.1-1.5,0.2-3.1,0.4-4.6C97.9,13.8,97.9,13.5,98,13.2z M103.1,18L103.1,18c-1,0.1-2,0.2-2.9,0.3
		c-0.3,0-0.3,0.2-0.3,0.4c0,0.9,0,1.8-0.1,2.6c0,0.3,0.1,0.4,0.3,0.4c0.8,0,1.5,0,2.3-0.1c1.4-0.2,2.6-0.6,3.8-1.3
		c0.3-0.2,0.6-0.5,0.8-0.8c0.2-0.3,0.2-0.6-0.1-0.8c-0.2-0.2-0.5-0.3-0.8-0.4C105.1,18.1,104.1,18,103.1,18z M99.9,16.2
		c0,0,0.1,0,0.1,0.1c0.7-0.2,1.4-0.4,2.1-0.6c1.3-0.4,2.6-0.9,3.7-1.6c0.3-0.2,0.5-0.4,0.7-0.7s0.1-0.5-0.2-0.6
		c-0.2-0.1-0.4-0.2-0.7-0.2c-1.7-0.3-3.3-0.1-4.9,0.2c-0.1,0-0.2,0.1-0.2,0.2C100.3,13.9,100.1,15,99.9,16.2z"/>
	<path class="st0" d="M6.9,18.1c-0.5-0.3-1-0.5-1.4-0.8c-1.1-0.7-1.2-1.7-0.3-2.7c0.8-0.9,1.9-1.5,3-2c1.8-0.7,3.7-1,5.7-1.1
		c1-0.1,2.1,0,3.2,0c0.6,0,1.3,0.2,1.8,0.6c1,0.6,1.2,1.6,0.6,2.6c-0.6,0.9-1.6,1.2-2.7,1c-0.4-0.1-0.7-0.4-0.6-0.8
		c0-0.1,0.1-0.3,0.2-0.4c0.2-0.2,0.5-0.4,0.7-0.7c-0.3,0-0.5-0.1-0.8-0.1c-1.5-0.1-3,0.2-4.4,0.5c-1.2,0.3-2.3,0.6-3.5,1
		c-0.3,0.1-0.5,0.2-0.8,0.4s-0.3,0.4,0,0.5c0.4,0.2,0.9,0.3,1.3,0.5c0.1,0,0.2,0,0.3,0.1c0.9,0.4,1.7,0.1,2.6-0.1
		c1.2-0.2,2.4-0.3,3.6-0.2c0.3,0,0.6,0.2,0.9,0.3c0.2,0.1,0.3,0.3,0.3,0.6c-0.1,0.8-0.5,1.2-1.2,1.4c-0.8,0.2-1.6,0.2-2.4,0.2
		c-0.6,0-1.1-0.1-1.7-0.1c-0.1,0-0.2,0-0.3,0c-1.4,0.6-2.9,1.2-4.1,2.1c-0.2,0.2-0.4,0.3-0.6,0.5c-0.4,0.5-0.4,1,0.1,1.3
		c0.7,0.5,1.5,0.7,2.3,0.8c1.5,0.2,3,0,4.4-0.3c1.5-0.3,3.1-0.6,4.5-1.3c0.2-0.1,0.4-0.2,0.5-0.3c0.3-0.1,0.5,0,0.6,0.3
		c0,0.6-0.3,1-0.7,1.3c-0.7,0.6-1.5,1-2.4,1.3c-2.1,0.7-4.3,1.1-6.5,1.1c-1.3,0-2.5-0.3-3.6-0.9c-1-0.5-1.7-1.3-1.8-2.4
		c-0.1-0.6,0.1-1.1,0.4-1.6c0.6-1,1.6-1.7,2.6-2.3C6.7,18.2,6.8,18.1,6.9,18.1z"/>
</g>
</svg>
