<?xml version="1.0" encoding="utf-8"?>
<!-- Generator: Adobe Illustrator 23.0.1, SVG Export Plug-In . SVG Version: 6.00 Build 0)  -->
<svg version="1.1" id="Layer_1" xmlns="http://www.w3.org/2000/svg" xmlns:xlink="http://www.w3.org/1999/xlink" x="0px" y="0px"
	 viewBox="0 0 200.6 35.9" style="enable-background:new 0 0 200.6 35.9;" xml:space="preserve">
<style type="text/css">
	.st0{fill:#613D20;}
</style>
<path class="st0" d="M82.6,19c0.1-0.1,0.1-0.2,0.2-0.3c1.2-1.4,1.9-3,2-4.9c0-0.9-0.2-1.7-1-2.2c-0.2-0.1-0.5-0.2-0.7-0.1
	c-0.3,0.1-0.7,0.3-1,0.5c-1.4,0.9-2.7,2-3.7,3.2c-0.2,0.3-0.5,0.6-0.7,0.9c-0.6,0.6-1.4,0.6-2,0.1c-0.4-0.4-0.7-0.9-0.9-1.4
	c0-0.2,0-0.4,0.1-0.6c1-1.5,1.5-3.1,1.4-4.9c-0.1-1.3-0.5-2.6-1.4-3.6c-0.4-0.4-0.7-0.5-1.2-0.2C72.2,6,71.5,7,70.8,8
	c-1.2,2.1-1.4,4.2-0.6,6.5c0,0.1,0,0.1,0.1,0.2c0,0,0,0,0,0.1c-0.2,0-0.4-0.1-0.5,0c-0.2,0.2-0.3,0.4-0.3,0.6
	c-0.1,0.5-0.1,1.1-0.1,1.6c0,0.3,0,0.6-0.1,0.9s-0.4,0.4-0.6,0.2c-0.2-0.2-0.5-0.4-0.6-0.7c-0.2-0.4-0.3-0.9-0.5-1.5
	c-0.3,0.3-0.5,0.6-0.7,0.9c-1,1.2-1.8,2.6-2.1,4.2c-0.1,0.6-0.1,1.1,0.2,1.6c0.5,0.8,0.9,0.9,1.6,0.6c1-0.4,1.9-1,2.8-1.6
	c1-0.7,1.8-1.4,2.6-2.3c0.3-0.3,0.6-0.6,1.1-0.7c0.6-0.1,1.2,0.2,1.5,0.9c0.1,0.1,0.1,0.3,0.2,0.5c0.2,0.5,0.2,0.9-0.2,1.3
	c-1.2,1.5-1.9,3.1-1.9,5c0,1,0.1,2,0.7,2.8c0.5,0.8,0.8,0.9,1.7,0.5c1.1-0.5,1.9-1.4,2.6-2.3c1.1-1.4,1.6-3.1,1.7-4.9
	c0-0.6-0.1-1.2-0.2-1.8c0.4,0.2,0.7,0.3,1.1,0.5c0.8,0.4,1.6,0.9,2.2,1.6c0.8,0.9,0.9,2,0.8,3.1c-0.4,3.4-3.6,6.2-6.3,6.7
	c-0.5,0.1-1.2,0.1-1.7,0c-1.3-0.3-2.5-0.7-3.6-1.5c-0.8-0.6-1.4-1.2-1.5-2.2c-0.1-0.6,0-1.2,0-1.9c0.1-1.4,0.4-2.8,0.7-4.1
	c0-0.1,0-0.2,0-0.3c-0.2,0.2-0.4,0.4-0.6,0.6c-1.4,1.3-3,2-5,2c-2.9,0-5-2.1-5-5c0-1.1,0.3-2.1,0.7-3c0.9-1.8,2.3-3.2,4.1-4.2
	c0.2-0.1,0.4-0.2,0.6-0.3c0.2-0.1,0.4-0.1,0.6-0.1c-0.2-0.5-0.4-1.1-0.5-1.6c-0.3-1.4-0.1-2.7,0.6-4c0.8-1.7,2.1-3,3.8-3.8
	c0.9-0.4,1.9-0.5,2.9-0.3c1.3,0.3,2.6,0.7,3.8,1.5c0.8,0.7,1.4,1.7,1.5,3c0.1,1.6,0.1,3.3-0.1,4.9c0,0.1,0,0.2,0,0.3
	c0.5-0.5,1-1,1.6-1.5c1.9-1.4,4-1.8,6.2-0.9c1.9,0.8,2.9,2.3,3.2,4.3c0.3,1.7-0.2,3.3-1.1,4.7c-0.7,1.2-1.7,2.2-3,3
	c-0.4,0.3-0.9,0.4-1.4,0.2c-1-0.3-2-0.6-2.9-1.2c-0.2-0.1-0.3-0.2-0.4-0.4c-0.1-0.1-0.1-0.4-0.1-0.5c0.4-0.7,0.3-1.5,0.1-2.2
	c-0.1-0.2-0.1-0.5-0.1-0.7c0-0.2,0.1-0.5,0.2-0.6c0.2-0.1,0.4,0,0.6,0.1c0.2,0.1,0.4,0.4,0.5,0.6C82.1,18,82.3,18.4,82.6,19z"/>
<path class="st0" d="M36.4,24.1c-0.6,0.5-1.3,0.6-2,0.5c-0.7-0.1-1.3-0.5-1.7-1.1c-0.2,0.2-0.3,0.3-0.5,0.5
	c-0.8,0.7-1.7,0.9-2.8,0.5c-1-0.4-1.4-1.3-1.5-2.3c0-0.2,0-0.4,0-0.6c0-0.3-0.1-0.5-0.4-0.5c-0.1,0-0.2,0-0.3,0
	c-0.3,0-0.5,0.1-0.5,0.4c-0.1,0.5-0.2,1-0.4,1.4c-0.3,0.9-0.9,1.6-1.9,1.8c-1,0.2-2-0.1-2.6-1l0,0c-0.5,0.3-1,0.6-1.5,0.8
	c-1.1,0.5-2.5,0.1-3.2-0.9c-0.6-0.8-0.5-1.7-0.1-2.5c0.7-1.7,2.7-2.5,4.4-1.8c0.1,0,0.3,0,0.4,0c0.4-0.2,0.8-0.1,1.1,0.1
	c0.3,0.2,0.6,0.6,0.5,1c-0.1,0.4-0.2,0.8-0.2,1.2c0,0.3,0,0.6,0,0.9c0.1,0.5,0.5,0.8,1,0.7c0.5-0.1,0.8-0.4,1-1
	c0.1-0.6,0.4-1.1,0.5-1.6c0.1-0.5,0.1-1.1,0.1-1.6c0-0.4,0.3-0.8,0.7-0.9c0.4-0.1,0.8,0.1,0.9,0.5c0,0.1,0,0.1,0.1,0.2
	c0.2,0.5,0.2,0.6,0.7,0.5c0.5,0,1,0.2,1.3,0.5c0.2,0.2,0.3,0.4,0.3,0.7c0,0.4-0.1,0.7-0.1,1.1c0,0.1,0,0.1,0,0.2
	c-0.1,0.7,0.1,1.2,0.6,1.3c0.7,0.2,1.5-0.2,1.7-0.8c0.1-0.2,0.1-0.5,0.1-0.8c0-0.9,0.1-1.7,0.1-2.6c0-0.1,0-0.2,0-0.4
	c-0.2,0-0.4,0-0.5,0c-0.3,0-0.6,0-1,0c-0.2,0-0.5,0-0.5-0.3c-0.1-0.2,0.1-0.6,0.3-0.8c0.3-0.2,0.7-0.3,1.1-0.3c0.8,0,0.8,0,0.9-0.9
	c0-0.5,0-0.9,0.1-1.4c0.1-0.3,0.3-0.6,0.5-0.8c0.2-0.2,0.7-0.2,1,0.1c0.4,0.4,0.5,0.9,0.4,1.4c-0.1,0.4-0.1,0.8-0.2,1.3
	c0.4,0,0.7,0,1.1,0c0.2,0,0.3,0,0.5,0c0.4,0,0.5,0.2,0.4,0.6c-0.1,0.4-0.3,0.7-0.8,0.7c-0.4,0-0.8,0.1-1.3,0.2
	c-0.1,0.5-0.2,1-0.2,1.6c0,0.7,0,1.5,0,2.2c0,0.1,0,0.1,0,0.2c0.1,0.4,0.3,0.8,0.8,0.8c0.6,0.1,1.1-0.2,1.3-0.7
	c0.1-0.3,0.2-0.6,0.2-1c0.1-1.3,0.2-2.6,0.3-3.8c0.1-1,0.1-2,0.2-3c0-0.4,0.1-0.8,0.3-1.2c0.1-0.4,0.4-0.5,0.8-0.4
	c0.6,0.2,1,0.9,1,1.6c-0.2,1.8-0.4,3.6-0.5,5.4c0,0.1,0,0.2,0,0.4c0.1-0.1,0.2-0.2,0.3-0.3c0.3-0.3,0.5-0.6,0.8-0.9
	c0.7-0.6,1.6-0.5,2.1,0.1c0.3,0.4,0.3,0.8,0.2,1.2c-0.1,0.6-0.2,1.2-0.2,1.8c0,0.4,0.1,0.8,0.5,1c0.5,0.2,0.9,0,1.2-0.3
	c0.5-0.6,0.9-1.2,0.8-2.1c-0.2-2.1,0.1-4.2,0.9-6.2c0.2-0.5,0.5-1,1-1.4c0.6-0.5,1.3-0.6,2-0.4c0.7,0.3,0.9,0.9,1,1.5
	c0.2,0.9,0,1.8-0.3,2.7c-0.6,1.6-1.4,3.1-2.4,4.5c-0.2,0.3-0.2,0.5,0,0.7c0.4,0.7,1.1,1,2,0.7c0.4-0.1,0.8-0.4,1.1-0.7
	c0.3-0.2,0.4-0.6,0.4-1c-0.1-0.8,0.1-1.6,0.3-2.4c0.1-0.4,0.3-0.5,0.7-0.3c0.7,0.2,1,0.7,0.9,1.4c-0.1,0.4-0.1,0.9-0.1,1.3
	c0,0.3,0,0.6,0.4,0.8c0.3,0.1,0.6,0,0.9-0.4c0.2-0.4,0.4-0.8,0.6-1.3c0.2-0.4,0.3-0.8,0.4-1.2c0.2-0.5,0.4-0.7,0.7-0.6
	c0.4,0,0.8,0.4,0.8,0.9c0,0.3,0,0.5,0,0.8c-0.1,1-0.2,2-0.3,3c0,0.1,0,0.1,0,0.3c0.8-0.5,1.6-0.8,2-1.7c0.1-0.2,0.1-0.4,0.3-0.6
	c0.1-0.1,0.3-0.2,0.5-0.2c0.2,0,0.3,0.1,0.4,0.4c0.2,0.6,0,1.1-0.4,1.5c-0.6,0.6-1.2,1.2-1.8,1.8C56.1,24.9,56,25,55.9,25
	c-0.7,0.3-0.7,0.9-0.8,1.5c-0.1,0.8-0.3,1.5-0.5,2.3c-0.2,0.4-0.5,0.9-0.8,1.2c-0.9,1-2.1,1-3.1,0.1c-0.8-0.7-1.1-1.2-0.5-2.6
	c0.4-1,1.1-1.8,2.1-2.3c0.4-0.2,0.8-0.4,1.1-0.6c0.1-0.1,0.2-0.2,0.2-0.3c0-0.3,0-0.7-0.1-1.1c-0.9,0.9-1.9,0.8-2.9,0.2
	c-1.5,2-4.5,2-5.6,0.2c-0.4,0.3-0.7,0.7-1.1,1c-0.8,0.6-1.6,0.6-2.5,0.2c-0.9-0.3-1.2-1.1-1.4-1.9c0-0.3-0.1-0.5-0.1-0.8
	c0-0.1-0.1-0.2-0.2-0.3c-0.1,0.1-0.3,0.1-0.3,0.2c-0.3,0.6-0.6,1.2-0.8,1.8c-0.1,0.2-0.1,0.3-0.1,0.5C38.2,24.9,38,25,37.5,25
	c-0.5,0-0.9-0.3-1.1-0.8C36.4,24.2,36.4,24.2,36.4,24.1z M46.1,19.9C46.1,19.9,46.2,19.9,46.1,19.9c0.1,0,0.1-0.1,0.2-0.1
	c0.4-0.8,0.8-1.5,1.1-2.3c0.3-0.7,0.4-1.4,0.3-2.1c0-0.3-0.2-0.4-0.4-0.2c-0.2,0.1-0.4,0.4-0.4,0.6c-0.2,0.8-0.4,1.7-0.5,2.5
	C46.2,18.7,46.2,19.3,46.1,19.9z M20.3,21c-0.7,0-1.3,0.4-1.5,1.1C18.7,22.6,19,23,19.6,23c0.8-0.1,1.3-0.6,1.6-1.3
	c0-0.1,0-0.2,0-0.3C20.9,21,20.6,21,20.3,21z M53.5,26.6l-0.1-0.1c-0.6,0.4-1.2,0.8-1.7,1.2c-0.1,0.1-0.2,0.3-0.3,0.4
	c-0.1,0.5,0.1,1,0.4,1.1c0.3,0.1,0.7,0,1-0.5C53.3,28.1,53.4,27.3,53.5,26.6z"/>
<path class="st0" d="M130.7,22.8c0.9-0.5,1.8-0.9,2.1-2c0-0.1,0.1-0.2,0.2-0.3c0.2-0.1,0.4-0.2,0.5-0.2c0.2,0,0.4,0.2,0.4,0.4
	c0.1,0.5-0.1,1-0.4,1.4c-0.3,0.4-0.6,0.7-0.9,1c-0.5,0.5-1.1,0.9-1.6,1.3c-0.1,0.1-0.2,0.2-0.2,0.4c-0.1,1-0.2,2-0.6,3
	c-0.3,0.7-0.7,1.3-1.3,1.7c-0.7,0.5-1.5,0.5-2.2,0c-0.4-0.3-0.7-0.6-1-0.9c-0.3-0.4-0.3-0.9-0.2-1.3c0.3-1.1,0.9-2.1,1.9-2.7
	c0.5-0.3,1-0.6,1.5-0.8c0.2-0.1,0.2-0.2,0.2-0.4c0-0.3,0-0.7,0-1.1c-1.1,0.9-2.1,0.8-3.1,0.1c0,0-0.1,0.1-0.2,0.2
	c-1,1.1-2.3,1.5-3.7,1.3c-0.6-0.1-1.1-0.6-1.4-1.1c-0.8,0.9-1.8,1.4-3,1.1c-1.1-0.3-1.7-1-1.9-2.5c-0.6,0.1-1.1,0.2-1.7,0.3
	c-0.6,1.7-3.1,2.4-4.7,1.9c-1.3-0.4-2-2-1.5-3.4c0.7-1.7,3.3-3.1,5.5-1.3c0.2,0.1,0.3,0.3,0.4,0.5c0.4,0.8,1.7,1,2.3,0.3
	c0.5-0.6,1-1.1,1.8-1.3c0.8-0.2,1.7-0.2,2.5,0c0.1,0,0.2,0,0.2,0.1c0,0,0,0,0.1,0c0-0.3,0-0.6,0-0.9c0-1.2,0.1-2.4,0.4-3.6
	c0.1-0.4,0.3-0.7,0.4-1c0.1-0.2,0.3-0.4,0.5-0.5c0.6-0.3,1.1-0.1,1.1,0.5c0.1,0.7,0.1,1.5,0,2.2c-0.2,1.2-0.5,2.3-0.7,3.5
	c-0.1,0.8-0.2,1.6-0.2,2.3c0,1.1,0.8,1.6,1.8,1.2c0.8-0.3,1.1-1,1.2-1.8c0.1-0.7,0.2-1.3,0.3-1.9c0.1-0.5,0.4-0.6,0.9-0.4
	c0.6,0.3,0.8,0.7,0.7,1.2s-0.1,1-0.1,1.5c0,0.3,0.1,0.5,0.4,0.6c0.3,0.1,0.6,0,0.7-0.3c0.2-0.3,0.4-0.6,0.5-0.9
	c0.2-0.4,0.3-0.9,0.5-1.3c0.1-0.1,0.1-0.3,0.2-0.4c0.1-0.3,0.3-0.6,0.7-0.6c0.4,0,0.7,0.3,0.8,0.7c0.1,0.3,0,0.7,0,1
	c-0.1,0.9-0.2,1.9-0.3,2.8C130.7,22.5,130.7,22.6,130.7,22.8z M112.1,21.2c-0.4-0.3-0.6-0.7-0.7-1.1c0-0.2-0.2-0.3-0.4-0.3
	c-0.6,0.1-1,0.3-1.3,0.9c-0.2,0.4-0.1,0.9,0.2,1.1C110.6,22.2,111.9,21.9,112.1,21.2z M129.1,25.5c-0.3,0.2-0.5,0.3-0.7,0.4
	c-0.4,0.3-0.8,0.6-1.2,0.9s-0.2,1.1,0.1,1.4c0.3,0.2,0.8,0.1,1.1-0.4c0-0.1,0.1-0.1,0.1-0.2C128.9,26.9,129,26.2,129.1,25.5z
	 M118.6,21.9c0.9,0,1.5-0.8,1.6-1.5c0-0.1-0.1-0.1-0.1-0.2c-0.7-0.3-1.3-0.2-1.8,0.2c-0.3,0.2-0.4,0.7-0.2,1.1
	C118.1,21.9,118.4,21.9,118.6,21.9z"/>
<path class="st0" d="M96.1,13.2c-1.1,0.3-2.2,0.6-3.1,1.3c-0.1,0.1-0.4,0.1-0.6,0c-0.6-0.3-0.7-1-0.3-1.6c0.4-0.5,0.9-0.8,1.4-1.1
	c1.4-0.7,2.9-1,4.5-1.3c1.6-0.3,3.3-0.5,4.9-0.4c1,0.1,2.1,0.2,3,0.6c1.6,0.8,1.5,2.2,0.8,3.2c-0.6,0.8-1.3,1.4-2.2,2
	c-0.1,0.1-0.2,0.1-0.3,0.2c0.2,0.1,0.4,0.1,0.6,0.2c0.7,0.2,1.3,0.5,1.8,1c1,0.9,1.1,2.4,0.2,3.4c-0.6,0.8-1.5,1.4-2.4,1.8
	c-1.5,0.7-3.1,1.1-4.8,1.4c-0.5,0.1-1,0.1-1.5,0.1c-0.7,0-1.1-0.3-1.4-0.9c-0.1-0.2-0.2-0.4-0.5-0.5c-0.7-0.3-0.9-1-0.9-1.6
	c0-0.8,0.1-1.6,0.1-2.5c0.1-1.5,0.2-3.1,0.4-4.6C96,13.8,96,13.5,96.1,13.2z M101.2,18L101.2,18c-1,0.1-2,0.2-2.9,0.3
	c-0.3,0-0.3,0.2-0.3,0.4c0,0.9,0,1.8-0.1,2.6c0,0.3,0.1,0.4,0.3,0.4c0.8,0,1.5,0,2.3-0.1c1.4-0.2,2.6-0.6,3.8-1.3
	c0.3-0.2,0.6-0.5,0.8-0.8c0.2-0.3,0.2-0.6-0.1-0.8c-0.2-0.2-0.5-0.3-0.8-0.4C103.2,18.1,102.2,18,101.2,18z M98,16.2
	c0,0,0.1,0,0.1,0.1c0.7-0.2,1.4-0.4,2.1-0.6c1.3-0.4,2.6-0.9,3.7-1.6c0.3-0.2,0.5-0.4,0.7-0.7c0.2-0.3,0.1-0.5-0.2-0.6
	c-0.2-0.1-0.4-0.2-0.7-0.2c-1.7-0.3-3.3-0.1-4.9,0.2c-0.1,0-0.2,0.1-0.2,0.2C98.4,13.9,98.2,15,98,16.2z"/>
<path class="st0" d="M4.6,18.1c-0.5-0.3-1-0.5-1.4-0.8c-1.1-0.7-1.2-1.7-0.3-2.7c0.8-0.9,1.9-1.5,3-2c1.8-0.7,3.7-1,5.7-1.1
	c1-0.1,2.1,0,3.2,0c0.6,0,1.3,0.2,1.8,0.6c1,0.6,1.2,1.6,0.6,2.6c-0.6,0.9-1.6,1.2-2.7,1c-0.4-0.1-0.7-0.4-0.6-0.8
	c0-0.1,0.1-0.3,0.2-0.4c0.2-0.2,0.5-0.4,0.7-0.7c-0.3,0-0.5-0.1-0.8-0.1c-1.5-0.1-3,0.2-4.4,0.5c-1.2,0.3-2.3,0.6-3.5,1
	c-0.3,0.1-0.5,0.2-0.8,0.4C5,15.8,5,16,5.3,16.1c0.4,0.2,0.9,0.3,1.3,0.5c0.1,0,0.2,0,0.3,0.1c0.9,0.4,1.7,0.1,2.6-0.1
	c1.2-0.2,2.4-0.3,3.6-0.2c0.3,0,0.6,0.2,0.9,0.3c0.2,0.1,0.3,0.3,0.3,0.6c-0.1,0.8-0.5,1.2-1.2,1.4c-0.8,0.2-1.6,0.2-2.4,0.2
	c-0.6,0-1.1-0.1-1.7-0.1c-0.1,0-0.2,0-0.3,0c-1.4,0.6-2.9,1.2-4.1,2.1c-0.2,0.2-0.4,0.3-0.6,0.5c-0.4,0.5-0.4,1,0.1,1.3
	c0.7,0.5,1.5,0.7,2.3,0.8c1.5,0.2,3,0,4.4-0.3c1.5-0.3,3.1-0.6,4.5-1.3c0.2-0.1,0.4-0.2,0.5-0.3c0.3-0.1,0.5,0,0.6,0.3
	c0,0.6-0.3,1-0.7,1.3c-0.7,0.6-1.5,1-2.4,1.3c-2.1,0.7-4.3,1.1-6.5,1.1c-1.3,0-2.5-0.3-3.6-0.9c-1-0.5-1.7-1.3-1.8-2.4
	c-0.1-0.6,0.1-1.1,0.4-1.6c0.6-1,1.6-1.7,2.6-2.3C4.4,18.2,4.5,18.1,4.6,18.1z"/>
<path d="M136.5,24.4l0.2-6.4h2.3l1.1,3.7l1.2-3.7h2.3l0.2,6.4h-1.5l-0.2-4.2l-1.1,4.2h-1.4l-1.2-4.3l-0.1,4.3H136.5z"/>
<path d="M146.4,24.5c-0.4,0-0.7-0.1-0.9-0.2c-0.2-0.1-0.4-0.3-0.5-0.4c-0.1-0.2-0.2-0.3-0.2-0.5c0-0.3,0.1-0.5,0.3-0.7
	c0.2-0.2,0.4-0.4,0.7-0.5c0.3-0.1,0.6-0.2,0.9-0.3c0.3-0.1,0.7-0.2,1-0.2v-0.5c0-0.1,0-0.1,0-0.2c0-0.1-0.1-0.1-0.1-0.1
	c-0.1,0-0.1-0.1-0.3-0.1c-0.1,0-0.2,0-0.3,0c-0.1,0-0.1,0.1-0.1,0.1c0,0.1,0,0.1,0,0.2l0,0.3l-1.9,0c0-0.5,0.3-0.9,0.7-1.2
	c0.4-0.3,1-0.4,1.8-0.4c0.7,0,1.3,0.1,1.6,0.4c0.4,0.3,0.5,0.6,0.5,1v2.1c0,0.2,0,0.4,0,0.5c0,0.1,0,0.3,0,0.4c0,0.1,0,0.2,0.1,0.3
	H148c0-0.1-0.1-0.3-0.1-0.4c0-0.1-0.1-0.2-0.1-0.3c-0.1,0.2-0.2,0.4-0.5,0.5C147.1,24.4,146.8,24.5,146.4,24.5z M147.2,23.6
	c0.1,0,0.2,0,0.2,0c0.1,0,0.1-0.1,0.2-0.1c0.1,0,0.1-0.1,0.1-0.1v-1.2c-0.2,0.1-0.3,0.1-0.5,0.2c-0.1,0.1-0.3,0.1-0.4,0.2
	c-0.1,0.1-0.2,0.2-0.2,0.3c-0.1,0.1-0.1,0.2-0.1,0.3c0,0.2,0,0.3,0.1,0.4C146.9,23.6,147,23.6,147.2,23.6z"/>
<path d="M150.8,24.4v-4.5h2v0.8c0.2-0.3,0.5-0.5,0.7-0.6c0.2-0.1,0.5-0.2,0.8-0.2c0.1,0,0.1,0,0.2,0c0,0,0.1,0,0.1,0v1.3
	c-0.1,0-0.2,0-0.3-0.1c-0.1,0-0.2,0-0.3,0c-0.2,0-0.4,0-0.6,0.1c-0.2,0.1-0.4,0.2-0.5,0.3v3H150.8z"/>
<path d="M155.5,24.4v-6.4h2v3.5l1.7-1.7h2.2l-1.9,1.9l1.9,2.7h-2.2l-1.2-2.2l-0.5,0.4v1.7H155.5z"/>
<path d="M164.3,24.5c-0.5,0-1-0.1-1.3-0.2c-0.4-0.1-0.6-0.3-0.8-0.5c-0.2-0.2-0.3-0.5-0.3-0.8v-1.7c0-0.3,0.1-0.6,0.3-0.8
	c0.2-0.2,0.5-0.4,0.8-0.5c0.4-0.1,0.8-0.2,1.3-0.2c0.5,0,1,0.1,1.3,0.2c0.3,0.1,0.6,0.3,0.8,0.5c0.2,0.2,0.3,0.5,0.3,0.8v0.9h-2.8
	v0.9c0,0.1,0,0.2,0.1,0.3c0,0.1,0.1,0.1,0.2,0.2c0.1,0,0.2,0,0.3,0c0.1,0,0.2,0,0.3,0c0.1,0,0.1-0.1,0.2-0.1c0-0.1,0.1-0.1,0.1-0.3
	v-0.5h1.8v0.4c0,0.5-0.2,0.8-0.6,1C165.6,24.4,165.1,24.5,164.3,24.5z M163.8,21.6h1v-0.5c0-0.1,0-0.2-0.1-0.3
	c0-0.1-0.1-0.1-0.2-0.1c-0.1,0-0.2,0-0.3,0c-0.1,0-0.2,0-0.3,0c-0.1,0-0.1,0.1-0.2,0.2c0,0.1-0.1,0.2-0.1,0.3V21.6z"/>
<path d="M169.9,24.5c-0.5,0-0.9,0-1.2-0.1c-0.3-0.1-0.5-0.2-0.6-0.4c-0.1-0.2-0.2-0.4-0.2-0.7v-2.5h-0.7v-0.8h0.7V18h2v1.9h1v0.8h-1
	v2.3c0,0.1,0.1,0.2,0.2,0.3c0.1,0.1,0.3,0.1,0.4,0.1c0.1,0,0.2,0,0.3,0c0.1,0,0.2,0,0.2,0v1c-0.1,0-0.3,0-0.5,0
	S170.2,24.5,169.9,24.5z"/>
<path d="M172.1,26.9v-7h2v0.3c0.2-0.1,0.5-0.2,0.8-0.3c0.3-0.1,0.5-0.1,0.8-0.1c0.3,0,0.5,0,0.7,0.1c0.2,0.1,0.3,0.2,0.5,0.3
	c0.1,0.1,0.2,0.3,0.3,0.4c0.1,0.2,0.1,0.3,0.1,0.5v2c0,0.3-0.1,0.5-0.2,0.7s-0.3,0.4-0.5,0.5c-0.2,0.1-0.5,0.2-0.8,0.2
	c-0.3,0-0.5,0-0.8-0.1c-0.3-0.1-0.5-0.2-0.7-0.3v2.8H172.1z M174.6,23.7c0.1,0,0.2,0,0.3-0.1c0.1,0,0.1-0.1,0.2-0.2
	c0-0.1,0.1-0.2,0.1-0.3V21c0-0.1,0-0.2,0-0.2c0-0.1-0.1-0.1-0.2-0.2c-0.1,0-0.2-0.1-0.3-0.1c-0.1,0-0.2,0-0.3,0
	c-0.1,0-0.2,0.1-0.3,0.1v2.8c0.1,0,0.2,0.1,0.3,0.1C174.4,23.7,174.5,23.7,174.6,23.7z"/>
<path d="M178.3,24.4v-7.3h2v7.3H178.3z"/>
<path d="M183,24.5c-0.4,0-0.7-0.1-0.9-0.2c-0.2-0.1-0.4-0.3-0.5-0.4c-0.1-0.2-0.2-0.3-0.2-0.5c0-0.3,0.1-0.5,0.3-0.7
	c0.2-0.2,0.4-0.4,0.7-0.5c0.3-0.1,0.6-0.2,0.9-0.3c0.3-0.1,0.7-0.2,1-0.2v-0.5c0-0.1,0-0.1,0-0.2c0-0.1-0.1-0.1-0.1-0.1
	c-0.1,0-0.1-0.1-0.3-0.1c-0.1,0-0.2,0-0.3,0c-0.1,0-0.1,0.1-0.1,0.1c0,0.1,0,0.1,0,0.2l0,0.3l-1.9,0c0-0.5,0.3-0.9,0.7-1.2
	c0.4-0.3,1-0.4,1.8-0.4c0.7,0,1.3,0.1,1.6,0.4c0.4,0.3,0.5,0.6,0.5,1v2.1c0,0.2,0,0.4,0,0.5c0,0.1,0,0.3,0,0.4s0,0.2,0.1,0.3h-1.8
	c0-0.1-0.1-0.3-0.1-0.4c0-0.1-0.1-0.2-0.1-0.3c-0.1,0.2-0.2,0.4-0.5,0.5C183.7,24.4,183.4,24.5,183,24.5z M183.7,23.6
	c0.1,0,0.2,0,0.2,0c0.1,0,0.1-0.1,0.2-0.1c0.1,0,0.1-0.1,0.1-0.1v-1.2c-0.2,0.1-0.3,0.1-0.5,0.2c-0.1,0.1-0.3,0.1-0.4,0.2
	c-0.1,0.1-0.2,0.2-0.2,0.3c-0.1,0.1-0.1,0.2-0.1,0.3c0,0.2,0,0.3,0.1,0.4C183.4,23.6,183.6,23.6,183.7,23.6z"/>
<path d="M189.7,24.5c-0.5,0-1-0.1-1.3-0.2c-0.4-0.1-0.6-0.3-0.8-0.5c-0.2-0.2-0.3-0.5-0.3-0.8v-1.7c0-0.3,0.1-0.6,0.3-0.8
	c0.2-0.2,0.5-0.4,0.8-0.5s0.8-0.2,1.3-0.2c0.5,0,0.9,0.1,1.3,0.1c0.4,0.1,0.6,0.3,0.8,0.5c0.2,0.2,0.3,0.5,0.3,0.8v0.5h-1.9v-0.5
	c0-0.1,0-0.2-0.1-0.3c0-0.1-0.1-0.1-0.2-0.1c-0.1,0-0.2,0-0.2,0c-0.1,0-0.2,0-0.2,0.1c-0.1,0-0.1,0.1-0.1,0.2c0,0.1,0,0.2,0,0.3v1.9
	c0,0.2,0,0.3,0.1,0.4c0.1,0.1,0.2,0.1,0.3,0.1c0.1,0,0.2,0,0.3,0s0.1-0.1,0.1-0.1c0-0.1,0-0.2,0-0.3v-0.6h1.9v0.6
	c0,0.3-0.1,0.6-0.3,0.8c-0.2,0.2-0.5,0.4-0.8,0.5C190.6,24.5,190.2,24.5,189.7,24.5z"/>
<path d="M195.4,24.5c-0.5,0-1-0.1-1.3-0.2c-0.4-0.1-0.6-0.3-0.8-0.5c-0.2-0.2-0.3-0.5-0.3-0.8v-1.7c0-0.3,0.1-0.6,0.3-0.8
	c0.2-0.2,0.5-0.4,0.8-0.5c0.4-0.1,0.8-0.2,1.3-0.2c0.5,0,1,0.1,1.3,0.2c0.3,0.1,0.6,0.3,0.8,0.5c0.2,0.2,0.3,0.5,0.3,0.8v0.9h-2.8
	v0.9c0,0.1,0,0.2,0.1,0.3c0,0.1,0.1,0.1,0.2,0.2c0.1,0,0.2,0,0.3,0c0.1,0,0.2,0,0.3,0c0.1,0,0.1-0.1,0.2-0.1c0-0.1,0.1-0.1,0.1-0.3
	v-0.5h1.8v0.4c0,0.5-0.2,0.8-0.6,1C196.7,24.4,196.1,24.5,195.4,24.5z M194.9,21.6h1v-0.5c0-0.1,0-0.2-0.1-0.3
	c0-0.1-0.1-0.1-0.2-0.1c-0.1,0-0.2,0-0.3,0c-0.1,0-0.2,0-0.3,0c-0.1,0-0.1,0.1-0.2,0.2c0,0.1-0.1,0.2-0.1,0.3V21.6z"/>
</svg>
