<?xml version="1.0" encoding="utf-8"?>
<!-- Generator: Adobe Illustrator 23.0.1, SVG Export Plug-In . SVG Version: 6.00 Build 0)  -->
<svg version="1.1" id="Layer_1" xmlns="http://www.w3.org/2000/svg" xmlns:xlink="http://www.w3.org/1999/xlink" x="0px" y="0px"
	 viewBox="0 0 220.5 60" style="enable-background:new 0 0 220.5 60;" xml:space="preserve">
<style type="text/css">
	.st0{fill:#FFFFFF;}
</style>
<path class="st0" d="M3,30.2c0-3.6,0-7.3,0-10.9c0-1.3,0.3-2.1,1.5-2.8c6.4-3.6,12.7-7.3,19-11c1.1-0.7,1.9-0.5,2.9,0.1
	c6.3,3.7,12.5,7.3,18.8,10.9c1.2,0.7,1.7,1.5,1.7,2.9c-0.1,7.2-0.1,14.4,0,21.5c0,1.4-0.5,2.2-1.7,2.9c-6.3,3.6-12.5,7.3-18.9,10.8
	c-0.7,0.4-2.1,0.4-2.9,0c-6.4-3.6-12.7-7.2-19-11c-0.7-0.4-1.3-1.6-1.4-2.5C3,37.4,3,33.8,3,30.2z M16.5,40.1
	c0.3,0.4,0.6,0.8,0.9,1.1c1.3-0.4,2.7-0.7,3.8-1.3c1.2-0.7,2.2-1.8,3.6-2.9c0,1.7,0,3.1,0,4.6c0.2,0,0.3,0,0.5,0c0-1.5,0-3,0-5
	c2.3,2.7,4.4,4.6,7.6,4.3c0.2-0.3,0.5-0.6,0.7-0.8c-1.5-1.3-3-2.6-4.4-3.8c3.5,0.3,7,0,10.6-2.5c-2.1-0.4-3.6-0.9-5.2-1.1
	c-1.6-0.2-3.1,0-4.8,0c4.6-2.4,8.1-5.7,10.4-10.9C34.3,23.4,30,26.4,26.6,31c1.4-5.6,1.1-10.9-1.6-16.3c-2.7,5.6-2.9,11-1.4,16.7
	c-3.4-4.9-7.8-8-13.8-9.5c2.3,5.1,5.9,8.4,10.3,11c-3.3-0.5-6.4-0.4-9.4,1c0,0.3-0.1,0.6-0.1,0.9c3.5,0.6,7,1.3,9.2,1.7
	C19.2,37.3,17.8,38.7,16.5,40.1z"/>
<g>
	<path class="st0" d="M58.4,14.4h22.6v1.8H63v13h16.7v1.8H63v13.7h18.5v1.8H58.4V14.4z"/>
	<path class="st0" d="M105.2,40.3L117,14.6v-0.2h4.6v32H117V19.1l-11.7,26h-2.8L90.2,19.1v27.3h-1.8v-32h4.8L105.2,40.3z"/>
	<path class="st0" d="M130.5,14.4h22.6v1.8h-18.1v13h16.7v1.8h-16.7v13.7h18.5v1.8h-23.1V14.4z"/>
	<path class="st0" d="M160.4,14.4h11c7,0,11.7,3.3,11.7,8.9c0,4.6-3.1,7.6-8,8.5l9.7,14.5h-4.9l-9.5-14.2H165v14.2h-4.6V14.4z
		 M165,16.2v14.3h5.3c4.9,0,8.1-2.5,8.1-7.1c0-4.6-3.2-7.2-8.1-7.2H165z"/>
	<path class="st0" d="M209.4,36.8H194l-4.3,9.6h-2.3l14.1-32h2.5l14.9,32h-5.2L209.4,36.8z M194.8,35.1h13.9l-6.9-15.4L194.8,35.1z"
		/>
</g>
</svg>
