<?xml version="1.0" encoding="utf-8"?>
<!-- Generator: Adobe Illustrator 23.0.1, SVG Export Plug-In . SVG Version: 6.00 Build 0)  -->
<svg version="1.1" id="Layer_1" xmlns="http://www.w3.org/2000/svg" xmlns:xlink="http://www.w3.org/1999/xlink" x="0px" y="0px"
	 viewBox="0 0 301.4 60" style="enable-background:new 0 0 301.4 60;" xml:space="preserve">
<style type="text/css">
	.st0{fill:#FFFFFF;}
</style>
<g>
	<path class="st0" d="M28.2,54.9C14.3,54.8,3.2,43.6,3.3,29.8C3.4,16.2,14.7,5,28.2,5.1C42.8,5.2,53.5,17,53.1,30.7
		C52.7,44.1,41.8,54.9,28.2,54.9z M32.2,31.1L32.2,31.1c-0.2,0.4,0.6,0.6,0.1,1c0,0,0,0,0,0.1c0,0,0,0,0,0c0.3-0.3,0.2-0.7,0.4-1
		c0.9,0.1,1.8-0.1,2.5-0.7c0.2-0.1,0.4-0.1,0.4-0.4c-0.3,0-0.6,0-0.9,0.1c-0.3-0.1-0.6,0.1-0.8-0.2c0.9-0.6,1.2-1.5,1.7-2.6
		c-1.3,0.5-1.9,1.3-2.6,2.2c0-0.7,0-1.2,0-1.7c0.2-0.4,0.2-0.7,0-1.1c0-0.4,0.1-0.9-0.4-1.1c-0.3,0.6-0.4,1.2-0.5,1.9
		c0,0.1,0,0.1,0,0.2c0,0.2,0,0.3-0.1,0.5C32.1,28.5,32,28.7,32,29c-0.8-0.4-0.9-1.7-2.1-1.7c0.4,1.1,0.9,2,1.6,3
		c-0.7-0.3-1.2-0.4-1.7-0.3c-0.1,0-0.3,0-0.4-0.1c0.1,0.1,0.2,0.1,0.3,0.2c0.6,0.6,1.2,0.8,2,0.6C31.8,31,31.9,31.1,32.2,31.1z
		 M23.2,46.9c-0.1-0.2,0.1-0.5-0.2-0.6c-0.2-0.1-0.3,0.2-0.5,0.3c-0.2,0.2-0.3,0.4-0.5,0.5c-0.3,0.3-0.8,0.5-1,1
		c0.5,0.3,0.7-0.3,1-0.2c0.4,0.2,1,0.2,1.2,0.9c0.2-0.6,0.1-1.2,0.1-1.7C23.4,47,23.3,46.9,23.2,46.9z M19.1,24.5
		c0.1,0.1,0.1,0.2,0.2,0.3l0,0c0.3,0.3,0.6,0.6,1,0.9c-0.1,0.1-0.1,0.3-0.2,0.4c-0.6,0.1-1.2,0.2-1.9,0.3c1.1,0.6,2.3,0.4,3.4,0.4
		c0.6,0.1,0.9,0.4,0.9,1c0,0.3-0.1,0.7,0.3,0.9c0.3-0.7-0.1-1.3-0.1-2c0.4,0.1,0.8,0.2,1.2,0.2c0.4,0.3,0.7,0.2,1.2,0.1
		c-0.2-0.4-0.5-0.4-0.8-0.4c-0.2-0.3-0.7-0.1-1-0.4c1.4,0,2.3-0.6,3.1-1.7c-0.9-0.2-1.6,0.6-2.5,0.6c1.2-1.3,1.8-2.8,1.5-4
		c-1.2,1-2.1,2.2-2.6,3.7c-0.1-1.8-0.5-3.4-1.6-5c-0.1,0.8-0.3,1.5-0.1,2.1c0,0.1,0,0.3,0,0.4c0,0,0,0.1,0,0.1
		c0,0.1,0.1,0.1,0.1,0.1c0,0.2,0,0.4,0,0.6c-0.1,0.6,0.2,1,0.3,1.5c-0.1,0.1-0.2,0.1-0.3,0.2c0-0.3-0.2-0.5-0.5-0.6
		c-0.4-0.5-0.9-0.8-1.5-1.1c-0.4-0.1-0.7-0.3-1.1-0.4c-0.1,0-0.1,0-0.2,0c0.1,0.1,0.1,0.1,0.2,0.2c0.1,0.5,0.6,0.8,0.9,1.1
		C19,24.4,19.1,24.5,19.1,24.5z M23.6,33.1c0,0.3,1.2,2.9,2,4c-0.5-1.2-1.7-4.1-1.8-4.3c-0.3-1.2-0.5-2.4-0.8-3.6
		c-0.1,0-0.2,0-0.3,0.1C22.8,30.6,23.2,31.8,23.6,33.1z M14.4,41.5c0.3-0.2,0.4-0.5,0.5-0.8c0.2-0.3,0-0.6-0.4-0.5
		c-0.7,0.2-1.5,0.1-2.1,0.7c0.9,0.3,1.4,0.7,1.1,1.8C14.1,42.4,14.3,42,14.4,41.5L14.4,41.5z M32.6,47.4c0-0.4-0.1-0.8-0.5-1
		c-0.5-0.2-0.4,0.3-0.6,0.6c-0.6,0.2-0.9,0.7-0.9,1.3c0,0.5,0.3,0.9,0.8,1.1c0.6,0.3,1.7-0.1,1.7-0.7C33.3,48.2,33.6,47.4,32.6,47.4
		z M29.6,47.1c-1.6,0-1.6,0-1.5,1.6c0,0.1,0,0.1,0,0.2c0.1,0.3-0.2,0.7,0.3,0.8c0.6,0,1.2,0.2,1.6-0.2c0.3-0.3,0.3-0.6,0.1-0.9
		C29.9,48.1,30.4,47.4,29.6,47.1z M21.6,38.9c3.1,3.1,10.1,3.5,13.7,0.2C30.8,37.7,26.2,37.4,21.6,38.9z M39.3,30.9
		c0-3.9-2.1-7.5-5.5-9.4c-1.7-0.9-3.4-1.4-5.3-1.4c-0.3,0-0.6,0-0.6,0.4c0,0.2-0.1,0.5,0.2,0.5c0.3,0,0.5,0,0.8,0
		c6.5,0.2,11,6.4,9.2,12.7c-0.3,0.9-0.6,1.8-1.2,2.6c-0.3,0.4-0.2,0.7,0.1,1c0.4,0.3,0.5-0.3,0.6-0.5C38.8,35,39.3,33.1,39.3,30.9z
		 M19.9,37.5c0.4-0.5,0.5-0.8,0.2-1.2c-1.3-2.1-1.8-4.5-1.4-7c0.1-0.4,0.1-0.6-0.4-0.7c-0.5-0.1-0.4,0.3-0.5,0.5
		C17.4,32.2,18.1,34.9,19.9,37.5z M23.7,13.3c0.2,0.8,0.4,1.3,0.5,1.8c0.1,0.2,0.2,0.4,0.4,0.3c0.2-0.1,0.2-0.3,0.1-0.5
		c-0.2-0.8-0.4-1.5-0.7-2.3c-0.1-0.2,0-0.5-0.4-0.4c-0.2,0-0.3,0.2-0.4,0.4c-0.2,0.4-0.2,1-0.5,1.4c-0.4-0.3-0.8-0.7-1.2-1
		c-0.2-0.1-0.3-0.1-0.5,0c-0.2,0.1-0.2,0.3-0.1,0.5c0.2,0.8,0.4,1.5,0.7,2.3c0.1,0.2,0.1,0.5,0.4,0.3c0.3-0.1,0.1-0.4,0.1-0.6
		c-0.2-0.5-0.3-1-0.5-1.5c0.7,0.1,0.9,0.7,1.4,0.9C23.3,14.4,23.5,14,23.7,13.3z M42.1,17.8c-0.1-0.9-0.7-1.5-1.4-1.8
		c-0.5-0.3-0.7,0.5-1,0.8c-0.1,0.1-0.2,0.3-0.4,0.4c-0.9,1.1-0.8,1.6,0.5,2.2C40.9,19.9,42.1,19,42.1,17.8z M36.4,13.5
		c-0.8-0.3-1.5-0.8-2.2-0.7c-0.5,0-0.4,0.9-0.7,1.4c-0.1,0.2-0.1,0.4-0.2,0.6c-0.4,0.7-0.2,1.1,0.6,1.3c0.5,0.1,1.2,0.7,1.3,0.2
		c0.2-0.4-0.7-0.4-1.1-0.6c-0.3-0.1-0.4-0.3-0.3-0.7c0.1-0.4,0.3-0.3,0.7-0.2c0.4,0.1,0.7,0.5,1.2,0.1c-0.1-0.4-0.5-0.3-0.7-0.5
		c-0.3-0.2-0.9-0.1-0.7-0.7c0.2-0.7,0.6-0.2,0.9-0.2C35.5,13.5,35.8,13.9,36.4,13.5z M21.1,16.2c-0.2,0-0.3,0.1-0.5,0.1
		c-0.5,0-0.9,1.1-1.4,0.3c-0.6-0.9,0.6-0.7,0.9-1.1c0.1-0.1,0.3-0.2,0.2-0.4c-0.1-0.1-0.3-0.1-0.4,0c-0.2,0.1-0.4,0.2-0.6,0.3
		c-0.3,0.1-0.5,0.4-0.8-0.1c-0.3-0.5,0.1-0.6,0.3-0.7c0.3-0.2,1.2-0.4,0.9-0.7c-0.3-0.5-0.8,0.2-1.2,0.4c-0.2,0.1-0.4,0.2-0.6,0.3
		c-0.2,0.1-0.4,0.2-0.2,0.5c0.4,0.8,0.8,1.6,1.3,2.4c0.1,0.2,0.2,0.2,0.4,0.1C20,17.2,20.7,17,21.1,16.2z M17.2,17.3
		c0.2,0.2,0.3,0.4,0.5,0.5c0.2,0.1,0.3,0.7,0.6,0.4c0.4-0.3-0.1-0.5-0.3-0.7c-0.3-0.5-0.7-1-1.1-1.4c-0.2-0.2-0.3-0.6-0.6-0.3
		c-0.3,0.3,0,0.5,0.2,0.6c0.5,0.4,0.4,0.7-0.1,1.1c-0.6,0.6-1,0.4-1.3-0.2c-0.1-0.2-0.3-0.3-0.5-0.1c-0.2,0.2,0,0.3,0.1,0.4
		c0.4,0.6,0.9,1.1,1.4,1.7c0.2,0.2,0.2,0.7,0.6,0.4c0.3-0.3-0.1-0.5-0.2-0.7c-0.1-0.2-0.5-0.4-0.2-0.7
		C16.5,17.9,16.8,17.6,17.2,17.3z M38.2,17.9c-0.5-0.7-1-0.8-1.4-1c-0.2-0.2-0.4-0.3-0.2-0.6c0.2-0.3,0.3-0.5,0.7-0.2
		c0.3,0.2,0.7,0.5,1.2,0.5c0-0.7-0.6-0.6-0.9-0.9c-0.2-0.2-0.5-0.3-0.2-0.6c0.2-0.3,0.4-0.3,0.7-0.2c0.4,0.2,0.7,0.6,1.4,0.5
		c-0.6-0.7-1.3-0.9-1.9-1.3c-0.2-0.1-0.3,0-0.3,0.1c-0.4,0.8-0.9,1.5-1.3,2.3c-0.1,0.1-0.1,0.3,0.1,0.4
		C36.6,17.2,37.2,17.7,38.2,17.9z M31.3,15.4c0.6,0,1-0.2,1.2-0.7c0.1-0.5,0-0.8-0.5-1.1c-0.2-0.1-0.4-0.2-0.6-0.3
		c-0.2-0.1-0.6-0.3-0.4-0.6c0.2-0.3,0.5-0.2,0.8-0.1c0.1,0,0.3,0.1,0.4,0.2c0.2,0.1,0.4,0.1,0.5-0.1c0.1-0.2-0.1-0.3-0.3-0.4
		c-0.6-0.4-1.3-0.6-1.8,0.2c-0.5,0.8,0.1,1.1,0.7,1.5c0.3,0.2,0.9,0.2,0.6,0.8c-0.2,0.4-0.6,0.2-1,0.1c-0.3-0.1-0.5-0.7-0.8-0.2
		c-0.2,0.4,0.3,0.5,0.6,0.7C30.9,15.3,31.1,15.4,31.3,15.4z M25.5,13.3c0,0.5,0.1,0.9,0.1,1.4c0,0.2,0,0.6,0.4,0.5
		c0.3,0,0.2-0.3,0.2-0.5c0-0.3,0-0.5,0.4-0.6c0.8-0.1,1.6-0.3,1.4-1.3c-0.2-1-1-0.8-1.8-0.8C24.8,11.9,25.7,12.9,25.5,13.3z
		 M12.3,37.8c-0.1,0.8-0.8,1.4-0.8,2.4c0.9-0.5,1.7-0.8,2.4-1.4c-0.7-0.3-1,0.5-1.6,0.3c0-0.6,0.4-1,0.6-1.6
		c0.1-0.2,0.2-0.7-0.3-0.5c-0.7,0.3-1.5,0.6-2.2,1.3C11.3,38.5,11.7,37.9,12.3,37.8z M34.9,46c-0.4,0.2-1.1,0-1.4,0.6
		c-0.1,0.3,1,2.2,1.2,2.2c0.8,0,1.7-0.8,1.6-1.6C36.3,46.5,35.8,46.1,34.9,46z M43.1,43.6c-0.4-1.4,0.5-1.7,1.5-1.9
		c-1-0.2-2.1-1.2-2.7-0.6C41.5,41.6,42.6,42.7,43.1,43.6z M20.3,47.9c0-0.6-0.1-1,0.6-1.3c0.5-0.2,0.5-0.8,0-1.2
		c-0.4-0.3-1-0.9-1.3-0.5c-0.5,0.5-0.9,1.3-1.1,2.4C20.3,45.3,19.6,47.8,20.3,47.9z M46.1,39.2c-0.5,0-1-0.1-1.2-0.7
		c-0.2-0.4-0.8-0.5-1.1-0.1c-0.3,0.4-1,0.9-0.6,1.3c0.5,0.6,1.3,1,2.5,1.3C43.3,38.9,46.4,40,46.1,39.2z M19,44.3
		c-0.5,0.1-0.7,0.6-1,0.9c-0.3,0.4-0.7,0.6-1.1,0.2c-0.4-0.3-0.3-0.7,0-1c0.3-0.4,0.7-0.7,0.6-1.3c-0.5,0.6-1.3,1-1.3,2
		c0,0.5,0.5,0.9,1,0.9C18.4,46.1,18.6,45.1,19,44.3z M46.1,36.3c-0.6,0-0.2,1.2-1,0.9c-0.7-0.2,0.3-0.8-0.3-1.1
		c-0.1,0.5-0.7,0.9-0.3,1.3c0.6,0.4,1.4,0.8,2.1,0.8c0.4,0,0.7-0.9,0.6-1.6c-0.4,0.1-0.4,0.5-0.5,0.7c-0.1,0.2-0.1,0.5-0.5,0.4
		c-0.4-0.2-0.3-0.4-0.2-0.7C46,36.8,46.3,36.6,46.1,36.3z M42.2,43.9c-0.4,0.4-0.7,1-1.5,0.8c-0.4-0.1-0.6-0.4-0.7-0.7
		c-0.1-0.7,0.3-1,0.9-1.1c0.2,0,0.2-0.2,0.1-0.3c-0.1-0.2-0.3-0.1-0.4,0c-0.7,0.3-1.1,0.7-1,1.5c0.1,0.7,0.5,1.2,1.3,1.2
		C41.7,45.2,42.1,44.7,42.2,43.9z M37.4,45.9c-0.5,0.1-0.8-0.7-1.5-0.2c0.9,0.5,1.7,0.9,2.4,1.7c-0.6-0.9-0.2-1.9-0.2-2.9
		C37.3,44.9,37.7,45.5,37.4,45.9z M24.9,46.6c-1.1,2.3-0.9,2.8,0.9,2.9c0.1-0.8-1.2-0.1-1-1C24.9,48,25.3,47.4,24.9,46.6z
		 M15.4,41.4c1.2,1.4-0.8,1.5-0.8,2.5c0.8-0.2,1-1.1,1.7-1.3c0.6-0.2,0.3-0.4,0.1-0.6C16.1,41.8,16,41.4,15.4,41.4z M31.7,34.7
		c-0.3,0.8-0.5,1.6-0.8,2.4c0.1,0,0.2,0.1,0.3,0.1C31.5,36.4,31.9,35.7,31.7,34.7z"/>
	<path class="st0" d="M43.3,16.3c0-0.8-0.4-1.5-1-1.3c-0.8,0.2-1.4,1-1.6,1.7c-0.1,0.5,0.7,0.9,1.2,0.9
		C42.8,17.5,43.2,17.1,43.3,16.3z"/>
	<path class="st0" d="M26.4,10c-0.3,0.1-0.8-0.2-0.7,0.6c0.1,0.4,0,1,0.7,0.9c0.4-0.1,0.9-0.1,1-0.7C27.4,10.1,27,10,26.4,10z"/>
	<path class="st0" d="M19.8,48.1c-0.1-0.5-0.5-0.7-0.8-0.7c-0.4-0.1-0.6,0.4-0.6,0.6c0,0.5,0.5,0.5,0.9,0.6
		C19.6,48.7,19.8,48.4,19.8,48.1z"/>
	<path class="st0" d="M21.4,25.9c-0.1,0-0.3,0.1-0.4,0.1c-0.6-0.2-1.3-0.4-1.9-0.4c0.1-0.1,0.2-0.3,0.3-0.4c0.6-0.2,1.2,0.6,1.9,0.1
		C21.5,25,21.4,25.6,21.4,25.9z"/>
	<path class="st0" d="M31.5,40c0.2,0.5,0.1,1-0.3,1.4C30.7,40.9,31.3,40.5,31.5,40z"/>
	<path class="st0" d="M29.7,40.7c0.3,0.2,0.4-0.6,0.8-0.2c0.1,0.1,0.1,0.4,0,0.4C30.2,41.2,29.9,40.6,29.7,40.7z"/>
	<path class="st0" d="M29.2,51.2c0.4,0,0.7,0,0.7,0.4c0,0.5-0.5,0.4-0.8,0.4c-0.3,0-0.6-0.1-0.5-0.5C28.6,51,29,51.2,29.2,51.2z"/>
	<path class="st0" d="M35.8,48.7c0.7,0,1.1,0.4,1.1,1.1c0,0.7-0.5,1.1-1,1c-0.8-0.1-0.7-1-0.9-1.5C34.9,48.6,35.6,48.8,35.8,48.7z"
		/>
	<path class="st0" d="M46.9,40.4c-0.2,0.3-0.1,0.8-0.7,0.7c-0.2,0-0.7-0.2-0.5-0.6c0.1-0.4,0.3-0.8,0.8-0.8
		C46.8,39.7,47,40,46.9,40.4z"/>
	<path class="st0" d="M12.6,43.1c-0.6,0.3-0.6-0.2-0.7-0.5c-0.1-0.2,0-0.4,0.3-0.4C12.7,42.2,12.4,42.8,12.6,43.1
		C12.6,43.1,12.6,43.1,12.6,43.1z"/>
</g>
<g>
	<path class="st0" d="M64.3,14.5v13.6h15.2V14.5h3.9v30.9h-3.9v-14H64.3v14h-3.9V14.5H64.3z"/>
	<path class="st0" d="M93.2,14.5h19v3.3H97.1v10.4h14.3v3.3H97.1v10.5h15.1v3.4h-19V14.5z"/>
	<path class="st0" d="M126.5,14.5l10.4,20.9l10.3-20.9h5.5v30.9h-3.9V20l-10.6,21.5h-2.6l-10.8-21.9v25.8h-3.9V14.5H126.5z"/>
	<path class="st0" d="M180.3,17.1c1.8,1.7,2.7,4,2.7,7c0,2.9-0.9,5.2-2.7,6.9c-1.8,1.7-4.4,2.5-7.8,2.5h-6.1v11.9h-3.9V14.5h10
		C175.9,14.5,178.5,15.4,180.3,17.1z M172.5,30.2c2.1,0,3.7-0.5,4.8-1.6c1.1-1.1,1.6-2.6,1.6-4.4c0-1.9-0.5-3.4-1.6-4.5
		c-1.1-1.1-2.7-1.7-4.8-1.7h-6.1v12.3H172.5z"/>
	<path class="st0" d="M206.3,22.1c-0.6-3-2.8-4.5-6.6-4.5c-2.1,0-3.7,0.5-4.8,1.4c-1.1,0.9-1.7,2-1.7,3.2c0,1.3,0.3,2.2,1,2.9
		c0.7,0.7,1.8,1.2,3.3,1.7l6.4,2.2c2.2,0.8,3.9,1.8,5.2,3.1c1.3,1.3,1.9,3.2,1.9,5.5c0,2.4-1,4.4-3,6c-2,1.6-4.8,2.4-8.2,2.4
		c-3.4,0-6.2-0.9-8.4-2.6c-2.2-1.7-3.3-4.1-3.4-7.3h3.8c0,2,0.7,3.6,2.1,4.7c1.4,1.1,3.3,1.6,5.5,1.6c2.2,0,4-0.5,5.3-1.5
		c1.3-1,2-2.2,2-3.5c0-1.4-0.4-2.4-1.2-3.2c-0.8-0.8-2-1.4-3.6-2l-5.5-2c-2.6-0.9-4.5-1.9-5.8-3c-1.3-1.2-2-2.9-2-5.2
		c0-2.3,0.9-4.2,2.8-5.7c1.8-1.5,4.4-2.3,7.7-2.3s5.8,0.7,7.6,2.2c1.8,1.5,2.8,3.4,3,5.9H206.3z"/>
	<path class="st0" d="M219.5,14.5h19v3.3h-15.1v10.4h14.3v3.3h-14.3v10.5h15.1v3.4h-19V14.5z"/>
	<path class="st0" d="M247.1,14.5h19v3.3H251v10.4h14.3v3.3H251v10.5h15.1v3.4h-19V14.5z"/>
	<path class="st0" d="M283.9,14.5c4.7,0,8.4,1.4,11.2,4.2s4.2,6.6,4.2,11.3c0,4.7-1.4,8.5-4.2,11.3s-6.5,4.2-11.2,4.2h-9.1V14.5
		H283.9z M278.7,42.1h5.2c3.4,0,6.2-1.1,8.2-3.4c2-2.3,3-5.2,3-8.7c0-3.5-1-6.4-3.1-8.6c-2-2.2-4.8-3.4-8.2-3.4h-5.2V42.1z"/>
</g>
</svg>
