<svg id="Layer_1" data-name="Layer 1" xmlns="http://www.w3.org/2000/svg" viewBox="0 0 139.35 42"><defs><style>.cls-1{fill:#fff;}</style></defs><title>home_icon_white</title><path class="cls-1" d="M44.47,35.59V8H51.8v11.2h5.12V8h7.37V35.59H56.92V23.51H51.8V35.59Z"/><path class="cls-1" d="M78.82,36a13.2,13.2,0,0,1-5.89-1.09,6.49,6.49,0,0,1-3.11-3.14,11.57,11.57,0,0,1-.95-4.88V16.62a11.42,11.42,0,0,1,.95-4.88,6.44,6.44,0,0,1,3.11-3.09,13.51,13.51,0,0,1,5.89-1.07,13.82,13.82,0,0,1,6,1.07,6.48,6.48,0,0,1,3.13,3.09,11.42,11.42,0,0,1,.94,4.88V26.89a11.58,11.58,0,0,1-.94,4.88,6.54,6.54,0,0,1-3.13,3.14A13.5,13.5,0,0,1,78.82,36Zm0-4.33a2.44,2.44,0,0,0,1.68-.48A2.24,2.24,0,0,0,81.2,30a7.1,7.1,0,0,0,.16-1.53V15.12a7,7,0,0,0-.16-1.55,2.18,2.18,0,0,0-.7-1.21,2.44,2.44,0,0,0-1.68-.48,2.29,2.29,0,0,0-1.59.48,2.18,2.18,0,0,0-.7,1.21,7,7,0,0,0-.16,1.55V28.43A7.78,7.78,0,0,0,76.51,30a2.18,2.18,0,0,0,.66,1.23A2.36,2.36,0,0,0,78.82,31.67Z"/><path class="cls-1" d="M93.19,35.59,93.77,8h7.86L105.27,24,109.2,8h7.58l.57,27.64h-5.2l-.61-18.39-3.85,18.39h-4.63L99,17.06l-.49,18.53Z"/><path class="cls-1" d="M121.65,35.59V8h14.9v4.17H129V19h5.77v4.24H129v8.25h7.65v4.13Z"/><path class="cls-1" d="M20.55,13.79,8.21,24v11A1.07,1.07,0,0,0,9.28,36l7.5,0a1.07,1.07,0,0,0,1.07-1.07V28.5a1.07,1.07,0,0,1,1.07-1.07h4.29a1.07,1.07,0,0,1,1.07,1.07v6.4A1.06,1.06,0,0,0,25.34,36h0l7.5,0a1.07,1.07,0,0,0,1.07-1.07V24L21.58,13.79a.83.83,0,0,0-1,0Zm19.5,6.91-5.59-4.62V6.8a.81.81,0,0,0-.81-.8H29.9a.8.8,0,0,0-.8.8v4.87l-6-4.93a3.21,3.21,0,0,0-4.09,0L2.07,20.7A.8.8,0,0,0,2,21.83H2l1.71,2.08A.8.8,0,0,0,4.8,24h0L20.55,11a.81.81,0,0,1,1,0L37.33,24a.81.81,0,0,0,1.13-.1h0l1.71-2.08a.8.8,0,0,0-.12-1.13Z"/></svg>