<?xml version="1.0" encoding="utf-8"?>
<!-- Generator: Adobe Illustrator 24.0.2, SVG Export Plug-In . SVG Version: 6.00 Build 0)  -->
<svg version="1.1" id="Layer_1" xmlns="http://www.w3.org/2000/svg" xmlns:xlink="http://www.w3.org/1999/xlink" x="0px" y="0px"
	 viewBox="0 0 100 100" style="enable-background:new 0 0 100 100;" xml:space="preserve">
<style type="text/css">
	.st0{fill:#613E20;}
</style>
<g>
	<path class="st0" d="M50,9.54c10.81,0,20.97,4.21,28.61,11.85S90.46,39.19,90.46,50s-4.21,20.97-11.85,28.61S60.81,90.46,50,90.46
		s-20.97-4.21-28.61-11.85S9.54,60.81,9.54,50s4.21-20.97,11.85-28.61S39.19,9.54,50,9.54 M50,8.03C26.82,8.03,8.03,26.82,8.03,50
		S26.82,91.97,50,91.97c23.18,0,41.97-18.79,41.97-41.97S73.18,8.03,50,8.03L50,8.03z"/>
	<g>
		<path class="st0" d="M40.44,59.93c2.46,2.46,5.93,4.05,9.68,4.05c3.76,0,7.23-1.52,9.68-4.05c2.46-2.46,4.05-5.93,4.05-9.68
			c0-3.76-1.52-7.23-4.05-9.68c-2.46-2.46-5.93-4.05-9.68-4.05c-3.76,0-7.23,1.52-9.68,4.05c-2.46,2.46-4.05,5.93-4.05,9.68
			C36.4,54,37.99,57.47,40.44,59.93z M43.05,43.16c1.81-1.81,4.34-2.89,7.08-2.89c2.75,0,5.28,1.08,7.08,2.89
			c1.81,1.81,2.89,4.34,2.89,7.08s-1.08,5.28-2.89,7.08c-1.81,1.81-4.34,2.89-7.08,2.89c-2.75,0-5.28-1.08-7.08-2.89
			c-1.81-1.81-2.89-4.34-2.89-7.08C40.16,47.5,41.24,44.97,43.05,43.16z"/>
		<path class="st0" d="M68.12,50.24c0,1.01,0.87,1.88,1.88,1.88h5.56c1.01,0,1.88-0.87,1.88-1.88s-0.87-1.88-1.88-1.88H70
			C68.99,48.36,68.12,49.23,68.12,50.24z"/>
		<path class="st0" d="M48.25,70.12v5.56c0,1.01,0.87,1.88,1.88,1.88c1.01,0,1.88-0.87,1.88-1.88v-5.56c0-1.01-0.87-1.88-1.88-1.88
			S48.25,69.11,48.25,70.12z"/>
		<path class="st0" d="M62.85,62.96c-0.72,0.72-0.72,1.88,0,2.6l3.97,3.97c0.72,0.72,1.88,0.72,2.6,0c0.72-0.72,0.72-1.88,0-2.6
			l-3.97-3.97C64.8,62.24,63.57,62.24,62.85,62.96z"/>
		<path class="st0" d="M50.13,32.25c1.01,0,1.88-0.87,1.88-1.88V24.8c0-1.01-0.87-1.88-1.88-1.88s-1.88,0.87-1.88,1.88v5.56
			C48.25,31.38,49.12,32.25,50.13,32.25z"/>
		<path class="st0" d="M65.52,37.52l3.97-3.97c0.72-0.72,0.72-1.88,0-2.6s-1.88-0.72-2.6,0l-3.97,3.97c-0.72,0.72-0.72,1.88,0,2.6
			C63.57,38.25,64.8,38.25,65.52,37.52z"/>
		<path class="st0" d="M24.69,52.12h5.56c1.01,0,1.88-0.87,1.88-1.88s-0.87-1.88-1.88-1.88h-5.56c-1.01,0-1.88,0.87-1.88,1.88
			C22.81,51.26,23.61,52.12,24.69,52.12z"/>
		<path class="st0" d="M34.73,62.96l-3.97,3.97c-0.72,0.72-0.72,1.88,0,2.6c0.72,0.72,1.88,0.72,2.6,0l3.97-3.97
			c0.72-0.72,0.72-1.88,0-2.6C36.69,62.24,35.46,62.24,34.73,62.96z"/>
		<path class="st0" d="M34.73,37.52c0.72,0.72,1.88,0.72,2.6,0c0.72-0.72,0.72-1.88,0-2.6l-3.97-3.97c-0.72-0.72-1.88-0.72-2.6,0
			c-0.72,0.72-0.72,1.88,0,2.6L34.73,37.52z"/>
	</g>
</g>
</svg>
