<?xml version="1.0" encoding="utf-8"?>
<!-- Generator: Adobe Illustrator 23.0.1, SVG Export Plug-In . SVG Version: 6.00 Build 0)  -->
<svg version="1.1" id="Layer_1" xmlns="http://www.w3.org/2000/svg" xmlns:xlink="http://www.w3.org/1999/xlink" x="0px" y="0px"
	 viewBox="0 0 256.7 31.9" style="enable-background:new 0 0 256.7 31.9;" xml:space="preserve">
<style type="text/css">
	.st0{fill:#A51E35;}
</style>
<g>
	<path class="st0" d="M25.2,4.3c-0.7,0.5-1.5,0.8-2.3,1c-0.8,0.2-1.8,0.3-2.9,0.3c-1.3,0-2.6-0.1-3.9-0.3c-1.3-0.2-2.5-0.4-3.7-0.6
		C11.2,4.5,10,4.4,8.8,4.4c-0.6,0-1.3,0-1.9,0.1C6.3,4.5,5.8,4.7,5.5,4.9c0.2,0.2,0.3,0.5,0.4,0.8C6,6,6,6.3,6,6.6
		C6,7,5.9,7.4,5.7,7.8C5.4,8.2,5,8.4,4.5,8.4c-0.4,0-0.8-0.1-1-0.4C3.3,7.7,3.2,7.3,3.2,6.9c0-0.4,0.1-0.8,0.3-1.2
		c0.2-0.4,0.6-0.8,1.3-1.1c0.5-0.2,1-0.4,1.5-0.5c0.5-0.1,1-0.2,1.5-0.2c0.5,0,0.8,0,1,0c1.4,0,2.7,0.1,3.9,0.3
		c1.2,0.2,2.4,0.4,3.6,0.6C17.5,4.9,18.8,5,20.2,5c1.1,0,1.9-0.1,2.7-0.2c0.7-0.2,1.4-0.5,2.2-0.9L25.2,4.3z M12.8,4.5
		c0.4,0,0.7,0.1,0.9,0.1s0.5,0.1,0.8,0.1c0.3,0,0.6,0.1,0.9,0.1L11,21.7c-0.3,1.2-0.3,1.9-0.1,2.3c0.3,0.4,1,0.6,2.3,0.6l-0.1,0.6
		c-0.5,0-1.2-0.1-2-0.1c-0.8,0-1.6,0-2.5,0s-1.7,0-2.5,0c-0.8,0-1.4,0-1.9,0.1l0.1-0.6c0.8,0,1.5-0.1,2-0.3c0.5-0.2,0.8-0.5,1.1-0.9
		c0.3-0.4,0.5-1,0.7-1.7L12.8,4.5z M24.9,1.8c0.5,0,1-0.1,1.5-0.1c0.5-0.1,0.9-0.2,1.3-0.3L21,25.2c-0.4,0-0.7,0-0.9,0
		c-0.3,0-0.5,0-0.8,0s-0.6,0-0.9,0L24.9,1.8z M21.8,20.7c0.8-2.1,1.5-3.9,2.2-5.3s1.4-2.6,2.1-3.5c0.7-0.9,1.4-1.5,2.1-1.9
		c0.7-0.4,1.5-0.6,2.2-0.6c0.9,0,1.5,0.2,1.9,0.6s0.5,1,0.5,1.7s-0.2,1.4-0.4,2.2l-2.9,8.8c-0.1,0.4-0.2,0.8-0.2,1.2
		c0,0.4,0.2,0.6,0.7,0.6c0.4,0,0.8-0.2,1.1-0.6c0.4-0.4,0.8-1.2,1.2-2.4l0.4-1.1h0.6l-0.8,2.2c-0.4,1.3-1,2.1-1.7,2.5
		c-0.7,0.4-1.3,0.6-2,0.6c-1.2,0-1.9-0.4-2-1.2c-0.1-0.8,0-1.8,0.4-3l2.8-8.6c0.1-0.4,0.2-0.7,0.3-1.1c0.1-0.4,0-0.7-0.1-1
		c-0.1-0.3-0.4-0.4-0.9-0.4c-0.8,0-1.8,0.6-2.8,1.8s-2,2.9-2.9,5s-1.8,4.6-2.6,7.4L21.8,20.7z"/>
	<path class="st0" d="M37.2,18.4c1.1-0.4,2.1-0.8,3-1.1c0.9-0.4,1.6-0.8,2.2-1.2c0.7-0.6,1.3-1.3,1.7-2.1c0.4-0.8,0.6-1.7,0.6-2.7
		c0-0.6,0-0.9-0.1-1.1c-0.1-0.2-0.2-0.2-0.4-0.2c-0.6,0-1.3,0.3-2,1c-0.7,0.7-1.4,1.6-2.1,2.7S39,16,38.5,17.4
		c-0.4,1.4-0.6,2.7-0.6,4.1c0,1,0.2,1.8,0.6,2.2c0.4,0.5,0.9,0.7,1.5,0.7c0.7,0,1.5-0.2,2.3-0.7c0.8-0.4,1.6-1.2,2.3-2.3l0.5,0.2
		c-0.4,0.7-0.9,1.3-1.5,1.9c-0.6,0.6-1.3,1.1-2.1,1.5c-0.8,0.4-1.6,0.6-2.4,0.6c-1.2,0-2.2-0.4-2.9-1.1s-1.1-1.8-1.1-3.2
		c0-0.9,0.2-1.8,0.5-2.9c0.3-1.1,0.8-2.1,1.4-3.2c0.6-1.1,1.3-2.1,2.1-3c0.8-0.9,1.7-1.6,2.7-2.2c1-0.5,2.1-0.8,3.2-0.8
		c0.6,0,1.1,0.2,1.6,0.5c0.4,0.3,0.6,0.8,0.6,1.5c0,0.8-0.2,1.5-0.7,2.2c-0.5,0.7-1.1,1.3-1.9,1.9C43.8,16,43,16.5,42.1,17
		c-0.9,0.4-1.8,0.8-2.6,1.1c-0.9,0.3-1.6,0.6-2.3,0.8L37.2,18.4z"/>
	<path class="st0" d="M78,4h1.4c0.7,0,1.4,0,2,0c0.7,0,1.2,0,1.7-0.1L83,4.5c-0.7,0-1.2,0.1-1.6,0.2c-0.4,0.1-0.7,0.4-0.9,0.7
		c-0.2,0.4-0.4,0.9-0.6,1.6L76,22c-0.3,1.1-0.3,1.8-0.1,2.1c0.2,0.3,0.8,0.5,1.8,0.5l-0.1,0.6c-0.5,0-1-0.1-1.7-0.1
		c-0.7,0-1.3,0-2,0c-0.8,0-1.5,0-2.2,0c-0.7,0-1.3,0-1.7,0.1l0.1-0.6c0.7,0,1.2-0.1,1.6-0.2c0.4-0.1,0.7-0.4,0.9-0.7
		c0.2-0.4,0.4-0.9,0.6-1.6l4.3-16.2L65.1,25.3h-0.7l-2-19.7l-4.3,16.1c-0.2,0.7-0.3,1.3-0.2,1.7c0,0.4,0.2,0.7,0.6,0.9
		c0.4,0.2,0.9,0.3,1.7,0.3L60,25.2c-0.3,0-0.8-0.1-1.4-0.1c-0.6,0-1.1,0-1.7,0c-0.5,0-1,0-1.5,0c-0.5,0-0.9,0-1.3,0.1l0.1-0.6
		c1,0,1.8-0.3,2.1-0.6c0.4-0.4,0.7-1.1,1-2.2l3.9-14.6C61.6,6,61.6,5.3,61.4,5c-0.2-0.3-0.8-0.5-1.8-0.5l0.1-0.6C60,4,60.4,4,60.9,4
		c0.5,0,1,0,1.5,0c0.5,0,0.9,0,1.4,0c0.5,0,0.9,0,1.2-0.1l1.6,17.8L78,4z"/>
	<path class="st0" d="M84.4,24.6c0.5,0,1-0.3,1.7-0.9c0.6-0.6,1.2-1.4,1.9-2.5c0.6-1,1.2-2.2,1.8-3.5c0.5-1.3,1-2.7,1.3-4.1
		l-0.5,3.2c-1.1,3.2-2.3,5.5-3.4,6.8c-1.2,1.3-2.3,2-3.5,2c-0.9,0-1.6-0.3-2.1-1S80.7,23,80.7,22c0-1,0.2-2,0.5-3.1
		c0.3-1.1,0.8-2.3,1.3-3.4c0.6-1.1,1.2-2.1,2-3.1s1.5-1.7,2.4-2.2c0.9-0.6,1.8-0.8,2.7-0.8c0.7,0,1.2,0.3,1.6,1s0.4,1.7,0.2,2.9
		L91,13.5c0.1-1.1,0.1-1.9-0.2-2.6c-0.3-0.6-0.7-1-1.4-1c-0.7,0-1.3,0.4-2.1,1.2c-0.7,0.8-1.4,1.8-2,3c-0.6,1.3-1.1,2.6-1.5,4.1
		c-0.4,1.5-0.6,2.8-0.6,4.2c0,0.9,0.1,1.5,0.3,1.8C83.8,24.5,84.1,24.6,84.4,24.6z M91.9,9.8c0.5,0,1-0.1,1.4-0.1
		c0.5-0.1,0.9-0.2,1.3-0.3L91,22.6c0,0.2-0.1,0.4-0.2,0.7c-0.1,0.3-0.1,0.6,0,0.8c0.1,0.2,0.3,0.4,0.6,0.4c0.4,0,0.8-0.2,1.2-0.7
		c0.4-0.4,0.8-1.2,1.1-2.4l0.4-1.1h0.6l-0.8,2.2c-0.4,1.2-1,2-1.6,2.5c-0.6,0.4-1.3,0.7-1.8,0.7c-0.8,0-1.3-0.3-1.6-0.8
		c-0.3-0.5-0.3-1-0.2-1.6c0.1-0.6,0.3-1.2,0.4-1.8L91.9,9.8z"/>
	<path class="st0" d="M99.7,25.2h-2.6l3.6-12.9c0.2-0.7,0.3-1.2,0.2-1.4c-0.1-0.3-0.3-0.4-0.6-0.4c-0.4,0-0.8,0.2-1.2,0.7
		c-0.4,0.5-0.7,1.3-1.1,2.4l-0.4,1.1H97l0.8-2.2c0.4-1.3,1-2.1,1.7-2.5c0.7-0.4,1.3-0.6,2-0.6c0.8,0,1.3,0.2,1.5,0.7s0.3,1,0.2,1.6
		c-0.1,0.6-0.2,1.3-0.4,1.9L99.7,25.2z M107.5,10.1c-0.5,0-0.9,0.2-1.4,0.6s-1,1-1.5,1.9s-1,1.8-1.5,2.9s-1,2.4-1.5,3.8
		c-0.5,1.4-1,2.9-1.4,4.5l0.8-3.8c0.7-2,1.3-3.6,1.8-5c0.6-1.3,1.1-2.4,1.7-3.3c0.6-0.8,1.1-1.4,1.7-1.8c0.6-0.4,1.2-0.6,1.9-0.6
		c0.6,0,1,0.2,1.3,0.5c0.3,0.3,0.5,0.7,0.5,1.2c0,0.6-0.2,1.1-0.6,1.5s-0.9,0.6-1.5,0.6c-0.3,0-0.6-0.1-0.9-0.3
		c-0.2-0.2-0.3-0.5-0.3-0.8c0-0.5,0.1-0.9,0.4-1.2c0.3-0.3,0.6-0.6,1-0.7c0,0-0.1-0.1-0.1-0.1C107.6,10.1,107.5,10.1,107.5,10.1z"/>
	<path class="st0" d="M112.5,25.2h-2.6l3.6-12.9c0.2-0.7,0.3-1.2,0.2-1.4c-0.1-0.3-0.3-0.4-0.6-0.4c-0.4,0-0.8,0.2-1.2,0.7
		c-0.4,0.5-0.7,1.3-1.1,2.4l-0.4,1.1h-0.6l0.8-2.2c0.4-1.3,1-2.1,1.7-2.5c0.7-0.4,1.3-0.6,2-0.6c0.8,0,1.3,0.2,1.5,0.7
		s0.3,1,0.2,1.6c-0.1,0.6-0.2,1.3-0.4,1.9L112.5,25.2z M120.2,10.1c-0.5,0-0.9,0.2-1.4,0.6s-1,1-1.5,1.9s-1,1.8-1.5,2.9
		s-1,2.4-1.5,3.8c-0.5,1.4-1,2.9-1.4,4.5l0.8-3.8c0.7-2,1.3-3.6,1.8-5c0.6-1.3,1.1-2.4,1.7-3.3c0.6-0.8,1.1-1.4,1.7-1.8
		c0.6-0.4,1.2-0.6,1.9-0.6c0.6,0,1,0.2,1.3,0.5c0.3,0.3,0.5,0.7,0.5,1.2c0,0.6-0.2,1.1-0.6,1.5s-0.9,0.6-1.5,0.6
		c-0.3,0-0.6-0.1-0.9-0.3c-0.2-0.2-0.3-0.5-0.3-0.8c0-0.5,0.1-0.9,0.4-1.2c0.3-0.3,0.6-0.6,1-0.7c0,0-0.1-0.1-0.1-0.1
		C120.4,10.1,120.3,10.1,120.2,10.1z"/>
	<path class="st0" d="M125,24.6c0.5,0,1-0.3,1.7-0.9c0.6-0.6,1.2-1.4,1.9-2.5c0.6-1,1.2-2.2,1.8-3.5c0.5-1.3,1-2.7,1.3-4.1l-0.5,3.2
		c-1.1,3.2-2.3,5.5-3.4,6.8c-1.2,1.3-2.3,2-3.5,2c-0.9,0-1.6-0.3-2.1-1s-0.7-1.5-0.7-2.6c0-1,0.2-2,0.5-3.1c0.3-1.1,0.8-2.3,1.3-3.4
		c0.6-1.1,1.2-2.1,2-3.1s1.5-1.7,2.4-2.2c0.9-0.6,1.8-0.8,2.7-0.8c0.7,0,1.2,0.3,1.6,1s0.4,1.7,0.2,2.9l-0.3,0.2
		c0.1-1.1,0.1-1.9-0.2-2.6c-0.3-0.6-0.7-1-1.4-1c-0.7,0-1.3,0.4-2.1,1.2c-0.7,0.8-1.4,1.8-2,3c-0.6,1.3-1.1,2.6-1.5,4.1
		c-0.4,1.5-0.6,2.8-0.6,4.2c0,0.9,0.1,1.5,0.3,1.8C124.5,24.5,124.7,24.6,125,24.6z M132.6,9.8c0.5,0,1-0.1,1.4-0.1
		c0.5-0.1,0.9-0.2,1.3-0.3l-3.8,13.3c0,0.2-0.1,0.4-0.2,0.7c-0.1,0.3-0.1,0.6,0,0.8c0.1,0.2,0.3,0.4,0.6,0.4c0.4,0,0.8-0.2,1.2-0.7
		c0.4-0.4,0.8-1.2,1.1-2.4l0.4-1.1h0.6l-0.8,2.2c-0.4,1.2-1,2-1.6,2.5c-0.6,0.4-1.3,0.7-1.8,0.7c-0.8,0-1.3-0.3-1.6-0.8
		c-0.3-0.5-0.3-1-0.2-1.6c0.1-0.6,0.3-1.2,0.4-1.8L132.6,9.8z"/>
	<path class="st0" d="M139.1,25.2h-2.6l5.9-20c0.2-0.7,0.2-1.2-0.1-1.5s-0.9-0.5-1.8-0.5l0.2-0.6c1.1,0,2.1-0.1,3-0.3
		c0.9-0.2,1.7-0.5,2.4-0.9L139.1,25.2z M146.8,23.3c-0.1,0.4-0.1,0.8,0,0.9c0.1,0.2,0.3,0.3,0.6,0.3c0.4,0,0.8-0.2,1.1-0.7
		c0.3-0.4,0.7-1.2,1.1-2.4l0.4-1.1h0.6l-0.7,2.2c-0.3,0.8-0.6,1.4-0.9,1.9c-0.4,0.4-0.8,0.8-1.2,0.9c-0.4,0.2-0.9,0.3-1.4,0.3
		c-0.6,0-1.2-0.2-1.6-0.7c-0.4-0.5-0.5-1.2-0.3-2.2l0.5-2.6c0.2-1.2,0.1-2-0.4-2.6c-0.5-0.5-1.6-0.9-3.3-1v-0.1
		c0.8-0.1,1.5-0.1,2.3,0c0.8,0.1,1.5,0.2,2.1,0.5s1.1,0.7,1.4,1.2c0.3,0.5,0.4,1.2,0.2,2.1L146.8,23.3z M149.5,10
		c-0.2,0-0.4,0-0.6,0.1c-0.2,0.1-0.3,0.2-0.5,0.3c-0.4,0.3-0.7,0.7-1,1.2c-0.3,0.5-0.5,1.1-0.8,1.6c-0.3,0.6-0.6,1.1-1,1.6
		c-0.4,0.5-0.9,0.9-1.5,1.2c-0.6,0.3-1.4,0.5-2.4,0.5l-0.3,0l0.1-0.3c1-0.1,1.8-0.3,2.4-0.6s1.1-0.8,1.4-1.3c0.3-0.5,0.6-1,0.9-1.6
		c0.2-0.5,0.5-1.1,0.8-1.6s0.6-0.9,1-1.2c0.4-0.3,0.7-0.5,1-0.6s0.6-0.1,0.8-0.1c0.7,0,1.2,0.2,1.4,0.5c0.3,0.4,0.4,0.8,0.3,1.2
		c0,0.4-0.2,0.8-0.4,1.2c-0.3,0.5-0.7,0.7-1.3,0.7c-0.4,0-0.8-0.1-0.9-0.4c-0.2-0.3-0.3-0.6-0.2-0.9c0-0.3,0.1-0.6,0.3-0.9
		S149.3,10.2,149.5,10L149.5,10L149.5,10z"/>
	<path class="st0" d="M154.7,18.4c1.1-0.4,2.1-0.8,3-1.1c0.9-0.4,1.6-0.8,2.2-1.2c0.7-0.6,1.3-1.3,1.7-2.1c0.4-0.8,0.6-1.7,0.6-2.7
		c0-0.6,0-0.9-0.1-1.1s-0.2-0.2-0.4-0.2c-0.6,0-1.3,0.3-2,1c-0.7,0.7-1.4,1.6-2.1,2.7s-1.2,2.4-1.6,3.7c-0.4,1.4-0.6,2.7-0.6,4.1
		c0,1,0.2,1.8,0.6,2.2c0.4,0.5,0.9,0.7,1.5,0.7c0.7,0,1.5-0.2,2.3-0.7c0.8-0.4,1.6-1.2,2.3-2.3l0.5,0.2c-0.4,0.7-0.9,1.3-1.5,1.9
		c-0.6,0.6-1.3,1.1-2.1,1.5c-0.8,0.4-1.6,0.6-2.4,0.6c-1.2,0-2.2-0.4-2.9-1.1s-1.1-1.8-1.1-3.2c0-0.9,0.2-1.8,0.5-2.9
		c0.3-1.1,0.8-2.1,1.4-3.2c0.6-1.1,1.3-2.1,2.1-3c0.8-0.9,1.7-1.6,2.7-2.2c1-0.5,2.1-0.8,3.2-0.8c0.6,0,1.1,0.2,1.6,0.5
		c0.4,0.3,0.6,0.8,0.6,1.5c0,0.8-0.2,1.5-0.7,2.2c-0.5,0.7-1.1,1.3-1.9,1.9c-0.8,0.6-1.6,1.1-2.5,1.5c-0.9,0.4-1.8,0.8-2.6,1.1
		c-0.9,0.3-1.6,0.6-2.3,0.8L154.7,18.4z"/>
	<path class="st0" d="M166.8,24.7c0.2,0.1,0.3,0.1,0.5,0.2c0.2,0,0.5,0.1,0.9,0.1c0.9,0,1.6-0.3,2.2-0.8c0.6-0.5,0.9-1.3,0.9-2.3
		c0-0.6-0.1-1.2-0.3-1.8c-0.2-0.6-0.6-1.3-1.2-2.1c-0.5-0.6-0.9-1.3-1.3-2s-0.6-1.5-0.6-2.4c0-1.3,0.5-2.3,1.4-3.1
		c0.9-0.8,2-1.2,3.3-1.2c0.6,0,1.1,0.1,1.7,0.2c0.6,0.1,1,0.4,1.4,0.8c0.4,0.4,0.6,0.9,0.6,1.6c0,0.3-0.1,0.6-0.3,1
		c-0.2,0.4-0.6,0.6-1.1,0.6c-0.3,0-0.6-0.1-0.8-0.3c-0.2-0.2-0.4-0.5-0.4-0.9c0-0.4,0.1-0.7,0.2-1s0.4-0.7,0.6-1
		c-0.4-0.2-0.9-0.4-1.5-0.4c-0.7,0-1.4,0.3-1.9,0.8s-0.8,1.2-0.8,2.1c0,0.7,0.2,1.3,0.5,1.7c0.3,0.5,0.8,1.1,1.3,2
		c0.5,0.8,0.9,1.5,1.3,2.2c0.3,0.7,0.5,1.4,0.5,2.2c0,0.9-0.2,1.7-0.7,2.4c-0.5,0.7-1.1,1.3-1.9,1.7c-0.8,0.4-1.6,0.6-2.6,0.6
		c-0.7,0-1.3-0.1-2-0.3s-1.1-0.5-1.5-0.9c-0.4-0.4-0.6-1-0.6-1.7c0-0.3,0.1-0.6,0.3-0.9c0.2-0.3,0.5-0.5,0.9-0.5
		c0.5,0,0.8,0.2,1,0.6s0.3,0.8,0.3,1.3c0,0.3,0,0.6-0.1,0.9C166.9,24.3,166.9,24.5,166.8,24.7z"/>
	<path class="st0" d="M178.8,25.2h-2.6l5.9-20c0.2-0.7,0.2-1.2-0.1-1.5s-0.9-0.5-1.8-0.5l0.2-0.6c1.1,0,2.1-0.1,3-0.3
		c0.9-0.2,1.7-0.5,2.4-0.9L178.8,25.2z M179.7,20.7c0.8-2.1,1.5-3.9,2.2-5.3c0.7-1.5,1.4-2.6,2.1-3.5c0.7-0.9,1.4-1.5,2.1-1.9
		c0.7-0.4,1.5-0.6,2.3-0.6c0.9,0,1.6,0.2,1.9,0.7c0.3,0.5,0.5,1,0.5,1.7c0,0.7-0.2,1.4-0.4,2.1l-2.9,8.8c-0.2,0.5-0.2,1-0.2,1.3
		c0,0.4,0.3,0.5,0.7,0.5c0.4,0,0.8-0.2,1.1-0.6c0.4-0.4,0.8-1.2,1.2-2.4l0.4-1.1h0.6l-0.8,2.2c-0.4,1.3-1,2.1-1.7,2.5
		c-0.7,0.4-1.3,0.6-2,0.6c-0.8,0-1.4-0.2-1.7-0.5c-0.3-0.4-0.5-0.9-0.4-1.5c0-0.6,0.2-1.4,0.5-2.2l2.8-8.6c0.1-0.3,0.2-0.6,0.3-1.1
		c0.1-0.4,0.1-0.7,0-1c-0.1-0.3-0.4-0.4-0.9-0.4c-0.6,0-1.3,0.4-2,1c-0.7,0.7-1.5,1.7-2.2,3c-0.7,1.3-1.5,2.8-2.1,4.5
		c-0.7,1.7-1.3,3.7-1.9,5.8L179.7,20.7z"/>
	<path class="st0" d="M215.8,11l-8.5,14.3h-0.5l-2.4-18.9c-0.1-0.8-0.3-1.3-0.7-1.5c-0.3-0.2-0.7-0.4-1-0.4l0.1-0.6
		c0.4,0,0.9,0,1.4,0.1c0.5,0,1,0,1.6,0c0.7,0,1.3,0,1.8,0c0.6,0,1,0,1.4-0.1L209,4.5c-0.7,0-1.2,0.2-1.4,0.5c-0.3,0.3-0.4,1-0.2,2
		l1.7,14.6l-0.3,0.1l6.8-11.5L215.8,11z M225.5,8.8c0.6-1.2,0.9-2,1-2.6s-0.1-1-0.5-1.2c-0.4-0.2-1-0.4-1.8-0.4l0.2-0.6
		c0.4,0,0.8,0,1.2,0c0.4,0,0.8,0,1.2,0c0.4,0,0.8,0,1.1,0c0.5,0,0.9,0,1.3,0c0.3,0,0.7,0,1-0.1l-0.2,0.6c-0.3,0.1-0.6,0.2-0.9,0.3
		c-0.3,0.2-0.6,0.4-1,0.8c-0.3,0.4-0.7,0.9-1,1.5l-9,18.2h-0.5l-3-18.9c-0.1-0.8-0.3-1.3-0.6-1.5s-0.5-0.4-0.8-0.4l0.1-0.6
		c0.4,0,0.8,0,1.2,0.1c0.5,0,0.9,0,1.4,0c0.8,0,1.5,0,2.2,0c0.7,0,1.2,0,1.6-0.1l-0.1,0.6c-1,0-1.7,0.2-2,0.5c-0.3,0.3-0.4,1-0.2,2
		l2.2,13.9l-0.2,0.1L225.5,8.8z"/>
	<path class="st0" d="M229.7,24.6c0.5,0,1-0.3,1.7-0.9c0.6-0.6,1.2-1.4,1.9-2.5c0.6-1,1.2-2.2,1.8-3.5c0.5-1.3,1-2.7,1.3-4.1
		l-0.5,3.2c-1.1,3.2-2.3,5.5-3.4,6.8c-1.2,1.3-2.3,2-3.5,2c-0.9,0-1.6-0.3-2.1-1S226,23,226,22c0-1,0.2-2,0.5-3.1
		c0.3-1.1,0.8-2.3,1.3-3.4c0.6-1.1,1.2-2.1,2-3.1s1.5-1.7,2.4-2.2c0.9-0.6,1.8-0.8,2.7-0.8c0.7,0,1.2,0.3,1.6,1s0.4,1.7,0.2,2.9
		l-0.3,0.2c0.1-1.1,0.1-1.9-0.2-2.6c-0.3-0.6-0.7-1-1.4-1c-0.7,0-1.3,0.4-2.1,1.2c-0.7,0.8-1.4,1.8-2,3c-0.6,1.3-1.1,2.6-1.5,4.1
		c-0.4,1.5-0.6,2.8-0.6,4.2c0,0.9,0.1,1.5,0.3,1.8C229.1,24.5,229.4,24.6,229.7,24.6z M237.3,9.8c0.5,0,1-0.1,1.4-0.1
		c0.5-0.1,0.9-0.2,1.3-0.3l-3.8,13.3c0,0.2-0.1,0.4-0.2,0.7c-0.1,0.3-0.1,0.6,0,0.8c0.1,0.2,0.3,0.4,0.6,0.4c0.4,0,0.8-0.2,1.2-0.7
		c0.4-0.4,0.8-1.2,1.1-2.4l0.4-1.1h0.6l-0.8,2.2c-0.4,1.2-1,2-1.6,2.5c-0.6,0.4-1.3,0.7-1.8,0.7c-0.8,0-1.3-0.3-1.6-0.8
		c-0.3-0.5-0.3-1-0.2-1.6c0.1-0.6,0.3-1.2,0.4-1.8L237.3,9.8z"/>
	<path class="st0" d="M243.3,29.4c0.9-0.5,1.8-1.1,2.7-1.9c1-0.8,2-1.9,3-3.2c1.2-1.5,2.3-3.2,3.2-5.1c1-1.9,1.6-3.8,2-5.7
		c-0.5-0.3-1-0.6-1.5-1.1s-0.8-1.1-0.8-1.8c0-0.5,0.2-0.8,0.5-1c0.3-0.2,0.6-0.4,1-0.4c0.5,0,0.9,0.2,1.2,0.6c0.3,0.4,0.4,1,0.4,1.8
		c0,1-0.2,2.1-0.5,3.3c-0.3,1.2-0.8,2.4-1.4,3.6c-0.6,1.2-1.2,2.4-1.9,3.5s-1.4,2.1-2.1,3c-0.3,0.4-0.8,0.9-1.3,1.5s-1.2,1.2-2,1.8
		c-0.8,0.6-1.6,1.2-2.6,1.6c-0.6,0.3-1.1,0.5-1.5,0.6c-0.4,0.1-0.8,0.2-1.1,0.2c-0.4,0-0.8-0.1-1-0.3c-0.3-0.2-0.5-0.5-0.5-0.9
		c0-0.4,0.2-0.8,0.5-1c0.3-0.2,0.7-0.3,1.1-0.3c0.5,0,0.9,0.1,1.3,0.4C242.6,28.8,243,29.1,243.3,29.4z M249.9,24l-2,2.2l-2.3-13.8
		c-0.1-0.6-0.2-1-0.4-1.3c-0.1-0.2-0.3-0.4-0.6-0.4c-0.2,0-0.5,0.2-0.8,0.5c-0.3,0.4-0.6,1.1-1,2.2l-0.4,1.1h-0.6l0.8-2.2
		c0.4-1.2,0.9-2,1.6-2.4c0.6-0.4,1.2-0.6,1.9-0.6c0.6,0,1.1,0.2,1.4,0.6c0.3,0.4,0.6,1.1,0.7,2.2L249.9,24z"/>
</g>
</svg>
