<?xml version="1.0" encoding="utf-8"?>
<!-- Generator: Adobe Illustrator 23.0.1, SVG Export Plug-In . SVG Version: 6.00 Build 0)  -->
<svg version="1.1" id="Layer_1" xmlns="http://www.w3.org/2000/svg" xmlns:xlink="http://www.w3.org/1999/xlink" x="0px" y="0px"
	 viewBox="0 0 303.2 97.8" style="enable-background:new 0 0 303.2 97.8;" xml:space="preserve">
<style type="text/css">
	.st0{fill:#A51E35;}
</style>
<g>
	<path class="st0" d="M32.2,4.6v1c-1.1,0-1.9,0.2-2.5,0.5c-0.6,0.3-0.9,0.8-1.1,1.4s-0.3,1.6-0.3,2.7v28.7c-0.2,0-0.4,0-0.6,0
		c-0.2,0-0.4,0-0.6,0L7,7.6V33c0,1.2,0.1,2.1,0.3,2.7c0.2,0.7,0.6,1.1,1.2,1.4c0.6,0.3,1.6,0.4,2.8,0.5v1c-0.6-0.1-1.3-0.1-2.3-0.1
		c-0.9,0-1.8,0-2.6,0c-0.8,0-1.6,0-2.4,0c-0.8,0-1.5,0.1-2,0.1v-1c1.1-0.1,1.9-0.2,2.5-0.5c0.6-0.3,0.9-0.7,1.1-1.4
		C5.8,35,5.9,34.1,5.9,33V9.7c0-1.2-0.1-2.1-0.3-2.6C5.4,6.5,5,6.1,4.5,5.9C3.9,5.7,3.1,5.6,2,5.5v-1c0.5,0,1.2,0.1,2,0.1
		c0.8,0,1.6,0,2.4,0c0.7,0,1.4,0,2,0c0.6,0,1.2-0.1,1.7-0.1l16.9,26.1V10.1c0-1.2-0.1-2.1-0.3-2.7c-0.2-0.6-0.6-1.1-1.2-1.4
		S24,5.6,22.8,5.5v-1c0.6,0,1.3,0.1,2.3,0.1c0.9,0,1.8,0,2.6,0c0.8,0,1.7,0,2.5,0C31,4.6,31.6,4.6,32.2,4.6z"/>
	<path class="st0" d="M40.7,38.9c-2.1,0-3.6-0.5-4.5-1.6c-0.9-1-1.4-2.4-1.4-4.2c0-1.3,0.3-2.5,1-3.3c0.7-0.9,1.5-1.6,2.5-2.2
		c1-0.6,2.1-1,3.2-1.4c1.1-0.4,2.2-0.8,3.2-1.2c1-0.4,1.9-0.8,2.5-1.3c0.7-0.5,1-1.1,1-1.8v-3c0-1.3-0.2-2.4-0.6-3.1
		c-0.4-0.7-0.9-1.2-1.6-1.4c-0.7-0.2-1.4-0.4-2.3-0.4c-0.8,0-1.7,0.1-2.6,0.3c-0.9,0.2-1.6,0.7-2.2,1.4c0.6,0.1,1.1,0.4,1.6,1
		c0.4,0.5,0.7,1.2,0.7,2c0,0.8-0.3,1.4-0.8,1.9c-0.5,0.5-1.2,0.7-2,0.7c-0.9,0-1.6-0.3-2-0.9c-0.4-0.6-0.6-1.3-0.6-2
		c0-0.8,0.2-1.5,0.6-2c0.4-0.5,0.9-1,1.6-1.4c0.7-0.5,1.7-1,2.9-1.3c1.2-0.4,2.5-0.6,4-0.6c1.3,0,2.4,0.2,3.4,0.5
		c0.9,0.3,1.7,0.7,2.3,1.3c0.8,0.8,1.4,1.7,1.6,2.8c0.3,1.1,0.4,2.4,0.4,4v13.3c0,0.8,0.1,1.3,0.3,1.7c0.2,0.4,0.6,0.6,1.2,0.6
		c0.4,0,0.8-0.1,1.2-0.3c0.3-0.2,0.7-0.4,1-0.7l0.5,0.8c-0.7,0.5-1.3,0.9-1.9,1.3c-0.6,0.3-1.4,0.5-2.4,0.5c-1.7,0-2.8-0.4-3.3-1.3
		c-0.5-0.9-0.8-1.9-0.8-3c-1,1.7-2.2,2.8-3.5,3.4C43.5,38.6,42.1,38.9,40.7,38.9z M42.8,37c1,0,1.9-0.3,2.8-0.8
		c0.9-0.6,1.8-1.5,2.6-2.8v-9.4c-0.5,0.7-1.2,1.3-2.2,1.7c-1,0.4-2,0.9-3.1,1.4c-1.1,0.5-2,1.2-2.8,2C39.4,29.8,39,31,39,32.6
		c0,1.5,0.4,2.6,1.1,3.3C40.8,36.6,41.7,37,42.8,37z"/>
	<path class="st0" d="M65.9,5.9v8H73v1h-7.1v18.6c0,1.5,0.3,2.6,0.8,3.2c0.5,0.6,1.3,0.9,2.3,0.9s1.8-0.4,2.5-1.2
		c0.7-0.8,1.3-2.1,1.8-4l1,0.2c-0.3,1.9-1,3.4-1.9,4.7c-0.9,1.3-2.4,1.9-4.3,1.9c-1.1,0-2-0.1-2.7-0.4c-0.7-0.3-1.3-0.7-1.9-1.2
		C62.8,36.9,62.3,36,62,35c-0.3-1-0.4-2.4-0.4-4.1V14.8H57v-1h4.6V6.5c0.8,0,1.6-0.1,2.3-0.2C64.6,6.3,65.3,6.1,65.9,5.9z"/>
	<path class="st0" d="M97,13.3v20.1c0,1.4,0.3,2.5,0.8,3.2c0.5,0.7,1.5,1,2.9,1v1c-1-0.1-2-0.1-3-0.1c-0.9,0-1.8,0-2.7,0.1
		c-0.8,0.1-1.6,0.3-2.3,0.5v-5.7c-0.8,2.1-1.9,3.6-3.4,4.4c-1.5,0.9-3,1.3-4.5,1.3c-1.1,0-2.1-0.2-2.9-0.5c-0.8-0.3-1.5-0.8-2.1-1.3
		c-0.6-0.6-1-1.5-1.2-2.5c-0.2-1-0.3-2.3-0.3-3.8v-12c0-1.4-0.3-2.5-0.8-3.2c-0.5-0.7-1.5-1-2.9-1v-1c1,0.1,2,0.1,3,0.1
		c0.9,0,1.8-0.1,2.7-0.2c0.8-0.1,1.6-0.3,2.3-0.5v18.9c0,1,0.1,1.9,0.2,2.7c0.1,0.8,0.4,1.5,1,2c0.5,0.5,1.3,0.8,2.5,0.8
		c1.9,0,3.4-0.8,4.7-2.5c1.2-1.7,1.8-3.7,1.8-6.2v-9.9c0-1.4-0.3-2.5-0.8-3.2c-0.5-0.7-1.5-1-2.9-1v-1c1,0.1,2,0.1,3,0.1
		c0.9,0,1.8-0.1,2.7-0.2C95.5,13.7,96.3,13.5,97,13.3z"/>
	<path class="st0" d="M118,13.2c0.9,0,1.6,0.2,2.3,0.5s1.2,0.8,1.5,1.4c0.4,0.6,0.6,1.2,0.6,1.9c0,0.8-0.2,1.5-0.7,2.1
		c-0.5,0.6-1.2,0.9-2,0.9c-0.7,0-1.3-0.2-1.8-0.6c-0.5-0.4-0.8-1-0.8-1.8c0-0.6,0.2-1.1,0.5-1.6c0.3-0.4,0.7-0.8,1.1-1
		c-0.2-0.3-0.6-0.5-1-0.5c-1.3,0-2.5,0.5-3.5,1.5c-1,1-1.8,2.2-2.3,3.6c-0.6,1.4-0.8,2.7-0.8,3.9v10.2c0,1.6,0.5,2.6,1.4,3.1
		c0.9,0.5,2.2,0.8,3.7,0.8v1c-0.7,0-1.8-0.1-3.1-0.1s-2.8-0.1-4.3-0.1c-1.1,0-2.2,0-3.2,0.1c-1.1,0-1.9,0.1-2.4,0.1v-1
		c1.3,0,2.2-0.2,2.8-0.7c0.6-0.5,0.8-1.4,0.8-2.7v-15c0-1.4-0.3-2.5-0.8-3.2c-0.5-0.7-1.5-1-2.9-1v-1c1,0.1,2,0.1,3,0.1
		c0.9,0,1.8-0.1,2.7-0.2c0.8-0.1,1.6-0.3,2.3-0.5v6c0.4-0.9,0.9-1.9,1.5-2.8c0.7-0.9,1.4-1.7,2.4-2.4
		C115.8,13.5,116.9,13.2,118,13.2z"/>
	<path class="st0" d="M130.8,38.9c-2.1,0-3.6-0.5-4.5-1.6c-0.9-1-1.4-2.4-1.4-4.2c0-1.3,0.3-2.5,1-3.3c0.7-0.9,1.5-1.6,2.5-2.2
		c1-0.6,2.1-1,3.2-1.4c1.1-0.4,2.2-0.8,3.2-1.2c1-0.4,1.9-0.8,2.5-1.3c0.7-0.5,1-1.1,1-1.8v-3c0-1.3-0.2-2.4-0.6-3.1
		c-0.4-0.7-0.9-1.2-1.6-1.4c-0.7-0.2-1.4-0.4-2.3-0.4c-0.8,0-1.7,0.1-2.6,0.3c-0.9,0.2-1.6,0.7-2.2,1.4c0.6,0.1,1.1,0.4,1.6,1
		c0.4,0.5,0.7,1.2,0.7,2c0,0.8-0.3,1.4-0.8,1.9c-0.5,0.5-1.2,0.7-2,0.7c-0.9,0-1.6-0.3-2-0.9c-0.4-0.6-0.6-1.3-0.6-2
		c0-0.8,0.2-1.5,0.6-2c0.4-0.5,0.9-1,1.6-1.4c0.7-0.5,1.7-1,2.9-1.3c1.2-0.4,2.5-0.6,4-0.6c1.3,0,2.4,0.2,3.4,0.5
		c0.9,0.3,1.7,0.7,2.3,1.3c0.8,0.8,1.4,1.7,1.6,2.8c0.3,1.1,0.4,2.4,0.4,4v13.3c0,0.8,0.1,1.3,0.3,1.7s0.6,0.6,1.2,0.6
		c0.4,0,0.8-0.1,1.2-0.3c0.3-0.2,0.7-0.4,1-0.7l0.5,0.8c-0.7,0.5-1.3,0.9-1.9,1.3c-0.6,0.3-1.4,0.5-2.4,0.5c-1.7,0-2.8-0.4-3.3-1.3
		s-0.8-1.9-0.8-3c-1,1.7-2.2,2.8-3.5,3.4C133.6,38.6,132.3,38.9,130.8,38.9z M133,37c1,0,1.9-0.3,2.8-0.8c0.9-0.6,1.8-1.5,2.6-2.8
		v-9.4c-0.5,0.7-1.2,1.3-2.2,1.7c-1,0.4-2,0.9-3.1,1.4s-2,1.2-2.8,2c-0.8,0.8-1.2,2.1-1.2,3.6c0,1.5,0.4,2.6,1.1,3.3
		C131,36.6,131.9,37,133,37z"/>
	<path class="st0" d="M155.9,0.9v33.2c0,1.3,0.3,2.3,0.8,2.7c0.6,0.5,1.5,0.7,2.8,0.7v1c-0.5,0-1.4-0.1-2.5-0.1
		c-1.1,0-2.2-0.1-3.3-0.1c-1.1,0-2.2,0-3.3,0.1c-1.1,0-2,0.1-2.5,0.1v-1c1.3,0,2.2-0.2,2.8-0.7c0.6-0.5,0.8-1.4,0.8-2.7V6.7
		c0-1.4-0.3-2.5-0.8-3.2c-0.5-0.7-1.5-1-2.9-1v-1c1,0.1,2,0.1,3,0.1c0.9,0,1.8-0.1,2.7-0.2C154.5,1.3,155.2,1.2,155.9,0.9z"/>
	<path class="st0" d="M169.7,0.9v33.2c0,1.3,0.3,2.3,0.8,2.7c0.6,0.5,1.5,0.7,2.8,0.7v1c-0.5,0-1.4-0.1-2.5-0.1
		c-1.1,0-2.2-0.1-3.3-0.1c-1.1,0-2.2,0-3.3,0.1s-2,0.1-2.5,0.1v-1c1.3,0,2.2-0.2,2.8-0.7c0.6-0.5,0.8-1.4,0.8-2.7V6.7
		c0-1.4-0.3-2.5-0.8-3.2c-0.5-0.7-1.5-1-2.9-1v-1c1,0.1,2,0.1,3,0.1c0.9,0,1.8-0.1,2.7-0.2C168.2,1.3,169,1.2,169.7,0.9z"/>
	<path class="st0" d="M198.1,13.8v1c-0.6,0.1-1.2,0.3-1.7,0.8c-0.5,0.5-1,1.3-1.4,2.5l-7.9,20.6h-0.8l-8.8-21.3
		c-0.6-1.2-1.2-2-1.8-2.3c-0.6-0.3-1.1-0.4-1.5-0.4v-1c0.7,0.1,1.4,0.2,2.2,0.2c0.8,0,1.6,0.1,2.5,0.1c1,0,2,0,3.1-0.1
		c1.1-0.1,2.1-0.1,3.1-0.2v1c-0.8,0-1.5,0.1-2.1,0.2c-0.6,0.1-1,0.4-1.2,1c-0.2,0.6,0,1.5,0.6,2.9l5.9,14.6l-0.3,0.1l5.5-14.3
		c0.6-1.6,0.7-2.7,0.2-3.4c-0.5-0.6-1.6-1-3.3-1.2v-1c0.8,0,1.5,0.1,2.1,0.1c0.6,0,1.2,0,1.9,0c0.7,0,1.4,0,2,0
		C197,13.9,197.6,13.9,198.1,13.8z M187.1,38.8l-1.6,4.2c-0.6,1.6-1.3,2.7-2.1,3.4c-0.5,0.5-1.1,0.8-1.8,1c-0.7,0.2-1.3,0.3-1.9,0.3
		c-0.6,0-1.2-0.1-1.7-0.3c-0.5-0.2-0.9-0.6-1.2-1s-0.4-1-0.4-1.6c0-0.8,0.2-1.4,0.7-1.8c0.4-0.5,1.1-0.7,1.9-0.7
		c0.7,0,1.2,0.2,1.7,0.6c0.5,0.4,0.7,0.9,0.7,1.7c0,0.5-0.1,1-0.4,1.3c-0.3,0.4-0.6,0.6-0.9,0.8c0.1,0,0.1,0,0.2,0s0.1,0,0.1,0
		c0.9,0,1.6-0.3,2.3-0.9s1.3-1.5,1.8-2.9l1.7-4.5L187.1,38.8z"/>
	<path class="st0" d="M2,62.2c0.7,0,1.6,0.1,2.6,0.1s2.2,0,3.2,0c1.5,0,2.9,0,4.3,0c1.4,0,2.4,0,2.9,0c3.4,0,5.9,0.7,7.6,2.1
		c1.7,1.4,2.5,3.2,2.5,5.4c0,1.1-0.2,2.2-0.7,3.3c-0.5,1.1-1.2,2-2.3,2.9c-1.1,0.9-2.5,1.6-4.3,2.1v0.1c2.5,0.3,4.5,0.9,5.9,1.8
		c1.4,0.9,2.4,1.9,3,3.1c0.6,1.2,0.9,2.4,0.9,3.7c0,2.7-1,5-3,6.7c-2,1.7-4.9,2.6-8.5,2.6c-0.7,0-1.8,0-3.2-0.1C11.6,96,10,96,8,96
		c-1.1,0-2.2,0-3.3,0c-1.1,0-2,0.1-2.6,0.1v-1c1.1-0.1,1.9-0.2,2.5-0.4c0.6-0.2,0.9-0.6,1.1-1.2c0.2-0.6,0.3-1.4,0.3-2.6V67.3
		c0-1.2-0.1-2.1-0.3-2.6c-0.2-0.6-0.6-0.9-1.1-1.2c-0.6-0.2-1.4-0.3-2.5-0.4V62.2z M13.9,63.1c-1.5,0-2.4,0.3-2.9,0.8
		c-0.4,0.5-0.7,1.6-0.7,3.3v23.8c0,1.7,0.2,2.7,0.7,3.2c0.5,0.5,1.4,0.7,2.9,0.7c3.1,0,5.4-0.7,6.8-2.2c1.4-1.5,2.1-3.5,2.1-6.2
		c0-2.5-0.7-4.4-2-5.7c-1.3-1.3-3.5-2-6.6-2H9.5v-0.8h4.1c1.9,0,3.3-0.4,4.4-1.1c1-0.7,1.7-1.7,2.1-2.9c0.4-1.2,0.6-2.5,0.6-3.9
		c0-2.4-0.5-4.2-1.6-5.4C18,63.7,16.3,63.1,13.9,63.1z"/>
	<path class="st0" d="M43,70.8c2.8,0,5,0.9,6.6,2.6c1.6,1.7,2.4,4.4,2.4,8H35l0-0.9h12.4c0.1-1.6-0.1-3-0.4-4.3
		c-0.3-1.3-0.8-2.4-1.5-3.2c-0.7-0.8-1.6-1.2-2.7-1.2c-1.5,0-2.8,0.7-3.9,2.2c-1.1,1.5-1.8,3.8-2,7l0.1,0.2c-0.1,0.5-0.1,1-0.1,1.6
		c0,0.6,0,1.2,0,1.7c0,2.2,0.4,4,1.1,5.6c0.7,1.6,1.6,2.8,2.8,3.6c1.1,0.8,2.3,1.2,3.5,1.2c1.4,0,2.8-0.4,4-1.1
		c1.2-0.7,2.2-2,3.1-3.7l1,0.4c-0.4,1.1-0.9,2.1-1.7,3.1c-0.8,1-1.8,1.8-3,2.4c-1.2,0.6-2.6,0.9-4.2,0.9c-2.3,0-4.3-0.5-5.9-1.6
		c-1.6-1.1-2.9-2.5-3.8-4.4c-0.9-1.9-1.3-4-1.3-6.5c0-2.8,0.4-5.2,1.3-7.3c0.9-2,2.2-3.6,3.8-4.7C38.9,71.3,40.8,70.8,43,70.8z"/>
	<path class="st0" d="M62,96.5c-2.1,0-3.6-0.5-4.5-1.6c-0.9-1-1.4-2.4-1.4-4.2c0-1.3,0.3-2.5,1-3.3c0.7-0.9,1.5-1.6,2.5-2.2
		c1-0.6,2.1-1,3.2-1.4c1.1-0.4,2.2-0.8,3.2-1.2c1-0.4,1.9-0.8,2.5-1.3c0.7-0.5,1-1.1,1-1.8v-3c0-1.3-0.2-2.4-0.6-3.1
		c-0.4-0.7-0.9-1.2-1.6-1.4c-0.7-0.2-1.4-0.4-2.3-0.4c-0.8,0-1.7,0.1-2.6,0.3s-1.6,0.7-2.2,1.4c0.6,0.1,1.1,0.4,1.6,1
		c0.4,0.5,0.7,1.2,0.7,2c0,0.8-0.3,1.4-0.8,1.9c-0.5,0.5-1.2,0.7-2,0.7c-0.9,0-1.6-0.3-2-0.9c-0.4-0.6-0.6-1.3-0.6-2
		c0-0.8,0.2-1.5,0.6-2c0.4-0.5,0.9-1,1.6-1.4c0.7-0.5,1.7-1,2.9-1.3c1.2-0.4,2.5-0.6,4-0.6c1.3,0,2.4,0.2,3.4,0.5
		c0.9,0.3,1.7,0.7,2.3,1.3c0.8,0.8,1.4,1.7,1.6,2.8c0.3,1.1,0.4,2.4,0.4,4v13.3c0,0.8,0.1,1.3,0.3,1.7c0.2,0.4,0.6,0.6,1.2,0.6
		c0.4,0,0.8-0.1,1.2-0.3c0.3-0.2,0.7-0.4,1-0.7l0.5,0.8c-0.7,0.5-1.3,0.9-1.9,1.3c-0.6,0.3-1.4,0.5-2.4,0.5c-1.7,0-2.8-0.4-3.3-1.3
		c-0.5-0.9-0.8-1.9-0.8-3c-1,1.7-2.2,2.8-3.5,3.4C64.8,96.2,63.4,96.5,62,96.5z M64.1,94.6c1,0,1.9-0.3,2.8-0.8
		c0.9-0.6,1.8-1.5,2.6-2.8v-9.4c-0.5,0.7-1.2,1.3-2.2,1.7c-1,0.4-2,0.9-3.1,1.4c-1.1,0.5-2,1.2-2.8,2c-0.8,0.8-1.2,2.1-1.2,3.6
		c0,1.5,0.4,2.6,1.1,3.3C62.1,94.2,63,94.6,64.1,94.6z"/>
	<path class="st0" d="M101.3,70.9V91c0,1.4,0.3,2.5,0.8,3.2c0.5,0.7,1.5,1,2.9,1v1c-1-0.1-2-0.1-3-0.1c-0.9,0-1.8,0-2.7,0.1
		c-0.8,0.1-1.6,0.3-2.3,0.5v-5.7c-0.8,2.1-1.9,3.6-3.4,4.4c-1.5,0.9-3,1.3-4.5,1.3c-1.1,0-2.1-0.2-2.9-0.5c-0.8-0.3-1.5-0.8-2.1-1.3
		c-0.6-0.6-1-1.5-1.2-2.5c-0.2-1-0.3-2.3-0.3-3.8v-12c0-1.4-0.3-2.5-0.8-3.2c-0.5-0.7-1.5-1-2.9-1v-1c1,0.1,2,0.1,3,0.1
		c0.9,0,1.8-0.1,2.7-0.2c0.8-0.1,1.6-0.3,2.3-0.5v18.9c0,1,0.1,1.9,0.2,2.7c0.1,0.8,0.4,1.5,1,2c0.5,0.5,1.3,0.8,2.5,0.8
		c1.9,0,3.4-0.8,4.7-2.5c1.2-1.7,1.8-3.7,1.8-6.2v-9.9c0-1.4-0.3-2.5-0.8-3.2s-1.5-1-2.9-1v-1c1,0.1,2,0.1,3,0.1
		c0.9,0,1.8-0.1,2.7-0.2C99.8,71.3,100.6,71.1,101.3,70.9z"/>
	<path class="st0" d="M115.1,63.5v8h7.1v1h-7.1V91c0,1.5,0.3,2.6,0.8,3.2c0.5,0.6,1.3,0.9,2.3,0.9s1.8-0.4,2.5-1.2
		c0.7-0.8,1.3-2.1,1.8-4l1,0.2c-0.3,1.9-1,3.4-1.9,4.7c-0.9,1.3-2.4,1.9-4.3,1.9c-1.1,0-2-0.1-2.7-0.4c-0.7-0.3-1.3-0.7-1.9-1.2
		c-0.7-0.7-1.2-1.6-1.5-2.6c-0.3-1-0.4-2.4-0.4-4.1V72.4h-4.6v-1h4.6v-7.3c0.8,0,1.6-0.1,2.3-0.2S114.5,63.7,115.1,63.5z"/>
	<path class="st0" d="M132.3,70.9v20.8c0,1.3,0.3,2.3,0.8,2.7c0.6,0.5,1.5,0.7,2.8,0.7v1c-0.5,0-1.4-0.1-2.5-0.1
		c-1.1,0-2.2-0.1-3.3-0.1c-1.1,0-2.2,0-3.3,0.1s-2,0.1-2.5,0.1v-1c1.3,0,2.2-0.2,2.8-0.7c0.6-0.5,0.8-1.4,0.8-2.7v-15
		c0-1.4-0.3-2.5-0.8-3.2c-0.5-0.7-1.5-1-2.9-1v-1c1,0.1,2,0.1,3,0.1c0.9,0,1.8-0.1,2.7-0.2C130.9,71.3,131.6,71.1,132.3,70.9z
		 M129.8,59.4c0.8,0,1.6,0.3,2.2,0.9c0.6,0.6,0.9,1.3,0.9,2.2c0,0.8-0.3,1.6-0.9,2.2c-0.6,0.6-1.3,0.9-2.2,0.9
		c-0.8,0-1.6-0.3-2.2-0.9c-0.6-0.6-0.9-1.3-0.9-2.2c0-0.8,0.3-1.6,0.9-2.2C128.3,59.7,129,59.4,129.8,59.4z"/>
	<path class="st0" d="M150.3,58.6c0.9,0,1.7,0.1,2.4,0.4c0.7,0.2,1.3,0.6,1.8,0.9c0.5,0.4,0.8,0.8,1.1,1.3c0.3,0.5,0.4,1.1,0.4,1.6
		c0,0.7-0.2,1.3-0.7,1.8c-0.5,0.5-1.1,0.7-1.8,0.7c-0.7,0-1.3-0.2-1.8-0.7c-0.5-0.5-0.8-1.1-0.8-1.9c0-0.7,0.2-1.2,0.6-1.6
		c0.4-0.4,0.9-0.7,1.5-0.8c-0.1-0.3-0.3-0.5-0.7-0.7c-0.4-0.2-0.9-0.3-1.6-0.3c-0.7,0-1.4,0.2-1.9,0.5c-0.5,0.3-0.9,0.8-1.2,1.3
		c-0.4,0.7-0.6,1.7-0.7,3c-0.1,1.3-0.1,3.4-0.1,6.1v1.2h5.1v1h-5.1v18.8c0,1.6,0.5,2.6,1.4,3.1c0.9,0.5,2.2,0.8,3.7,0.8v1
		c-0.7,0-1.8-0.1-3.1-0.1s-2.8-0.1-4.3-0.1c-1.1,0-2.2,0-3.2,0.1c-1.1,0-1.9,0.1-2.4,0.1v-1c1.3,0,2.2-0.2,2.8-0.7
		c0.6-0.5,0.8-1.4,0.8-2.7V72.4h-3.8v-1h3.8c0-2.8,0.2-5,0.6-6.6s1-2.8,1.9-3.9c0.6-0.7,1.5-1.3,2.4-1.8
		C148,58.8,149.1,58.6,150.3,58.6z"/>
	<path class="st0" d="M176.2,70.9V91c0,1.4,0.3,2.5,0.8,3.2c0.5,0.7,1.5,1,2.9,1v1c-1-0.1-2-0.1-3-0.1c-0.9,0-1.8,0-2.7,0.1
		c-0.8,0.1-1.6,0.3-2.3,0.5v-5.7c-0.8,2.1-1.9,3.6-3.4,4.4c-1.5,0.9-3,1.3-4.5,1.3c-1.1,0-2.1-0.2-2.9-0.5c-0.8-0.3-1.5-0.8-2.1-1.3
		c-0.6-0.6-1-1.5-1.2-2.5c-0.2-1-0.3-2.3-0.3-3.8v-12c0-1.4-0.3-2.5-0.8-3.2c-0.5-0.7-1.5-1-2.9-1v-1c1,0.1,2,0.1,3,0.1
		c0.9,0,1.8-0.1,2.7-0.2c0.8-0.1,1.6-0.3,2.3-0.5v18.9c0,1,0.1,1.9,0.2,2.7c0.1,0.8,0.4,1.5,1,2s1.3,0.8,2.5,0.8
		c1.9,0,3.4-0.8,4.7-2.5c1.2-1.7,1.8-3.7,1.8-6.2v-9.9c0-1.4-0.3-2.5-0.8-3.2s-1.5-1-2.9-1v-1c1,0.1,2,0.1,3,0.1
		c0.9,0,1.8-0.1,2.7-0.2C174.7,71.3,175.5,71.1,176.2,70.9z"/>
	<path class="st0" d="M189.9,58.5v33.2c0,1.3,0.3,2.3,0.8,2.7c0.6,0.5,1.5,0.7,2.8,0.7v1c-0.5,0-1.4-0.1-2.5-0.1
		c-1.1,0-2.2-0.1-3.3-0.1c-1.1,0-2.2,0-3.3,0.1s-2,0.1-2.5,0.1v-1c1.3,0,2.2-0.2,2.8-0.7c0.6-0.5,0.8-1.4,0.8-2.7V64.3
		c0-1.4-0.3-2.5-0.8-3.2c-0.5-0.7-1.5-1-2.9-1v-1c1,0.1,2,0.1,3,0.1c0.9,0,1.8-0.1,2.7-0.2C188.4,58.9,189.2,58.8,189.9,58.5z"/>
	<path class="st0" d="M208.6,96.2v-1c1.1-0.1,1.9-0.2,2.5-0.4c0.6-0.2,0.9-0.6,1.1-1.2c0.2-0.6,0.3-1.4,0.3-2.6V67.3
		c0-1.2-0.1-2.1-0.3-2.6c-0.2-0.6-0.6-0.9-1.1-1.2c-0.6-0.2-1.4-0.3-2.5-0.4v-1c0.7,0,1.6,0.1,2.6,0.1c1.1,0,2.3,0,3.5,0
		c1.1,0,2.2,0,3.3,0c1.1,0,2-0.1,2.8-0.1v1c-1.1,0-1.9,0.2-2.5,0.4c-0.6,0.2-0.9,0.6-1.1,1.2c-0.2,0.6-0.3,1.4-0.3,2.6v23.8
		c0,1.2,0.1,2,0.3,2.6c0.2,0.6,0.6,1,1.1,1.2c0.6,0.2,1.4,0.3,2.5,0.4v1c-0.7-0.1-1.7-0.1-2.8-0.1c-1.1,0-2.2,0-3.3,0
		c-1.2,0-2.4,0-3.5,0C210.1,96.1,209.2,96.1,208.6,96.2z M215.2,79.5v-1h19v1H215.2z M228.6,96.2v-1c1.1-0.1,1.9-0.2,2.5-0.4
		c0.6-0.2,0.9-0.6,1.1-1.2c0.2-0.6,0.3-1.4,0.3-2.6V67.3c0-1.2-0.1-2.1-0.3-2.6c-0.2-0.6-0.6-0.9-1.1-1.2c-0.6-0.2-1.4-0.3-2.5-0.4
		v-1c0.7,0,1.7,0.1,2.8,0.1c1.1,0,2.2,0,3.3,0c1.2,0,2.4,0,3.5,0s2-0.1,2.6-0.1v1c-1.1,0-1.9,0.2-2.5,0.4c-0.6,0.2-0.9,0.6-1.1,1.2
		c-0.2,0.6-0.3,1.4-0.3,2.6v23.8c0,1.2,0.1,2,0.3,2.6c0.2,0.6,0.6,1,1.1,1.2c0.6,0.2,1.4,0.3,2.5,0.4v1c-0.7-0.1-1.6-0.1-2.6-0.1
		c-1.1,0-2.3,0-3.5,0c-1.1,0-2.2,0-3.3,0C230.3,96.1,229.4,96.1,228.6,96.2z"/>
	<path class="st0" d="M250.5,96.5c-2.1,0-3.6-0.5-4.5-1.6c-0.9-1-1.4-2.4-1.4-4.2c0-1.3,0.3-2.5,1-3.3c0.7-0.9,1.5-1.6,2.5-2.2
		c1-0.6,2.1-1,3.2-1.4c1.1-0.4,2.2-0.8,3.2-1.2c1-0.4,1.9-0.8,2.5-1.3c0.7-0.5,1-1.1,1-1.8v-3c0-1.3-0.2-2.4-0.6-3.1
		c-0.4-0.7-0.9-1.2-1.6-1.4c-0.7-0.2-1.4-0.4-2.3-0.4c-0.8,0-1.7,0.1-2.6,0.3s-1.6,0.7-2.2,1.4c0.6,0.1,1.1,0.4,1.6,1
		c0.4,0.5,0.7,1.2,0.7,2c0,0.8-0.3,1.4-0.8,1.9s-1.2,0.7-2,0.7c-0.9,0-1.6-0.3-2-0.9c-0.4-0.6-0.6-1.3-0.6-2c0-0.8,0.2-1.5,0.6-2
		c0.4-0.5,0.9-1,1.6-1.4c0.7-0.5,1.7-1,2.9-1.3c1.2-0.4,2.5-0.6,4-0.6c1.3,0,2.4,0.2,3.4,0.5c0.9,0.3,1.7,0.7,2.3,1.3
		c0.8,0.8,1.4,1.7,1.6,2.8c0.3,1.1,0.4,2.4,0.4,4v13.3c0,0.8,0.1,1.3,0.3,1.7s0.6,0.6,1.2,0.6c0.4,0,0.8-0.1,1.2-0.3
		c0.3-0.2,0.7-0.4,1-0.7l0.5,0.8c-0.7,0.5-1.3,0.9-1.9,1.3c-0.6,0.3-1.4,0.5-2.4,0.5c-1.7,0-2.8-0.4-3.3-1.3s-0.8-1.9-0.8-3
		c-1,1.7-2.2,2.8-3.5,3.4C253.2,96.2,251.9,96.5,250.5,96.5z M252.6,94.6c1,0,1.9-0.3,2.8-0.8c0.9-0.6,1.8-1.5,2.6-2.8v-9.4
		c-0.5,0.7-1.2,1.3-2.2,1.7s-2,0.9-3.1,1.4s-2,1.2-2.8,2c-0.8,0.8-1.2,2.1-1.2,3.6c0,1.5,0.4,2.6,1.1,3.3
		C250.6,94.2,251.5,94.6,252.6,94.6z"/>
	<path class="st0" d="M275.9,70.9v20.8c0,1.3,0.3,2.3,0.8,2.7c0.6,0.5,1.5,0.7,2.8,0.7v1c-0.5,0-1.4-0.1-2.5-0.1
		c-1.1,0-2.2-0.1-3.3-0.1c-1.1,0-2.2,0-3.3,0.1s-2,0.1-2.5,0.1v-1c1.3,0,2.2-0.2,2.8-0.7c0.6-0.5,0.8-1.4,0.8-2.7v-15
		c0-1.4-0.3-2.5-0.8-3.2c-0.5-0.7-1.5-1-2.9-1v-1c1,0.1,2,0.1,3,0.1c0.9,0,1.8-0.1,2.7-0.2C274.4,71.3,275.2,71.1,275.9,70.9z
		 M273.4,59.4c0.8,0,1.6,0.3,2.2,0.9c0.6,0.6,0.9,1.3,0.9,2.2c0,0.8-0.3,1.6-0.9,2.2c-0.6,0.6-1.3,0.9-2.2,0.9
		c-0.8,0-1.6-0.3-2.2-0.9c-0.6-0.6-0.9-1.3-0.9-2.2c0-0.8,0.3-1.6,0.9-2.2C271.9,59.7,272.6,59.4,273.4,59.4z"/>
	<path class="st0" d="M296.9,70.8c0.9,0,1.6,0.2,2.3,0.5c0.7,0.4,1.2,0.8,1.5,1.4c0.4,0.6,0.6,1.2,0.6,1.9c0,0.8-0.2,1.5-0.7,2.1
		c-0.5,0.6-1.2,0.9-2,0.9c-0.7,0-1.3-0.2-1.8-0.6c-0.5-0.4-0.8-1-0.8-1.8c0-0.6,0.2-1.1,0.5-1.6c0.3-0.4,0.7-0.8,1.1-1
		c-0.2-0.3-0.6-0.5-1-0.5c-1.3,0-2.5,0.5-3.5,1.5c-1,1-1.8,2.2-2.3,3.6c-0.6,1.4-0.8,2.7-0.8,3.9v10.2c0,1.6,0.5,2.6,1.4,3.1
		c0.9,0.5,2.2,0.8,3.7,0.8v1c-0.7,0-1.8-0.1-3.1-0.1s-2.8-0.1-4.3-0.1c-1.1,0-2.2,0-3.2,0.1c-1.1,0-1.9,0.1-2.4,0.1v-1
		c1.3,0,2.2-0.2,2.8-0.7c0.6-0.5,0.8-1.4,0.8-2.7v-15c0-1.4-0.3-2.5-0.8-3.2c-0.5-0.7-1.5-1-2.9-1v-1c1,0.1,2,0.1,3,0.1
		c0.9,0,1.8-0.1,2.7-0.2c0.8-0.1,1.6-0.3,2.3-0.5v6c0.4-0.9,0.9-1.9,1.5-2.8c0.7-0.9,1.4-1.7,2.4-2.4
		C294.8,71.1,295.8,70.8,296.9,70.8z"/>
</g>
</svg>
