<?xml version="1.0" encoding="utf-8"?>
<!-- Generator: Adobe Illustrator 23.0.1, SVG Export Plug-In . SVG Version: 6.00 Build 0)  -->
<svg version="1.1" id="Layer_1" xmlns="http://www.w3.org/2000/svg" xmlns:xlink="http://www.w3.org/1999/xlink" x="0px" y="0px"
	 viewBox="0 0 355.1 60" style="enable-background:new 0 0 355.1 60;" xml:space="preserve">
<style type="text/css">
	.st0{fill:#FFFFFF;}
</style>
<path class="st0" d="M24.2,14.7c3.2,9,3.5,18.2,0.1,27.1c-1.6,4.2-4,8.1-6.6,11.7c-2.2,3.1-4.4,3.1-7.2,0.3
	c-5.3-5.2-6.7-11.7-5.8-18.7c1.3-9.7,6.4-17,15.2-21.6c-4.1-6.6-9.5-6-16.4,2.2c-0.1-1.3-0.5-2.5-0.1-3.1c5.1-7.1,10.4-9.1,17-2.8
	c1.9,1.9,3.4,2.5,6.1,2.1c7.9-1.2,12.2,2.2,13.8,10.5c0.2,0.9,0.4,1.7,0.6,2.9c1-0.3,1.9-0.5,2.7-0.7c3.3-1.1,5.7-0.3,7.5,2.8
	c1.4,2.4,3.2,4.7,4.9,6.9c2,2.7,4.5,3.3,7.5,1.5c0.9-0.5,2.1-0.6,3.3-0.5c-5.8,5.2-8.2,5.2-13.7,0.1c-2.1-1.9-3.8-4.3-6.1-6
	c-1.3-1-3.2-1.5-4.9-1.5c-0.6,0-1.1,2.2-1.8,3.4c-1.4,2.7-2.4,5.8-4.4,8.1c-1.8,2.2-3.8,1.3-4.2-1.6c-0.6-4,1.5-7.1,4.6-9.3
	c2.8-1.9,2.6-3.6,1.3-6.2C35.4,17.6,31,13.5,24.2,14.7z M21.5,15.2c-11.4,3.9-18.6,19.9-10.3,34c1.3,2.3,2.7,2.2,4.6,0.5
	C24.6,41.9,27.3,26,21.5,15.2z M35.8,38.4c1.4-3.3,2.6-6,3.7-8.6C34.9,31.8,33.7,34.5,35.8,38.4z"/>
<g>
	<path class="st0" d="M110.6,15.6v0.9c-0.9,0-1.6,0.1-2.1,0.3c-0.5,0.2-0.8,0.5-0.9,1c-0.2,0.5-0.2,1.3-0.2,2.4v21.6
		c0,1,0.1,1.8,0.2,2.4c0.2,0.5,0.5,0.9,0.9,1c0.5,0.2,1.2,0.3,2.1,0.3v0.9c-0.8-0.1-1.8-0.1-3.1-0.1c-1.2,0-2.5,0-3.8,0
		c-1.4,0-2.7,0-3.9,0c-1.2,0-2.2,0.1-3,0.1v-0.9c1-0.1,1.7-0.2,2.2-0.3c0.5-0.2,0.8-0.5,1-1c0.2-0.5,0.3-1.3,0.3-2.4V18.2h0.3
		L89.9,46.4h-0.7l-11.8-28v20.9c0,1.6,0.1,2.8,0.3,3.7c0.2,0.9,0.6,1.5,1.2,1.8c0.6,0.4,1.5,0.6,2.8,0.8v0.9
		c-0.6-0.1-1.3-0.1-2.2-0.1c-0.9,0-1.7,0-2.5,0c-0.7,0-1.3,0-2,0c-0.7,0-1.3,0.1-1.7,0.1v-0.9c0.9-0.1,1.6-0.4,2.1-0.7
		c0.5-0.3,0.8-0.9,0.9-1.7c0.2-0.8,0.2-1.9,0.2-3.3V20.2c0-1.1-0.1-1.9-0.2-2.4c-0.2-0.5-0.5-0.9-1-1c-0.5-0.2-1.2-0.3-2.1-0.3v-0.9
		c0.5,0,1,0.1,1.7,0.1c0.7,0,1.4,0,2,0c1.2,0,2.5,0,3.7,0c1.2,0,2.3-0.1,3.2-0.1L93,37.6l-1.1,1l8.8-22.9c0.5,0,1,0,1.5,0
		c0.5,0,1,0,1.6,0c1.3,0,2.5,0,3.8,0C108.7,15.6,109.8,15.6,110.6,15.6z"/>
	<path class="st0" d="M128,15.5l10.6,27.3c0.4,1,0.9,1.8,1.4,2.2c0.5,0.4,1,0.6,1.4,0.6v0.9c-0.9-0.1-1.9-0.1-3.1-0.1
		c-1.2,0-2.4,0-3.5,0c-1.3,0-2.6,0-3.8,0c-1.2,0-2.1,0.1-2.8,0.1v-0.9c1.5-0.1,2.4-0.3,2.8-0.8c0.4-0.4,0.3-1.4-0.3-2.9l-7.4-20.2
		l0.8-1.1l-6.6,17.2c-0.8,2.1-1.2,3.8-1.2,4.9c0,1.1,0.4,1.9,1.1,2.2c0.7,0.4,1.6,0.6,2.8,0.7v0.9c-1-0.1-1.9-0.1-2.7-0.1
		c-0.9,0-1.8,0-2.7,0c-0.6,0-1.2,0-1.8,0c-0.6,0-1.1,0.1-1.5,0.1v-0.9c0.6-0.1,1.2-0.5,1.9-1.2c0.6-0.7,1.3-1.8,1.9-3.4l9.9-25.5
		c0.5,0,1,0,1.5,0C127.1,15.5,127.6,15.5,128,15.5z M131.1,33.8v0.9h-13l0.4-0.9H131.1z"/>
	<path class="st0" d="M141.7,15.6c0.7,0,1.7,0.1,2.9,0.1c1.2,0,2.5,0,3.7,0c1.4,0,2.7,0,4,0c1.3,0,2.2,0,2.8,0c4,0,7.1,0.7,9.1,2
		c2,1.3,3,3.2,3,5.6c0,1-0.2,2-0.6,3c-0.4,1-1.1,1.9-2.1,2.8c-1,0.9-2.3,1.5-4,2c-1.7,0.5-3.8,0.8-6.4,0.8H150v-0.9h3.7
		c1.7,0,3-0.3,3.9-1c0.9-0.7,1.5-1.5,1.8-2.6c0.3-1.1,0.5-2.3,0.5-3.6c0-2.3-0.4-4.1-1.2-5.3c-0.8-1.3-2.2-1.9-4.2-1.9
		c-1.1,0-1.9,0.2-2.2,0.7c-0.3,0.5-0.5,1.5-0.5,3v21.6c0,1,0.1,1.8,0.2,2.4c0.2,0.5,0.5,0.9,0.9,1c0.5,0.2,1.2,0.3,2.1,0.3v0.9
		c-0.8-0.1-1.8-0.1-3-0.1c-1.2,0-2.4,0-3.6,0c-1.4,0-2.7,0-3.9,0c-1.2,0-2.2,0.1-2.9,0.1v-0.9c0.9-0.1,1.6-0.2,2.1-0.3
		s0.8-0.5,0.9-1c0.2-0.5,0.2-1.3,0.2-2.4V20.2c0-1.1-0.1-1.9-0.2-2.4c-0.2-0.5-0.5-0.9-1-1c-0.5-0.2-1.2-0.3-2.1-0.3V15.6z
		 M149.9,31c1.2,0,2.3,0.1,3.2,0.2c0.9,0.1,1.7,0.2,2.4,0.2c0.7,0.1,1.3,0.1,1.9,0.2c2.6,0.2,4.6,0.8,5.9,1.7s2.1,2.2,2.5,4l1,4.5
		c0.3,1.2,0.5,2,0.8,2.4c0.3,0.5,0.7,0.7,1.3,0.7c0.4,0,0.7-0.1,0.9-0.3c0.2-0.2,0.5-0.4,0.8-0.7l0.6,0.5c-0.8,0.9-1.6,1.5-2.5,1.9
		c-0.9,0.4-2,0.6-3.3,0.6c-1.6,0-2.9-0.3-3.9-1c-1-0.7-1.7-1.9-2-3.7l-0.8-4.4c-0.2-1.2-0.5-2.3-0.7-3.2c-0.3-0.9-0.7-1.6-1.2-2.2
		c-0.5-0.5-1.2-0.8-2.1-0.8H150L149.9,31z"/>
	<path class="st0" d="M171.8,15.6c0.7,0,1.7,0.1,2.9,0.1c1.2,0,2.5,0,3.7,0c1.4,0,2.7,0,4,0c1.3,0,2.2,0,2.8,0c4,0,7.1,0.7,9.1,2
		c2,1.3,3,3.2,3,5.6c0,1-0.2,2-0.6,3c-0.4,1-1.1,1.9-2.1,2.8c-1,0.9-2.3,1.5-4,2c-1.7,0.5-3.8,0.8-6.4,0.8h-4.2v-0.9h3.7
		c1.7,0,3-0.3,3.9-1c0.9-0.7,1.5-1.5,1.8-2.6c0.3-1.1,0.5-2.3,0.5-3.6c0-2.3-0.4-4.1-1.2-5.3c-0.8-1.3-2.2-1.9-4.2-1.9
		c-1.1,0-1.9,0.2-2.2,0.7c-0.3,0.5-0.5,1.5-0.5,3v21.6c0,1,0.1,1.8,0.2,2.4c0.2,0.5,0.5,0.9,0.9,1c0.5,0.2,1.2,0.3,2.1,0.3v0.9
		c-0.8-0.1-1.8-0.1-3-0.1c-1.2,0-2.4,0-3.6,0c-1.4,0-2.7,0-3.9,0c-1.2,0-2.2,0.1-2.9,0.1v-0.9c0.9-0.1,1.6-0.2,2.1-0.3
		s0.8-0.5,0.9-1c0.2-0.5,0.2-1.3,0.2-2.4V20.2c0-1.1-0.1-1.9-0.2-2.4c-0.2-0.5-0.5-0.9-1-1c-0.5-0.2-1.2-0.3-2.1-0.3V15.6z M180,31
		c1.2,0,2.3,0.1,3.2,0.2c0.9,0.1,1.7,0.2,2.4,0.2c0.7,0.1,1.3,0.1,1.9,0.2c2.6,0.2,4.6,0.8,5.9,1.7c1.3,0.9,2.1,2.2,2.5,4l1,4.5
		c0.3,1.2,0.5,2,0.8,2.4c0.3,0.5,0.7,0.7,1.3,0.7c0.4,0,0.7-0.1,0.9-0.3c0.2-0.2,0.5-0.4,0.8-0.7l0.6,0.5c-0.8,0.9-1.6,1.5-2.5,1.9
		c-0.9,0.4-2,0.6-3.3,0.6c-1.6,0-2.9-0.3-3.9-1c-1-0.7-1.7-1.9-2-3.7l-0.8-4.4c-0.2-1.2-0.5-2.3-0.7-3.2c-0.3-0.9-0.7-1.6-1.2-2.2
		c-0.5-0.5-1.2-0.8-2.1-0.8h-4.7L180,31z"/>
	<path class="st0" d="M216.5,15.5L227,42.7c0.4,1,0.9,1.8,1.4,2.2c0.5,0.4,1,0.6,1.4,0.6v0.9c-0.9-0.1-1.9-0.1-3.1-0.1
		c-1.2,0-2.4,0-3.5,0c-1.3,0-2.6,0-3.8,0c-1.2,0-2.1,0.1-2.8,0.1v-0.9c1.5-0.1,2.4-0.3,2.8-0.8c0.4-0.4,0.3-1.4-0.3-2.9l-7.4-20.2
		l0.8-1.1l-6.6,17.2c-0.8,2.1-1.2,3.8-1.2,4.9c0,1.1,0.4,1.9,1.1,2.2c0.7,0.4,1.6,0.6,2.8,0.7v0.9c-1-0.1-1.9-0.1-2.7-0.1
		c-0.9,0-1.8,0-2.7,0c-0.6,0-1.2,0-1.8,0c-0.6,0-1.1,0.1-1.5,0.1v-0.9c0.6-0.1,1.2-0.5,1.9-1.2c0.6-0.7,1.3-1.8,1.9-3.4l9.9-25.5
		c0.5,0,1,0,1.5,0C215.5,15.5,216,15.5,216.5,15.5z M219.5,33.8v0.9h-13l0.4-0.9H219.5z"/>
	<path class="st0" d="M243.5,15.6v0.9c-0.9,0-1.6,0.1-2.1,0.3c-0.5,0.2-0.8,0.5-0.9,1c-0.1,0.5-0.2,1.3-0.2,2.4v21.6
		c0,1,0.1,1.8,0.2,2.4c0.2,0.5,0.5,0.9,0.9,1c0.5,0.2,1.2,0.3,2.1,0.3v0.9c-0.8-0.1-1.8-0.1-3-0.1c-1.2,0-2.4,0-3.6,0
		c-1.4,0-2.7,0-3.9,0c-1.2,0-2.2,0.1-2.9,0.1v-0.9c0.9-0.1,1.6-0.2,2.1-0.3s0.8-0.5,0.9-1c0.2-0.5,0.2-1.3,0.2-2.4V20.2
		c0-1.1-0.1-1.9-0.2-2.4c-0.2-0.5-0.5-0.9-1-1c-0.5-0.2-1.2-0.3-2.1-0.3v-0.9c0.7,0,1.7,0.1,2.9,0.1c1.2,0,2.5,0,3.9,0
		c1.2,0,2.4,0,3.6,0C241.8,15.6,242.8,15.6,243.5,15.6z M258.6,15.6v0.8c-0.9,0.2-1.9,0.6-3,1.2c-1.1,0.6-2.2,1.6-3.3,3l-8.2,9.8
		l2.5-3.6L257,42.8c0.4,0.7,0.8,1.2,1.3,1.6c0.5,0.4,1.1,0.8,1.8,1v0.9c-1-0.1-2.1-0.1-3.4-0.1c-1.2,0-2.4,0-3.4,0
		c-0.6,0-1.3,0-2.2,0c-0.9,0-2,0.1-3.3,0.1v-0.9c1.2-0.1,1.9-0.2,2.2-0.5c0.2-0.3,0.1-0.8-0.3-1.5l-6.3-10.2
		c-0.4-0.7-0.8-1.2-1.1-1.5c-0.3-0.3-0.6-0.6-1-0.7c-0.3-0.1-0.7-0.2-1.3-0.2V30c1.3,0,2.4-0.4,3.4-1c1-0.7,2.1-1.7,3.3-3l2.6-3.1
		c1.1-1.3,1.7-2.4,1.9-3.4c0.2-0.9,0-1.7-0.6-2.2c-0.6-0.5-1.4-0.8-2.6-0.8v-0.8c1.1,0,2.1,0.1,3.1,0.1c1,0,2.1,0,3.4,0
		C256.2,15.7,257.6,15.6,258.6,15.6z"/>
	<path class="st0" d="M284.5,15.6c-0.1,1.3-0.2,2.5-0.2,3.7c0,1.2-0.1,2.1-0.1,2.7c0,0.6,0,1.1,0,1.7c0,0.5,0.1,1,0.1,1.3h-1
		c-0.3-2.1-0.7-3.8-1.3-5c-0.6-1.2-1.4-2.1-2.4-2.6c-1-0.5-2.1-0.8-3.4-0.8h-1.8c-0.9,0-1.5,0.1-1.9,0.2c-0.4,0.1-0.7,0.4-0.8,0.8
		c-0.1,0.4-0.2,1.1-0.2,2v22.6c0,0.9,0.1,1.6,0.2,2c0.1,0.4,0.4,0.7,0.8,0.9c0.4,0.1,1.1,0.2,1.9,0.2h2.1c1.3,0,2.5-0.3,3.5-0.8
		c1-0.6,1.9-1.5,2.6-2.9c0.7-1.4,1.3-3.2,1.6-5.5h1c-0.1,0.9-0.1,2.1-0.1,3.7c0,0.7,0,1.6,0,2.8c0,1.2,0.1,2.5,0.3,3.8
		c-1.5-0.1-3.1-0.1-5-0.1c-1.9,0-3.5,0-5,0c-1,0-2.3,0-3.9,0c-1.6,0-3.4,0-5.2,0c-1.8,0-3.5,0.1-5.1,0.1v-0.9
		c0.9-0.1,1.6-0.2,2.1-0.3c0.5-0.2,0.8-0.5,0.9-1c0.2-0.5,0.2-1.3,0.2-2.4V20.2c0-1.1-0.1-1.9-0.2-2.4c-0.2-0.5-0.5-0.9-1-1
		c-0.5-0.2-1.2-0.3-2.1-0.3v-0.9c1.6,0,3.3,0.1,5.1,0.1c1.8,0,3.6,0,5.2,0c1.6,0,2.9,0,3.9,0c1.3,0,2.9,0,4.6,0
		C281.6,15.6,283.1,15.6,284.5,15.6z M277.7,30.4v0.9h-7.6v-0.9H277.7z M278.9,24.7c-0.1,1.7-0.2,2.9-0.2,3.8c0,0.9,0,1.7,0,2.4
		c0,0.7,0,1.5,0,2.4c0,0.9,0.1,2.1,0.2,3.8h-1c-0.1-1-0.4-2-0.8-2.8c-0.4-0.9-1-1.6-1.7-2.1c-0.7-0.5-1.7-0.8-2.8-0.8v-0.9
		c1.2,0,2.1-0.3,2.8-1c0.7-0.6,1.2-1.4,1.6-2.3c0.4-0.9,0.6-1.7,0.8-2.5H278.9z"/>
	<path class="st0" d="M299.7,15c1.7,0,3,0.2,4,0.5c0.9,0.4,1.7,0.7,2.4,1.2c0.3,0.2,0.6,0.4,0.8,0.5c0.2,0.1,0.4,0.2,0.6,0.2
		c0.5,0,0.8-0.6,1-1.9h1c0,0.6-0.1,1.2-0.1,2c0,0.8-0.1,1.8-0.1,3c0,1.2,0,2.9,0,4.9h-1c-0.1-1.5-0.5-3-1-4.4
		c-0.6-1.4-1.4-2.6-2.5-3.5c-1.1-0.9-2.4-1.4-3.9-1.4c-1.4,0-2.5,0.4-3.4,1.2c-0.9,0.8-1.4,1.9-1.4,3.3c0,1.2,0.3,2.2,0.9,3
		c0.6,0.8,1.4,1.6,2.5,2.4c1.1,0.8,2.5,1.7,4.1,2.8c1.4,0.9,2.6,1.8,3.7,2.7c1.1,0.9,2,1.9,2.7,3c0.7,1.1,1,2.5,1,4
		c0,1.9-0.5,3.5-1.5,4.7c-1,1.2-2.3,2.2-3.9,2.8c-1.6,0.6-3.4,0.9-5.4,0.9c-1.8,0-3.2-0.2-4.3-0.5c-1.1-0.3-2-0.7-2.7-1.1
		c-0.6-0.4-1.1-0.6-1.5-0.6c-0.5,0-0.8,0.6-1,1.9h-1c0.1-0.7,0.1-1.5,0.1-2.4c0-0.9,0-2.1,0-3.6c0-1.5,0-3.4,0-5.7h1
		c0.1,1.9,0.4,3.7,1,5.4c0.5,1.7,1.4,3,2.5,4c1.1,1,2.6,1.5,4.5,1.5c1.5,0,2.8-0.4,3.8-1.2c1-0.8,1.6-2,1.6-3.7
		c0-1.8-0.6-3.3-1.8-4.5c-1.2-1.2-2.8-2.4-4.7-3.6c-1.4-0.9-2.6-1.8-3.8-2.7c-1.2-0.9-2.1-1.9-2.9-3.1c-0.7-1.2-1.1-2.5-1.1-4.1
		c0-1.8,0.5-3.3,1.4-4.5c0.9-1.2,2.1-2,3.6-2.6C296.4,15.3,298,15,299.7,15z"/>
	<path class="st0" d="M314.2,46.4v-0.9c0.9-0.1,1.6-0.2,2.1-0.3c0.5-0.2,0.8-0.5,0.9-1c0.2-0.5,0.2-1.3,0.2-2.4V20.2
		c0-1.1-0.1-1.9-0.2-2.4c-0.2-0.5-0.5-0.9-1-1c-0.5-0.2-1.2-0.3-2.1-0.3v-0.9c0.8,0,1.7,0.1,3,0.1c1.2,0,2.5,0,3.9,0
		c1.2,0,2.4,0,3.6,0c1.2,0,2.2-0.1,3-0.1v0.9c-0.9,0-1.6,0.1-2.1,0.3c-0.5,0.2-0.8,0.5-0.9,1c-0.1,0.5-0.2,1.3-0.2,2.4v21.6
		c0,1,0.1,1.8,0.2,2.4c0.2,0.5,0.5,0.9,1,1c0.5,0.2,1.2,0.3,2.1,0.3v0.9c-0.8-0.1-1.8-0.1-3-0.1c-1.2,0-2.4,0-3.6,0
		c-1.4,0-2.7,0-3.9,0C316,46.3,315,46.3,314.2,46.4z M321.6,31.3v-0.9h17.2v0.9H321.6z M332.7,46.4v-0.9c0.9-0.1,1.6-0.2,2.1-0.3
		c0.5-0.2,0.8-0.5,0.9-1c0.2-0.5,0.2-1.3,0.2-2.4V20.2c0-1.1-0.1-1.9-0.2-2.4c-0.2-0.5-0.5-0.9-1-1c-0.5-0.2-1.2-0.3-2.1-0.3v-0.9
		c0.8,0,1.8,0.1,3.1,0.1c1.3,0,2.5,0,3.8,0c1.3,0,2.6,0,3.8,0c1.2,0,2.1-0.1,2.9-0.1v0.9c-0.9,0-1.6,0.1-2.1,0.3
		c-0.5,0.2-0.8,0.5-0.9,1c-0.1,0.5-0.2,1.3-0.2,2.4v21.6c0,1,0.1,1.8,0.2,2.4c0.2,0.5,0.5,0.9,1,1s1.2,0.3,2.1,0.3v0.9
		c-0.7-0.1-1.7-0.1-2.9-0.1c-1.2,0-2.4,0-3.8,0c-1.2,0-2.5,0-3.8,0C334.5,46.3,333.5,46.3,332.7,46.4z"/>
</g>
</svg>
