<svg id="Layer_1" data-name="Layer 1" xmlns="http://www.w3.org/2000/svg" viewBox="0 0 97.33 30"><defs><style>.cls-1{fill:#fff;}</style></defs><title>title_handwash</title><path class="cls-1" d="M4.66,12.62a1.24,1.24,0,0,0,.46-.08,1.11,1.11,0,0,0,.41-.28,1.51,1.51,0,0,0,.29-.52A2.41,2.41,0,0,0,5.93,11a1.9,1.9,0,0,0-.25-1,5.05,5.05,0,0,0-.61-.92c-.24-.29-.5-.59-.79-.89s-.54-.59-.79-.9a5.67,5.67,0,0,1-.61-.95,2.34,2.34,0,0,1,0-2,2.33,2.33,0,0,1,.53-.74,2.44,2.44,0,0,1,.78-.46,2.77,2.77,0,0,1,1-.17,3.52,3.52,0,0,1,1,.12,2.17,2.17,0,0,1,.72.31,1.31,1.31,0,0,1,.45.46,1.16,1.16,0,0,1,.15.57,1,1,0,0,1,0,.29A.68.68,0,0,1,7.23,5a.61.61,0,0,1-.22.2.55.55,0,0,1-.32.09.38.38,0,0,1-.31-.13,1,1,0,0,1-.16-.33c0-.13-.06-.27-.08-.42A2.45,2.45,0,0,0,6,4a.75.75,0,0,0-.23-.32.65.65,0,0,0-.45-.14A.87.87,0,0,0,5,3.62a.83.83,0,0,0-.28.22,1,1,0,0,0-.2.36,1.72,1.72,0,0,0,.07,1.22A3.19,3.19,0,0,0,5,6.08c.16.21.35.43.55.65l.63.65c.21.22.42.45.62.68a5.37,5.37,0,0,1,.55.73,4.06,4.06,0,0,1,.39.78,2.47,2.47,0,0,1,.15.86,2.63,2.63,0,0,1-.26,1.18,2.6,2.6,0,0,1-.69.88,3.31,3.31,0,0,1-1,.54,4.25,4.25,0,0,1-1.25.19,3.43,3.43,0,0,1-1.06-.15,2.54,2.54,0,0,1-.77-.4,1.58,1.58,0,0,1-.48-.56,1.36,1.36,0,0,1-.16-.65,1.13,1.13,0,0,1,0-.3,1,1,0,0,1,.13-.29.93.93,0,0,1,.21-.23.53.53,0,0,1,.3-.09.46.46,0,0,1,.29.09.58.58,0,0,1,.17.23,1.52,1.52,0,0,1,.1.34l.09.38a2.78,2.78,0,0,0,.12.38,1.35,1.35,0,0,0,.19.33,1,1,0,0,0,.32.24A1.36,1.36,0,0,0,4.66,12.62Z"/><path class="cls-1" d="M8.63,8.77a3.66,3.66,0,0,1,.22-1.34,2.71,2.71,0,0,1,.6-1,2.19,2.19,0,0,1,.86-.58,2.78,2.78,0,0,1,1-.2,3,3,0,0,1,1,.18,2.34,2.34,0,0,1,.87.55,2.8,2.8,0,0,1,.59.93,3.66,3.66,0,0,1,.22,1.34,3.8,3.8,0,0,1-.22,1.36,3.15,3.15,0,0,1-.59,1,2.5,2.5,0,0,1-.87.61,2.6,2.6,0,0,1-1,.21,2.78,2.78,0,0,1-1-.2,2.3,2.3,0,0,1-.86-.58,2.85,2.85,0,0,1-.6-1A3.71,3.71,0,0,1,8.63,8.77Zm3.6,0c0-.32,0-.62,0-.91A3.52,3.52,0,0,0,12.07,7a1.37,1.37,0,0,0-.27-.54.58.58,0,0,0-.46-.2.57.57,0,0,0-.46.21,1.44,1.44,0,0,0-.27.57,4.25,4.25,0,0,0-.12.79c0,.3,0,.6,0,.91s0,.62,0,.92a4.36,4.36,0,0,0,.12.8,1.44,1.44,0,0,0,.27.57.57.57,0,0,0,.46.21.54.54,0,0,0,.46-.22,1.54,1.54,0,0,0,.27-.59,3.81,3.81,0,0,0,.13-.82C12.22,9.34,12.23,9,12.23,8.72Z"/><path class="cls-1" d="M16.85,6.17a1.36,1.36,0,0,0-.36,0,1,1,0,0,0-.3.12.74.74,0,0,0-.19.15.25.25,0,0,0-.07.16.14.14,0,0,0,.09.13l.2.09a.56.56,0,0,1,.2.14.38.38,0,0,1,.1.28.54.54,0,0,1-.05.22.62.62,0,0,1-.14.18.53.53,0,0,1-.2.13.61.61,0,0,1-.24,0,.69.69,0,0,1-.53-.22.88.88,0,0,1-.2-.59,1,1,0,0,1,.19-.62A1.44,1.44,0,0,1,15.84,6a2.38,2.38,0,0,1,.68-.24,3.92,3.92,0,0,1,.76-.08,4.16,4.16,0,0,1,.88.1,2.19,2.19,0,0,1,.73.32,1.68,1.68,0,0,1,.51.55,1.57,1.57,0,0,1,.19.81v3.31a.57.57,0,0,0,0,.12.2.2,0,0,0,0,.11.16.16,0,0,0,.07.09.22.22,0,0,0,.13,0,.32.32,0,0,0,.2-.08l.16-.16.15.12c-.06.08-.13.17-.22.27a1.5,1.5,0,0,1-.29.27,1.78,1.78,0,0,1-.41.22,1.53,1.53,0,0,1-.54.09,1.08,1.08,0,0,1-.65-.22,1,1,0,0,1-.38-.68,2,2,0,0,1-.39.42,1.76,1.76,0,0,1-.41.28,1.69,1.69,0,0,1-.43.15,2,2,0,0,1-.43,0,1.65,1.65,0,0,1-.54-.09,1.18,1.18,0,0,1-.47-.28,1.48,1.48,0,0,1-.34-.49,2.07,2.07,0,0,1-.12-.75,1.65,1.65,0,0,1,.21-.87,1.76,1.76,0,0,1,.55-.57,3.57,3.57,0,0,1,.78-.4l.89-.34a1,1,0,0,0,.5-.4,1.14,1.14,0,0,0,.15-.55,1,1,0,0,0-.25-.7A.94.94,0,0,0,16.85,6.17Zm.94,2.57a.25.25,0,0,0-.1-.22.36.36,0,0,0-.24-.08.92.92,0,0,0-.39.09,1.06,1.06,0,0,0-.32.28,1.18,1.18,0,0,0-.22.45,1.93,1.93,0,0,0-.09.62,2.9,2.9,0,0,0,.05.56,1.16,1.16,0,0,0,.14.35.49.49,0,0,0,.19.19.69.69,0,0,0,.24,0,.6.6,0,0,0,.29-.08.87.87,0,0,0,.23-.2,1,1,0,0,0,.16-.28.8.8,0,0,0,.06-.3Z"/><path class="cls-1" d="M21.2,6.72a.55.55,0,0,0-.08-.29.29.29,0,0,0-.27-.13.31.31,0,0,0-.17,0,.44.44,0,0,0-.15.1l-.12-.15c.09-.07.19-.15.3-.22a2,2,0,0,1,.36-.19,2.83,2.83,0,0,1,.41-.14,2.42,2.42,0,0,1,.47,0,1.17,1.17,0,0,1,.45.08,1.25,1.25,0,0,1,.32.2,1.33,1.33,0,0,1,.19.24.57.57,0,0,1,.07.21,1.53,1.53,0,0,1,.28-.29,2.71,2.71,0,0,1,.35-.24A2.86,2.86,0,0,1,24,5.74a2.12,2.12,0,0,1,.44,0,1.84,1.84,0,0,1,.85.2,1.76,1.76,0,0,1,.65.57,2.71,2.71,0,0,1,.42.94,5.1,5.1,0,0,1,.15,1.3,5.15,5.15,0,0,1-.18,1.46,3.08,3.08,0,0,1-.47,1,1.63,1.63,0,0,1-.66.55,1.73,1.73,0,0,1-.76.18,1.91,1.91,0,0,1-.56-.07,1.69,1.69,0,0,1-.42-.15,2,2,0,0,1-.3-.2,1,1,0,0,1-.18-.16v2.86a.67.67,0,0,1,0,.18.43.43,0,0,1-.11.21.69.69,0,0,1-.27.16,1.75,1.75,0,0,1-1,0,.71.71,0,0,1-.27-.18.39.39,0,0,1-.12-.2.56.56,0,0,1,0-.17ZM23,10.46a.5.5,0,0,0,0,.16.71.71,0,0,0,.13.24.77.77,0,0,0,.22.22.62.62,0,0,0,.34.1.59.59,0,0,0,.44-.2,1.57,1.57,0,0,0,.3-.53,4.93,4.93,0,0,0,.17-.79,9.61,9.61,0,0,0,.05-1,6.48,6.48,0,0,0-.07-1.06,2.59,2.59,0,0,0-.19-.7,1,1,0,0,0-.31-.38.72.72,0,0,0-.4-.12.48.48,0,0,0-.26.07,1,1,0,0,0-.23.18.81.81,0,0,0-.17.24.65.65,0,0,0-.06.26Z"/><path class="cls-1" d="M32.21,11.25a1.41,1.41,0,0,1,0,.18.48.48,0,0,1-.13.21.69.69,0,0,1-.27.16,1.4,1.4,0,0,1-.5.07,1.22,1.22,0,0,1-.48-.08.6.6,0,0,1-.27-.17.44.44,0,0,1-.11-.2,1.49,1.49,0,0,1,0-.17V6.72a.47.47,0,0,0-.08-.29.27.27,0,0,0-.26-.13.31.31,0,0,0-.17,0,.44.44,0,0,0-.15.1l-.13-.15c.09-.07.19-.15.3-.22a2.58,2.58,0,0,1,.37-.19,2.19,2.19,0,0,1,.41-.14,2.42,2.42,0,0,1,.47,0,1.53,1.53,0,0,1,.59.1.74.74,0,0,1,.31.26.63.63,0,0,1,.12.32,1.57,1.57,0,0,1,0,.29Zm-2-6.89A.72.72,0,0,1,30.31,4a.7.7,0,0,1,.2-.26,1,1,0,0,1,.31-.17.9.9,0,0,1,.37-.07,1,1,0,0,1,.38.07,1.11,1.11,0,0,1,.3.17,1,1,0,0,1,.2.26.71.71,0,0,1,.07.32.67.67,0,0,1-.07.31,1,1,0,0,1-.2.26,1.11,1.11,0,0,1-.3.17,1.16,1.16,0,0,1-.38.06,1.1,1.1,0,0,1-.37-.06,1,1,0,0,1-.31-.17.7.7,0,0,1-.2-.26A.68.68,0,0,1,30.23,4.36Z"/><path class="cls-1" d="M35.57,6.16a.69.69,0,0,0-.25,0,.57.57,0,0,0-.22.11.48.48,0,0,0-.14.2.61.61,0,0,0-.06.28.77.77,0,0,0,.17.46,4.2,4.2,0,0,0,.42.47l.53.5a4.66,4.66,0,0,1,.54.55,2.82,2.82,0,0,1,.42.62,1.54,1.54,0,0,1,.17.7,1.79,1.79,0,0,1-.15.75,1.43,1.43,0,0,1-.41.56,1.79,1.79,0,0,1-.64.35,2.75,2.75,0,0,1-.84.12,2.07,2.07,0,0,1-.73-.12,2.48,2.48,0,0,1-.59-.28,2.61,2.61,0,0,1-.43-.35,2.52,2.52,0,0,1-.29-.34l.21-.15a1.69,1.69,0,0,0,.19.19,2.48,2.48,0,0,0,.26.19,1.77,1.77,0,0,0,.31.15,1.27,1.27,0,0,0,.34.05,1.15,1.15,0,0,0,.69-.2.72.72,0,0,0,.27-.6.86.86,0,0,0-.15-.46,3.71,3.71,0,0,0-.37-.49l-.48-.52c-.17-.18-.33-.37-.48-.56a3.4,3.4,0,0,1-.37-.59,1.39,1.39,0,0,1-.15-.63,1.36,1.36,0,0,1,.15-.65,1.44,1.44,0,0,1,.4-.45,1.69,1.69,0,0,1,.57-.28,2.39,2.39,0,0,1,.66-.09,3.79,3.79,0,0,1,.71.07,1.77,1.77,0,0,1,.56.22,1,1,0,0,1,.36.36,1,1,0,0,1,.12.5.56.56,0,0,1-.15.39.5.5,0,0,1-.41.16.61.61,0,0,1-.38-.11A.35.35,0,0,1,35.8,7a.3.3,0,0,1,.06-.2L36,6.68l.14-.08a.09.09,0,0,0,.06-.08A.29.29,0,0,0,36,6.26.88.88,0,0,0,35.57,6.16Z"/><path class="cls-1" d="M42.64,6.17a1.5,1.5,0,0,0-.37,0,1.1,1.1,0,0,0-.29.12.6.6,0,0,0-.19.15.25.25,0,0,0-.07.16.14.14,0,0,0,.09.13l.2.09a.66.66,0,0,1,.2.14.38.38,0,0,1,.09.28.42.42,0,0,1,0,.22.59.59,0,0,1-.13.18.53.53,0,0,1-.2.13.67.67,0,0,1-.24,0,.68.68,0,0,1-.53-.22.88.88,0,0,1-.2-.59,1,1,0,0,1,.19-.62A1.35,1.35,0,0,1,41.63,6a2.28,2.28,0,0,1,.68-.24,3.92,3.92,0,0,1,.76-.08,4,4,0,0,1,.87.1,2.16,2.16,0,0,1,.74.32,1.68,1.68,0,0,1,.51.55,1.57,1.57,0,0,1,.19.81V10.9l0,.11a.22.22,0,0,0,.07.09.29.29,0,0,0,.14,0,.34.34,0,0,0,.2-.08L46,10.9l.14.12-.21.27a1.31,1.31,0,0,1-.3.27,1.55,1.55,0,0,1-.94.31,1.11,1.11,0,0,1-.66-.22,1.08,1.08,0,0,1-.37-.68,2.68,2.68,0,0,1-.39.42,2,2,0,0,1-.41.28,1.84,1.84,0,0,1-.43.15,2,2,0,0,1-.43,0,1.61,1.61,0,0,1-.54-.09A1.29,1.29,0,0,1,41,11.5a1.46,1.46,0,0,1-.33-.49,2.06,2.06,0,0,1-.13-.75,1.65,1.65,0,0,1,.21-.87,1.9,1.9,0,0,1,.56-.57,3.57,3.57,0,0,1,.78-.4l.89-.34a1,1,0,0,0,.5-.4,1.14,1.14,0,0,0,.15-.55,1,1,0,0,0-.25-.7A.94.94,0,0,0,42.64,6.17Zm.93,2.57a.27.27,0,0,0-.09-.22.36.36,0,0,0-.24-.08.86.86,0,0,0-.39.09,1.06,1.06,0,0,0-.32.28,1.36,1.36,0,0,0-.23.45,2.28,2.28,0,0,0-.08.62,2.9,2.9,0,0,0,.05.56,1,1,0,0,0,.14.35.49.49,0,0,0,.19.19.64.64,0,0,0,.24,0,.57.57,0,0,0,.28-.08.91.91,0,0,0,.24-.2,1.28,1.28,0,0,0,.16-.28,1,1,0,0,0,0-.3Z"/><path class="cls-1" d="M48.72,11.26a.62.62,0,0,1,0,.18.47.47,0,0,1-.12.2.79.79,0,0,1-.29.16,1.3,1.3,0,0,1-.49.07,1.28,1.28,0,0,1-.49-.08.62.62,0,0,1-.26-.17.42.42,0,0,1-.1-.2.59.59,0,0,1,0-.17V3.69a.58.58,0,0,0-.08-.3.3.3,0,0,0-.27-.12.43.43,0,0,0-.17,0,.59.59,0,0,0-.16.1l-.12-.15.3-.22a3,3,0,0,1,.36-.19,2.58,2.58,0,0,1,.42-.13,1.83,1.83,0,0,1,.47,0,1.33,1.33,0,0,1,.59.1.73.73,0,0,1,.31.25.66.66,0,0,1,.12.32,1.57,1.57,0,0,1,0,.29Z"/><path class="cls-1" d="M52,11.26a1.41,1.41,0,0,1,0,.18.41.41,0,0,1-.13.2.74.74,0,0,1-.28.16,1.34,1.34,0,0,1-.49.07,1.28,1.28,0,0,1-.49-.08.56.56,0,0,1-.26-.17.44.44,0,0,1-.11-.2,1.49,1.49,0,0,1,0-.17V3.69a.5.5,0,0,0-.08-.3.29.29,0,0,0-.26-.12.48.48,0,0,0-.18,0,.56.56,0,0,0-.15.1l-.12-.15.3-.22a3,3,0,0,1,.36-.19,2.58,2.58,0,0,1,.42-.13,1.78,1.78,0,0,1,.47,0,1.36,1.36,0,0,1,.59.1.79.79,0,0,1,.31.25.66.66,0,0,1,.12.32c0,.11,0,.21,0,.29Z"/><path class="cls-1" d="M58.06,11.25a.67.67,0,0,1,0,.18.57.57,0,0,1-.12.21.83.83,0,0,1-.28.16,1.3,1.3,0,0,1-.49.07,1.28,1.28,0,0,1-.49-.08.62.62,0,0,1-.26-.17.37.37,0,0,1-.11-.2,1.49,1.49,0,0,1,0-.17V6.72a.55.55,0,0,0-.08-.29.28.28,0,0,0-.27-.13.33.33,0,0,0-.17,0,.77.77,0,0,0-.15.1l-.12-.15c.09-.07.19-.15.3-.22a2,2,0,0,1,.36-.19,2.59,2.59,0,0,1,.42-.14,2.34,2.34,0,0,1,.47,0,1.53,1.53,0,0,1,.59.1.81.81,0,0,1,.31.26.88.88,0,0,1,.12.32c0,.11,0,.21,0,.29Zm-2-6.89A.71.71,0,0,1,56.15,4a.86.86,0,0,1,.21-.26,1,1,0,0,1,.3-.17A1,1,0,0,1,57,3.54a.9.9,0,0,1,.37.07.87.87,0,0,1,.3.17.86.86,0,0,1,.21.26.88.88,0,0,1,.07.32.82.82,0,0,1-.07.31.86.86,0,0,1-.21.26.87.87,0,0,1-.3.17,1.1,1.1,0,0,1-.37.06,1.16,1.16,0,0,1-.38-.06,1,1,0,0,1-.3-.17.86.86,0,0,1-.21-.26A.67.67,0,0,1,56.08,4.36Z"/><path class="cls-1" d="M61.43,6.2v4.33a.61.61,0,0,0,.12.43.44.44,0,0,0,.32.12.45.45,0,0,0,.28-.09,1.07,1.07,0,0,0,.22-.2,1.19,1.19,0,0,0,.18-.29l.18.08c-.06.13-.13.27-.21.41a1.8,1.8,0,0,1-.32.42,1.87,1.87,0,0,1-.5.32,2,2,0,0,1-.76.13,1.57,1.57,0,0,1-.49-.08,1.12,1.12,0,0,1-.72-.65,1.32,1.32,0,0,1-.11-.59V6.2H59V5.77a1.63,1.63,0,0,0,.46-.08A2.34,2.34,0,0,0,60,5.4a2.55,2.55,0,0,0,.57-.53A1.93,1.93,0,0,0,61,4.05h.47V5.77h1c.31,0,.47,0,.47-.15a.08.08,0,0,0-.06-.08l-.13-.06a.3.3,0,0,1-.13-.09.25.25,0,0,1-.06-.19.33.33,0,0,1,.1-.26.4.4,0,0,1,.27-.09.34.34,0,0,1,.18,0,.37.37,0,0,1,.13.12.45.45,0,0,1,.08.17.57.57,0,0,1,0,.18.86.86,0,0,1-.22.61,1,1,0,0,1-.71.23Z"/><path class="cls-1" d="M68.18,6.2v4.33a.67.67,0,0,0,.11.43.45.45,0,0,0,.33.12A.47.47,0,0,0,68.9,11a1.34,1.34,0,0,0,.21-.2,1.19,1.19,0,0,0,.18-.29l.18.08c-.06.13-.13.27-.21.41a1.75,1.75,0,0,1-.31.42,1.94,1.94,0,0,1-.51.32,2,2,0,0,1-.75.13,1.64,1.64,0,0,1-.5-.08,1.1,1.1,0,0,1-.42-.24,1.4,1.4,0,0,1-.3-.41,1.48,1.48,0,0,1-.11-.59V6.2h-.65V5.77a1.57,1.57,0,0,0,.45-.08,2.07,2.07,0,0,0,.6-.29,2.18,2.18,0,0,0,.57-.53,2.07,2.07,0,0,0,.38-.82h.47V5.77h.95c.32,0,.47,0,.47-.15a.08.08,0,0,0-.06-.08l-.13-.06a.38.38,0,0,1-.13-.09.25.25,0,0,1-.06-.19.33.33,0,0,1,.1-.26.4.4,0,0,1,.27-.09.34.34,0,0,1,.18,0,.41.41,0,0,1,.14.12.67.67,0,0,1,.08.17,1.1,1.1,0,0,1,0,.18.82.82,0,0,1-.22.61.93.93,0,0,1-.7.23Z"/><path class="cls-1" d="M72,6.17a1.38,1.38,0,0,0-.37,0,1,1,0,0,0-.29.12.65.65,0,0,0-.2.15.31.31,0,0,0-.07.16.14.14,0,0,0,.09.13l.2.09A.6.6,0,0,1,71.6,7a.38.38,0,0,1,.09.28.54.54,0,0,1,0,.22.62.62,0,0,1-.14.18.46.46,0,0,1-.2.13.59.59,0,0,1-.23,0,.67.67,0,0,1-.53-.22.84.84,0,0,1-.21-.59,1.06,1.06,0,0,1,.19-.62A1.54,1.54,0,0,1,71,6a2.38,2.38,0,0,1,.68-.24,4,4,0,0,1,.77-.08,4.14,4.14,0,0,1,.87.1,2.11,2.11,0,0,1,.73.32,1.49,1.49,0,0,1,.51.55,1.57,1.57,0,0,1,.19.81v3.31s0,.07,0,.12a.2.2,0,0,0,0,.11.16.16,0,0,0,.07.09.25.25,0,0,0,.13,0,.32.32,0,0,0,.2-.08l.16-.16.15.12-.21.27a1.56,1.56,0,0,1-.3.27,1.78,1.78,0,0,1-.41.22,1.53,1.53,0,0,1-.54.09,1,1,0,0,1-1-.9,2,2,0,0,1-.39.42,1.84,1.84,0,0,1-.83.43,2.18,2.18,0,0,1-.43,0,1.71,1.71,0,0,1-.55-.09,1.25,1.25,0,0,1-.47-.28A1.48,1.48,0,0,1,70,11a2.07,2.07,0,0,1-.12-.75,1.65,1.65,0,0,1,.21-.87,1.76,1.76,0,0,1,.55-.57,3.57,3.57,0,0,1,.78-.4l.9-.34a1,1,0,0,0,.49-.4A1.16,1.16,0,0,0,73,7.13a1,1,0,0,0-.26-.7A.94.94,0,0,0,72,6.17ZM73,8.74a.27.27,0,0,0-.09-.22.41.41,0,0,0-.24-.08.86.86,0,0,0-.39.09,1,1,0,0,0-.33.28,1.35,1.35,0,0,0-.22.45,1.94,1.94,0,0,0-.08.62,2.28,2.28,0,0,0,0,.56,1,1,0,0,0,.13.35A.52.52,0,0,0,72,11a.59.59,0,0,0,.23,0,.6.6,0,0,0,.29-.08.74.74,0,0,0,.23-.2,1,1,0,0,0,.16-.28.8.8,0,0,0,.06-.3Z"/><path class="cls-1" d="M78.11,7.29c.14-.19.28-.37.44-.56a4.93,4.93,0,0,1,.5-.52,2.78,2.78,0,0,1,.59-.37,1.58,1.58,0,0,1,.69-.15,1.19,1.19,0,0,1,.56.13,1.25,1.25,0,0,1,.36.32,1.23,1.23,0,0,1,.19.38,1.28,1.28,0,0,1,.06.34,2.58,2.58,0,0,1-.07.54A2,2,0,0,1,81.2,8a2.57,2.57,0,0,1-.43.53,3,3,0,0,1-.68.46,20.09,20.09,0,0,0,1.07,2,9.52,9.52,0,0,0,1,1.38,3.83,3.83,0,0,0,.93.8,1.61,1.61,0,0,0,.85.26.36.36,0,0,0,.14,0,1.68,1.68,0,0,0,.26-.1l.11.21-.32.17a2.8,2.8,0,0,1-.38.13,4.45,4.45,0,0,1-.48.1,6.25,6.25,0,0,1-.66,0,2.58,2.58,0,0,1-.68-.08,2.21,2.21,0,0,1-.68-.29,4.59,4.59,0,0,1-.69-.56,6.57,6.57,0,0,1-.71-.9,9.65,9.65,0,0,1-.75-1.28q-.39-.73-.81-1.74a6.16,6.16,0,0,0,.89-.77,4.24,4.24,0,0,0,.48-.64,1.72,1.72,0,0,0,.21-.51,2,2,0,0,0,0-.38.28.28,0,0,0,0-.08.23.23,0,0,0,0-.11.43.43,0,0,0-.1-.09.29.29,0,0,0-.17,0,.7.7,0,0,0-.44.18,2.35,2.35,0,0,0-.42.46,3.82,3.82,0,0,0-.37.58q-.16.31-.27.57v3a.67.67,0,0,1,0,.18.39.39,0,0,1-.12.2.74.74,0,0,1-.28.16,1.36,1.36,0,0,1-.5.07,1.22,1.22,0,0,1-.48-.08.51.51,0,0,1-.26-.17.37.37,0,0,1-.11-.2,1.49,1.49,0,0,1,0-.17V3.69a.58.58,0,0,0-.08-.3A.29.29,0,0,0,76,3.27a.47.47,0,0,0-.17,0,.44.44,0,0,0-.15.1l-.12-.15.3-.22a3,3,0,0,1,.36-.19,2.58,2.58,0,0,1,.42-.13,1.78,1.78,0,0,1,.47,0,1.36,1.36,0,0,1,.59.1A.79.79,0,0,1,78,3a.66.66,0,0,1,.12.32c0,.11,0,.21,0,.29Z"/><path class="cls-1" d="M84.06,9.08a1.51,1.51,0,0,0,.06.41,2.32,2.32,0,0,0,.16.44,2.73,2.73,0,0,0,.26.43,2,2,0,0,0,.36.36,1.63,1.63,0,0,0,.45.25,1.51,1.51,0,0,0,.53.09,1.61,1.61,0,0,0,.39,0,1.79,1.79,0,0,0,.32-.13l.3-.19.28-.23.14.14A4.89,4.89,0,0,1,87,11a3,3,0,0,1-1.21.72,3.12,3.12,0,0,1-.91.13,2.81,2.81,0,0,1-1-.19,2.53,2.53,0,0,1-.86-.55,2.82,2.82,0,0,1-.6-.92,3.42,3.42,0,0,1-.22-1.29,3.37,3.37,0,0,1,.13-1,2.93,2.93,0,0,1,.37-.8,2.73,2.73,0,0,1,.54-.63,3.38,3.38,0,0,1,.64-.45,3.16,3.16,0,0,1,.7-.27,2.71,2.71,0,0,1,.68-.09,2.5,2.5,0,0,1,.76.1,1.53,1.53,0,0,1,.53.25,1.08,1.08,0,0,1,.32.36,1,1,0,0,1,.11.44.9.9,0,0,1-.16.5,1.72,1.72,0,0,1-.42.38ZM85.24,7.9l.13-.1a.39.39,0,0,0,.08-.1,1.55,1.55,0,0,0,0-.15,1.55,1.55,0,0,0,0-.23,1.82,1.82,0,0,0,0-.32,1.23,1.23,0,0,0-.11-.34.73.73,0,0,0-.19-.26.37.37,0,0,0-.28-.11.52.52,0,0,0-.36.13,1,1,0,0,0-.25.32,2.37,2.37,0,0,0-.15.45,4.71,4.71,0,0,0-.09.52c0,.17,0,.33,0,.49s0,.29,0,.4Z"/><path class="cls-1" d="M90,6.16a.75.75,0,0,0-.26,0,.53.53,0,0,0-.21.11.62.62,0,0,0-.15.2.78.78,0,0,0-.05.28.71.71,0,0,0,.17.46,5.27,5.27,0,0,0,.41.47l.54.5a7,7,0,0,1,.54.55,3.22,3.22,0,0,1,.42.62,1.53,1.53,0,0,1,.16.7,2,2,0,0,1-.14.75,1.54,1.54,0,0,1-.41.56,1.84,1.84,0,0,1-.65.35,2.75,2.75,0,0,1-.84.12,2.11,2.11,0,0,1-.73-.12,2.4,2.4,0,0,1-.58-.28,2.71,2.71,0,0,1-.44-.35,3.29,3.29,0,0,1-.28-.34l.21-.15a1.69,1.69,0,0,0,.19.19,1.74,1.74,0,0,0,.26.19,1.77,1.77,0,0,0,.31.15,1.26,1.26,0,0,0,.33.05,1.15,1.15,0,0,0,.69-.2.72.72,0,0,0,.27-.6.94.94,0,0,0-.14-.46,4.85,4.85,0,0,0-.37-.49l-.48-.52a4.92,4.92,0,0,1-.48-.56,2.89,2.89,0,0,1-.37-.59,1.39,1.39,0,0,1-.15-.63,1.36,1.36,0,0,1,.15-.65,1.33,1.33,0,0,1,.4-.45,1.52,1.52,0,0,1,.57-.28,2.39,2.39,0,0,1,.66-.09,3.79,3.79,0,0,1,.71.07A1.71,1.71,0,0,1,90.8,6a.89.89,0,0,1,.36.36.91.91,0,0,1,.13.5.56.56,0,0,1-.15.39.51.51,0,0,1-.41.16.57.57,0,0,1-.38-.11A.36.36,0,0,1,90.21,7a.3.3,0,0,1,.07-.2.69.69,0,0,1,.13-.11l.14-.08a.09.09,0,0,0,.06-.08.29.29,0,0,0-.17-.26A.88.88,0,0,0,90,6.16Z"/><path class="cls-1" d="M93.12,10.88a1,1,0,0,1,.29-.7,1,1,0,0,1,.7-.29.84.84,0,0,1,.38.08.94.94,0,0,1,.53.53.84.84,0,0,1,.08.38,1,1,0,0,1-.29.7,1,1,0,0,1-.7.29,1,1,0,0,1-.39-.08,1,1,0,0,1-.52-.52A1,1,0,0,1,93.12,10.88Zm0-7.28a1.37,1.37,0,0,1,0-.16.47.47,0,0,1,.11-.19.7.7,0,0,1,.27-.17A1.55,1.55,0,0,1,94.06,3a1.3,1.3,0,0,1,.49.07.78.78,0,0,1,.29.15.46.46,0,0,1,.13.19.62.62,0,0,1,0,.18c0,.34,0,.68-.08,1s-.06.67-.1,1-.07.63-.11.94-.07.58-.11.85c-.08.62-.17,1.22-.27,1.79h-.43c-.1-.57-.2-1.17-.29-1.79,0-.27-.08-.55-.12-.85s-.09-.62-.12-.95-.08-.66-.11-1S93.19,3.94,93.17,3.6Z"/><path class="cls-1" d="M2.81,18.24h0a.08.08,0,0,1,0,0s0,0,.05.06L4.66,21c0-.06,0-.13,0-.19V18.23h.53v3.91H4.86a.21.21,0,0,1-.12,0,.3.3,0,0,1-.09-.1L3,19.41c0,.06,0,.12,0,.17v2.56H2.43V18.23h.38Z"/><path class="cls-1" d="M7.61,22.14H7.36a.21.21,0,0,1-.12,0A.18.18,0,0,1,7.17,22l0-.19L7,22a.94.94,0,0,1-.18.12.62.62,0,0,1-.19.07.78.78,0,0,1-.22,0,.76.76,0,0,1-.27-.05A.55.55,0,0,1,5.87,22a.69.69,0,0,1-.14-.24,1,1,0,0,1,0-.32.81.81,0,0,1,.06-.31A.77.77,0,0,1,6,20.84a1.57,1.57,0,0,1,.43-.21,2.37,2.37,0,0,1,.66-.08v-.16A.7.7,0,0,0,7,20a.34.34,0,0,0-.29-.14.48.48,0,0,0-.22,0A.8.8,0,0,0,6.3,20l-.12.09a.28.28,0,0,1-.12,0,.18.18,0,0,1-.1,0A.22.22,0,0,1,5.89,20l-.1-.21a1.27,1.27,0,0,1,1-.44.87.87,0,0,1,.37.08.82.82,0,0,1,.26.23.86.86,0,0,1,.17.33,1.56,1.56,0,0,1,.06.44Zm-1.08-.42.16,0,.13-.05.13-.1a.77.77,0,0,0,.12-.13V21a1.58,1.58,0,0,0-.41,0,.71.71,0,0,0-.26.09.32.32,0,0,0-.14.14.29.29,0,0,0,0,.16.34.34,0,0,0,.08.25A.36.36,0,0,0,6.53,21.72Z"/><path class="cls-1" d="M8.91,22.18a.57.57,0,0,1-.46-.2.9.9,0,0,1-.16-.57V19.87H8.06a.12.12,0,0,1-.08,0,.16.16,0,0,1,0-.11v-.26l.37-.07.12-.76a.09.09,0,0,1,0-.08.11.11,0,0,1,.08,0h.29v.87h.6v.48h-.6v1.5a.31.31,0,0,0,.05.2.16.16,0,0,0,.14.07h.09l.06,0,.05,0h.08l0,.05.17.32a.77.77,0,0,1-.28.19A.88.88,0,0,1,8.91,22.18Z"/><path class="cls-1" d="M10.41,19.37v1.76a.73.73,0,0,0,.09.39.36.36,0,0,0,.3.14.56.56,0,0,0,.27-.08,1.13,1.13,0,0,0,.24-.21v-2h.55v2.77h-.34c-.07,0-.12,0-.14-.13l0-.22-.15.16a.61.61,0,0,1-.16.12.64.64,0,0,1-.19.08.66.66,0,0,1-.21,0,.74.74,0,0,1-.34-.08.71.71,0,0,1-.24-.22.84.84,0,0,1-.15-.33,1.86,1.86,0,0,1-.05-.42V19.37Z"/><path class="cls-1" d="M12.46,22.14V19.37h.32a.17.17,0,0,1,.12,0,.32.32,0,0,1,0,.13l0,.34a1.3,1.3,0,0,1,.29-.41.55.55,0,0,1,.37-.15.46.46,0,0,1,.29.1l-.08.5a.14.14,0,0,1,0,.07l-.06,0-.1,0-.15,0a.44.44,0,0,0-.3.11,1,1,0,0,0-.21.34v1.73Z"/><path class="cls-1" d="M16,22.14h-.25a.25.25,0,0,1-.13,0A.17.17,0,0,1,15.6,22l0-.19-.17.16a.94.94,0,0,1-.18.12.62.62,0,0,1-.19.07.8.8,0,0,1-.23,0,.86.86,0,0,1-.27-.05A.6.6,0,0,1,14.3,22a.69.69,0,0,1-.14-.24,1,1,0,0,1-.05-.32.82.82,0,0,1,.07-.31.68.68,0,0,1,.23-.28,1.57,1.57,0,0,1,.43-.21,2.37,2.37,0,0,1,.66-.08v-.16a.7.7,0,0,0-.1-.41.34.34,0,0,0-.29-.14.48.48,0,0,0-.22,0,.8.8,0,0,0-.16.08l-.12.09a.28.28,0,0,1-.12,0,.18.18,0,0,1-.1,0,.22.22,0,0,1-.07-.09l-.1-.21a1.27,1.27,0,0,1,1-.44.8.8,0,0,1,.36.08.75.75,0,0,1,.27.23A.86.86,0,0,1,16,20a1.56,1.56,0,0,1,.06.44ZM15,21.72l.16,0,.13-.05.13-.1.12-.13V21a1.58,1.58,0,0,0-.41,0,.71.71,0,0,0-.26.09.27.27,0,0,0-.14.14.29.29,0,0,0,0,.16.3.3,0,0,0,.08.25A.34.34,0,0,0,15,21.72Z"/><path class="cls-1" d="M17.18,18.12v4h-.56v-4Z"/><path class="cls-1" d="M18.4,18.12v4h-.56v-4Z"/><path class="cls-1" d="M19.84,22.9a.24.24,0,0,1-.06.1.16.16,0,0,1-.12,0h-.42l.44-1.11-.94-2.56h.49a.15.15,0,0,1,.1,0,.47.47,0,0,1,.06.09l.49,1.44s0,.09,0,.14l0,.15s0-.1,0-.15,0-.1.05-.15l.46-1.43a.15.15,0,0,1,.06-.09.16.16,0,0,1,.09,0h.45Z"/><path class="cls-1" d="M22.29,23V19.37h.34a.12.12,0,0,1,.09,0,.11.11,0,0,1,.05.09l.05.25a1.34,1.34,0,0,1,.32-.31.74.74,0,0,1,.42-.12.68.68,0,0,1,.35.1.87.87,0,0,1,.27.27,1.57,1.57,0,0,1,.17.45,2.15,2.15,0,0,1,.07.6,2.47,2.47,0,0,1-.07.57,1.77,1.77,0,0,1-.2.46,1,1,0,0,1-.32.31.78.78,0,0,1-.41.11.67.67,0,0,1-.33-.08.72.72,0,0,1-.24-.19V23Zm1.08-3.2a.48.48,0,0,0-.29.09.94.94,0,0,0-.23.25v1.24a.51.51,0,0,0,.2.19.53.53,0,0,0,.24.06.44.44,0,0,0,.23-.06.48.48,0,0,0,.18-.17,1.1,1.1,0,0,0,.1-.29,1.76,1.76,0,0,0,0-.42,2.37,2.37,0,0,0,0-.41.84.84,0,0,0-.09-.28.36.36,0,0,0-.15-.15A.42.42,0,0,0,23.37,19.84Z"/><path class="cls-1" d="M25.35,19.37v1.76a.73.73,0,0,0,.09.39.36.36,0,0,0,.3.14.56.56,0,0,0,.27-.08,1.13,1.13,0,0,0,.24-.21v-2h.55v2.77h-.34c-.07,0-.12,0-.14-.13l0-.22-.15.16a.61.61,0,0,1-.16.12.64.64,0,0,1-.19.08.66.66,0,0,1-.21,0,.74.74,0,0,1-.34-.08.71.71,0,0,1-.24-.22.84.84,0,0,1-.15-.33,1.86,1.86,0,0,1-.05-.42V19.37Z"/><path class="cls-1" d="M27.4,22.14V19.37h.32a.17.17,0,0,1,.12,0,.32.32,0,0,1,.05.13l0,.34a1.3,1.3,0,0,1,.29-.41.55.55,0,0,1,.37-.15.46.46,0,0,1,.29.1l-.08.5a.14.14,0,0,1,0,.07l-.07,0-.09,0-.15,0a.44.44,0,0,0-.3.11,1,1,0,0,0-.21.34v1.73Z"/><path class="cls-1" d="M29.91,18.56a.41.41,0,0,1,0,.16.57.57,0,0,1-.08.13.31.31,0,0,1-.11.09.26.26,0,0,1-.28,0,.31.31,0,0,1-.11-.09.33.33,0,0,1-.07-.13.41.41,0,0,1,0-.16.47.47,0,0,1,0-.17.27.27,0,0,1,.07-.13.31.31,0,0,1,.11-.09.27.27,0,0,1,.28,0,.31.31,0,0,1,.11.09.41.41,0,0,1,.08.13A.47.47,0,0,1,29.91,18.56Zm-.08.81v2.77h-.56V19.37Z"/><path class="cls-1" d="M30.55,22.14V19.87l-.2,0a.23.23,0,0,1-.1,0,.16.16,0,0,1,0-.12v-.27h.34v-.21a1.37,1.37,0,0,1,.06-.42.88.88,0,0,1,.17-.32.9.9,0,0,1,.27-.21,1,1,0,0,1,.36-.07.73.73,0,0,1,.3.06v.33a.1.1,0,0,1-.06.1l-.13,0a.5.5,0,0,0-.18,0,.38.38,0,0,0-.13.09.38.38,0,0,0-.08.17.93.93,0,0,0,0,.26v.18h.6v.48h-.58v2.27Z"/><path class="cls-1" d="M32.85,22.9a.44.44,0,0,1-.06.1.16.16,0,0,1-.12,0h-.42l.43-1.11-.93-2.56h.49a.17.17,0,0,1,.1,0,.41.41,0,0,1,0,.09l.5,1.44s0,.09,0,.14l0,.15a.83.83,0,0,1,0-.15c0-.05,0-.1,0-.15l.47-1.43a.15.15,0,0,1,.06-.09l.09,0h.45Z"/><path class="cls-1" d="M36.49,18.19a.83.83,0,0,1,.36.07.86.86,0,0,1,.27.2,1,1,0,0,1,.17.27,1.32,1.32,0,0,1,.08.33l-.36.09h0a.09.09,0,0,1-.06,0,.12.12,0,0,1-.05-.08s0-.09,0-.13a1,1,0,0,0-.08-.11l-.11-.08-.14,0a.41.41,0,0,0-.16,0,.47.47,0,0,0-.13.11.71.71,0,0,0-.08.15.58.58,0,0,0,0,.19.88.88,0,0,0,0,.16.83.83,0,0,0,0,.15,1.19,1.19,0,0,0,.09.15.88.88,0,0,0,.12.17l.87,1.08a3.07,3.07,0,0,0,.11-.36,2.32,2.32,0,0,0,.06-.38.23.23,0,0,1,0-.1.08.08,0,0,1,.08,0h.35a2.48,2.48,0,0,1-.09.68,2,2,0,0,1-.24.6l.68.85H37.6l-.06,0a.1.1,0,0,1,0,0L37.43,22l-.22-.28a1.76,1.76,0,0,1-.49.33,1.32,1.32,0,0,1-.57.12,1,1,0,0,1-.37-.08,1,1,0,0,1-.32-.22,1.09,1.09,0,0,1-.31-.82,1,1,0,0,1,.05-.34,1.2,1.2,0,0,1,.13-.31,1.27,1.27,0,0,1,.21-.25,1.35,1.35,0,0,1,.27-.2,1.7,1.7,0,0,1-.18-.39,1.31,1.31,0,0,1-.05-.39,1.21,1.21,0,0,1,.06-.38.92.92,0,0,1,.18-.32.78.78,0,0,1,.29-.21A.79.79,0,0,1,36.49,18.19ZM35.71,21a1,1,0,0,0,0,.26.72.72,0,0,0,.12.21.66.66,0,0,0,.17.12.54.54,0,0,0,.21,0,.86.86,0,0,0,.36-.08,1.21,1.21,0,0,0,.3-.2l-.85-1.06a1,1,0,0,0-.27.32A1,1,0,0,0,35.71,21Z"/><path class="cls-1" d="M40.33,19.32a1,1,0,0,1,.41.09.79.79,0,0,1,.31.24,1.22,1.22,0,0,1,.21.39,1.81,1.81,0,0,1,.07.54v.12a.45.45,0,0,1,0,.08l0,0H39.78a1.09,1.09,0,0,0,.19.63.56.56,0,0,0,.44.2.53.53,0,0,0,.23,0,.75.75,0,0,0,.18-.08l.12-.08a.19.19,0,0,1,.11,0h.06a.1.1,0,0,1,0,.05l.16.24a1.07,1.07,0,0,1-.2.22,1,1,0,0,1-.24.14.84.84,0,0,1-.26.07,1.07,1.07,0,0,1-.25,0,1.14,1.14,0,0,1-.45-.1,1.17,1.17,0,0,1-.36-.28,1.48,1.48,0,0,1-.24-.47,2.08,2.08,0,0,1-.08-.64,1.79,1.79,0,0,1,.07-.53,1.51,1.51,0,0,1,.22-.44,1.09,1.09,0,0,1,.35-.29A1,1,0,0,1,40.33,19.32Zm0,.48A.45.45,0,0,0,40,20a.88.88,0,0,0-.18.47h1a1.79,1.79,0,0,0,0-.24.53.53,0,0,0-.09-.2.52.52,0,0,0-.16-.14A.46.46,0,0,0,40.35,19.8Z"/><path class="cls-1" d="M42.2,20.71l-.76-1.34H42s.07,0,.08,0a.17.17,0,0,1,.06.06l.48.93,0-.09a.69.69,0,0,1,0-.1l.39-.72a.28.28,0,0,1,.06-.08.08.08,0,0,1,.07,0h.51l-.76,1.31.79,1.46h-.54a.13.13,0,0,1-.09,0L43,22l-.49-1a.6.6,0,0,1,0,.16l-.43.8L42,22.1a.18.18,0,0,1-.09,0h-.5Z"/><path class="cls-1" d="M44.18,22.14V19.87l-.2,0a.23.23,0,0,1-.1,0,.16.16,0,0,1,0-.12v-.27h.34v-.21a1.37,1.37,0,0,1,.06-.42.88.88,0,0,1,.17-.32.79.79,0,0,1,.27-.21,1,1,0,0,1,.36-.07.73.73,0,0,1,.3.06v.33a.14.14,0,0,1-.06.1l-.13,0a.5.5,0,0,0-.18,0,.3.3,0,0,0-.13.09.3.3,0,0,0-.08.17.93.93,0,0,0,0,.26v.18h.6v.48h-.58v2.27Z"/><path class="cls-1" d="M46.64,19.32a1.16,1.16,0,0,1,.47.1,1,1,0,0,1,.36.29,1.23,1.23,0,0,1,.23.44,2.25,2.25,0,0,1,0,1.19,1.2,1.2,0,0,1-.23.45,1.12,1.12,0,0,1-.36.29,1.16,1.16,0,0,1-.47.1,1.2,1.2,0,0,1-.47-.1,1.12,1.12,0,0,1-.36-.29,1.36,1.36,0,0,1-.23-.45,2.25,2.25,0,0,1,0-1.19,1.41,1.41,0,0,1,.23-.44,1,1,0,0,1,.36-.29A1.2,1.2,0,0,1,46.64,19.32Zm0,2.34a.45.45,0,0,0,.43-.23,1.72,1.72,0,0,0,0-1.36.45.45,0,0,0-.43-.24.47.47,0,0,0-.43.24,1.72,1.72,0,0,0,0,1.36A.47.47,0,0,0,46.64,21.66Z"/><path class="cls-1" d="M48.81,18.12v4h-.56v-4Z"/><path class="cls-1" d="M50.11,18.56a.41.41,0,0,1,0,.16.35.35,0,0,1-.08.13.31.31,0,0,1-.11.09.23.23,0,0,1-.14,0,.25.25,0,0,1-.14,0,.44.44,0,0,1-.11-.09.54.54,0,0,1-.07-.13.41.41,0,0,1,0-.16.47.47,0,0,1,0-.17.4.4,0,0,1,.07-.13.44.44,0,0,1,.11-.09.25.25,0,0,1,.14,0,.23.23,0,0,1,.14,0,.31.31,0,0,1,.11.09.29.29,0,0,1,.08.13A.47.47,0,0,1,50.11,18.56Zm-.08.81v2.77h-.56V19.37Z"/><path class="cls-1" d="M52.46,22.14h-.25a.21.21,0,0,1-.12,0A.22.22,0,0,1,52,22L52,21.8,51.8,22a.88.88,0,0,1-.17.12.73.73,0,0,1-.19.07.85.85,0,0,1-.23,0,.76.76,0,0,1-.27-.05.6.6,0,0,1-.21-.14.57.57,0,0,1-.14-.24,1,1,0,0,1-.05-.32.67.67,0,0,1,.07-.31.61.61,0,0,1,.23-.28,1.37,1.37,0,0,1,.42-.21,2.48,2.48,0,0,1,.66-.08v-.16a.63.63,0,0,0-.1-.41.32.32,0,0,0-.28-.14.64.64,0,0,0-.38.12l-.12.09a.28.28,0,0,1-.13,0,.18.18,0,0,1-.1,0,.35.35,0,0,1-.06-.09l-.1-.21a1.24,1.24,0,0,1,1-.44.86.86,0,0,1,.36.08.75.75,0,0,1,.27.23,1,1,0,0,1,.17.33,2,2,0,0,1,.05.44Zm-1.08-.42.16,0,.14-.05.12-.1a.77.77,0,0,0,.12-.13V21a1.62,1.62,0,0,0-.41,0,.88.88,0,0,0-.26.09.38.38,0,0,0-.14.14.29.29,0,0,0,0,.16.3.3,0,0,0,.09.25A.31.31,0,0,0,51.38,21.72Z"/><path class="cls-1" d="M53.77,22.18a.57.57,0,0,1-.46-.2.9.9,0,0,1-.16-.57V19.87h-.24s0,0-.08,0a.16.16,0,0,1,0-.11v-.26l.37-.07.12-.76a.2.2,0,0,1,0-.08.11.11,0,0,1,.08,0h.29v.87h.61v.48H53.7v1.5a.32.32,0,0,0,.06.2.15.15,0,0,0,.14.07H54l.06,0,0,0h.08l0,.05.16.32a.83.83,0,0,1-.27.19A1,1,0,0,1,53.77,22.18Z"/><path class="cls-1" d="M55.71,19.32a.9.9,0,0,1,.4.09.79.79,0,0,1,.31.24,1.22,1.22,0,0,1,.21.39,1.8,1.8,0,0,1,.08.54c0,.05,0,.09,0,.12a.15.15,0,0,1,0,.08.08.08,0,0,1,0,0H55.15a1.09,1.09,0,0,0,.19.63.56.56,0,0,0,.44.2.61.61,0,0,0,.24,0l.17-.08.12-.08a.19.19,0,0,1,.11,0h.06a.1.1,0,0,1,0,.05l.16.24a1.07,1.07,0,0,1-.2.22,1,1,0,0,1-.24.14.77.77,0,0,1-.26.07,1.07,1.07,0,0,1-.25,0,1.05,1.05,0,0,1-.44-.1,1,1,0,0,1-.36-.28,1.32,1.32,0,0,1-.25-.47,2.43,2.43,0,0,1-.08-.64,1.79,1.79,0,0,1,.07-.53,1.51,1.51,0,0,1,.22-.44,1.09,1.09,0,0,1,.35-.29A1,1,0,0,1,55.71,19.32Zm0,.48a.46.46,0,0,0-.38.16,1,1,0,0,0-.18.47h1.05a.93.93,0,0,0,0-.24.53.53,0,0,0-.09-.2.36.36,0,0,0-.16-.14A.46.46,0,0,0,55.72,19.8Z"/><path class="cls-1" d="M57.74,19.37h.45a.17.17,0,0,1,.1,0,.11.11,0,0,1,.05.09L58.68,21c0,.08,0,.16,0,.24l0,.23c0-.08,0-.16,0-.23a2.17,2.17,0,0,1,.07-.24l.38-1.49a.14.14,0,0,1,0-.08.13.13,0,0,1,.1,0h.24a.13.13,0,0,1,.1,0,.16.16,0,0,1,.06.08L60.17,21l.06.22c0,.07,0,.15,0,.22a1.85,1.85,0,0,1,0-.23,2,2,0,0,1,0-.24l.34-1.48a.13.13,0,0,1,0-.09.17.17,0,0,1,.1,0h.42l-.73,2.77h-.45c-.05,0-.08,0-.1-.12l-.42-1.6,0-.16,0-.16,0,.16a.94.94,0,0,1,0,.16L59,22q0,.12-.12.12h-.42Z"/><path class="cls-1" d="M62.26,18.56a.41.41,0,0,1,0,.16.35.35,0,0,1-.08.13.31.31,0,0,1-.11.09.23.23,0,0,1-.14,0,.25.25,0,0,1-.14,0,.31.31,0,0,1-.11-.09.54.54,0,0,1-.07-.13.41.41,0,0,1,0-.16.47.47,0,0,1,0-.17.4.4,0,0,1,.07-.13.31.31,0,0,1,.11-.09.25.25,0,0,1,.14,0,.23.23,0,0,1,.14,0,.31.31,0,0,1,.11.09.29.29,0,0,1,.08.13A.47.47,0,0,1,62.26,18.56Zm-.08.81v2.77h-.56V19.37Z"/><path class="cls-1" d="M63.56,22.18a.57.57,0,0,1-.46-.2.9.9,0,0,1-.16-.57V19.87h-.23a.12.12,0,0,1-.08,0,.16.16,0,0,1,0-.11v-.26l.37-.07.11-.76a.14.14,0,0,1,.05-.08.1.1,0,0,1,.08,0h.29v.87h.6v.48h-.6v1.5a.31.31,0,0,0,0,.2.16.16,0,0,0,.14.07h.09l.06,0,0,0H64l0,.05.17.32a.87.87,0,0,1-.28.19A.92.92,0,0,1,63.56,22.18Z"/><path class="cls-1" d="M64.55,22.14v-4h.55v1.55a1,1,0,0,1,.3-.25.75.75,0,0,1,.71,0,.65.65,0,0,1,.25.22,1.26,1.26,0,0,1,.15.33,1.86,1.86,0,0,1,0,.42v1.77H66V20.37a.63.63,0,0,0-.1-.39.33.33,0,0,0-.29-.14.5.5,0,0,0-.27.08,1.13,1.13,0,0,0-.24.21v2Z"/><path class="cls-1" d="M5.17,27.64H4.56V25.93H3v1.71H2.43V23.73H3v1.68H4.56V23.73h.61Z"/><path class="cls-1" d="M6.75,24.82a1,1,0,0,1,.41.09.79.79,0,0,1,.31.24,1.22,1.22,0,0,1,.21.39,1.81,1.81,0,0,1,.07.54v.12a.45.45,0,0,1,0,.08l0,0H6.2a1,1,0,0,0,.19.63.56.56,0,0,0,.44.2.53.53,0,0,0,.23,0A.54.54,0,0,0,7.23,27L7.36,27a.19.19,0,0,1,.11,0h.06l0,.05.16.24a1.07,1.07,0,0,1-.2.22,1,1,0,0,1-.24.14.84.84,0,0,1-.26.07,1.07,1.07,0,0,1-.25,0,1.14,1.14,0,0,1-.45-.1A1.17,1.17,0,0,1,6,27.3a1.48,1.48,0,0,1-.24-.47,2.06,2.06,0,0,1-.09-.64,1.78,1.78,0,0,1,.08-.53,1.51,1.51,0,0,1,.22-.44,1.09,1.09,0,0,1,.35-.29A1,1,0,0,1,6.75,24.82Zm0,.48a.48.48,0,0,0-.39.16.87.87,0,0,0-.17.47h1a.93.93,0,0,0,0-.24.53.53,0,0,0-.09-.2A.4.4,0,0,0,7,25.35.46.46,0,0,0,6.77,25.3Z"/><path class="cls-1" d="M8.21,27.64V24.87h.33c.08,0,.12,0,.15.12l0,.2L8.85,25,9,24.93l.16-.08a.58.58,0,0,1,.19,0A.49.49,0,0,1,9.7,25a.78.78,0,0,1,.21.38,1,1,0,0,1,.14-.24.93.93,0,0,1,.18-.16.72.72,0,0,1,.2-.09.83.83,0,0,1,.22,0,.89.89,0,0,1,.34.07.72.72,0,0,1,.25.21.84.84,0,0,1,.15.33,1.51,1.51,0,0,1,.06.44v1.77h-.56V25.87a.66.66,0,0,0-.1-.4.33.33,0,0,0-.28-.13.29.29,0,0,0-.16,0,.31.31,0,0,0-.13.1.6.6,0,0,0-.08.16.85.85,0,0,0,0,.23v1.77H9.55V25.87a.7.7,0,0,0-.09-.4.33.33,0,0,0-.28-.13.36.36,0,0,0-.22.07,1,1,0,0,0-.2.2v2Z"/><path class="cls-1" d="M12,28.54V24.87h.34a.17.17,0,0,1,.1,0,.19.19,0,0,1,.05.09l0,.25a1.34,1.34,0,0,1,.32-.31.75.75,0,0,1,.43-.12.67.67,0,0,1,.34.1.7.7,0,0,1,.27.27,1.32,1.32,0,0,1,.18.45,2.64,2.64,0,0,1,.06.6,2,2,0,0,1-.07.57,1.49,1.49,0,0,1-.2.46,1.14,1.14,0,0,1-.31.31.84.84,0,0,1-.41.11.71.71,0,0,1-.34-.08.72.72,0,0,1-.24-.19v1.13Zm1.08-3.2a.48.48,0,0,0-.29.09.94.94,0,0,0-.23.25v1.24a.55.55,0,0,0,.45.25.4.4,0,0,0,.22-.06.48.48,0,0,0,.18-.17,1.6,1.6,0,0,0,.11-.29,2.58,2.58,0,0,0,0-.42,2.37,2.37,0,0,0,0-.41.84.84,0,0,0-.09-.28.36.36,0,0,0-.15-.15A.42.42,0,0,0,13.07,25.34Z"/><path class="cls-1" d="M17.18,24.44a.19.19,0,0,1-.05.09l-.08,0a.14.14,0,0,1-.1,0l-.14-.1-.18-.09a.55.55,0,0,0-.24,0,.54.54,0,0,0-.22,0,.46.46,0,0,0-.25.25.64.64,0,0,0,0,.2A.41.41,0,0,0,16,25a.87.87,0,0,0,.17.16,1.33,1.33,0,0,0,.24.11l.28.11.28.14a1.33,1.33,0,0,1,.24.19,1.17,1.17,0,0,1,.17.29,1.22,1.22,0,0,1,.06.41,1.64,1.64,0,0,1-.08.5,1.11,1.11,0,0,1-.22.4,1,1,0,0,1-.83.37,1.1,1.1,0,0,1-.31,0,1.33,1.33,0,0,1-.28-.1,1.64,1.64,0,0,1-.26-.16,2.23,2.23,0,0,1-.22-.21l.18-.35a.13.13,0,0,1,.06-.07l.07,0a.27.27,0,0,1,.13.05l.15.13L16,27a.65.65,0,0,0,.29,0,.53.53,0,0,0,.4-.14.61.61,0,0,0,.14-.42.5.5,0,0,0-.06-.26.87.87,0,0,0-.17-.16,1.33,1.33,0,0,0-.24-.11l-.28-.1-.27-.13a.91.91,0,0,1-.24-.2.87.87,0,0,1-.17-.3,1.18,1.18,0,0,1-.07-.45,1.54,1.54,0,0,1,.07-.42A1.31,1.31,0,0,1,15.6,24a1.2,1.2,0,0,1,.33-.25,1.14,1.14,0,0,1,.46-.09,1.2,1.2,0,0,1,.53.11,1.12,1.12,0,0,1,.41.3Z"/><path class="cls-1" d="M18.78,24.82a.93.93,0,0,1,.4.09.79.79,0,0,1,.31.24,1.22,1.22,0,0,1,.21.39,1.81,1.81,0,0,1,.07.54v.12a.15.15,0,0,1,0,.08l0,0H18.22a1.09,1.09,0,0,0,.19.63.56.56,0,0,0,.44.2.53.53,0,0,0,.23,0,.75.75,0,0,0,.18-.08l.12-.08a.19.19,0,0,1,.11,0h.06a.1.1,0,0,1,0,.05l.16.24a1.07,1.07,0,0,1-.2.22,1,1,0,0,1-.24.14.84.84,0,0,1-.26.07,1.07,1.07,0,0,1-.25,0,1.14,1.14,0,0,1-.45-.1A1.17,1.17,0,0,1,18,27.3a1.48,1.48,0,0,1-.24-.47,2.43,2.43,0,0,1-.08-.64,1.79,1.79,0,0,1,.07-.53,1.51,1.51,0,0,1,.22-.44,1.09,1.09,0,0,1,.35-.29A1,1,0,0,1,18.78,24.82Zm0,.48a.45.45,0,0,0-.38.16.88.88,0,0,0-.18.47h1a.93.93,0,0,0,0-.24.53.53,0,0,0-.09-.2.43.43,0,0,0-.16-.14A.46.46,0,0,0,18.79,25.3Z"/><path class="cls-1" d="M21.18,24.82a.87.87,0,0,1,.4.09.82.82,0,0,1,.32.24,1.22,1.22,0,0,1,.21.39,2.21,2.21,0,0,1,.07.54.41.41,0,0,1,0,.12.15.15,0,0,1,0,.08.08.08,0,0,1,0,0H20.63a1,1,0,0,0,.19.63.54.54,0,0,0,.44.2.56.56,0,0,0,.23,0,.67.67,0,0,0,.17-.08l.13-.08a.17.17,0,0,1,.11,0H22L22,27l.16.24a.88.88,0,0,1-.21.22.72.72,0,0,1-.24.14.78.78,0,0,1-.25.07l-.25,0a1.14,1.14,0,0,1-.45-.1,1,1,0,0,1-.36-.28,1.48,1.48,0,0,1-.24-.47,2.06,2.06,0,0,1-.09-.64,1.78,1.78,0,0,1,.08-.53,1.3,1.3,0,0,1,.22-.44,1,1,0,0,1,.35-.29A1,1,0,0,1,21.18,24.82Zm0,.48a.46.46,0,0,0-.38.16.87.87,0,0,0-.17.47h1a.93.93,0,0,0,0-.24.53.53,0,0,0-.09-.2.4.4,0,0,0-.15-.14A.51.51,0,0,0,21.19,25.3Z"/><path class="cls-1" d="M24.26,27.64c-.08,0-.12,0-.15-.13l0-.26-.15.17-.17.14a1.21,1.21,0,0,1-.2.09.78.78,0,0,1-.22,0,.71.71,0,0,1-.35-.1.87.87,0,0,1-.27-.27,1.56,1.56,0,0,1-.18-.45,2.64,2.64,0,0,1-.06-.6,2.47,2.47,0,0,1,.07-.57,1.77,1.77,0,0,1,.2-.46,1,1,0,0,1,.32-.31.77.77,0,0,1,.4-.11.74.74,0,0,1,.34.08.76.76,0,0,1,.24.2V23.62h.56v4Zm-.74-.49a.48.48,0,0,0,.29-.09.94.94,0,0,0,.23-.25V25.57a.54.54,0,0,0-.21-.19.48.48,0,0,0-.24-.06.43.43,0,0,0-.22.06.48.48,0,0,0-.18.17,1.36,1.36,0,0,0-.11.29,2.58,2.58,0,0,0,0,.42,2.37,2.37,0,0,0,0,.41.92.92,0,0,0,.09.28.36.36,0,0,0,.15.15A.42.42,0,0,0,23.52,27.15Z"/><path class="cls-1" d="M28.84,27.64h-.61V25.93H26.71v1.71H26.1V23.73h.61v1.68h1.52V23.73h.61Z"/><path class="cls-1" d="M31.28,27.64H31a.23.23,0,0,1-.13,0,.17.17,0,0,1-.06-.12l-.05-.19-.18.16a.66.66,0,0,1-.17.12.62.62,0,0,1-.19.07.8.8,0,0,1-.23,0,.86.86,0,0,1-.27-.05.6.6,0,0,1-.21-.14.69.69,0,0,1-.14-.24,1,1,0,0,1,0-.32.82.82,0,0,1,.07-.31.68.68,0,0,1,.23-.28,1.64,1.64,0,0,1,.42-.21,2.48,2.48,0,0,1,.66-.08v-.16a.71.71,0,0,0-.09-.41.34.34,0,0,0-.29-.14.48.48,0,0,0-.22,0,.6.6,0,0,0-.16.08l-.12.09a.28.28,0,0,1-.13,0,.15.15,0,0,1-.09,0,.22.22,0,0,1-.07-.09l-.1-.21a1.27,1.27,0,0,1,1-.44.8.8,0,0,1,.36.08.75.75,0,0,1,.27.23.86.86,0,0,1,.17.33,1.56,1.56,0,0,1,.06.44Zm-1.08-.42.15,0,.14-.05.12-.1a.77.77,0,0,0,.12-.13v-.46a1.54,1.54,0,0,0-.4,0,.71.71,0,0,0-.26.09.27.27,0,0,0-.14.14.34.34,0,0,0,0,.41A.34.34,0,0,0,30.2,27.22Z"/><path class="cls-1" d="M31.82,27.64V24.87h.34a.13.13,0,0,1,.14.12l0,.22.15-.16a.83.83,0,0,1,.16-.12.64.64,0,0,1,.19-.08.78.78,0,0,1,.22,0,.73.73,0,0,1,.33.08.65.65,0,0,1,.25.22,1,1,0,0,1,.14.33,1.42,1.42,0,0,1,0,.42v1.77h-.55V25.87a.63.63,0,0,0-.1-.39.33.33,0,0,0-.29-.14.5.5,0,0,0-.27.08.79.79,0,0,0-.24.21v2Z"/><path class="cls-1" d="M36,27.64c-.08,0-.12,0-.15-.13l0-.26-.15.17-.17.14a1.21,1.21,0,0,1-.2.09.78.78,0,0,1-.22,0,.68.68,0,0,1-.35-.1.77.77,0,0,1-.27-.27,1.32,1.32,0,0,1-.18-.45,2.64,2.64,0,0,1-.06-.6,2.47,2.47,0,0,1,.07-.57,1.49,1.49,0,0,1,.2-.46,1.14,1.14,0,0,1,.31-.31.84.84,0,0,1,.41-.11.67.67,0,0,1,.33.08.69.69,0,0,1,.25.2V23.62h.56v4Zm-.74-.49a.48.48,0,0,0,.29-.09.94.94,0,0,0,.23-.25V25.57a.54.54,0,0,0-.21-.19.48.48,0,0,0-.24-.06.4.4,0,0,0-.22.06.48.48,0,0,0-.18.17,1.36,1.36,0,0,0-.11.29,2.58,2.58,0,0,0,0,.42,2.37,2.37,0,0,0,0,.41.92.92,0,0,0,.09.28.36.36,0,0,0,.15.15A.42.42,0,0,0,35.27,27.15Z"/><path class="cls-1" d="M37.54,23.73h.51a.17.17,0,0,1,.13.05.25.25,0,0,1,.08.12l.55,2.33a1.62,1.62,0,0,0,0,.19l0,.21a1.55,1.55,0,0,1,0-.21c0-.07,0-.13,0-.19l.64-2.33a.47.47,0,0,1,.07-.12.21.21,0,0,1,.13-.05H40a.19.19,0,0,1,.13.05.19.19,0,0,1,.07.12l.64,2.33a3.33,3.33,0,0,1,.08.39c0-.08,0-.14,0-.21l0-.18.55-2.33a.35.35,0,0,1,.07-.12.22.22,0,0,1,.14-.05h.47l-1,3.91h-.55L39.93,25l0-.11a.51.51,0,0,1,0-.13l0,.13,0,.11-.72,2.67h-.55Z"/><path class="cls-1" d="M44.11,27.64h-.25a.21.21,0,0,1-.12,0,.18.18,0,0,1-.07-.12l-.05-.19-.17.16a.94.94,0,0,1-.18.12.62.62,0,0,1-.19.07.78.78,0,0,1-.22,0,.76.76,0,0,1-.27-.05.55.55,0,0,1-.22-.14.68.68,0,0,1-.13-.24.8.8,0,0,1-.05-.32.67.67,0,0,1,.07-.31.66.66,0,0,1,.22-.28,1.57,1.57,0,0,1,.43-.21,2.48,2.48,0,0,1,.66-.08v-.16a.63.63,0,0,0-.1-.41.34.34,0,0,0-.28-.14.53.53,0,0,0-.23,0,.8.8,0,0,0-.16.08l-.12.09a.28.28,0,0,1-.12,0,.18.18,0,0,1-.1,0,.15.15,0,0,1-.06-.09l-.11-.21a1.28,1.28,0,0,1,1-.44.86.86,0,0,1,.36.08,1,1,0,0,1,.27.23,1,1,0,0,1,.16.33,1.56,1.56,0,0,1,.06.44ZM43,27.22l.16,0,.13-.05.13-.1a.77.77,0,0,0,.12-.13v-.46a1.62,1.62,0,0,0-.41,0,.79.79,0,0,0-.26.09.32.32,0,0,0-.14.14.29.29,0,0,0,0,.16.34.34,0,0,0,.08.25A.36.36,0,0,0,43,27.22Z"/><path class="cls-1" d="M46,25.41l-.05.06h-.06a.15.15,0,0,1-.09,0l-.11-.06a.3.3,0,0,0-.14-.06.48.48,0,0,0-.18,0,.42.42,0,0,0-.26.08.29.29,0,0,0-.09.22.2.2,0,0,0,.05.15.36.36,0,0,0,.13.11.75.75,0,0,0,.18.08l.2.08.21.1a.49.49,0,0,1,.18.14.46.46,0,0,1,.13.2.84.84,0,0,1,0,.29,1.15,1.15,0,0,1-.06.37.79.79,0,0,1-.18.29.86.86,0,0,1-.29.19,1,1,0,0,1-.39.07,1,1,0,0,1-.24,0,.94.94,0,0,1-.22-.07.72.72,0,0,1-.19-.11l-.16-.13.13-.26.06-.07.09,0a.12.12,0,0,1,.09,0l.11.07.14.08a.66.66,0,0,0,.21,0,.43.43,0,0,0,.17,0,.35.35,0,0,0,.12-.07.41.41,0,0,0,.07-.11.5.5,0,0,0,0-.12.25.25,0,0,0,0-.16.47.47,0,0,0-.13-.11.75.75,0,0,0-.18-.08l-.21-.08-.21-.1a.65.65,0,0,1-.18-.15.67.67,0,0,1-.13-.22,1,1,0,0,1,0-.31.92.92,0,0,1,.22-.6,1.12,1.12,0,0,1,.28-.18,1,1,0,0,1,.37-.07.92.92,0,0,1,.44.1.8.8,0,0,1,.32.25Z"/><path class="cls-1" d="M46.62,27.64v-4h.56v1.55a1,1,0,0,1,.3-.25.65.65,0,0,1,.38-.1.73.73,0,0,1,.33.08.65.65,0,0,1,.25.22,1,1,0,0,1,.14.33,1.42,1.42,0,0,1,.06.42v1.77h-.56V25.87a.63.63,0,0,0-.1-.39.33.33,0,0,0-.29-.14.5.5,0,0,0-.27.08.79.79,0,0,0-.24.21v2Z"/></svg>