<?xml version="1.0" encoding="utf-8"?>
<!-- Generator: Adobe Illustrator 24.2.3, SVG Export Plug-In . SVG Version: 6.00 Build 0)  -->
<svg version="1.1" id="Layer_1" xmlns="http://www.w3.org/2000/svg" xmlns:xlink="http://www.w3.org/1999/xlink" x="0px" y="0px"
	 viewBox="0 0 106 17" style="enable-background:new 0 0 106 17;" xml:space="preserve">
<style type="text/css">
	.st0{fill:#FFFFFF;}
</style>
<g>
	<path class="st0" d="M29.2,6c-1,1.7-1.9,3.5-2.8,5.2c-0.4,0.8-0.5,1.2-0.7,1.6c-0.1,0-0.1,0-0.2,0c0,0-0.1,0-0.2,0
		c-0.2-0.6-0.4-0.9-0.6-1.3c-0.9-1.8-2-3.8-2.9-5.4c-0.3,2-0.6,5.5-0.5,6.7c-0.2-0.1-0.3-0.1-0.5-0.1c-0.3,0-0.5,0.1-0.6,0.1
		c0.1-0.6,1.1-6.3,1.4-9.3c0.1,0,0.1,0,0.2,0c0.1,0,0.2,0,0.3,0c0.4,0.9,3,5.8,3.8,7.2c2.1-4,2.4-4.4,3.2-5.9
		c0.3-0.6,0.4-0.8,0.6-1.3c0.1,0,0.2,0,0.2,0c0.1,0,0.1,0,0.3,0c0.3,2.8,0.8,6.8,1.1,8.9c0,0.1,0,0.2,0.1,0.4
		c-0.4-0.1-0.5-0.1-0.8-0.1c-0.4,0-0.6,0-0.8,0.1C29.8,11.4,29.2,6.3,29.2,6z"/>
	<path class="st0" d="M39.4,11.5l-0.5-1.2c-0.5,0-0.9,0-1.4,0c-0.4,0-0.9,0-1.3,0c-0.3,0.9-0.7,1.8-0.9,2.4c-0.2,0-0.4-0.1-0.5-0.1
		c-0.2,0-0.3,0.1-0.5,0.1l1.3-2.9c1.1-2.5,1.8-3.9,2-4.8c0.1,0,0.2,0.1,0.4,0.1c0.1,0,0.2,0,0.3-0.1c0.5,1.5,1.2,3.1,1.6,4
		c0.4,1,1.2,2.6,1.7,3.7c-0.2,0-0.6-0.1-0.9-0.1c-0.3,0-0.6,0.1-0.8,0.1L39.4,11.5z M37.6,6.9l-1.1,2.7c0.4,0,0.8,0.1,1.2,0.1
		c0.3,0,0.7,0,1-0.1L37.6,6.9z"/>
	<path class="st0" d="M48.3,9.4c0.2,0.2,0.4,0.6,0.6,0.8c0.9,1.2,1.2,1.6,1.9,2.5c-0.3,0-0.6-0.1-1-0.1c-0.4,0-0.6,0-0.9,0.1
		c-0.2-0.3-0.4-0.7-0.6-0.9c-0.6-0.9-1.2-1.9-1.8-2.7h-0.3v1.6c0,0.3,0,1.8,0,2c-0.2,0-0.5-0.1-0.7-0.1c-0.3,0-0.5,0-0.8,0.1
		c0.1-2.2,0.1-2.4,0.1-4.6c0-1.4,0-1.6-0.1-3c0.3,0,0.5,0.1,1.1,0.1c0.3,0,1.6-0.1,1.8-0.1c0.7,0,1.3,0.1,1.7,0.5
		c0.3,0.3,0.5,0.8,0.5,1.2c0,1.2-0.9,1.9-1.9,2.1L48.3,9.4z M46.1,8.6c0.2,0,0.5,0,0.8,0c1.1,0,1.5-0.8,1.5-1.5
		c0-0.5-0.1-0.9-0.5-1.2c-0.3-0.2-0.7-0.3-1-0.3c-0.2,0-0.6,0-0.8,0.1V8.6z"/>
	<path class="st0" d="M57.5,9.4c0.2,0.2,0.4,0.6,0.6,0.8c0.9,1.2,1.2,1.6,1.9,2.5c-0.3,0-0.6-0.1-1-0.1c-0.4,0-0.6,0-0.9,0.1
		c-0.2-0.3-0.4-0.7-0.6-0.9c-0.6-0.9-1.3-1.9-1.8-2.7h-0.3v1.6c0,0.3,0,1.8,0,2c-0.2,0-0.5-0.1-0.7-0.1c-0.3,0-0.5,0-0.8,0.1
		C54,10.5,54,10.3,54,8.1c0-1.4,0-1.6-0.1-3c0.3,0,0.5,0.1,1.1,0.1c0.3,0,1.6-0.1,1.8-0.1c0.7,0,1.3,0.1,1.7,0.5
		c0.3,0.3,0.5,0.8,0.5,1.2c0,1.2-0.9,1.9-1.9,2.1L57.5,9.4z M55.3,8.6c0.2,0,0.5,0,0.8,0c1.1,0,1.5-0.8,1.5-1.5
		c0-0.5-0.1-0.9-0.5-1.2c-0.3-0.2-0.7-0.3-1-0.3c-0.2,0-0.6,0-0.8,0.1V8.6z"/>
	<path class="st0" d="M67.4,11.5L67,10.3c-0.5,0-0.9-0.1-1.4-0.1c-0.4,0-0.9,0-1.3,0.1c-0.3,0.9-0.7,1.8-0.9,2.4
		c-0.1,0-0.4-0.1-0.5-0.1c-0.2,0-0.3,0-0.5,0.1l1.3-2.9c1.1-2.5,1.8-3.9,2-4.8c0.1,0,0.2,0.1,0.4,0.1c0.1,0,0.2,0,0.3-0.1
		c0.5,1.5,1.2,3.1,1.6,4c0.4,1,1.2,2.6,1.7,3.7c-0.2,0-0.6-0.1-0.9-0.1s-0.6,0.1-0.8,0.1L67.4,11.5z M65.6,6.9l-1.1,2.7
		c0.4,0,0.8,0.1,1.2,0.1c0.3,0,0.7,0,1-0.1L65.6,6.9z"/>
	<path class="st0" d="M72.6,5.1c0.3,0,0.5,0.1,0.8,0.1c0.3,0,0.5,0,0.8-0.1c-0.1,0.5-0.1,1.3-0.1,1.8c0,0.6,0,1.2,0,1.8
		c0.8-0.7,1.3-1.2,1.9-1.9c0.5-0.5,1.1-1.2,1.4-1.6c0.1,0,0.3,0.1,0.5,0.1c0.2,0,0.4,0,0.7-0.1c-0.6,0.5-1.3,1.2-1.8,1.7
		c-0.6,0.5-0.7,0.7-1.5,1.6l0.6,0.8c0.6,0.7,2.2,2.9,2.9,3.6c-0.5-0.1-0.8-0.1-1-0.1c-0.3,0-0.6,0-0.9,0.1c-0.8-1.1-1.7-2.3-2.8-3.6
		c0,1.2,0,2.4,0.1,3.6c-0.2,0-0.5-0.1-0.8-0.1c-0.2,0-0.5,0.1-0.8,0.1c0.1-1.9,0.1-2,0.1-5C72.7,6.4,72.7,6.2,72.6,5.1z"/>
	<path class="st0" d="M83.5,8.4c0.6,0,1.8,0,2.4-0.1c0,0.1-0.1,0.2-0.1,0.4c0,0.2,0,0.3,0.1,0.4c-0.3,0-0.6-0.1-0.9-0.1
		c-0.5,0-1,0-1.5,0v3c0.3,0,1.7,0,2.7-0.1c0,0.1-0.1,0.2-0.1,0.4c0,0.2,0,0.3,0.1,0.4c-0.7-0.1-1.3-0.1-2-0.1c-0.7,0-1.4,0-2.1,0.1
		c0-0.5,0-0.9,0.1-1.4c0-0.6,0-2,0-2.5c0-0.5,0-2.6-0.1-3.7c0.5,0,1.4,0.1,2,0.1c0.5,0,1.2,0,2-0.1c0,0.1-0.1,0.2-0.1,0.3
		c0,0.2,0,0.3,0.1,0.4l-1-0.1c-0.4,0-0.5,0-1.5,0V8.4z"/>
	<path class="st0" d="M89.8,11.1c0.5,1.1,1.1,1.3,1.7,1.3c0.9,0,1.4-0.6,1.4-1.4c0-0.9-0.7-1.2-0.9-1.3c-0.3-0.1-0.8-0.3-1.1-0.5
		c-1.1-0.5-1.4-1-1.4-2c0-1,0.6-2.2,2.6-2.2c0.8,0,1.3,0.2,1.8,0.5c-0.2,0.5-0.2,0.6-0.3,1.1h-0.2c-0.2-0.6-0.8-1-1.4-1
		c-0.9,0-1.3,0.5-1.3,1.2c0,0.8,0.6,1,1.5,1.4c0.8,0.3,1.2,0.4,1.5,0.8c0.5,0.5,0.5,1.1,0.5,1.5c0,1.1-0.8,2.4-2.8,2.4
		c-0.9,0-1.7-0.4-2.1-0.6c0.2-0.6,0.2-0.7,0.3-1.3L89.8,11.1L89.8,11.1z"/>
	<path class="st0" d="M103.1,9c-0.6,0-1.2-0.1-1.8-0.1c-0.6,0-1.3,0-1.9,0.1v1.1c0,1.4,0,1.9,0.1,2.6c-0.2,0-0.4-0.1-0.8-0.1
		c-0.3,0-0.5,0-0.8,0.1c0.1-1.7,0.1-3.4,0.1-5c0-0.9,0-1.7-0.1-2.6c0.2,0,0.6,0.1,0.8,0.1c0.2,0,0.6,0,0.8-0.1
		c-0.1,0.6-0.1,1.1-0.1,3.2c0.6,0,1.1,0,1.7,0c0.7,0,1.3,0,2,0c0-0.3,0-1.6,0-1.9c0-0.3,0-0.4-0.1-1.3c0.2,0,0.6,0.1,0.8,0.1
		c0.2,0,0.6,0,0.8-0.1c-0.1,1.2-0.2,3.8-0.2,5c0,0.9,0,1.8,0.1,2.6c-0.3,0-0.5-0.1-0.8-0.1c-0.2,0-0.5,0-0.8,0.1
		c0-0.2,0.1-1.5,0.1-1.9L103.1,9z"/>
	<path class="st0" d="M83,3.7c-0.1,0-0.2-0.4-0.3-0.5c-0.1-0.1-0.4-0.3-0.4-0.4s0.3-0.2,0.4-0.4C82.8,2.3,83,1.9,83,1.9
		c0,0,0.2,0.4,0.3,0.5c0.1,0.1,0.4,0.3,0.4,0.4c0,0-0.3,0.3-0.4,0.4C83.3,3.3,83.1,3.7,83,3.7z"/>
	<path class="st0" d="M66.1,3.7c-0.1,0-0.2-0.4-0.3-0.5c-0.1-0.1-0.4-0.3-0.4-0.4s0.3-0.2,0.4-0.4c0.1-0.1,0.3-0.5,0.3-0.5
		c0,0,0.2,0.4,0.3,0.5c0.1,0.1,0.4,0.3,0.4,0.4c0,0-0.3,0.3-0.4,0.4C66.3,3.3,66.2,3.7,66.1,3.7z"/>
	<path class="st0" d="M38.2,3.7c-0.1,0-0.2-0.4-0.3-0.5s-0.4-0.3-0.4-0.4s0.2-0.2,0.4-0.4c0.1-0.1,0.3-0.5,0.3-0.5s0.2,0.4,0.3,0.5
		c0.1,0.1,0.4,0.3,0.4,0.4c0,0-0.3,0.3-0.4,0.4C38.4,3.3,38.2,3.7,38.2,3.7z"/>
	<path class="st0" d="M85.1,3.7c-0.1,0-0.2-0.4-0.3-0.5c-0.1-0.1-0.4-0.3-0.4-0.4c0,0,0.3-0.2,0.4-0.4c0.1-0.1,0.3-0.5,0.3-0.5
		c0,0,0.2,0.4,0.3,0.5c0.1,0.1,0.4,0.4,0.4,0.4c0,0-0.3,0.3-0.4,0.4C85.3,3.3,85.2,3.7,85.1,3.7z"/>
</g>
<g>
	<path class="st0" d="M12.5,5.7c0,0-0.1-0.2-0.2-0.2s-0.2-0.2-0.2-0.2c0,0,0.1-0.1,0.2-0.2c0.1-0.1,0.1-0.2,0.1-0.2
		c0,0,0.1,0.2,0.1,0.2c0.1,0.1,0.2,0.2,0.2,0.2s-0.1,0.1-0.2,0.2C12.6,5.5,12.5,5.7,12.5,5.7z"/>
	<path class="st0" d="M1.3,4.1c0.8-1.2,1.9-1.9,2.4-1.9c0.2,0,1.5,0.2,2.5,1.7c1.6-0.5,2.9-0.1,3.2,0.2c0.4,0.4,1.1,1.4,1.2,3.1
		c0.8-0.5,1.6-0.5,1.9-0.3c0.6,0.3,1.8,3.4,3,3.2c0.4-0.1,1.1-0.6,1.1-0.6l0.5,0.2c0,0-1.4,0.9-1.9,0.9c-0.9,0-2.3-1.5-2.9-2.3
		c-0.2-0.3-0.7-1-1.8-0.6C10.6,10.3,9.4,10.9,9,11c-1-0.5-0.7-2.4,1.3-3.6c-0.2-1.2-1-2.2-1.4-2.5c-0.4-0.3-1.2-0.6-2-0.7
		c-0.2,0-0.3,0-0.5,0c0.4,1,0.7,2.2,0.7,3.6c0,4.1-2.4,7-3,6.9c-1.1-0.2-2.3-2-2.4-4C1.6,8,3.2,5.2,5.7,4C4.8,3,3.5,2.8,3.4,2.9
		C3.1,3,2.2,3.6,1.5,4.7L1.3,4.1z M6,4.5c-2.1,0.8-3.8,3.3-3.4,6.1c0.2,1.6,0.8,3,1.4,3.1c0.3,0.1,2.8-2.2,2.8-5.8
		C6.7,6.6,6.4,5.4,6,4.5z M9.3,10.2c0.2-0.1,0.9-0.7,1-2.3C9.1,8.6,8.8,10,9.3,10.2z"/>
</g>
</svg>
