<?xml version="1.0" encoding="utf-8"?>
<!-- Generator: Adobe Illustrator 24.2.3, SVG Export Plug-In . SVG Version: 6.00 Build 0)  -->
<svg version="1.1" id="Layer_1" xmlns="http://www.w3.org/2000/svg" xmlns:xlink="http://www.w3.org/1999/xlink" x="0px" y="0px"
	 viewBox="0 0 78 17" style="enable-background:new 0 0 78 17;" xml:space="preserve">
<style type="text/css">
	.st0{fill:#FFFFFF;}
</style>
<g>
	<path class="st0" d="M9.3,6.6c-0.8,2.5-2,4.4-2.6,4.2S6.3,8.4,7.2,5.9s2.6-4.2,2.6-4.2S10.1,4.1,9.3,6.6z"/>
	<path class="st0" d="M11.6,10.5c-2.1,1.1-4.1,1.5-4.3,1c-0.2-0.5,1.3-1.8,3.4-2.8s4.3-1,4.3-1S13.8,9.5,11.6,10.5z"/>
	<path class="st0" d="M9.3,13.6c-1.4-0.4-2.4-1.1-2.3-1.4c0.1-0.3,1.3-0.2,2.7,0.3s2.3,1.4,2.3,1.4S10.6,14,9.3,13.6z"/>
	<path class="st0" d="M6.9,14.2c-0.4-0.8-0.6-1.5-0.4-1.6s0.6,0.5,1,1.2c0.4,0.8,0.4,1.6,0.4,1.6S7.3,15,6.9,14.2z"/>
	<path class="st0" d="M3,11.5c1.4,0.4,2.5,0.6,2.7,0.3s-0.9-0.9-2.3-1.4s-2.7-0.3-2.7-0.3S1.6,11,3,11.5z"/>
	<path class="st0" d="M3,7.6c1.1,2.1,2.3,3.7,2.8,3.4s0-2.2-1.1-4.3S1.9,3.3,1.9,3.3S1.9,5.5,3,7.6z"/>
</g>
<g>
	<g>
		<path class="st0" d="M24.8,12.9V5.1c-0.3-0.1-0.7-0.3-1.1-0.3c-0.8,0-1.3,0.2-1.3,1.2v0.1H24v1.5h-1.6v5.1H20V7.7h-1.2V6.2H20V6.1
			c0-1.9,1.3-2.7,3.3-2.7c0.5,0,1.1,0.1,1.6,0.3l2.4-0.2v9.5C27.2,12.9,24.8,12.9,24.8,12.9z"/>
		<path class="st0" d="M35.3,9.8h-4.1c0,0.9,0.5,1.6,2,1.6c0.8,0,1.6-0.3,2.1-0.7v1.5c-0.6,0.5-1.6,0.8-2.8,0.8
			c-2.1,0-3.6-1.5-3.6-3.6c0-2.1,1.7-3.5,3.5-3.5c1.7,0,3.1,1.1,3.1,2.7C35.4,9,35.3,9.6,35.3,9.8z M33.3,8.7c0.2-0.7-0.2-1.3-1-1.3
			c-0.6,0-1,0.3-1.1,1.3H33.3z"/>
		<path class="st0" d="M44.2,12.9h-2.2l-0.1-1.2c-0.4,0.9-1.4,1.4-2.3,1.4c-1.8,0-2.5-1.2-2.5-2.9v-4h2.4v3.5c0,1.1,0.3,1.5,1,1.5
			c0.7,0,1.3-0.7,1.3-1.5V6.2h2.4L44.2,12.9L44.2,12.9z"/>
		<path class="st0" d="M48.5,9.5v3.3h-2.4V6.2h2.2l0.1,1.2C48.8,6.6,49.7,6,50.8,6v2.2C49.6,7.8,48.5,8.4,48.5,9.5z"/>
		<path class="st0" d="M53.8,6.9v6H53v-6h-1.5V6.2H53V4.4h0.8v1.8h1.5v0.7H53.8z"/>
		<path class="st0" d="M56.9,4.6v-1h0.8v1H56.9z M56.9,12.9V6.2h0.8v6.7L56.9,12.9L56.9,12.9z"/>
		<path class="st0" d="M60,6.2l2.3,5.5l2.3-5.5h0.8l-2.8,6.7h-0.6l-2.8-6.7C59.1,6.2,60,6.2,60,6.2z"/>
		<path class="st0" d="M69.8,6c1,0,2.2,0.5,2.7,1.6l0-1.4h0.7v6.7h-0.7l0-1.4c-0.5,1.1-1.7,1.6-2.7,1.6c-1.9,0-3.3-1.5-3.3-3.5
			S67.8,6,69.8,6z M69.9,12.3c1.4,0,2.6-1,2.6-2.8s-1.2-2.8-2.6-2.8s-2.6,1-2.6,2.8S68.4,12.3,69.9,12.3z"/>
	</g>
	<g>
		<path class="st0" d="M74.2,6.2V6.1h1.1v0.2h-0.4v1.2h-0.2V6.2H74.2z M75.9,6.1l0.5,1.1l0.5-1.1H77v1.3h-0.2v-1l-0.5,1.1h-0.1
			l-0.5-1.1v1.1h-0.2V6.1H75.9z"/>
	</g>
</g>
</svg>
