<?xml version="1.0" encoding="utf-8"?>
<!-- Generator: Adobe Illustrator 24.3.0, SVG Export Plug-In . SVG Version: 6.00 Build 0)  -->
<svg version="1.1" id="Layer_1" xmlns="http://www.w3.org/2000/svg" xmlns:xlink="http://www.w3.org/1999/xlink" x="0px" y="0px"
	 viewBox="0 0 98.66 17" style="enable-background:new 0 0 98.66 17;" xml:space="preserve">
<style type="text/css">
	.st0{fill:#FFFFFF;}
	.st1{fill:#3D441D;}
</style>
<g>
	<path class="st0" d="M2.5,10.86c-0.07-0.24-0.13-0.61-0.13-1.8c0-0.54,0.01-1.22,0.04-2.15C2.5,4.12,2.84,3.36,4.09,3
		C4.5,2.88,5.04,2.83,5.55,2.83c0.38,0,0.72,0.02,0.99,0.06C6.77,3.05,7.2,3.25,7.59,3.52L7.56,5.56c-1.09-0.07-1.8,0.61-1.9,1.36
		C5.52,8,5.48,8.95,5.5,10.57c0.2,0.01,0.5,0.03,0.67,0.04c0.3,0.22,0.82,0.51,1.11,0.74c0,0.39,0.01,0.76,0.01,1.14
		s-0.01,0.75-0.05,1.1C4.77,13.42,3.26,13.53,2.5,10.86z M6.32,3.08C6.05,3.07,5.8,3.06,5.57,3.06c-0.54,0-0.94,0.05-1.25,0.17
		C3.61,3.42,3.14,3.65,2.98,4.46C2.73,5.7,2.61,7.16,2.61,8.42c0,1.02,0.08,1.91,0.19,2.45c0.25,1.13,2.49,1.25,3.07,1.26
		c0.05-0.6,0.05-0.83,0.06-1.27c-0.89-0.01-1.92-0.06-1.97-1.24C3.9,8.1,3.96,6.7,4.18,5c0.35-0.81,1.31-0.69,2.07-0.66L6.32,3.08z"
		/>
	<path class="st0" d="M11.14,13.28c-0.84,0.01-1.66,0.01-2.41,0.06c-0.29-0.58-0.38-0.95-0.53-1.32c0-2.9,0.16-7.05,0.29-9.8
		c0.45,0,0.92-0.04,1.27-0.04c0.74,0.24,1.42,0.45,1.79,0.61c0,0.54-0.04,1.52-0.05,2.54c0.14,0.04,0.34,0.11,0.45,0.17
		c0.67,0.41,1.58,0.86,1.66,1.54c0,0.34,0,0.81,0,1.35c0,1.62,0,3.85-0.02,4.76c-0.45,0.04-1.15,0.11-1.58,0.11l-0.84-0.79
		C11.14,12.88,11.19,13,11.14,13.28z M9.06,2.47c-0.15,0-0.27,0-0.35,0.02C8.59,5.46,8.5,8.72,8.49,11.98
		c0.25,0.04,0.6,0.04,1.1,0.05c0.04-1.09,0.04-2.09,0.05-3.15c0.01-0.92,0.01-1.3,0.01-1.7c0.27-0.19,0.69-0.4,1-0.4
		c0.28,0,0.48,0.16,0.45,0.65l-0.21,4.61c0.29,0.01,0.57,0.04,0.86,0.04c0.11,0,0.24,0,0.35-0.01c0.02-0.97,0.08-1.94,0.1-2.9
		c0.01-0.49,0.05-1.06,0.05-1.6c0-0.96-0.11-1.82-0.69-1.92c-0.15-0.02-0.29-0.04-0.44-0.04c-0.5,0-1,0.14-1.44,0.45
		c0.01-1.37-0.01-2.7,0.03-3.57C9.47,2.47,9.25,2.47,9.06,2.47z"/>
	<path class="st0" d="M17.49,13.34c-0.11,0-0.13,0-0.14,0c-1.05,0-2.39-1.19-2.45-1.52c-0.14-0.7-0.2-1.59-0.22-2.29
		c-0.03-0.88-0.08-2.52-0.08-3.39c0-1.01,1.01-1.14,2.02-1.14c1.45,0,3.07,0.95,3.07,1.5c0,0.67-0.05,1.26-0.05,1.99
		c0,0.55-0.08,2.75-0.16,3.57C19.39,13.03,19.13,13.28,17.49,13.34z M16.61,5.27c-0.27,0-0.51,0.02-0.67,0.06
		c-0.67,0.05-1.04,0.32-1.04,0.91c0,0.86,0.01,1.57,0.05,2.45c0.04,0.84,0.05,1.7,0.14,2.6c0.08,0.73,0.76,0.81,1.34,0.81
		c0.05,0,0.11,0,0.16,0c0.89-0.01,1.3-0.11,1.54-0.65c0.08-0.17,0.1-0.5,0.1-0.94c0-1.08-0.05-2.07-0.08-3.06
		c-0.02-0.65,0.01-0.95-0.19-1.6C17.82,5.4,17.17,5.27,16.61,5.27z M17.06,10.85c-0.04,0.25-0.25,0.35-0.47,0.35
		c-0.19,0-0.39-0.08-0.46-0.2c-0.14-0.22-0.17-2.87-0.19-4.14c-0.01-0.36,0.3-0.54,0.58-0.54c0.26,0,0.5,0.15,0.49,0.48
		C17.11,8.32,17.14,10.46,17.06,10.85z"/>
	<path class="st0" d="M20.24,11.16c0.55-0.26,1.01-0.55,1.16-0.92c0.19-0.49-0.34-1.33-0.6-1.95c-0.25-0.57-0.35-1.06-0.35-1.49
		c0-0.55,0.19-0.99,0.47-1.31c0.61-0.7,1.21-0.85,1.7-1.02c0.34,0.08,1.22,0.35,1.56,0.44l0.27,1.64c-0.63,0.3-0.77,0.6-0.91,1.01
		c-0.01,0.04-0.02,0.06-0.02,0.11c0,0.27,0.22,0.75,0.42,1.26c0.26,0.66,0.47,1.36,0.47,2.02c0,0.7-0.24,1.34-0.91,1.82
		c-0.46,0.34-1.2,0.6-2.01,0.88l-0.75-1.01L20.24,11.16z M20.95,12.31c0.45-0.09,0.5-0.11,0.9-0.26c0.82-0.32,1.16-0.97,1.16-1.72
		c0-0.54-0.17-1.12-0.49-1.66c-0.31-0.54-0.55-1.27-0.55-1.76c0-0.13,0.01-0.22,0.05-0.31c0.13-0.31,0.45-0.6,1.04-0.94l-0.41-0.89
		c-0.53,0.15-1.1,0.49-1.38,0.77c-0.38,0.41-0.52,0.81-0.52,1.26c0,0.47,0.17,1.01,0.42,1.65c0.34,0.84,0.63,1.16,0.56,1.71
		c-0.06,0.58-0.65,0.89-1.15,1.15L20.95,12.31z"/>
	<path class="st0" d="M27.89,9.78c0.02,0.22,0.04,0.56,0.17,0.88c0.09-0.01,0.26,0.01,0.33,0c0.4,0.17,0.86,0.38,1.35,0.64
		c-0.03,0.67-0.08,1.26-0.11,1.94c-0.21,0.01-0.41,0.01-0.61,0.01c-1.34,0-2.4-0.25-3.36-1.65c-0.45-0.65-0.54-2.06-0.54-3.07
		c0-0.06,0-0.14,0-0.85c0-1.05,0.06-2.34,1.13-2.59c0.19-0.04,0.45-0.08,0.79-0.08c0.19,0,0.39,0.01,0.63,0.04
		c0.84,0.1,2.21,0.86,2.34,1.71c0.02,0.19,0.04,0.39,0.04,0.61c0,0.71-0.11,1.59-0.2,2.45C29.13,9.81,28.48,9.8,27.89,9.78z
		 M27.14,5.25c-0.33,0-0.64,0.06-0.89,0.1c-0.77,0.21-0.85,1.24-0.85,2.2c0,0.98-0.01,1.17-0.01,1.38c0,1.05,0.1,2.21,0.64,2.74
		c0.42,0.41,1.16,0.47,1.94,0.47c0.09,0,0.19,0,0.27,0v-1.2c-0.49-0.02-0.99-0.02-1.49-0.35c-0.36-0.36-0.3-1.22-0.3-1.7
		c0.63-0.05,1.49-0.13,2.04-0.15l0.03-0.25c0-0.4,0.02-0.84,0.02-1.27c0-0.58-0.05-1.14-0.3-1.51C28,5.35,27.56,5.25,27.14,5.25z
		 M27.56,7.76c-0.31-0.01-0.76,0.01-1.09-0.04c-0.01-0.44-0.03-1.55,0.49-1.55c0.29,0,0.56,0.19,0.57,0.49
		C27.55,7.02,27.56,7.4,27.56,7.76z"/>
	<path class="st0" d="M32.95,5.35c0.32-0.19,0.69-0.32,1.14-0.32c0.42,0,2.41,1.17,2.41,1.92c0,0.85-0.05,1.4-0.08,2.52
		c-0.02,1.17-0.1,2.4-0.13,3.9l-1.74,0.09c-0.23-0.2-0.7-0.72-0.94-1.02c-0.01,0.19,0.02,0.55,0.02,0.79
		c-0.47,0.06-1.12,0.1-1.76,0.11l-0.9-1.09c-0.06-2.36-0.18-5.06-0.2-7.46c0.45-0.05,1.19-0.1,1.54-0.11L32.95,5.35z M32.2,4.96
		c-0.29,0.01-0.69,0.05-1.04,0.05c-0.04,0-0.09,0-0.13,0l0.21,7.01c0.18,0,0.31,0,0.45,0c0.17,0,0.35,0,0.64-0.04
		c-0.04-1.75-0.1-3.12-0.06-4.86C32.53,6.91,33,6.5,33.35,6.5c0.15,0,0.28,0.07,0.36,0.25c0.03,1.6,0.04,3.36,0.05,5.44l1.09,0.08
		c0.01-1.41,0.06-2.74,0.06-3.74c0-0.71,0.02-1.13,0.02-1.55c0-0.66-0.06-1.29-0.42-1.54c-0.15-0.1-0.32-0.15-0.52-0.15
		c-0.58,0-1.27,0.38-1.72,0.76C32.25,5.83,32.2,5.32,32.2,4.96z"/>
	<path class="st0" d="M47.2,6.2c0,1.42-0.31,1.86-0.64,2.25c0.14,0.15,0.6,0.59,0.8,1.45c0.11,0.46,0.16,0.88,0.16,1.26
		c0,0.44-0.06,0.85-0.21,1.26c-0.31,0.86-1.1,0.9-1.6,0.9c-0.81,0-1.63,0.05-2.61,0.05c-0.2,0-0.4,0-0.61,0l-0.59-1.24
		c0-0.25-0.08-4.05-0.08-4.82c0-1.16,0.01-3.52,0.05-4.65c0.3,0,1.66,0.02,2.16,0.07c0.52,0.05,0.92,0.19,1.52,0.69
		c0.47,0.4,1.63,1.61,1.64,2.61C47.2,6.1,47.2,6.15,47.2,6.2z M44.44,12.03c0.39,0,0.85-0.24,1.06-0.65
		c0.09-0.45,0.16-0.97,0.16-1.51c0-0.78-0.17-1.58-0.79-2.22c0.21-0.2,0.42-0.55,0.5-0.97c0.05-0.33,0.14-0.89,0.14-1.48
		S45.43,4,45.14,3.6c-0.35-0.47-1.09-0.59-1.8-0.63c-0.41-0.02-0.81-0.02-1.12-0.04c-0.03,1.44-0.04,2.31-0.04,3.21
		c0,1.29,0.01,2.62,0.01,3.91c0,0.65,0,1.27-0.01,1.89C43.02,11.97,43.73,12.03,44.44,12.03z M44.28,9.8c0,0.56-0.05,1.01-0.3,1.11
		c-0.35-0.01-0.85,0.02-0.85-0.03l0.06-2.3c0.47-0.01,1.06-0.15,1.07,0.52C44.27,9.35,44.28,9.58,44.28,9.8z M44.3,5.87
		c0,0.41-0.04,0.8-0.21,1.1c-0.21,0.17-0.6,0.16-0.88,0.16c0-0.58-0.01-1.15-0.01-1.75c0-0.4,0-0.8,0.02-1.22
		c0.44-0.04,0.99,0.02,1.05,0.55C44.28,5.1,44.3,5.5,44.3,5.87z"/>
	<path class="st0" d="M49.4,10.45c-0.29-0.77-0.7-1.66-1.01-2.64c-0.21-0.64-0.59-1.6-0.83-2.34c0.4-0.15,0.99-0.3,1.46-0.44
		c0.28,0.01,0.73,0.06,1.11,0.18l0.44,1.46c0.05-0.19,0.34-1.13,0.46-1.7c0.3,0.08,1.21,0.26,1.62,0.38c0.23,0.24,0.46,0.5,0.67,0.8
		c-0.52,2.92-1.34,6.54-1.79,9.46c-0.65-0.06-1.84-0.15-2.32-0.26c-0.11-0.16-0.35-0.65-0.56-1.04
		C48.85,13.37,49.33,11.21,49.4,10.45z M49.7,10.4c-0.2,0.97-0.59,2.84-0.76,3.8c0.38,0.14,0.66,0.14,0.96,0.24
		c0.72-2.79,1.69-6.05,2.4-8.86c-0.2-0.1-0.75-0.2-1.05-0.29c-0.32,1.05-0.66,2.42-1.01,3.56c-0.53-1.37-0.9-2.31-1.28-3.51
		c-0.44,0.13-0.7,0.17-1.04,0.32C48.43,7.21,49.16,8.95,49.7,10.4z"/>
	<path class="st0" d="M63.73,7.08c0.06,0.67,0.1,1.24,0.1,1.76c0,0.83-0.1,1.51-0.35,2.27c-0.36,1.09-1.13,2.05-4.12,2.41
		c-0.49-0.41-1.04-0.86-1.32-1.27c-0.01-0.17-0.01-0.39-0.01-0.64c0-2.29,0.05-4.57,0.1-7.06c0.03-0.85,0.04-1.64,0.04-1.92
		c0.02,0,0.05,0,0.07,0c0.58,0,1.61,0.14,2.35,0.52C62.31,4.06,63.59,5.46,63.73,7.08z M58.34,12.07c1.37,0,3.37-0.65,3.65-2
		c0.16-0.81,0.3-1.86,0.3-2.86c0-0.86-0.1-1.7-0.37-2.34c-0.53-1.24-2.21-1.92-3.5-1.95c-0.06,3.09-0.11,6.22-0.15,9.15
		C58.29,12.07,58.32,12.07,58.34,12.07z M60.91,7.5c0,0.84-0.08,1.59-0.11,1.76c-0.1,0.52-0.3,1-0.76,1.15l-0.51,0.16
		c-0.01-1.31,0.04-2.65,0.05-3.94c0-0.65-0.04-1.56-0.01-2.07c0.35,0.01,0.65,0.1,0.88,0.46C60.81,5.43,60.91,6.52,60.91,7.5z"/>
	<path class="st0" d="M67.59,13.53c-0.06,0-0.13,0-0.19,0c-1.05-0.04-2.51-1.2-2.61-1.52c-0.15-0.5-0.16-1.88-0.16-2.64
		c0-0.88,0.01-2.42,0.08-3.29c0.05-0.66,0.45-1.16,1.69-1.16c0.16,0,0.33,0.01,0.51,0.02c1.39,0.13,2.82,1.35,2.84,1.8
		c0.01,0.6,0.01,1.25,0.01,1.9c0,1.04-0.04,2.74-0.1,3.79C69.6,13.21,68.74,13.53,67.59,13.53z M66.49,5.18
		c-0.16,0-0.3,0.01-0.4,0.02c-0.69,0-1.06,0.27-1.1,0.85c-0.05,0.77-0.1,1.5-0.1,2.27c0,0.37,0,0.49,0,0.59
		c0,0.41-0.01,0.86-0.01,1.3c0,0.41,0.01,0.82,0.06,1.21c0.1,0.72,0.71,0.8,1.31,0.83c0.13,0,0.25,0.01,0.36,0.01
		c0.65,0,0.99-0.11,1.21-0.56c0.16-0.31,0.22-1.33,0.28-2.38c0.02-0.55,0.05-1.32,0.06-1.86c0.01-0.29,0.02-0.51,0.02-0.73
		c0-0.26-0.02-0.51-0.11-0.89C67.95,5.32,67.09,5.18,66.49,5.18z M66.84,10.9c-0.05,0.24-0.24,0.33-0.45,0.33
		c-0.2,0-0.42-0.09-0.49-0.23c-0.13-0.24,0.03-3,0.09-4.26c0.01-0.34,0.29-0.5,0.55-0.5c0.28,0,0.55,0.18,0.51,0.51
		C67.06,8.38,66.97,10.52,66.84,10.9z"/>
	<path class="st0" d="M71.57,10.72c-0.76-0.15-1-1.34-1.04-2.16c-0.01-0.21-0.01-0.42-0.01-0.65c0-0.81,0.08-1.64,0.31-2.07
		c0.26-0.47,0.69-0.65,1.25-0.67c0.33-0.01,0.66,0,0.98,0.11l1.25-0.96c0.19,0.14,0.8,0.42,1.33,0.72l0.6,0.85
		c-0.4,0.5-0.81,0.96-0.88,1.07c0.01,1.21,0.03,2.37-0.25,3.32c-0.11,0.4-0.17,0.77-0.95,0.95c0.39,0.1,0.75,0.43,0.87,0.58
		c0.33,0.39,1.05,1.25,1.04,1.84c-0.04,1.65,0,1.91-1.39,2.04c-0.84,0.08-1.89,0.1-3.16,0.15c-0.26-0.34-0.42-0.51-0.75-1.06
		c0-0.2,0-1.04,0.01-1.33c1.03-0.14,1.54-0.15,1.99-0.24C71.86,12.59,71.46,11.57,71.57,10.72z M74.8,13.08
		c0-0.46-0.1-0.97-0.27-1.27c-0.4-0.66-1.49-0.13-1.74-0.56c-0.08-0.24-0.03-0.57-0.03-0.72c0.3-0.01,0.79-0.17,0.9-0.51
		c0.45-0.95,0.29-2.55,0.27-3.76c0.39-0.32,0.56-0.55,0.97-0.85c-0.2-0.31-0.3-0.44-0.56-0.77l-1.23,0.92
		c-0.26-0.08-0.59-0.13-0.91-0.13c-0.15,0-0.29,0.01-0.42,0.04C71.41,5.58,71,5.82,70.94,6.27c-0.08,0.46-0.13,1.15-0.13,1.86
		c0,0.26,0.01,0.52,0.03,0.79c0.04,0.63,0.31,1.52,1,1.61c-0.06,0.66-0.04,1.01,0.21,1.5c0.19,0.38,0.72,0.28,1.35,0.31
		c0.5,0.03,0.45,0.86,0.26,0.98c-0.28,0.16-1.54,0.26-2.67,0.36c0,0.21,0,0.45,0,0.65c0,0.1,0,0.2,0,0.29
		c1.19-0.11,2.75-0.15,3.51-0.55C74.7,13.97,74.8,13.54,74.8,13.08z M72.77,9.23c-0.05,0.17-0.24,0.25-0.41,0.25
		c-0.11,0-0.22-0.03-0.28-0.08c-0.14-0.08-0.24-0.26-0.22-0.99c0.01-0.54,0.01-1.06,0.01-1.57c0-0.29,0.24-0.43,0.47-0.43
		c0.25,0,0.49,0.15,0.49,0.43C72.84,7.7,72.86,8.26,72.77,9.23z"/>
	<path class="st0" d="M76.15,11.16c0.55-0.26,1.01-0.55,1.16-0.92c0.19-0.49-0.34-1.33-0.6-1.95c-0.25-0.57-0.35-1.06-0.35-1.49
		c0-0.55,0.19-0.99,0.47-1.31c0.61-0.7,1.21-0.85,1.7-1.02c0.34,0.08,1.22,0.35,1.56,0.44l0.27,1.64c-0.63,0.3-0.77,0.6-0.91,1.01
		c-0.01,0.04-0.02,0.06-0.02,0.11c0,0.27,0.22,0.75,0.42,1.26c0.26,0.66,0.47,1.36,0.47,2.02c0,0.7-0.24,1.34-0.91,1.82
		c-0.46,0.34-1.2,0.6-2.01,0.88l-0.75-1.01L76.15,11.16z M76.86,12.31c0.45-0.09,0.5-0.11,0.9-0.26c0.82-0.32,1.16-0.97,1.16-1.72
		c0-0.54-0.17-1.12-0.49-1.66c-0.31-0.54-0.55-1.27-0.55-1.76c0-0.13,0.01-0.22,0.05-0.31c0.13-0.31,0.45-0.6,1.04-0.94l-0.41-0.89
		c-0.53,0.15-1.1,0.49-1.38,0.77c-0.38,0.41-0.52,0.81-0.52,1.26c0,0.47,0.17,1.01,0.42,1.65c0.34,0.84,0.63,1.16,0.56,1.71
		c-0.06,0.58-0.65,0.89-1.15,1.15L76.86,12.31z"/>
</g>
<g>
	<g>
		<path class="st0" d="M92.57,5.03c-0.01-0.54-0.15-1.05-0.4-1.44c-0.28-0.43-0.65-0.66-1.06-0.65c-0.4,0.01-0.84,0.2-1.17,0.51
			c-0.38,0.36-0.59,0.86-0.58,1.39c0.01,0.53,0.22,1.11,0.59,1.58c0.37,0.48,0.83,0.76,1.22,0.76c0.13,0,0.26-0.03,0.38-0.08
			C92.16,6.84,92.58,6.02,92.57,5.03z M92,5.04c0.01,0.83-0.38,1.55-0.84,1.56c-0.17,0-0.48-0.16-0.77-0.54
			c-0.29-0.38-0.47-0.84-0.47-1.24c-0.01-0.48,0.22-0.79,0.4-0.97c0.12-0.11,0.26-0.2,0.41-0.27c0.13-0.05,0.26-0.08,0.38-0.09l0,0
			c0.27,0,0.48,0.25,0.57,0.39C91.88,4.19,91.99,4.61,92,5.04z"/>
		<path class="st0" d="M94.9,8.03C94.9,8.03,94.9,8.03,94.9,8.03c0.46-0.19,0.87-0.54,1.15-0.97c0.36-0.55,0.35-1.03,0.28-1.35
			c-0.09-0.39-0.34-0.74-0.67-0.96c-0.67-0.44-1.68-0.05-2.3,0.9c-0.29,0.43-0.41,0.9-0.35,1.34c0.05,0.42,0.27,0.79,0.61,1.01
			C93.94,8.22,94.41,8.23,94.9,8.03z M93.57,6.92c-0.03-0.21,0-0.55,0.26-0.95c0.43-0.66,1.13-0.99,1.51-0.74
			c0.22,0.14,0.37,0.37,0.43,0.61c0.07,0.29,0,0.6-0.2,0.9c-0.22,0.33-0.54,0.61-0.89,0.75c0,0,0,0,0,0
			c-0.31,0.13-0.59,0.14-0.76,0.02C93.72,7.4,93.6,7.18,93.57,6.92z"/>
		<path class="st0" d="M89.34,6.8c0-0.34-0.1-0.84-0.58-1.33c-0.73-0.75-2.06-1.51-2.7-0.88c0,0,0,0,0,0
			c-0.59,0.58-0.13,2.07,0.67,2.88c0.81,0.82,1.41,0.86,1.8,0.69c0.15-0.06,0.27-0.16,0.36-0.25C89.17,7.64,89.34,7.23,89.34,6.8z
			 M88.77,6.8c0,0.28-0.1,0.54-0.29,0.72c-0.12,0.11-0.47,0.46-1.36-0.44c-0.65-0.66-0.96-1.8-0.67-2.08
			c0.02-0.02,0.04-0.03,0.07-0.04c0.31-0.13,1.15,0.23,1.83,0.92C88.7,6.23,88.77,6.57,88.77,6.8z"/>
		<path class="st0" d="M86.06,11.28c0.5,0.1,0.89,0.06,1.18-0.07c0.44-0.18,0.68-0.56,0.75-0.94c0.08-0.4,0-0.79-0.23-1.11
			c-0.24-0.34-0.64-0.58-1.15-0.68c-1.11-0.22-2.1,0.22-2.25,1.01C84.2,10.28,84.95,11.06,86.06,11.28z M84.91,9.6
			c0.04-0.21,0.22-0.38,0.47-0.48c0.3-0.12,0.7-0.16,1.12-0.08c0.37,0.07,0.64,0.23,0.8,0.45c0.13,0.19,0.18,0.43,0.13,0.67
			c-0.13,0.68-0.85,0.64-1.27,0.56C85.4,10.57,84.82,10.06,84.91,9.6z"/>
		<path class="st0" d="M88.59,13.25c0.8,1.21,2.44,1.52,4.18,0.79c1.96-0.82,2.87-2.16,2.44-3.59C94.83,9.16,93.99,9,93.09,8.89
			c-0.53-1.03-1.78-1.5-2.86-1.04c-1.09,0.45-1.63,1.67-1.26,2.77C88.27,11.58,88.13,12.55,88.59,13.25z M89.51,10.84
			c0.06-0.08,0.08-0.19,0.04-0.28c-0.35-0.85,0.05-1.83,0.9-2.19c0.85-0.36,1.83,0.05,2.19,0.89c0.04,0.09,0.13,0.16,0.23,0.17
			c0.95,0.11,1.51,0.18,1.81,1.17c0.34,1.12-0.45,2.2-2.12,2.9c-1.48,0.62-2.85,0.39-3.49-0.58C88.67,12.33,89.03,11.46,89.51,10.84
			z"/>
	</g>
</g>
</svg>
