<?xml version="1.0" encoding="utf-8"?>
<!-- Generator: Adobe Illustrator 24.2.3, SVG Export Plug-In . SVG Version: 6.00 Build 0)  -->
<svg version="1.1" id="Layer_1" xmlns="http://www.w3.org/2000/svg" xmlns:xlink="http://www.w3.org/1999/xlink" x="0px" y="0px"
	 viewBox="0 0 70 17" style="enable-background:new 0 0 70 17;" xml:space="preserve">
<style type="text/css">
	.st0{fill:#FFFFFF;}
</style>
<g>
	<path class="st0" d="M25.5,4.9v0.5h-4.3v2.9H24v0.5h-2.9v3.6h4.3V13h-5.6V4.9H25.5z"/>
	<path class="st0" d="M29.2,4.9h1.4l3.2,6.2h0.1l3.1-6.2h1.4V13h-1.4V6.3h0L33.6,13h-0.3l-3.4-6.6h-0.1V13h-0.6L29.2,4.9L29.2,4.9z"
		/>
	<path class="st0" d="M48.3,4.9v0.5H44v2.9h2.9v0.5H44v3.6h4.3V13h-5.7V4.9H48.3z"/>
	<path class="st0" d="M52,4.9h2.8c0.5,0,0.9,0.1,1.3,0.2c0.4,0.1,0.7,0.3,0.9,0.4s0.4,0.4,0.6,0.7c0.1,0.3,0.2,0.5,0.2,0.8
		c0,0.3,0,0.5-0.1,0.7c-0.1,0.2-0.2,0.4-0.4,0.6c-0.2,0.2-0.4,0.3-0.6,0.5S56.1,9,55.8,9l3,3.9h-1.6l-2.8-3.8h-1V13H52L52,4.9
		L52,4.9z M53.4,8.8h0.8c0.3,0,0.6,0,0.8-0.1s0.5-0.2,0.7-0.4c0.2-0.1,0.3-0.3,0.5-0.6c0.1-0.2,0.2-0.4,0.2-0.7c0-0.2,0-0.5-0.1-0.7
		S56,6,55.8,5.8c-0.2-0.2-0.3-0.3-0.5-0.3c-0.2-0.1-0.4-0.1-0.7-0.1h-1.2L53.4,8.8L53.4,8.8z"/>
	<path class="st0" d="M65.3,4.7l3.8,8.3h-1.4l-1.2-2.7H63L61.7,13H61l3.9-8.3H65.3z M63.2,9.7h3l-1.5-3.2L63.2,9.7z"/>
</g>
<path class="st0" d="M7.6,1.6L1.7,5v6.8l5.9,3.4l5.9-3.4V5L7.6,1.6z M9.6,9.1c1.1-0.1,2.1,0.4,2.1,0.4s-0.9,0.6-2,0.6
	c-0.9,0.1-1.7-0.2-2-0.3V10c0.2,0,0.8,0.1,1.3,0.4c0.6,0.4,0.9,1.1,0.9,1.1s-0.7,0-1.4-0.4c-0.4-0.3-0.7-0.7-0.8-0.9v1.6H7.5v-1.6
	c-0.1,0.2-0.4,0.6-0.8,0.9c-0.6,0.4-1.3,0.4-1.3,0.4s0.3-0.7,0.9-1.1C6.8,10,7.3,10,7.5,10V9.8c-0.3,0.1-1.1,0.4-2,0.3
	c-1.1-0.1-2-0.6-2-0.6s0.9-0.4,2-0.4c0.9,0.1,1.7,0.5,1.9,0.6V9.5C7.2,9.4,6.1,9.1,5.1,8.4C4,7.4,3.4,6.2,3.4,6.2s1.3,0.2,2.5,1.2
	C6.8,8,7.2,8.8,7.5,9.3C7.3,8.8,6.9,7.9,6.9,6.9c0-1.5,0.7-2.7,0.7-2.7s0.6,1.2,0.6,2.7c0,1-0.3,2-0.5,2.4C7.9,8.8,8.4,8,9.3,7.3
	c1.1-0.9,2.5-1.2,2.5-1.2s-0.5,1.3-1.7,2.2C9.1,9.1,8,9.4,7.7,9.5v0.2C7.9,9.6,8.7,9.2,9.6,9.1z"/>
</svg>
