<?xml version="1.0" encoding="utf-8"?>
<!-- Generator: Adobe Illustrator 24.2.3, SVG Export Plug-In . SVG Version: 6.00 Build 0)  -->
<svg version="1.1" id="Layer_1" xmlns="http://www.w3.org/2000/svg" xmlns:xlink="http://www.w3.org/1999/xlink" x="0px" y="0px"
	 viewBox="0 0 89 17" style="enable-background:new 0 0 89 17;" xml:space="preserve">
<style type="text/css">
	.st0{fill:#FFFFFF;}
</style>
<path class="st0" d="M8.2,1.2c0.4,1.8,1,3.6,1,5.6c0,1.5-0.3,3-0.7,4.5c0,0,0,0,0,0.1c0.4-0.6,0.7-1.3,1.1-1.8
	C10,8.9,10.5,8.3,11,7.8c0.5-0.5,1.1-1,1.7-1.4s1.2-0.8,1.9-1.2c-0.7,1.5-1.4,3-2.6,4.1c-0.7,0.7-1.4,1.3-2.2,1.9
	c-0.1,0.1-0.2,0.1-0.3,0.2c1.8-0.8,3.7-1.1,5.6-0.7c-1.7,1-3.4,1.7-5.3,1.7c1.4,0.3,2.7,0.9,3.9,1.9c-1.5,0-2.8-0.3-4.1-0.9
	c0.6,0.6,1,1.3,1.3,2.2c-1.3-0.7-2.1-1.6-2.7-2.9c0,0-0.1,0-0.1,0C8.1,12.8,8,12.9,7.9,13c-0.6,1.2-1.4,2-2.5,2.6
	c0.1-0.6,0.4-1.1,1.3-2.2c-1.3,0.7-2.6,0.9-4.1,0.9c1.2-1,2.5-1.7,4-1.9c-2,0-3.7-0.7-5.4-1.7c1.9-0.4,3.8-0.1,5.6,0.7
	c-2.3-1.5-3.9-3.7-5-6.2C4.4,6.5,6.3,8.4,7.6,11c-0.2-0.8-0.3-1.5-0.4-2.2C6.8,6.8,7,4.9,7.5,2.9C7.7,2.4,7.9,1.8,8.2,1.2L8.2,1.2z"
	/>
<g>
	<path class="st0" d="M55.3,13.2l-4.9,0l0.3-1l0-6.8l-0.3-1l4.9,0L57,6.1l0,5.3L55.3,13.2z M55,6.8l-0.3-0.6l-0.6-0.3h-1.4L52.5,6
		l0,5.4l0.2,0.2l1.3,0l0.6-0.3l0.3-0.6L55,6.8z"/>
	<path class="st0" d="M64.3,13.2l0.1-1l-0.3-1L64,11l-2.4,0l-0.1,0.1l-0.3,1l0.1,1l-2.3,0l0.5-1l1.9-7l-0.2-0.8l3.4,0l-0.2,0.8
		l1.9,7l0.5,1L64.3,13.2z M62.8,6l-0.1-0.4L62.7,6l-0.8,3.4L62,9.5l1.5,0l0.1-0.1L62.8,6z"/>
	<polygon class="st0" points="69.1,13.2 69.3,12.1 69.3,5.3 69,4.3 71.4,4.3 71.2,5.3 71.2,12.1 71.5,13.1 	"/>
	<polygon class="st0" points="79.6,13.1 74.7,13.1 74.9,12.1 74.9,5.3 74.7,4.3 77.1,4.3 76.8,5.5 76.8,11.3 77,11.5 79,11.5 
		80.3,11 	"/>
	<polygon class="st0" points="87.4,5.2 85.4,9.5 85.4,11.9 85.8,13.1 83.1,13.1 83.5,11.9 83.5,9.6 81.2,5.3 80.5,4.2 83,4.2 
		83.1,5.1 84.3,7.5 84.4,7.8 84.5,7.5 85.7,5.1 85.8,4.2 88.1,4.2 	"/>
	<polygon class="st0" points="25.6,13.4 22.3,13.4 20.5,11.6 20.5,6.3 22.2,4.5 25.4,4.5 26.1,6.6 24.8,6.2 23.4,6.2 22.8,6.5 
		22.5,7.1 22.5,10.8 22.8,11.4 23.5,11.7 24.9,11.7 26.2,11.3 	"/>
	<path class="st0" d="M33.8,13.3l-5.1,0l0.3-1l0-6.9l-0.3-1l5.1,0l1.4,1.4l0,1.7l-1,0.9l1.1,1.1l0,2.2L33.8,13.3z M33.3,6.7L33,6.2
		l-0.5-0.3l-1.5,0l-0.1,0.1l0,1.7L31,7.9l1.5,0L33,7.6l0.3-0.5L33.3,6.7z M33.3,10.2l-0.3-0.5l-0.6-0.3l-1.4,0l-0.1,0.1l0,2.1
		l0.2,0.2l1.3,0l0.6-0.3l0.3-0.5L33.3,10.2z"/>
	<path class="st0" d="M42.9,13.3l-4.9,0l0.3-1l0-6.8l-0.3-1l4.9,0l1.8,1.8l0,5.3L42.9,13.3z M42.6,6.9l-0.3-0.6l-0.6-0.3l-1.4,0
		l-0.1,0.1l0,5.4l0.2,0.2l1.3,0l0.6-0.3l0.3-0.6L42.6,6.9z"/>
</g>
</svg>
