<?xml version="1.0" encoding="utf-8"?>
<!-- Generator: Adobe Illustrator 24.0.2, SVG Export Plug-In . SVG Version: 6.00 Build 0)  -->
<svg version="1.1" id="Layer_1" xmlns="http://www.w3.org/2000/svg" xmlns:xlink="http://www.w3.org/1999/xlink" x="0px" y="0px"
	 viewBox="0 0 100 100" style="enable-background:new 0 0 100 100;" xml:space="preserve">
<style type="text/css">
	.st0{fill:#613E20;}
</style>
<g>
	<path class="st0" d="M50,9.54c10.81,0,20.97,4.21,28.61,11.85c7.64,7.64,11.85,17.8,11.85,28.61s-4.21,20.97-11.85,28.61
		S60.81,90.46,50,90.46s-20.97-4.21-28.61-11.85C13.75,70.97,9.54,60.81,9.54,50s4.21-20.97,11.85-28.61
		C29.03,13.75,39.19,9.54,50,9.54 M50,8.03C26.82,8.03,8.03,26.82,8.03,50S26.82,91.97,50,91.97S91.97,73.18,91.97,50
		S73.18,8.03,50,8.03L50,8.03z"/>
	<path class="st0" d="M76.24,32.61c-0.74-2.31-1.73-3.97-1.78-4.04c-0.16-0.27-0.5-0.41-0.81-0.34c-0.08,0.02-1.96,0.46-4.14,1.54
		c-2.93,1.46-4.98,3.42-5.93,5.65c-0.79,1.86-0.9,4.13-0.34,6.65c-1.19-1.33-2.52-2.49-3.98-3.46c-0.44-0.88-1.62-3.04-3.46-5.3
		c-0.61-0.74-1.77,0.19-1.16,0.94c1.24,1.52,2.17,3.02,2.75,4.05l-6.8-1.33l-6.46-8.81c0.63,0.01,1.26,0.07,1.88,0.19
		c1.99,0.39,3.95,1.4,5.83,3.01c0.74,0.63,1.7-0.52,0.97-1.14c-2.08-1.77-4.27-2.89-6.51-3.33c-3.42-0.67-7.41,0.21-11.53,2.54
		c-3.08,1.74-5.13,3.65-5.22,3.73c-0.28,0.26-0.32,0.72-0.09,1.02c0.3,0.62,1.44,2.85,3.35,5.25c1.12,1.42,2.3,2.63,3.53,3.63
		c-0.35,0.29-0.69,0.6-1.01,0.92c-1.75,1.71-3.09,3.73-3.97,5.93c-0.78,1.95-1.19,4.05-1.22,6.21c-0.04,3.53,0.99,6.94,2.96,9.86
		c1.93,2.85,4.63,5.03,7.81,6.32c0.89,0.36,1.45-1.02,0.56-1.38c-1.15-0.47-2.23-1.06-3.23-1.78c0.13-0.71,0.42-3.25-1.27-5.89
		c-0.24-0.37,0.47-1.82,0.89-2.68c0.44-0.89,0.89-1.81,1.1-2.68c0.22-0.92-0.03-1.69-0.73-2.24c-0.51-0.4-1.18-0.6-1.77-0.79
		c-0.38-0.12-0.82-0.25-0.97-0.38c-0.32-0.27-0.84-1.26-1.26-2.06c-0.47-0.88-0.91-1.72-1.36-2.24c1.02-2.42,2.66-4.57,4.71-6.21
		c1.87,1.28,4.01,2.16,6.29,2.34c-2.64,2.04-3.49,4.65-2.27,7.16c1.42,2.93,4.36,2.46,6.94,2.05c0.45-0.07,0.91-0.15,1.35-0.2
		c0.17-0.02,0.22,0.02,0.25,0.05c0.57,0.5,0.55,2.91,0.54,4.67c-0.02,2.43-0.03,4.73,0.87,5.9c0.46,0.6,1.11,0.91,1.87,0.91
		c0.46,0,0.95-0.11,1.47-0.33c2.25-0.96,4.59-3.87,4.23-6.16c-0.31-2.01-0.52-3.33-0.03-4.4c0.45-0.99,1.54-1.9,3.68-3.07
		c0.26,1.16,0.39,2.36,0.37,3.59c-0.05,4.21-1.73,8.15-4.74,11.09c-3.36,3.29-8.09,4.91-12.76,4.4c-0.95-0.1-1.12,1.38-0.16,1.48
		c5.12,0.56,10.29-1.22,13.97-4.82c3.29-3.22,5.14-7.53,5.19-12.14c0.07-6.11-3.07-11.52-7.84-14.64c0.99-0.7,1.72-1.31,2.13-1.66
		c1.74,1.25,3.28,2.79,4.57,4.58c3.08,4.3,4.3,9.55,3.44,14.77c-1.78,10.78-12,18.1-22.78,16.32c-5.22-0.86-9.79-3.71-12.88-8.01
		c-3.08-4.3-4.31-9.55-3.44-14.77c0.15-0.94-1.32-1.19-1.47-0.24c-0.93,5.61,0.39,11.25,3.7,15.88c3.31,4.62,8.23,7.68,13.85,8.61
		c1.17,0.19,2.35,0.29,3.52,0.29c4.41,0,8.7-1.37,12.36-3.99c4.63-3.31,7.68-8.23,8.61-13.85c0.68-4.11,0.15-8.24-1.48-11.97
		c0.75-0.22,2.04-0.65,3.44-1.36c2.93-1.46,4.98-3.42,5.93-5.65C77.26,38.56,77.24,35.73,76.24,32.61L76.24,32.61z M32.92,53.13
		c0.56,1.05,1.08,2.05,1.63,2.5c0.39,0.32,0.92,0.49,1.49,0.66c1.46,0.45,1.63,0.67,1.49,1.25c-0.17,0.71-0.59,1.56-0.99,2.37
		c-0.77,1.58-1.5,3.07-0.81,4.14c0.98,1.53,1.15,3.03,1.13,3.96c-4.45-4.01-6.26-10.34-4.6-16.09
		C32.49,52.3,32.72,52.74,32.92,53.13L32.92,53.13z M69.03,38.46l-2.12-5.14c1.03-0.97,2.23-1.69,3.25-2.2
		c0.87-0.44,1.7-0.76,2.36-0.99L69.03,38.46z M73.9,30.71c0.3,0.64,0.64,1.46,0.93,2.39c0.32,1.02,0.62,2.28,0.68,3.6l-4.97,2.05
		L73.9,30.71z M64.97,36c0.22-0.52,0.5-1,0.83-1.45l2.41,5.85l-2.17,5.18c-0.3-0.65-0.66-1.49-0.97-2.46
		C64.48,41.2,63.96,38.4,64.97,36L64.97,36z M69.75,45.1c-0.84,0.42-1.63,0.74-2.28,0.97l2.25-5.38l5.72-2.36
		c-0.08,0.64-0.24,1.28-0.5,1.89C73.93,42.61,71.56,44.19,69.75,45.1L69.75,45.1z M42.84,44.68c-0.26-0.05-0.52-0.11-0.78-0.19
		l8.26-6.05l6.8,1.33C54.65,41.71,48.62,45.81,42.84,44.68L42.84,44.68z M35.29,40.01c-1.77-1.9-3.06-3.94-3.8-5.24l8.66,1.69
		L35.29,40.01z M36.82,30.05l3.62,4.94l-8.71-1.7C32.83,32.43,34.64,31.13,36.82,30.05L36.82,30.05z M42.6,35.41l-4.39-5.99
		c1.31-0.54,2.73-0.97,4.17-1.15l6.07,8.28L42.6,35.41z M42.14,36.84l6.19,1.21l-7.94,5.82c-1.5-0.69-2.85-1.69-4.03-2.79
		L42.14,36.84z M62.39,51.41c-2.69,1.43-4.01,2.56-4.63,3.93c-0.67,1.47-0.43,3.06-0.08,5.25c0.2,1.29-1.33,3.7-3.35,4.56
		c-0.74,0.32-1.27,0.28-1.58-0.11c-0.59-0.77-0.58-3.11-0.56-4.98c0.02-2.6,0.03-4.84-1.04-5.79c-0.39-0.34-0.88-0.49-1.43-0.42
		c-0.47,0.06-0.95,0.13-1.41,0.21c-2.74,0.44-4.47,0.61-5.36-1.23c-1.45-2.98,1.48-5.18,2.81-5.99c0.27-0.16,0.52-0.36,0.75-0.58
		c3.21-0.38,6.24-1.76,8.95-3.49C58.71,44.71,61.2,47.77,62.39,51.41L62.39,51.41z M62.39,51.41"/>
</g>
</svg>
