<?xml version="1.0" encoding="utf-8"?>
<!-- Generator: Adobe Illustrator 24.0.2, SVG Export Plug-In . SVG Version: 6.00 Build 0)  -->
<svg version="1.1" id="Layer_1" xmlns="http://www.w3.org/2000/svg" xmlns:xlink="http://www.w3.org/1999/xlink" x="0px" y="0px"
	 viewBox="0 0 100 100" style="enable-background:new 0 0 100 100;" xml:space="preserve">
<style type="text/css">
	.st0{fill:#613E20;}
</style>
<g>
	<path class="st0" d="M50,9.94c10.81,0,20.97,4.21,28.61,11.85s11.85,17.8,11.85,28.61s-4.21,20.97-11.85,28.61
		S60.81,90.86,50,90.86s-20.97-4.21-28.61-11.85S9.54,61.21,9.54,50.4s4.21-20.97,11.85-28.61S39.19,9.94,50,9.94 M50,8.43
		C26.82,8.43,8.03,27.22,8.03,50.4S26.82,92.37,50,92.37S91.97,73.58,91.97,50.4S73.18,8.43,50,8.43L50,8.43z"/>
	<g>
		<path class="st0" d="M71.47,34.28c-0.28,0-0.55,0.11-0.74,0.31c-0.2,0.2-0.31,0.46-0.31,0.74c0,0.28,0.11,0.55,0.31,0.74
			c0.2,0.2,0.47,0.31,0.74,0.31c0.28,0,0.55-0.11,0.74-0.31c0.2-0.2,0.31-0.47,0.31-0.74c0-0.28-0.11-0.55-0.31-0.74
			C72.02,34.4,71.75,34.28,71.47,34.28z"/>
		<path class="st0" d="M47.38,58.99c-0.28,0-0.55,0.11-0.74,0.31c-0.2,0.2-0.31,0.46-0.31,0.74c0,0.28,0.11,0.55,0.31,0.74
			c0.2,0.2,0.47,0.31,0.74,0.31c0.28,0,0.55-0.11,0.74-0.31c0.2-0.2,0.31-0.47,0.31-0.74c0-0.28-0.11-0.55-0.31-0.74
			C47.92,59.1,47.65,58.99,47.38,58.99z"/>
		<path class="st0" d="M74.75,38.08c-0.29-0.5-0.93-0.68-1.43-0.39c-0.5,0.29-0.68,0.93-0.39,1.43c3.12,5.48,2.18,12.42-2.29,16.89
			l-0.8,0.8c-0.19-0.5-0.49-0.98-0.9-1.38L58.17,44.63c0.7-0.35,1.36-0.81,1.93-1.38l2.07-2.07c0.41-0.41,0.41-1.07,0-1.48
			c-0.41-0.41-1.07-0.41-1.48,0l-2.07,2.07c-0.97,0.97-2.26,1.51-3.64,1.51h-4.13c-0.28,0-0.54,0.11-0.74,0.31l-3.16,3.16
			c-0.94,0.94-2.47,0.94-3.41,0c-0.94-0.94-0.94-2.47,0-3.41l7.22-7.22c4.41-4.41,11.31-5.38,16.76-2.36
			c0.51,0.28,1.15,0.1,1.43-0.41c0.28-0.51,0.1-1.15-0.41-1.43c-3.01-1.67-6.55-2.34-9.98-1.88c-3.21,0.43-6.14,1.77-8.55,3.9
			c-2.96-2.62-6.72-4.05-10.7-4.05c-4.32,0-8.37,1.68-11.43,4.73c-3.05,3.05-4.73,7.11-4.73,11.43s1.68,8.37,4.73,11.43l0.4,0.4
			c0.07,0.07,0.15,0.12,0.23,0.17c0.07,0.91,0.45,1.8,1.14,2.49c0.77,0.77,1.78,1.16,2.8,1.16c0.05,0,0.11,0,0.16,0
			c0,0.05,0,0.11,0,0.16c0,1.06,0.41,2.05,1.16,2.8c0.77,0.77,1.78,1.16,2.8,1.16c0.05,0,0.11,0,0.16,0c0,0.05,0,0.11,0,0.16
			c0,1.06,0.41,2.05,1.16,2.8c0.77,0.77,1.78,1.16,2.8,1.16c0.05,0,0.11,0,0.16,0c-0.04,1.06,0.34,2.14,1.15,2.96
			c0.75,0.75,1.74,1.16,2.8,1.16c1.06,0,2.05-0.41,2.8-1.16l1.47-1.47L51,73.36c0.75,0.75,1.74,1.16,2.8,1.16
			c1.06,0,2.05-0.41,2.8-1.16c0.82-0.82,1.2-1.92,1.15-2.99c0.07,0,0.13,0.01,0.2,0.01c1.01,0,2.02-0.39,2.8-1.16
			c0.81-0.81,1.19-1.89,1.15-2.95c0.05,0,0.11,0,0.16,0c1.06,0,2.05-0.41,2.8-1.16c0.81-0.81,1.19-1.89,1.15-2.95
			c0.05,0,0.11,0,0.16,0c1.06,0,2.05-0.41,2.8-1.16c0.38-0.38,0.66-0.82,0.86-1.28c0.1-0.05,0.2-0.12,0.28-0.2l2.03-2.03
			C77.25,52.36,78.34,44.37,74.75,38.08z M32.44,59.59c-0.5,0-0.96-0.19-1.31-0.54c-0.35-0.35-0.54-0.82-0.54-1.31
			c0-0.5,0.19-0.96,0.54-1.31l1.81-1.81c0.35-0.35,0.82-0.54,1.31-0.54c0.5,0,0.96,0.19,1.31,0.54c0.72,0.72,0.72,1.9,0,2.62
			l-1.81,1.81C33.4,59.39,32.93,59.59,32.44,59.59z M35.23,63.15c-0.35-0.35-0.54-0.82-0.54-1.31c0-0.5,0.19-0.96,0.54-1.31
			l1.81-1.81c0,0,0,0,0,0c0.35-0.35,0.82-0.54,1.31-0.54c0.5,0,0.96,0.19,1.31,0.54c0.72,0.72,0.72,1.9,0,2.62l-1.81,1.81
			C37.13,63.87,35.96,63.87,35.23,63.15z M39.34,67.26c-0.35-0.35-0.54-0.82-0.54-1.31c0-0.5,0.19-0.96,0.54-1.31l1.81-1.81
			c0,0,0,0,0,0c0.35-0.35,0.82-0.54,1.31-0.54c0.5,0,0.96,0.19,1.31,0.54c0.72,0.72,0.72,1.9,0,2.62l-1.81,1.81
			C41.24,67.98,40.06,67.98,39.34,67.26z M46.07,71.36c-0.35,0.35-0.82,0.54-1.31,0.54c-0.5,0-0.96-0.19-1.31-0.54
			c-0.72-0.72-0.72-1.9,0-2.62l1.81-1.81c0,0,0,0,0,0c0.35-0.35,0.82-0.54,1.31-0.54c0.5,0,0.96,0.19,1.31,0.54
			c0.35,0.35,0.54,0.82,0.54,1.31c0,0.5-0.19,0.96-0.54,1.31L46.07,71.36z M67.47,59.52c-0.35,0.35-0.82,0.54-1.31,0.54
			c-0.5,0-0.96-0.19-1.31-0.54l-4.37-4.37c0,0,0,0,0,0l-4.11-4.11c-0.41-0.41-1.07-0.41-1.48,0c-0.41,0.41-0.41,1.07,0,1.48
			L63.36,61c0.72,0.72,0.72,1.9,0,2.62c-0.35,0.35-0.82,0.54-1.31,0.54c-0.5,0-0.96-0.19-1.31-0.54l-8.47-8.47
			c-0.41-0.41-1.07-0.41-1.48,0c-0.41,0.41-0.41,1.07,0,1.48l4.11,4.11c0,0,0,0,0,0l4.37,4.37c0.72,0.72,0.72,1.9,0,2.62
			c-0.72,0.72-1.9,0.72-2.62,0l-4.37-4.37c-0.08-0.08-0.17-0.14-0.27-0.19l-1.25-1.25c-0.41-0.41-1.07-0.41-1.48,0
			c-0.41,0.41-0.41,1.07,0,1.48l5.84,5.84c0.72,0.72,0.72,1.9,0,2.62c-0.35,0.35-0.82,0.54-1.31,0.54c-0.5,0-0.96-0.19-1.31-0.54
			l-2.22-2.22c0.17-0.44,0.26-0.92,0.26-1.41c0-1.06-0.41-2.05-1.16-2.8c-0.75-0.75-1.74-1.16-2.8-1.16c-0.05,0-0.11,0-0.16,0
			c0.04-1.06-0.34-2.14-1.15-2.95c-0.75-0.75-1.74-1.16-2.8-1.16c-0.05,0-0.11,0-0.16,0c0.04-1.06-0.34-2.14-1.15-2.95
			c-0.75-0.75-1.74-1.16-2.8-1.16c-0.05,0-0.11,0-0.16,0c0.04-1.06-0.34-2.14-1.15-2.95c-1.54-1.54-4.05-1.54-5.59,0l-1.81,1.81
			c-0.23,0.23-0.42,0.48-0.58,0.74c-2.46-2.62-3.82-6.02-3.82-9.63c0-3.76,1.46-7.29,4.12-9.94c2.66-2.66,6.19-4.12,9.94-4.12
			c3.41,0,6.64,1.21,9.19,3.42l-6.45,6.45c-0.85,0.85-1.32,1.98-1.32,3.19c0,1.2,0.47,2.34,1.32,3.19c0.88,0.88,2.03,1.32,3.19,1.32
			c1.15,0,2.31-0.44,3.19-1.32l2.86-2.86h3.7c0.31,0,0.61-0.02,0.91-0.06L67.47,56.9C68.19,57.62,68.19,58.8,67.47,59.52z"/>
	</g>
</g>
</svg>
