<?xml version="1.0" encoding="utf-8"?>
<!-- Generator: Adobe Illustrator 23.0.1, SVG Export Plug-In . SVG Version: 6.00 Build 0)  -->
<svg version="1.1" id="Layer_1" xmlns="http://www.w3.org/2000/svg" xmlns:xlink="http://www.w3.org/1999/xlink" x="0px" y="0px"
	 viewBox="0 0 68.3 35" style="enable-background:new 0 0 68.3 35;" xml:space="preserve">
<style type="text/css">
	.st0{fill:#005F7F;}
	.st1{fill:#FFFFFF;}
</style>
<g>
	<path class="st1" d="M9.7,5.9c0.1,0,0.2,0,0.3-0.1s0.2-0.1,0.2-0.2c0.1-0.2,0.2-0.5,0.4-0.9c0.1-0.4,0.2-0.9,0.4-1.4
		c0.1-0.6,0.2-1.2,0.4-1.8l0.1,0.1c-0.1,0.4-0.2,0.8-0.3,1.2C11,3.2,11,3.6,10.9,4c-0.1,0.4-0.2,0.7-0.3,1c-0.1,0.3-0.2,0.5-0.3,0.6
		c-0.1,0.1-0.2,0.2-0.3,0.3C9.9,5.9,9.8,6,9.7,6C9.4,6,9.3,5.9,9.1,5.8S9,5.5,9,5.3C9,5.1,9,5,9.1,4.9c0.1-0.1,0.3-0.2,0.5-0.2
		c0.2,0,0.3,0,0.4,0.1c0.1,0.1,0.1,0.2,0.1,0.3c0,0.2-0.1,0.3-0.2,0.4S9.7,5.8,9.5,5.8C9.5,5.8,9.6,5.8,9.7,5.9
		C9.6,5.8,9.7,5.9,9.7,5.9z M12.7,5.5l-1.6-2.9c0-0.1,0-0.3,0-0.4c0-0.1,0-0.2,0-0.4c0-0.1,0-0.3,0-0.3c0-0.1,0-0.1-0.1-0.1
		c-0.1,0-0.2,0-0.3,0l0-0.1c0.1,0,0.1,0,0.2,0c0.1,0,0.2,0,0.3,0c0.2,0,0.4,0,0.5,0l1.3,2.6c0,0.2-0.1,0.4-0.1,0.6
		C13,4.6,13,4.8,13,5c0,0.2-0.1,0.4-0.1,0.6H12.7z M14.6,1.1c-0.1,0-0.2,0-0.3,0.1c-0.1,0.1-0.2,0.1-0.2,0.2
		c-0.2,0.3-0.4,0.8-0.6,1.4c-0.2,0.7-0.4,1.6-0.6,2.7l-0.1-0.2C12.8,5,12.9,4.7,13,4.3c0.1-0.4,0.2-0.8,0.3-1.2s0.2-0.7,0.3-1
		c0.1-0.3,0.2-0.5,0.3-0.7c0.1-0.1,0.2-0.2,0.3-0.3C14.3,1,14.4,1,14.6,1C14.8,1,15,1,15.1,1.2s0.2,0.3,0.2,0.5
		c0,0.2-0.1,0.3-0.2,0.5c-0.1,0.1-0.3,0.2-0.5,0.2c-0.2,0-0.3,0-0.4-0.1c-0.1-0.1-0.1-0.2-0.1-0.3c0-0.2,0.1-0.3,0.2-0.5
		s0.3-0.2,0.4-0.2C14.7,1.1,14.7,1.1,14.6,1.1C14.6,1.1,14.6,1.1,14.6,1.1z"/>
	<path class="st1" d="M14.9,4.3c0.1-0.1,0.3-0.1,0.4-0.2s0.2-0.2,0.3-0.3c0.2-0.2,0.3-0.3,0.4-0.5c0.1-0.2,0.2-0.4,0.2-0.6
		c0-0.1,0-0.1,0-0.1s0,0-0.1,0c-0.1,0-0.2,0.1-0.3,0.2c-0.1,0.1-0.2,0.3-0.3,0.5c-0.1,0.2-0.2,0.5-0.3,0.7c-0.1,0.3-0.1,0.5-0.1,0.7
		c0,0.2,0,0.4,0.1,0.5c0.1,0.1,0.2,0.1,0.4,0.1c0.1,0,0.2,0,0.4-0.1s0.3-0.2,0.5-0.3l0.1,0c-0.1,0.1-0.2,0.3-0.3,0.4
		s-0.3,0.2-0.5,0.3c-0.2,0.1-0.4,0.1-0.7,0.1c-0.3,0-0.5-0.1-0.7-0.2c-0.2-0.1-0.3-0.4-0.3-0.6c0-0.2,0-0.5,0.1-0.7
		c0.1-0.2,0.2-0.5,0.3-0.7c0.1-0.2,0.3-0.4,0.5-0.6c0.2-0.2,0.4-0.3,0.6-0.4c0.2-0.1,0.5-0.1,0.7-0.1c0.2,0,0.4,0,0.5,0.1
		C16.9,2.5,17,2.7,17,2.8c0,0.2,0,0.3-0.1,0.4c-0.1,0.1-0.2,0.3-0.3,0.4s-0.3,0.2-0.5,0.3c-0.2,0.1-0.4,0.2-0.6,0.2
		C15.3,4.2,15.1,4.3,14.9,4.3L14.9,4.3z"/>
	<path class="st1" d="M18.7,5.2c-0.1,0.1-0.2,0.2-0.4,0.3c-0.2,0.1-0.3,0.1-0.6,0.1c-0.3,0-0.5-0.1-0.6-0.2C17,5.2,16.9,5,16.9,4.8
		c0-0.2,0.1-0.4,0.2-0.5c0.1-0.2,0.3-0.3,0.4-0.5c0.2-0.2,0.4-0.4,0.7-0.6c0.3-0.2,0.6-0.4,0.9-0.7l0,0c-0.1,0-0.3,0-0.4,0.1
		c-0.1,0.1-0.2,0.1-0.3,0.2C18.3,2.9,18.2,3,18.1,3c-0.1,0.1-0.2,0.1-0.3,0.1c-0.1,0-0.1,0-0.2,0c0,0-0.1,0-0.2,0
		c-0.1,0-0.1,0-0.1,0.1c0,0-0.1,0.1-0.1,0.2l0,0.1h-0.1L17.3,3c0.1-0.3,0.2-0.4,0.3-0.5c0.1-0.1,0.2-0.1,0.3-0.1c0.1,0,0.2,0,0.2,0
		s0.1,0,0.2,0.1s0.2,0,0.3,0c0,0,0.1,0,0.2,0c0.1,0,0.2,0,0.3-0.1l0.1-0.1l0.1,0.1c-0.2,0.3-0.5,0.6-0.7,0.9
		c-0.2,0.3-0.3,0.6-0.4,0.9s-0.2,0.5-0.2,0.8c0,0.1,0,0.2,0.1,0.3s0.1,0.1,0.2,0.1C18.5,5.3,18.6,5.2,18.7,5.2L18.7,5.2z M19.8,5.1
		c0.1,0,0.2,0,0.3-0.1c0.1-0.1,0.2-0.1,0.2-0.2s0.1-0.2,0.2-0.3c0-0.1,0.1-0.2,0.1-0.4c0-0.1,0-0.3,0-0.4c-0.1-0.1-0.3-0.1-0.4-0.2
		s-0.3-0.2-0.4-0.3c-0.1-0.1-0.1-0.3-0.1-0.4c0-0.1,0-0.2,0.1-0.3s0.2-0.1,0.3-0.1c0.1,0,0.2,0,0.3,0.1s0.1,0.2,0.2,0.3
		c0,0.1,0.1,0.3,0.1,0.4c0,0.1,0,0.3,0,0.4c0,0.2,0,0.4-0.1,0.6c0,0.2-0.1,0.4-0.2,0.5c-0.1,0.2-0.2,0.3-0.3,0.5
		c-0.1,0.1-0.2,0.2-0.4,0.3c-0.1,0.1-0.3,0.1-0.5,0.1c-0.1,0-0.3,0-0.4-0.1c-0.1,0-0.2-0.1-0.3-0.3c-0.1-0.1-0.1-0.3-0.1-0.5
		c0-0.2,0-0.4,0.1-0.5c0.1-0.2,0.2-0.3,0.3-0.5s0.2-0.2,0.3-0.3c0.1-0.1,0.2-0.1,0.3-0.1c0.1,0,0.1,0,0.2,0.1c0,0,0.1,0.1,0.1,0.2
		c0,0.1,0,0.1,0,0.2c0,0.3-0.1,0.5-0.2,0.8c-0.1,0.2-0.3,0.5-0.5,0.6l0-0.1c0.2-0.2,0.3-0.4,0.4-0.6c0.1-0.2,0.1-0.5,0.1-0.7
		c0-0.1,0-0.2,0-0.2c0-0.1,0-0.1-0.1-0.1c0,0-0.1,0-0.1,0.1c0,0.1-0.1,0.2-0.1,0.4c0,0.1,0,0.3,0,0.5c0,0.1,0,0.2,0.1,0.3
		S19.5,5,19.5,5S19.7,5.1,19.8,5.1z"/>
	<path class="st1" d="M25.4,2c0.1,0,0.2,0,0.2-0.1c0.1-0.1,0.1-0.1,0.1-0.2c0-0.1,0-0.1-0.1-0.2c-0.1,0-0.1-0.1-0.2-0.1
		c-0.1,0-0.3,0-0.4,0.1c-0.1,0.1-0.2,0.2-0.3,0.3c-0.1,0.1-0.1,0.3-0.1,0.4c0,0,0,0.1,0,0.1c0,0,0,0.1,0,0.1c0.1,0,0.1,0,0.2,0
		c0.1,0,0.1,0,0.2,0c0.1,0,0.2,0,0.2,0.1c0,0,0,0.1-0.1,0.1s-0.1,0-0.1,0c-0.1,0-0.2,0-0.2-0.1c-0.1,0-0.1-0.1-0.2-0.1
		c-0.2,0.1-0.3,0.2-0.4,0.5C24,3.3,24,3.6,24,3.9c0,0.2,0,0.5,0.1,0.6c0.1,0.2,0.2,0.3,0.4,0.4S25,5,25.2,5c0.2,0,0.5,0,0.7-0.1
		c0.2-0.1,0.4-0.2,0.6-0.4c0.2-0.2,0.2-0.4,0.2-0.6c0-0.2,0-0.3-0.1-0.4c-0.1-0.1-0.2-0.3-0.4-0.3l0.1-0.1c0.2,0.1,0.3,0.2,0.4,0.3
		c0.1,0.2,0.1,0.3,0.1,0.5c0,0.2,0,0.4-0.1,0.6c-0.1,0.2-0.2,0.4-0.4,0.5c-0.2,0.2-0.4,0.3-0.7,0.4c-0.3,0.1-0.6,0.1-1,0.1
		c-0.4,0-0.7,0-1-0.1c-0.3-0.1-0.5-0.2-0.7-0.4c-0.2-0.2-0.3-0.5-0.3-0.8c0-0.3,0.1-0.5,0.2-0.7c0.1-0.2,0.4-0.4,0.6-0.6
		c0.3-0.2,0.6-0.3,1-0.3c-0.2-0.1-0.4-0.1-0.5-0.2C24,2.2,23.9,2.1,23.9,2c0-0.2,0.1-0.3,0.2-0.4c0.1-0.1,0.3-0.2,0.4-0.2
		c0.2,0,0.4-0.1,0.6-0.1c0.3,0,0.5,0,0.6,0.1c0.1,0.1,0.2,0.2,0.2,0.3c0,0.1,0,0.2-0.1,0.3s-0.2,0.1-0.3,0.1L25.4,2z M26,4.3
		c0,0.1-0.1,0.2-0.3,0.3s-0.3,0.2-0.5,0.2c-0.1,0-0.2,0-0.4-0.1c-0.1-0.1-0.2-0.1-0.3-0.2c-0.1-0.1-0.1-0.3-0.1-0.4
		c0-0.2,0.1-0.5,0.3-0.7c0.2-0.2,0.5-0.3,0.8-0.5c0.2-0.1,0.4-0.1,0.5-0.2c0.2-0.1,0.4-0.1,0.5-0.2c0.2-0.1,0.4-0.1,0.5-0.2
		c0.1,0,0.2-0.1,0.4-0.1c0.1,0,0.2-0.1,0.3-0.2C27.9,2,28,1.9,28,1.8c0-0.2-0.1-0.3-0.2-0.4c-0.1-0.1-0.3-0.1-0.4-0.1
		c-0.1,0-0.1,0-0.2,0c0.2,0.1,0.3,0.2,0.3,0.4c0,0.2-0.1,0.3-0.2,0.4c-0.1,0.1-0.3,0.1-0.4,0.1c-0.2,0-0.3,0-0.4-0.1
		c-0.1-0.1-0.2-0.2-0.2-0.3c0-0.1,0-0.2,0.1-0.3s0.2-0.1,0.3-0.2c0.1,0,0.2-0.1,0.3-0.1c0.1,0,0.2,0,0.2,0c0.2,0,0.4,0.1,0.6,0.2
		s0.2,0.4,0.2,0.7c0,0.4-0.1,0.7-0.4,0.9c-0.2,0.2-0.6,0.4-1,0.5c-0.1,0-0.3,0.1-0.4,0.1c-0.1,0-0.3,0.1-0.5,0.1s-0.3,0.1-0.5,0.1
		c-0.1,0-0.2,0.1-0.3,0.1C25.1,4,25,4.1,25,4.1c0,0.1-0.1,0.1-0.1,0.2c0,0.1,0,0.2,0.1,0.2c0.1,0,0.2,0.1,0.3,0.1
		c0.1,0,0.2,0,0.3-0.1s0.2-0.1,0.2-0.2c0.1-0.1,0.1-0.1,0.1-0.2L26,4.3z"/>
	<path class="st1" d="M31,4.9C31,5.1,31,5.2,31,5.3c0,0.1,0.2,0.1,0.4,0.1l0,0.1c-0.1,0-0.3,0-0.5,0c-0.2,0-0.4,0-0.6,0
		c-0.2,0-0.4,0-0.6,0c-0.2,0-0.3,0-0.5,0l0-0.1c0.1,0,0.2,0,0.3,0c0.1,0,0.1-0.1,0.2-0.1s0.1-0.2,0.1-0.3l0.8-3
		c0.1-0.2,0.1-0.4,0-0.4c0-0.1-0.2-0.1-0.4-0.1l0-0.1c0.1,0,0.3,0,0.5,0s0.4,0,0.6,0c0.2,0,0.4,0,0.6,0c0.2,0,0.4,0,0.5,0l0,0.1
		c-0.1,0-0.2,0-0.3,0c-0.1,0-0.1,0.1-0.2,0.1s-0.1,0.2-0.1,0.3L31,4.9z"/>
	<path class="st1" d="M33.1,5.5H32l0.7-2.6c0-0.1,0-0.1,0-0.1s0-0.1,0-0.1s0,0-0.1,0c-0.1,0-0.1,0-0.2,0.1c-0.1,0.1-0.1,0.2-0.2,0.3
		l-0.1,0.4h-0.1l0.2-0.5c0.1-0.2,0.2-0.4,0.4-0.5c0.2-0.1,0.3-0.1,0.5-0.1c0.2,0,0.3,0,0.4,0.1c0.1,0.1,0.1,0.2,0.2,0.3
		c0,0.1,0,0.3,0,0.4L33.1,5.5z M34.3,3c0-0.1,0-0.1,0-0.2c0,0,0-0.1-0.1-0.1c-0.1,0-0.2,0-0.2,0.1s-0.2,0.2-0.3,0.4
		c-0.1,0.2-0.2,0.4-0.3,0.6c-0.1,0.2-0.2,0.5-0.3,0.8l-0.1,0c0.2-0.6,0.3-1,0.5-1.4c0.2-0.3,0.3-0.6,0.5-0.7
		c0.2-0.2,0.4-0.2,0.7-0.2c0.2,0,0.3,0,0.4,0.1c0.1,0.1,0.1,0.2,0.1,0.3c0,0.1,0,0.3-0.1,0.5l-0.7,2.3h-1.1L34.3,3z M36,3
		c0-0.1,0-0.2,0-0.2c0,0,0-0.1-0.1-0.1c-0.1,0-0.2,0.1-0.3,0.2c-0.1,0.1-0.2,0.3-0.4,0.6c-0.1,0.3-0.3,0.7-0.4,1.2l-0.1,0
		c0.1-0.5,0.3-0.9,0.4-1.2c0.1-0.3,0.3-0.5,0.4-0.7c0.1-0.2,0.3-0.3,0.4-0.4s0.3-0.1,0.5-0.1c0.2,0,0.3,0,0.4,0.1
		c0.1,0.1,0.1,0.2,0.1,0.3c0,0.1,0,0.3-0.1,0.5L36.4,5c0,0.1,0,0.2,0,0.2c0,0,0.1,0,0.1,0c0,0,0.1,0,0.1-0.1s0.1-0.1,0.2-0.3
		l0.1-0.3H37L36.9,5c-0.1,0.3-0.2,0.4-0.4,0.5S36.2,5.6,36,5.6c-0.1,0-0.2,0-0.3-0.1c-0.1,0-0.2-0.1-0.2-0.2
		c-0.1-0.1-0.1-0.2-0.1-0.3c0-0.1,0-0.3,0.1-0.5L36,3z"/>
	<path class="st1" d="M38.4,1.6c0.2,0,0.4,0,0.6-0.1s0.4-0.1,0.5-0.1l-1.3,4.5c-0.1,0.2-0.1,0.4,0,0.5c0.1,0.1,0.2,0.1,0.4,0.1
		l0,0.1c-0.1,0-0.3,0-0.4,0c-0.2,0-0.4,0-0.6,0c-0.2,0-0.4,0-0.6,0c-0.2,0-0.3,0-0.4,0l0-0.1c0.1,0,0.2,0,0.3-0.1
		c0.1-0.1,0.1-0.2,0.2-0.3L38.4,1.6z M37.3,3.4c0.1-0.2,0.3-0.3,0.4-0.5c0.1-0.2,0.2-0.3,0.4-0.6c0.1-0.2,0.2-0.5,0.4-0.8l0,0.1
		c-0.1,0.4-0.3,0.8-0.5,1C37.8,3,37.6,3.3,37.3,3.4L37.3,3.4z M39.5,2.7c-0.1,0-0.1,0-0.2,0.1c-0.1,0.1-0.1,0.2-0.2,0.3
		C39,3.3,39,3.4,38.9,3.6c-0.1,0.2-0.1,0.3-0.2,0.5l0.1-0.6c0.1-0.4,0.3-0.7,0.5-0.9c0.2-0.2,0.4-0.3,0.6-0.3c0.3,0,0.5,0.1,0.6,0.3
		c0.1,0.2,0.2,0.4,0.2,0.7c0,0.2,0,0.4-0.1,0.6c-0.1,0.2-0.1,0.4-0.2,0.6s-0.2,0.4-0.4,0.5s-0.3,0.3-0.5,0.4S39.2,5.6,39,5.6
		c-0.1,0-0.3,0-0.4,0c-0.1,0-0.2-0.1-0.3-0.1l0-0.1c0,0,0.1,0,0.1,0c0,0,0.1,0,0.1,0c0.1,0,0.2,0,0.3-0.1s0.2-0.2,0.3-0.4
		c0.1-0.1,0.2-0.3,0.2-0.5c0.1-0.2,0.1-0.4,0.2-0.6c0-0.2,0.1-0.4,0.1-0.6c0-0.2,0-0.3,0-0.4C39.6,2.7,39.6,2.7,39.5,2.7z"/>
	<path class="st1" d="M42,5.5h-1.1l0.7-2.6c0-0.1,0-0.2,0-0.2s0-0.1-0.1-0.1c-0.1,0-0.1,0-0.2,0.1c-0.1,0.1-0.1,0.2-0.2,0.3
		l-0.1,0.4H41l0.2-0.5c0.1-0.2,0.2-0.4,0.4-0.5c0.2-0.1,0.3-0.1,0.5-0.1c0.2,0,0.3,0,0.4,0.1s0.1,0.2,0.1,0.3c0,0.1,0,0.3,0,0.4
		L42,5.5z M43.5,2.4c-0.1,0-0.2,0-0.2,0c-0.1,0-0.2,0.1-0.3,0.2c-0.1,0.1-0.2,0.3-0.3,0.5c-0.1,0.2-0.2,0.5-0.3,0.9
		c-0.1,0.4-0.2,0.9-0.4,1.5l0.1-0.8c0.1-0.5,0.2-0.9,0.3-1.2c0.1-0.3,0.2-0.5,0.3-0.7s0.2-0.3,0.3-0.4c0.1-0.1,0.3-0.1,0.4-0.1
		c0.2,0,0.3,0.1,0.4,0.2c0.1,0.1,0.1,0.3,0.1,0.4c0,0.2-0.1,0.4-0.2,0.5c-0.1,0.1-0.3,0.2-0.5,0.2c-0.1,0-0.3,0-0.3-0.1
		C43,3.5,43,3.3,43,3.2C43,3,43,2.9,43.2,2.7S43.4,2.5,43.5,2.4C43.6,2.4,43.6,2.4,43.5,2.4C43.6,2.4,43.6,2.4,43.5,2.4z"/>
	<path class="st1" d="M43.9,4.6c0-0.2,0-0.5,0.1-0.7c0.1-0.3,0.2-0.5,0.4-0.7s0.4-0.4,0.7-0.6c0.3-0.1,0.6-0.2,0.9-0.2
		c0.3,0,0.6,0.1,0.8,0.3C47,2.8,47.1,3,47.1,3.3c0,0.2,0,0.5-0.1,0.7c-0.1,0.3-0.2,0.5-0.4,0.7s-0.4,0.4-0.7,0.6
		c-0.3,0.1-0.6,0.2-0.9,0.2c-0.3,0-0.6-0.1-0.8-0.3C44,5.2,43.9,4.9,43.9,4.6z M46,2.4c-0.1,0-0.1,0.1-0.2,0.2
		c-0.1,0.1-0.2,0.3-0.3,0.5c-0.1,0.2-0.2,0.4-0.3,0.6C45.1,3.9,45,4.2,45,4.4s-0.1,0.5-0.1,0.7c0,0.1,0,0.2,0,0.3c0,0,0,0.1,0.1,0.1
		c0.1,0,0.1-0.1,0.2-0.2c0.1-0.1,0.2-0.3,0.3-0.4c0.1-0.2,0.2-0.4,0.3-0.6s0.1-0.5,0.2-0.7C46,3.3,46.1,3,46.1,2.8
		C46.1,2.6,46.1,2.5,46,2.4C46,2.5,46,2.4,46,2.4z"/>
	<path class="st1" d="M50,3.7c-0.2-0.1-0.4-0.2-0.5-0.4c-0.1-0.2-0.2-0.3-0.2-0.5c0-0.2,0-0.3,0.1-0.4s0.2-0.1,0.3-0.1
		c0.2,0,0.3,0.1,0.3,0.2c0.1,0.1,0.1,0.2,0.1,0.4c0,0.2,0,0.5-0.1,0.7c-0.1,0.2-0.1,0.5-0.2,0.7c-0.1,0.2-0.2,0.4-0.4,0.6
		c-0.2,0.2-0.3,0.3-0.6,0.5c-0.2,0.1-0.5,0.2-0.7,0.2c-0.2,0-0.4,0-0.6-0.1c-0.1-0.1-0.2-0.2-0.3-0.3c-0.1-0.1-0.1-0.2-0.1-0.4
		c0-0.3,0.1-0.5,0.2-0.8c0.2-0.3,0.4-0.5,0.6-0.8c0.3-0.3,0.6-0.5,0.9-0.8c-0.1,0-0.2,0-0.3,0.1c-0.1,0.1-0.2,0.1-0.2,0.2
		C48.4,2.9,48.4,3,48.3,3c-0.1,0.1-0.1,0.1-0.2,0.1c-0.1,0-0.1,0-0.2,0c0,0-0.1,0-0.2,0c-0.1,0-0.1,0-0.1,0.1c0,0-0.1,0.1-0.1,0.2
		l0,0.1h-0.1L47.5,3c0.1-0.3,0.2-0.4,0.3-0.5c0.1-0.1,0.2-0.1,0.3-0.1c0.1,0,0.1,0,0.2,0c0.1,0,0.1,0.1,0.2,0.1c0.1,0,0.2,0,0.3,0
		c0,0,0.1,0,0.2,0c0.1,0,0.1,0,0.2-0.1l0.1-0.1l0.1,0.1c-0.2,0.3-0.3,0.6-0.5,0.9c-0.1,0.3-0.2,0.6-0.3,0.9
		c-0.1,0.3-0.1,0.5-0.1,0.7c0,0.1,0,0.2,0.1,0.3s0.1,0.1,0.2,0.1c0.1,0,0.2,0,0.4-0.1c0.1-0.1,0.2-0.1,0.3-0.2
		c0.1-0.1,0.2-0.2,0.3-0.3s0.1-0.3,0.2-0.4S49.9,3.9,50,3.7z"/>
	<path class="st1" d="M51.3,4.3c0.1-0.1,0.3-0.1,0.4-0.2s0.2-0.2,0.3-0.3c0.2-0.2,0.3-0.3,0.4-0.5c0.1-0.2,0.2-0.4,0.2-0.6
		c0-0.1,0-0.1,0-0.1c0,0,0,0-0.1,0c-0.1,0-0.2,0.1-0.3,0.2c-0.1,0.1-0.2,0.3-0.3,0.5c-0.1,0.2-0.2,0.5-0.3,0.7s-0.1,0.5-0.1,0.7
		c0,0.2,0,0.4,0.1,0.5c0.1,0.1,0.2,0.1,0.4,0.1c0.1,0,0.2,0,0.4-0.1s0.3-0.2,0.5-0.3l0.1,0c-0.1,0.1-0.2,0.3-0.3,0.4
		c-0.1,0.1-0.3,0.2-0.5,0.3c-0.2,0.1-0.4,0.1-0.7,0.1c-0.3,0-0.5-0.1-0.7-0.2c-0.2-0.1-0.3-0.4-0.3-0.6c0-0.2,0-0.5,0.1-0.7
		c0.1-0.2,0.2-0.5,0.3-0.7C50.9,3.2,51,3,51.2,2.8c0.2-0.2,0.4-0.3,0.6-0.4c0.2-0.1,0.5-0.1,0.7-0.1c0.2,0,0.4,0,0.5,0.1
		c0.1,0.1,0.2,0.2,0.2,0.4c0,0.2,0,0.3-0.1,0.4c-0.1,0.1-0.2,0.3-0.3,0.4c-0.1,0.1-0.3,0.2-0.5,0.3c-0.2,0.1-0.4,0.2-0.6,0.2
		S51.5,4.3,51.3,4.3L51.3,4.3z"/>
	<path class="st1" d="M54.6,5.2c0,0,0.1,0,0.2-0.1c0.1-0.1,0.1-0.2,0.2-0.3c0.1-0.2,0.2-0.4,0.3-0.6s0.2-0.6,0.3-0.9l-0.1,0.6
		c-0.1,0.4-0.2,0.7-0.3,0.9c-0.1,0.3-0.2,0.4-0.4,0.6c-0.2,0.1-0.3,0.2-0.6,0.2c-0.2,0-0.4-0.1-0.5-0.2c-0.2-0.1-0.2-0.4-0.2-0.7
		c0-0.2,0-0.4,0.1-0.6s0.1-0.4,0.2-0.6c0.1-0.2,0.2-0.4,0.4-0.6s0.4-0.3,0.6-0.4s0.5-0.2,0.7-0.2c0.2,0,0.3,0,0.3,0.1
		c0,0.1,0.1,0.1,0.1,0.2l0,0.1c0-0.1,0-0.1-0.1-0.2c0,0-0.1-0.1-0.2-0.1c-0.1,0-0.2,0.1-0.3,0.2C55,2.8,54.9,3,54.8,3.2
		S54.6,3.7,54.5,4c-0.1,0.3-0.1,0.6-0.1,0.9c0,0.1,0,0.2,0,0.3C54.5,5.2,54.5,5.2,54.6,5.2z M56.1,5c0,0.1,0,0.2,0,0.2
		c0,0,0.1,0.1,0.1,0.1s0.1,0,0.1-0.1c0.1,0,0.1-0.1,0.2-0.3l0.1-0.3h0.1L56.5,5c-0.1,0.3-0.2,0.4-0.4,0.5s-0.3,0.1-0.5,0.1
		c-0.3,0-0.4-0.1-0.5-0.2c-0.1-0.1-0.1-0.2-0.1-0.3c0-0.1,0-0.3,0.1-0.5l0.8-3.1c0-0.1,0-0.2,0-0.3s-0.2-0.1-0.4-0.1l0-0.1
		c0.3,0,0.6,0,0.9-0.1c0.3,0,0.5-0.1,0.7-0.2L56.1,5z"/>
	<path class="st1" d="M57.1,5.2c0-0.2,0.1-0.3,0.2-0.5s0.3-0.2,0.5-0.2c0.2,0,0.3,0,0.4,0.1c0.1,0.1,0.1,0.2,0.1,0.3
		c0,0.2-0.1,0.3-0.2,0.4s-0.3,0.2-0.5,0.2c-0.2,0-0.3,0-0.3-0.1S57.1,5.3,57.1,5.2z M57.7,4.3c0.1-0.2,0.1-0.5,0.1-0.7s0-0.5,0-0.7
		c0-0.2,0-0.5,0-0.7c0-0.2,0-0.3,0-0.5c0-0.2,0.1-0.3,0.1-0.5C58,1.2,58.1,1,58.2,1c0.1-0.1,0.2-0.1,0.4-0.1c0.2,0,0.3,0,0.4,0.1
		c0.1,0.1,0.1,0.2,0.1,0.4c0,0.2,0,0.4-0.1,0.6c-0.1,0.2-0.2,0.5-0.4,0.7c-0.1,0.2-0.3,0.5-0.4,0.8C58,3.8,57.9,4,57.8,4.3L57.7,4.3
		z"/>
</g>
<g>
	<path class="st1" d="M19.4,8.9C19.4,8.9,19.5,8.9,19.4,8.9c0.1,0,0.1,0,0.1,0.1c0,0,0,0,0.1,0.1l1.9,2.4c0-0.1,0-0.2,0-0.2
		c0-0.1,0-0.1,0-0.2V8.9h0.8V13h-0.5c-0.1,0-0.1,0-0.2,0c-0.1,0-0.1-0.1-0.1-0.1l-1.9-2.4c0,0.1,0,0.1,0,0.2c0,0.1,0,0.1,0,0.2V13
		h-0.8V8.9h0.5C19.3,8.9,19.4,8.9,19.4,8.9z"/>
	<path class="st1" d="M27.1,11c0,0.3-0.1,0.6-0.2,0.8c-0.1,0.3-0.2,0.5-0.4,0.7c-0.2,0.2-0.4,0.3-0.7,0.4s-0.5,0.2-0.9,0.2
		c-0.3,0-0.6-0.1-0.9-0.2s-0.5-0.3-0.7-0.4S23.1,12,23,11.8c-0.1-0.3-0.2-0.5-0.2-0.8c0-0.3,0.1-0.6,0.2-0.8
		c0.1-0.3,0.2-0.5,0.4-0.7s0.4-0.3,0.7-0.4s0.6-0.2,0.9-0.2c0.3,0,0.6,0.1,0.9,0.2s0.5,0.3,0.7,0.4c0.2,0.2,0.3,0.4,0.4,0.7
		C27,10.4,27.1,10.7,27.1,11z M26.1,11c0-0.2,0-0.4-0.1-0.5c-0.1-0.2-0.1-0.3-0.2-0.4c-0.1-0.1-0.2-0.2-0.4-0.3
		c-0.1-0.1-0.3-0.1-0.5-0.1c-0.2,0-0.3,0-0.5,0.1c-0.1,0.1-0.3,0.1-0.4,0.3c-0.1,0.1-0.2,0.2-0.2,0.4c-0.1,0.2-0.1,0.3-0.1,0.5
		c0,0.2,0,0.4,0.1,0.5c0.1,0.2,0.1,0.3,0.2,0.4c0.1,0.1,0.2,0.2,0.4,0.3c0.1,0.1,0.3,0.1,0.5,0.1c0.2,0,0.3,0,0.5-0.1
		c0.1-0.1,0.3-0.1,0.4-0.3c0.1-0.1,0.2-0.2,0.2-0.4C26.1,11.4,26.1,11.2,26.1,11z"/>
	<path class="st1" d="M27.2,8.9H28c0.1,0,0.2,0,0.2,0.1c0.1,0,0.1,0.1,0.1,0.1l0.6,2.1c0,0.1,0,0.1,0.1,0.2c0,0.1,0,0.2,0,0.2
		c0-0.1,0-0.2,0.1-0.2c0-0.1,0-0.2,0.1-0.2l0.7-2.1c0-0.1,0.1-0.1,0.1-0.1s0.1-0.1,0.2-0.1h0.3c0.1,0,0.1,0,0.2,0.1
		c0.1,0,0.1,0.1,0.1,0.1l0.7,2.1c0,0.1,0,0.1,0.1,0.2c0,0.1,0,0.2,0.1,0.2c0-0.1,0-0.2,0-0.2c0-0.1,0-0.1,0-0.2l0.6-2.1
		c0-0.1,0.1-0.1,0.1-0.1c0.1,0,0.1-0.1,0.2-0.1h0.7L31.9,13H31l-0.8-2.5c0,0,0-0.1,0-0.1c0,0,0-0.1,0-0.1c0,0.1,0,0.1,0,0.1
		c0,0,0,0.1,0,0.1L29.3,13h-0.9L27.2,8.9z"/>
	<path class="st1" d="M34.3,8.9h0.8c0.1,0,0.2,0,0.2,0.1c0.1,0,0.1,0.1,0.1,0.1l0.6,2.1c0,0.1,0,0.1,0.1,0.2c0,0.1,0,0.2,0,0.2
		c0-0.1,0-0.2,0.1-0.2c0-0.1,0-0.2,0.1-0.2l0.7-2.1c0-0.1,0.1-0.1,0.1-0.1s0.1-0.1,0.2-0.1h0.3c0.1,0,0.1,0,0.2,0.1
		c0.1,0,0.1,0.1,0.1,0.1l0.7,2.1c0,0.1,0,0.1,0.1,0.2c0,0.1,0,0.2,0.1,0.2c0-0.1,0-0.2,0-0.2c0-0.1,0-0.1,0-0.2l0.6-2.1
		c0-0.1,0.1-0.1,0.1-0.1c0.1,0,0.1-0.1,0.2-0.1h0.7L39,13h-0.9l-0.8-2.5c0,0,0-0.1,0-0.1c0,0,0-0.1,0-0.1c0,0.1,0,0.1,0,0.1
		c0,0,0,0.1,0,0.1L36.4,13h-0.9L34.3,8.9z"/>
	<path class="st1" d="M41.6,13h-1V8.9h1V13z"/>
	<path class="st1" d="M45.3,8.9v0.8h-1.1V13h-0.9V9.7h-1.1V8.9H45.3z"/>
	<path class="st1" d="M49.3,13h-1v-1.7h-1.7V13h-1V8.9h1v1.7h1.7V8.9h1V13z"/>
</g>
<g>
	<path class="st1" d="M7,17l0.2,0.1c-0.2,0.7-0.5,1.2-0.9,1.6c-0.4,0.4-0.8,0.6-1.2,0.6c-0.2,0-0.4,0-0.7-0.1
		c-0.2-0.1-0.5-0.2-0.7-0.3c-0.2-0.1-0.4-0.1-0.6-0.1L2,21.2c0.3-0.2,0.6-0.3,1-0.4s0.8-0.1,1.2-0.1c0.9,0,1.5,0.1,1.9,0.4
		s0.6,0.7,0.6,1.2c0,0.5-0.1,0.9-0.4,1.3S5.5,24.5,5,24.8c-0.5,0.3-1,0.6-1.6,0.8c-0.6,0.2-1.2,0.4-1.8,0.5
		c-0.6,0.1-1.2,0.2-1.7,0.2L0,26c0.5,0,0.9-0.1,1.4-0.2c0.5-0.2,0.9-0.4,1.4-0.7s0.8-0.7,1-1.1C4,23.5,4.2,23,4.2,22.4
		c0-0.4-0.1-0.7-0.3-0.9c-0.2-0.2-0.5-0.3-0.9-0.3c-0.1,0-0.3,0-0.5,0.1c-0.2,0-0.4,0.1-0.7,0.3l-0.1-0.1l1.8-4.2
		c0.3,0,0.5,0,0.7,0.1s0.5,0.1,0.7,0.2c0.2,0.1,0.5,0.1,0.8,0.1c0.3,0,0.6,0,0.8-0.1C6.7,17.4,6.9,17.3,7,17z"/>
	<path class="st1" d="M12.9,17.1c0.9,0,1.7,0.2,2.2,0.7c0.5,0.4,0.8,1.1,0.8,1.8c0,0.6-0.1,1.2-0.4,1.8c-0.3,0.6-0.6,1.1-1.1,1.6
		c-0.5,0.5-1,0.8-1.6,1.1c-0.6,0.3-1.3,0.4-2,0.4c-0.9,0-1.6-0.2-2.2-0.7S7.9,22.7,7.9,22c0-0.6,0.1-1.2,0.4-1.8
		c0.3-0.6,0.6-1.1,1.1-1.6c0.5-0.5,1-0.8,1.6-1.1C11.6,17.2,12.3,17.1,12.9,17.1z M12.8,17.4c-0.4,0-0.7,0.2-1,0.5
		c-0.3,0.3-0.6,0.7-0.8,1.2c-0.2,0.5-0.4,1-0.5,1.6c-0.1,0.6-0.2,1.2-0.2,1.7c0,0.7,0.1,1.1,0.2,1.4c0.1,0.3,0.3,0.5,0.5,0.5
		c0.4,0,0.7-0.2,1-0.5c0.3-0.3,0.6-0.7,0.8-1.2c0.2-0.5,0.4-1,0.5-1.6c0.1-0.6,0.2-1.2,0.2-1.7c0-0.7-0.1-1.1-0.2-1.4
		C13.1,17.5,13,17.4,12.8,17.4z"/>
	<path class="st1" d="M18.9,24.3h-2.4l1.6-5.8c0-0.1,0.1-0.3,0.1-0.3c0-0.1,0-0.1-0.1-0.2c0,0-0.1-0.1-0.2-0.1
		c-0.1,0-0.2,0.1-0.4,0.2c-0.1,0.1-0.2,0.3-0.3,0.7L17,19.5h-0.3l0.4-1c0.2-0.5,0.4-0.9,0.8-1.1c0.3-0.2,0.7-0.3,1.1-0.3
		c0.4,0,0.8,0.1,1,0.3c0.2,0.2,0.3,0.4,0.3,0.7c0,0.3,0,0.6-0.1,0.9L18.9,24.3z M21.7,18.7c0.1-0.2,0.1-0.3,0.1-0.4
		c0-0.1,0-0.2-0.1-0.2c-0.2,0-0.3,0.1-0.5,0.3s-0.4,0.5-0.6,0.9c-0.2,0.4-0.4,0.8-0.6,1.4c-0.2,0.5-0.4,1.1-0.6,1.8l-0.2-0.1
		c0.4-1.3,0.7-2.3,1.1-3c0.4-0.8,0.8-1.3,1.2-1.7c0.4-0.3,1-0.5,1.6-0.5c0.4,0,0.7,0.1,0.9,0.2c0.2,0.2,0.3,0.4,0.3,0.7
		c0,0.3,0,0.7-0.2,1.1l-1.5,5.1h-2.4L21.7,18.7z M25.5,18.7c0.1-0.2,0.1-0.4,0.1-0.5c0-0.1,0-0.1-0.1-0.1c-0.2,0-0.4,0.1-0.6,0.4
		s-0.5,0.7-0.8,1.3s-0.6,1.5-1,2.7l-0.1-0.1c0.3-1.1,0.6-2,0.9-2.7s0.6-1.2,0.9-1.6c0.3-0.4,0.6-0.6,1-0.8s0.7-0.2,1.1-0.2
		c0.4,0,0.7,0.1,0.9,0.2c0.2,0.2,0.3,0.4,0.3,0.7c0,0.3,0,0.7-0.2,1.1l-1.3,4c-0.1,0.3-0.1,0.4,0,0.5c0.1,0.1,0.1,0.1,0.2,0.1
		c0.1,0,0.2,0,0.3-0.1c0.1-0.1,0.3-0.3,0.4-0.7l0.3-0.8h0.3l-0.3,1c-0.2,0.6-0.5,0.9-0.8,1.1s-0.7,0.3-1.1,0.3c-0.3,0-0.5,0-0.8-0.1
		c-0.2-0.1-0.4-0.2-0.5-0.4c-0.1-0.2-0.2-0.4-0.2-0.7s0.1-0.6,0.2-1L25.5,18.7z"/>
	<path class="st1" d="M31.4,21.2l0.8-0.1c-0.6,0.2-1,0.4-1.3,0.5c-0.3,0.2-0.4,0.3-0.4,0.4c0,0.1,0,0.1,0.1,0.2
		c0.1,0,0.2,0.1,0.3,0.2l1.2,0.5c0.2,0.1,0.5,0.2,0.7,0.3c0.2,0.1,0.4,0.3,0.6,0.5s0.2,0.5,0.2,0.8c0,0.4-0.1,0.8-0.4,1
		s-0.6,0.5-1,0.7c-0.4,0.2-0.9,0.3-1.4,0.4c-0.5,0.1-1,0.1-1.4,0.1c-0.4,0-0.9,0-1.3-0.1c-0.4-0.1-0.7-0.2-1-0.4
		c-0.3-0.2-0.4-0.3-0.4-0.6c0-0.2,0.1-0.3,0.3-0.5c0.2-0.1,0.4-0.2,0.7-0.3c0.3-0.1,0.6-0.1,0.9-0.1c0.3,0,0.6,0,0.9,0l0,0.2
		c-0.3,0.2-0.5,0.3-0.6,0.5C29,25.7,29,25.8,29,26c0,0.2,0.1,0.3,0.2,0.4c0.2,0.1,0.4,0.2,0.7,0.2c0.3,0,0.6-0.1,0.9-0.2
		s0.6-0.2,0.8-0.4c0.2-0.2,0.3-0.4,0.3-0.6c0-0.2-0.1-0.3-0.2-0.4c-0.1-0.1-0.3-0.1-0.6-0.2l-1.8-0.6c-0.2-0.1-0.4-0.2-0.6-0.3
		c-0.2-0.2-0.3-0.4-0.3-0.6c0-0.3,0.1-0.5,0.4-0.8c0.3-0.2,0.6-0.4,1.1-0.6C30.4,21.6,30.9,21.4,31.4,21.2z M32.3,17.1
		c0.6,0,1.2,0.1,1.6,0.4s0.6,0.6,0.6,1.2c0,0.4-0.1,0.9-0.4,1.3s-0.7,0.8-1.2,1c-0.5,0.3-1.2,0.4-1.9,0.4c-0.6,0-1.2-0.1-1.6-0.4
		s-0.6-0.6-0.6-1.2c0-0.3,0.1-0.6,0.2-1c0.2-0.3,0.4-0.6,0.7-0.9c0.3-0.3,0.7-0.5,1.1-0.6C31.2,17.2,31.7,17.1,32.3,17.1z
		 M31.9,17.4c-0.1,0-0.2,0.1-0.3,0.2c-0.1,0.2-0.2,0.4-0.3,0.7c-0.1,0.3-0.2,0.6-0.2,1C31,19.6,31,19.9,31,20.3c0,0.3,0,0.5,0.1,0.6
		c0,0.1,0.1,0.2,0.2,0.2c0.1,0,0.3-0.1,0.4-0.2c0.1-0.2,0.2-0.4,0.3-0.7c0.1-0.3,0.2-0.6,0.2-1c0-0.4,0.1-0.7,0.1-1.1
		c0-0.2,0-0.4,0-0.5C32.1,17.4,32.1,17.4,31.9,17.4z M33.4,17.8l-0.3-0.1c0.1-0.4,0.4-0.7,0.7-0.9c0.3-0.2,0.6-0.3,1-0.3
		c0.3,0,0.5,0.1,0.7,0.3c0.2,0.2,0.2,0.4,0.2,0.6c0,0.3-0.1,0.5-0.2,0.6c-0.1,0.1-0.3,0.2-0.5,0.2c-0.1,0-0.3-0.1-0.4-0.2
		c-0.1-0.1-0.2-0.3-0.2-0.5c0-0.2,0-0.5,0.2-0.9l0.1,0.1c-0.3,0.1-0.6,0.3-0.7,0.4C33.7,17.3,33.5,17.5,33.4,17.8z"/>
	<path class="st1" d="M48.7,14.8c-0.1,0.3-0.3,0.8-0.4,1.3c-0.1,0.5-0.3,1.1-0.4,1.8h-0.3c0.1-0.4,0.1-0.9,0.1-1.2
		c0-0.4-0.1-0.7-0.2-0.9c-0.2-0.3-0.4-0.5-0.6-0.6s-0.5-0.2-0.9-0.2c-0.4,0-0.8,0.1-1.2,0.3s-0.8,0.5-1.1,0.9
		c-0.3,0.4-0.6,0.9-0.9,1.4c-0.3,0.5-0.4,1.1-0.6,1.7S42,20.6,42,21.3c0,0.9,0.2,1.6,0.5,2s0.7,0.6,1.3,0.6c0.3,0,0.6-0.1,0.9-0.2
		s0.6-0.3,0.8-0.6c0.2-0.3,0.5-0.5,0.6-0.9c0.2-0.3,0.4-0.7,0.6-1.3H47c-0.2,0.8-0.4,1.5-0.5,2c-0.1,0.5-0.2,0.9-0.3,1.3h-0.3
		c0-0.2,0-0.3,0-0.5c0-0.2,0-0.3-0.1-0.3c-0.1,0-0.2,0-0.3,0.1c-0.4,0.3-0.8,0.5-1.2,0.6c-0.4,0.2-0.9,0.2-1.5,0.2
		c-1.4,0-2.4-0.3-3-0.9c-0.6-0.6-0.9-1.5-0.9-2.5c0-0.6,0.1-1.3,0.3-1.9c0.2-0.6,0.5-1.2,0.9-1.8c0.4-0.5,0.9-1,1.5-1.5
		c0.6-0.4,1.2-0.8,1.9-1c0.7-0.2,1.4-0.4,2.2-0.4c0.5,0,1,0.1,1.2,0.3s0.5,0.4,0.7,0.6c0.1,0.1,0.2,0.2,0.4,0
		c0.1-0.1,0.2-0.4,0.4-0.7H48.7z"/>
	<path class="st1" d="M54.1,14.8c1.2,0,2,0.2,2.5,0.5c0.5,0.3,0.7,0.8,0.7,1.3c0,0.5-0.2,0.9-0.5,1.3c-0.3,0.4-0.8,0.7-1.4,1
		c-0.6,0.3-1.4,0.4-2.3,0.4c1.1,0,2,0.2,2.6,0.6c0.6,0.4,0.9,0.9,0.9,1.5c0,0.5-0.1,0.9-0.3,1.2s-0.5,0.7-0.9,0.9s-0.9,0.4-1.5,0.6
		s-1.2,0.2-2,0.2c-0.2,0-0.5,0-0.9,0c-0.4,0-0.9,0-1.5,0c-0.4,0-0.8,0-1.2,0c-0.5,0-0.8,0-1.1,0l0.1-0.3c0.3,0,0.5-0.1,0.7-0.1
		c0.2-0.1,0.3-0.2,0.4-0.3c0.1-0.2,0.2-0.4,0.3-0.7l1.8-6.7c0.1-0.3,0.1-0.5,0.1-0.7c0-0.2-0.1-0.3-0.2-0.4C50.2,15.1,50,15,49.6,15
		l0.1-0.3c0.2,0,0.4,0,0.7,0c0.3,0,0.6,0,0.9,0c0.3,0,0.6,0,0.8,0c0.5,0,0.9,0,1.2,0C53.5,14.8,53.8,14.8,54.1,14.8z M51.6,19.4
		l0.1-0.2h0.9c0.5,0,0.9-0.1,1.2-0.4c0.3-0.3,0.5-0.7,0.7-1.1c0.2-0.5,0.2-1,0.2-1.5c0-0.3,0-0.6-0.1-0.8c-0.1-0.2-0.3-0.3-0.6-0.3
		c-0.2,0-0.3,0.1-0.4,0.2s-0.2,0.4-0.3,0.8l-1.8,6.9c0,0.2-0.1,0.3-0.1,0.5c0,0.2,0,0.3,0.1,0.4c0.1,0.1,0.2,0.2,0.5,0.2
		c0.4,0,0.7-0.1,1-0.4c0.3-0.3,0.5-0.7,0.7-1.1c0.2-0.4,0.3-0.9,0.3-1.4c0-0.4-0.1-0.8-0.3-1.1c-0.2-0.3-0.5-0.5-1-0.5H51.6z"/>
	<path class="st1" d="M68,18.1c0,0.5-0.1,1.1-0.2,1.6c-0.2,0.6-0.4,1.1-0.7,1.7c-0.3,0.5-0.8,1-1.3,1.4c-0.5,0.4-1.2,0.8-1.9,1
		c-0.8,0.3-1.6,0.4-2.6,0.4c-0.2,0-0.5,0-0.8,0c-0.3,0-0.8,0-1.3,0c-0.2,0-0.5,0-0.7,0c-0.3,0-0.6,0-0.9,0s-0.5,0-0.7,0l0-0.3
		c0.3,0,0.5-0.1,0.7-0.1c0.2-0.1,0.3-0.2,0.4-0.3c0.1-0.2,0.2-0.4,0.3-0.7l1.8-6.7c0.1-0.3,0.1-0.6,0-0.8c-0.1-0.2-0.3-0.3-0.8-0.3
		l0-0.3c0.2,0,0.4,0,0.7,0c0.3,0,0.6,0,0.9,0c0.3,0,0.6,0,0.9,0c0.1,0,0.3,0,0.6,0c0.3,0,0.5,0,0.8,0c0.3,0,0.5,0,0.7,0
		c1.3,0,2.4,0.3,3.1,0.8C67.7,16.2,68,17,68,18.1z M61.3,24c0.6,0,1.2-0.2,1.7-0.6s0.9-0.9,1.2-1.6c0.3-0.6,0.6-1.3,0.8-2.1
		c0.2-0.7,0.3-1.5,0.3-2.1c0-0.9-0.1-1.5-0.4-2c-0.3-0.5-0.7-0.7-1.3-0.7c-0.2,0-0.3,0-0.4,0.1s-0.2,0.2-0.2,0.3s-0.1,0.4-0.2,0.8
		l-1.8,6.7c-0.1,0.5-0.2,0.8-0.1,0.9C60.8,23.9,61,24,61.3,24z"/>
</g>
<g>
	<path class="st1" d="M12,33.1h-1v-4.1h1V33.1z"/>
	<path class="st1" d="M13.3,29.1C13.4,29.1,13.4,29.1,13.3,29.1c0.1,0,0.1,0,0.1,0.1s0,0,0.1,0.1l1.9,2.4c0-0.1,0-0.2,0-0.2
		c0-0.1,0-0.1,0-0.2v-2.2h0.8v4.1h-0.5c-0.1,0-0.1,0-0.2,0c-0.1,0-0.1-0.1-0.1-0.1l-1.9-2.4c0,0.1,0,0.1,0,0.2c0,0.1,0,0.1,0,0.2
		v2.2h-0.8v-4.1h0.5C13.3,29.1,13.3,29.1,13.3,29.1z"/>
	<path class="st1" d="M20.7,29.1v0.7H19v1h1.3v0.7H19v1h1.7v0.7H18v-4.1H20.7z"/>
	<path class="st1" d="M20.9,29.1h0.8c0.1,0,0.1,0,0.2,0.1s0.1,0.1,0.1,0.1l0.8,2.2c0,0.1,0.1,0.2,0.1,0.3c0,0.1,0.1,0.2,0.1,0.4
		c0-0.1,0.1-0.2,0.1-0.4c0-0.1,0.1-0.2,0.1-0.3l0.8-2.2c0-0.1,0.1-0.1,0.1-0.1s0.1-0.1,0.2-0.1H25l-1.6,4.1h-0.9L20.9,29.1z"/>
	<path class="st1" d="M27.9,29.1v0.7h-1.7v1h1.3v0.7h-1.3v1h1.7v0.7h-2.6v-4.1H27.9z"/>
	<path class="st1" d="M29.4,31.6v1.5h-0.9v-4.1h1.3c0.3,0,0.5,0,0.8,0.1s0.4,0.1,0.5,0.3c0.1,0.1,0.2,0.2,0.3,0.4s0.1,0.3,0.1,0.5
		c0,0.1,0,0.3-0.1,0.4c0,0.1-0.1,0.2-0.2,0.3c-0.1,0.1-0.2,0.2-0.3,0.3c-0.1,0.1-0.2,0.1-0.4,0.2c0.1,0,0.1,0.1,0.2,0.1
		s0.1,0.1,0.1,0.2l0.9,1.4H31c-0.2,0-0.3-0.1-0.3-0.2l-0.7-1.2c0-0.1-0.1-0.1-0.1-0.1s-0.1,0-0.2,0H29.4z M29.4,31h0.4
		c0.1,0,0.2,0,0.3,0c0.1,0,0.2-0.1,0.2-0.1c0.1-0.1,0.1-0.1,0.1-0.2c0-0.1,0-0.2,0-0.3c0-0.2-0.1-0.3-0.2-0.4
		c-0.1-0.1-0.3-0.2-0.5-0.2h-0.4V31z"/>
	<path class="st1" d="M34.2,31.6v1.6h-0.9v-1.6l-1.5-2.5h0.8c0.1,0,0.1,0,0.2,0.1c0,0,0.1,0.1,0.1,0.1l0.6,1.2
		c0,0.1,0.1,0.2,0.1,0.3c0,0.1,0.1,0.2,0.1,0.2c0-0.1,0.1-0.2,0.1-0.2c0-0.1,0.1-0.2,0.1-0.3l0.6-1.2c0,0,0,0,0-0.1s0,0,0.1-0.1
		c0,0,0.1,0,0.1,0c0,0,0.1,0,0.1,0h0.8L34.2,31.6z"/>
	<path class="st1" d="M37.1,33.1v-4.1h1.5c0.3,0,0.5,0,0.7,0.1c0.2,0.1,0.4,0.1,0.5,0.2c0.1,0.1,0.2,0.2,0.3,0.3
		c0.1,0.1,0.1,0.3,0.1,0.5c0,0.1,0,0.2,0,0.3c0,0.1-0.1,0.2-0.1,0.2c-0.1,0.1-0.1,0.1-0.2,0.2c-0.1,0.1-0.2,0.1-0.3,0.2
		c0.3,0.1,0.5,0.2,0.6,0.3c0.1,0.1,0.2,0.3,0.2,0.6c0,0.2,0,0.3-0.1,0.5c-0.1,0.1-0.2,0.3-0.3,0.4c-0.1,0.1-0.3,0.2-0.5,0.3
		s-0.4,0.1-0.7,0.1H37.1z M38,30.8h0.5c0.1,0,0.2,0,0.3,0c0.1,0,0.2,0,0.2-0.1c0.1,0,0.1-0.1,0.1-0.2c0-0.1,0-0.1,0-0.2
		c0-0.1,0-0.2,0-0.2c0-0.1-0.1-0.1-0.1-0.2s-0.1-0.1-0.2-0.1c-0.1,0-0.2,0-0.3,0H38V30.8z M38,31.4v1h0.7c0.1,0,0.2,0,0.3,0
		c0.1,0,0.1-0.1,0.2-0.1c0,0,0.1-0.1,0.1-0.2c0-0.1,0-0.1,0-0.2c0-0.1,0-0.1,0-0.2c0-0.1-0.1-0.1-0.1-0.2c0,0-0.1-0.1-0.2-0.1
		c-0.1,0-0.2,0-0.3,0H38z"/>
	<path class="st1" d="M44.8,31.1c0,0.3-0.1,0.6-0.2,0.8c-0.1,0.3-0.2,0.5-0.4,0.7c-0.2,0.2-0.4,0.3-0.7,0.4
		c-0.3,0.1-0.5,0.2-0.9,0.2c-0.3,0-0.6-0.1-0.9-0.2c-0.3-0.1-0.5-0.3-0.7-0.4s-0.3-0.4-0.4-0.7c-0.1-0.3-0.2-0.5-0.2-0.8
		s0.1-0.6,0.2-0.8c0.1-0.3,0.2-0.5,0.4-0.7s0.4-0.3,0.7-0.4s0.6-0.2,0.9-0.2c0.3,0,0.6,0.1,0.9,0.2c0.3,0.1,0.5,0.3,0.7,0.4
		c0.2,0.2,0.3,0.4,0.4,0.7C44.7,30.5,44.8,30.8,44.8,31.1z M43.8,31.1c0-0.2,0-0.4-0.1-0.5c-0.1-0.2-0.1-0.3-0.2-0.4
		c-0.1-0.1-0.2-0.2-0.4-0.3c-0.1-0.1-0.3-0.1-0.5-0.1c-0.2,0-0.3,0-0.5,0.1c-0.1,0.1-0.3,0.1-0.4,0.3c-0.1,0.1-0.2,0.2-0.2,0.4
		c-0.1,0.2-0.1,0.3-0.1,0.5c0,0.2,0,0.4,0.1,0.5s0.1,0.3,0.2,0.4c0.1,0.1,0.2,0.2,0.4,0.3c0.1,0.1,0.3,0.1,0.5,0.1
		c0.2,0,0.3,0,0.5-0.1c0.1-0.1,0.3-0.1,0.4-0.3c0.1-0.1,0.2-0.2,0.2-0.4S43.8,31.3,43.8,31.1z"/>
	<path class="st1" d="M48,29.1v0.8h-1.1v3.3h-0.9v-3.3h-1.1v-0.8H48z"/>
	<path class="st1" d="M51.4,29.1v0.8h-1.1v3.3h-0.9v-3.3h-1.1v-0.8H51.4z"/>
	<path class="st1" d="M52.7,32.4h1.5v0.8h-2.5v-4.1h0.9V32.4z"/>
	<path class="st1" d="M57.3,29.1v0.7h-1.7v1h1.3v0.7h-1.3v1h1.7v0.7h-2.6v-4.1H57.3z"/>
</g>
</svg>
