<?xml version="1.0" encoding="utf-8"?>
<!-- Generator: Adobe Illustrator 23.0.1, SVG Export Plug-In . SVG Version: 6.00 Build 0)  -->
<svg version="1.1" id="Layer_1" xmlns="http://www.w3.org/2000/svg" xmlns:xlink="http://www.w3.org/1999/xlink" x="0px" y="0px"
	 viewBox="0 0 51.5 13.9" style="enable-background:new 0 0 51.5 13.9;" xml:space="preserve">
<g>
	<path d="M4.3,4.5c0-0.4,0-0.7,0-1s0-0.6,0-0.8s0-0.4,0-0.5s0-0.2,0-0.2C4.2,1.9,4.1,1.9,4,1.9s-0.2,0-0.3,0c-0.1,0-0.3,0-0.5,0.1
		S2.8,2.1,2.6,2.2S2.3,2.5,2.2,2.7S2,3,2,3.2c0,0.1,0,0.2,0,0.3s0.1,0.1,0.1,0.2s0.1,0.1,0.1,0.1s0.1,0,0.1,0c0.1,0,0.2,0,0.2,0
		s0.1-0.1,0.2-0.1s0.1-0.1,0.1-0.1s0.1,0,0.2,0c0,0,0.1,0,0.1,0s0.1,0.1,0.1,0.1s0.1,0.1,0.1,0.2s0,0.2,0,0.3c0,0.2,0,0.3-0.1,0.4
		S3.3,4.7,3.2,4.8S3,4.9,2.9,4.9S2.7,5,2.5,5C2.3,5,2.2,5,2,4.9S1.7,4.8,1.6,4.6S1.5,4.4,1.4,4.2S1.3,3.9,1.3,3.8
		c0-0.4,0.1-0.8,0.3-1.1S2,2.1,2.3,1.9s0.6-0.4,1-0.5S4,1.3,4.4,1.3c0.4,0,0.6,0,0.9,0.1s0.4,0.1,0.6,0.2s0.3,0.2,0.3,0.3
		s0.2,0.2,0.2,0.3c0.2,0.5,0.5,1,0.7,1.4S7.5,4.6,7.7,5s0.4,0.9,0.6,1.3s0.4,0.8,0.6,1.2V6.6V4.8c0-0.3,0-0.6,0-1S9,3.3,9,3
		s0.1-0.5,0.3-0.8s0.3-0.4,0.5-0.6s0.4-0.3,0.7-0.4s0.6-0.1,1-0.1c0.2,0,0.4,0,0.6,0s0.3,0.1,0.4,0.1s0.2,0.1,0.3,0.2
		s0.1,0.2,0.1,0.3c0,0.1,0,0.1,0,0.2s0,0.1-0.1,0.2s-0.1,0.1-0.1,0.1s-0.1,0.1-0.2,0.1c-0.1,0-0.1,0-0.2-0.1S12.2,2,12.1,1.9
		s-0.2-0.2-0.3-0.3s-0.3-0.1-0.5-0.1c-0.3,0-0.6,0.1-0.8,0.2S10.2,1.9,10,2.1S9.8,2.6,9.7,2.9s-0.1,0.6-0.1,1c0,0.2,0,0.5,0,0.7
		s0,0.5,0,0.7s0,0.5,0,0.7s0,0.5,0,0.8c0,0.4,0,0.8,0,1.1s0,0.6,0,0.8c0.2,0.3,0.3,0.6,0.5,0.8s0.3,0.4,0.5,0.6s0.3,0.3,0.5,0.4
		s0.3,0.1,0.5,0.1c0.1,0,0.1,0,0.2,0s0.1,0,0.1-0.1c0,0,0.1,0,0.1-0.1l0.2,0.2c-0.1,0-0.1,0.1-0.2,0.1s-0.2,0.1-0.4,0.2
		s-0.3,0.1-0.5,0.1s-0.4,0.1-0.6,0.1c-0.3,0-0.6-0.1-0.9-0.2s-0.6-0.4-0.8-0.6S8.3,9.8,8,9.5S7.6,8.7,7.3,8.3S6.9,7.4,6.7,7
		S6.3,6.1,6.1,5.7S5.7,4.8,5.5,4.4S5.1,3.6,5,3.2C5,3.5,5,3.7,5,4s0,0.5,0,0.7v1.8c0,0.3,0,0.6,0,0.9S4.9,8.1,4.8,8.3
		S4.7,8.9,4.6,9.1S4.3,9.5,4.1,9.7S3.7,10,3.4,10.1s-0.6,0.1-1,0.1c-0.2,0-0.4,0-0.6,0s-0.3-0.1-0.4-0.1S1.2,9.9,1.1,9.9
		S1,9.7,1,9.6c0-0.1,0-0.1,0-0.2s0-0.1,0.1-0.2s0.1-0.1,0.1-0.1S1.4,9,1.5,9c0,0,0.1,0,0.1,0.1s0.1,0.1,0.1,0.1s0.1,0.1,0.1,0.2
		S1.9,9.5,2,9.6s0.2,0.1,0.2,0.1s0.2,0.1,0.4,0.1c0.3,0,0.6-0.1,0.8-0.2s0.4-0.3,0.5-0.5s0.2-0.5,0.3-0.7s0.1-0.6,0.1-1
		c0-0.2,0-0.5,0-0.7s0-0.5,0-0.7s0-0.5,0-0.7S4.3,4.7,4.3,4.5z"/>
	<path d="M13.7,4.5c-0.1,0-0.3,0-0.4,0s-0.2,0.1-0.3,0.1s-0.1,0.1-0.2,0.2S12.8,4.9,12.8,5c0,0.1,0,0.1,0.1,0.1s0.1,0.1,0.2,0.1
		s0.1,0.1,0.2,0.1s0.1,0.2,0.1,0.3c0,0.1,0,0.2,0,0.2S13.3,6,13.2,6S13.1,6.1,13,6.1s-0.2,0-0.2,0c-0.2,0-0.4-0.1-0.5-0.2
		S12,5.6,12,5.4c0-0.2,0.1-0.4,0.2-0.6s0.3-0.3,0.5-0.4s0.4-0.2,0.7-0.2S13.9,4,14.2,4c0.3,0,0.6,0,0.9,0.1s0.5,0.2,0.7,0.3
		s0.4,0.3,0.5,0.6s0.2,0.5,0.2,0.8v3.3c0,0,0,0.1,0,0.1s0,0.1,0,0.1s0,0.1,0.1,0.1s0.1,0,0.1,0c0.1,0,0.1,0,0.2-0.1s0.1-0.1,0.2-0.2
		l0.1,0.1c-0.1,0.1-0.1,0.2-0.2,0.3s-0.2,0.2-0.3,0.3s-0.3,0.2-0.4,0.2s-0.3,0.1-0.5,0.1c-0.2,0-0.5-0.1-0.7-0.2s-0.3-0.4-0.4-0.7
		c-0.1,0.2-0.3,0.3-0.4,0.4s-0.3,0.2-0.4,0.3s-0.3,0.1-0.4,0.2s-0.3,0-0.4,0c-0.2,0-0.4,0-0.5-0.1S12.2,9.9,12,9.8s-0.3-0.3-0.3-0.5
		s-0.1-0.5-0.1-0.7c0-0.4,0.1-0.6,0.2-0.9s0.3-0.4,0.6-0.6s0.5-0.3,0.8-0.4s0.6-0.2,0.9-0.3c0.2-0.1,0.4-0.2,0.5-0.4
		s0.2-0.4,0.2-0.5c0-0.3-0.1-0.5-0.3-0.7S14,4.5,13.7,4.5z M14.7,7.1c0-0.1,0-0.2-0.1-0.2s-0.1-0.1-0.2-0.1c-0.1,0-0.3,0-0.4,0.1
		S13.7,7,13.6,7.1s-0.2,0.3-0.2,0.4S13.3,8,13.3,8.2c0,0.2,0,0.4,0,0.6s0.1,0.3,0.1,0.4s0.1,0.1,0.2,0.2s0.2,0.1,0.2,0.1
		c0.1,0,0.2,0,0.3-0.1s0.2-0.1,0.2-0.2s0.1-0.2,0.2-0.3s0.1-0.2,0.1-0.3V7.1z"/>
	<path d="M19.9,4.5v4.3c0,0.2,0,0.4,0.1,0.4s0.2,0.1,0.3,0.1c0.1,0,0.2,0,0.3-0.1s0.2-0.1,0.2-0.2C20.9,9,21,8.9,21,8.8l0.2,0.1
		C21.1,9,21.1,9.2,21,9.3s-0.2,0.3-0.3,0.4S20.4,10,20.2,10s-0.5,0.1-0.8,0.1c-0.2,0-0.3,0-0.5-0.1s-0.3-0.1-0.4-0.2
		s-0.2-0.2-0.3-0.4s-0.1-0.4-0.1-0.6V4.5h-0.7V4.1c0.1,0,0.3,0,0.5-0.1s0.4-0.2,0.6-0.3s0.4-0.3,0.6-0.5s0.3-0.5,0.4-0.8h0.5v1.7h1
		c0.3,0,0.5-0.1,0.5-0.2c0,0,0-0.1-0.1-0.1s-0.1,0-0.1-0.1S21,3.7,21,3.7s-0.1-0.1-0.1-0.2c0-0.1,0-0.2,0.1-0.3s0.2-0.1,0.3-0.1
		c0.1,0,0.1,0,0.2,0s0.1,0.1,0.1,0.1s0.1,0.1,0.1,0.2s0,0.1,0,0.2c0,0.3-0.1,0.5-0.2,0.6s-0.4,0.2-0.7,0.2H19.9z"/>
	<path d="M27.3,9.1c0,0,0,0.1,0,0.1s0,0.1,0,0.1s0,0.1,0.1,0.1s0.1,0,0.1,0c0.1,0,0.1,0,0.2-0.1s0.1-0.1,0.2-0.2L28,9.3
		c-0.1,0.1-0.1,0.2-0.2,0.3s-0.2,0.2-0.3,0.3s-0.3,0.2-0.4,0.2s-0.3,0.1-0.5,0.1c-0.2,0-0.3,0-0.4-0.1s-0.2-0.1-0.3-0.2
		s-0.2-0.2-0.2-0.3s-0.1-0.2-0.1-0.3V9.1c-0.2,0.2-0.4,0.4-0.6,0.6c-0.1,0.1-0.2,0.1-0.3,0.2S24.4,10,24.2,10s-0.2,0.1-0.4,0.1
		s-0.2,0-0.4,0c-0.2,0-0.4,0-0.6-0.1s-0.3-0.2-0.4-0.3s-0.2-0.3-0.2-0.5s-0.1-0.3-0.1-0.5V5.1c0,0,0-0.1,0-0.1s0-0.1,0-0.1
		s0-0.1-0.1-0.1s-0.1,0-0.1,0c-0.1,0-0.1,0-0.2,0.1S21.7,4.9,21.6,5l-0.1-0.1c0.1-0.1,0.1-0.2,0.2-0.3s0.2-0.2,0.3-0.3
		s0.3-0.2,0.4-0.2S22.8,4,23,4c0.2,0,0.3,0,0.5,0.1s0.2,0.1,0.3,0.2s0.2,0.2,0.2,0.3S24,4.7,24,4.9v3.9c0,0.1,0,0.1,0,0.2
		s0,0.1,0.1,0.2s0.1,0.1,0.1,0.1s0.1,0,0.2,0c0.1,0,0.2,0,0.3-0.1S25,9,25.1,9s0.2-0.2,0.2-0.2s0.1-0.1,0.1-0.2V5.1c0,0,0-0.1,0-0.1
		s0-0.1,0-0.1s0-0.1-0.1-0.1s-0.1,0-0.1,0c-0.1,0-0.1,0-0.2,0.1S24.9,4.9,24.9,5l-0.1-0.1c0.1-0.1,0.1-0.2,0.2-0.3s0.2-0.2,0.3-0.3
		s0.3-0.2,0.4-0.2S26,4,26.2,4c0.2,0,0.3,0,0.5,0.1s0.2,0.1,0.3,0.2s0.2,0.2,0.2,0.3s0.1,0.2,0.1,0.3V9.1z"/>
	<path d="M30.7,5.2C30.8,5,31,4.8,31.2,4.6c0.1-0.1,0.1-0.2,0.2-0.2s0.2-0.1,0.3-0.2s0.2-0.1,0.3-0.1S32.1,4,32.2,4
		c0.2,0,0.4,0.1,0.5,0.2s0.2,0.3,0.2,0.5c0,0.1,0,0.3,0,0.4s-0.1,0.3-0.1,0.4h-0.2c0-0.1-0.1-0.2-0.2-0.3S32.1,5.1,32,5.1
		c-0.1,0-0.2,0-0.4,0.1s-0.2,0.1-0.3,0.2S31.1,5.5,31,5.5s-0.2,0.2-0.3,0.2v3.8c0,0.1,0,0.1,0,0.2s-0.1,0.1-0.1,0.2
		s-0.2,0.1-0.3,0.2s-0.3,0.1-0.5,0.1s-0.4,0-0.5-0.1S29.1,10,29,9.9s-0.1-0.1-0.1-0.2s0-0.1,0-0.2V5c0-0.1,0-0.2-0.1-0.3
		s-0.1-0.1-0.3-0.1c-0.1,0-0.1,0-0.2,0s-0.1,0.1-0.2,0.1l-0.1-0.1c0.1-0.1,0.2-0.1,0.3-0.2s0.2-0.1,0.4-0.2s0.3-0.1,0.4-0.1
		S29.5,4,29.6,4c0.2,0,0.3,0,0.4,0.1s0.2,0.1,0.3,0.2s0.1,0.2,0.2,0.2s0.1,0.2,0.1,0.3s0,0.2,0,0.3S30.7,5.2,30.7,5.2z"/>
	<path d="M35.2,4.5c-0.1,0-0.3,0-0.4,0s-0.2,0.1-0.3,0.1s-0.1,0.1-0.2,0.2S34.2,4.9,34.2,5c0,0.1,0,0.1,0.1,0.1s0.1,0.1,0.2,0.1
		s0.1,0.1,0.2,0.1s0.1,0.2,0.1,0.3c0,0.1,0,0.2-0.1,0.2S34.7,6,34.6,6s-0.1,0.1-0.2,0.1s-0.2,0-0.2,0c-0.2,0-0.4-0.1-0.5-0.2
		s-0.2-0.3-0.2-0.6c0-0.2,0.1-0.4,0.2-0.6s0.3-0.3,0.5-0.4s0.4-0.2,0.7-0.2S35.3,4,35.6,4c0.3,0,0.6,0,0.9,0.1s0.5,0.2,0.7,0.3
		s0.4,0.3,0.5,0.6s0.2,0.5,0.2,0.8v3.3c0,0,0,0.1,0,0.1s0,0.1,0,0.1s0,0.1,0.1,0.1s0.1,0,0.1,0c0.1,0,0.1,0,0.2-0.1s0.1-0.1,0.2-0.2
		l0.1,0.1c-0.1,0.1-0.1,0.2-0.2,0.3s-0.2,0.2-0.3,0.3s-0.3,0.2-0.4,0.2s-0.3,0.1-0.5,0.1c-0.2,0-0.5-0.1-0.7-0.2s-0.3-0.4-0.4-0.7
		c-0.1,0.2-0.3,0.3-0.4,0.4s-0.3,0.2-0.4,0.3s-0.3,0.1-0.4,0.2s-0.3,0-0.4,0c-0.2,0-0.4,0-0.5-0.1s-0.3-0.2-0.5-0.3
		s-0.2-0.3-0.3-0.5S33,8.9,33,8.6c0-0.4,0.1-0.6,0.2-0.9c0.1-0.2,0.3-0.4,0.6-0.6s0.5-0.3,0.8-0.4s0.6-0.2,0.9-0.3
		C35.7,6.3,35.9,6.2,36,6s0.2-0.4,0.2-0.5c0-0.3-0.1-0.5-0.3-0.7S35.5,4.5,35.2,4.5z M36.1,7.1c0-0.1,0-0.2-0.1-0.2
		s-0.1-0.1-0.2-0.1c-0.1,0-0.3,0-0.4,0.1S35.1,7,35.1,7.1s-0.2,0.3-0.2,0.4S34.7,8,34.7,8.2c0,0.2,0,0.4,0,0.6s0.1,0.3,0.1,0.4
		s0.1,0.1,0.2,0.2s0.2,0.1,0.2,0.1c0.1,0,0.2,0,0.3-0.1s0.2-0.1,0.2-0.2S36,8.9,36,8.8s0.1-0.2,0.1-0.3V7.1z"/>
	<path d="M41.3,9.6c0,0.1,0,0.1,0,0.2s-0.1,0.1-0.1,0.2s-0.2,0.1-0.3,0.2s-0.3,0.1-0.5,0.1s-0.4,0-0.5-0.1s-0.2-0.1-0.3-0.2
		s-0.1-0.1-0.1-0.2s0-0.1,0-0.2V2c0-0.1,0-0.2-0.1-0.3s-0.1-0.1-0.3-0.1c-0.1,0-0.1,0-0.2,0s-0.1,0.1-0.2,0.1l-0.1-0.1
		c0.1-0.1,0.2-0.1,0.3-0.2s0.2-0.1,0.4-0.2s0.3-0.1,0.4-0.1S40,1,40.2,1c0.3,0,0.5,0,0.6,0.1s0.2,0.2,0.3,0.3s0.1,0.2,0.1,0.3
		s0,0.2,0,0.3V9.6z"/>
	<path d="M44.5,9.6c0,0.1,0,0.1,0,0.2s-0.1,0.1-0.1,0.2s-0.2,0.1-0.3,0.2s-0.3,0.1-0.5,0.1s-0.4,0-0.5-0.1s-0.2-0.1-0.3-0.2
		s-0.1-0.1-0.1-0.2s0-0.1,0-0.2V2c0-0.1,0-0.2-0.1-0.3s-0.1-0.1-0.3-0.1c-0.1,0-0.1,0-0.2,0s-0.1,0.1-0.2,0.1L42,1.6
		c0.1-0.1,0.2-0.1,0.3-0.2s0.2-0.1,0.4-0.2S42.9,1.1,43,1S43.3,1,43.5,1c0.3,0,0.5,0,0.6,0.1s0.2,0.2,0.3,0.3s0.1,0.2,0.1,0.3
		s0,0.2,0,0.3V9.6z"/>
	<path d="M50.7,4.9c0,0.7-0.1,1.4-0.2,2.1s-0.3,1.3-0.6,1.9S49.4,10,49,10.5s-0.7,0.9-1.1,1.2s-0.8,0.6-1.3,0.8s-0.9,0.3-1.3,0.3
		c-0.3,0-0.6-0.1-0.8-0.2s-0.3-0.3-0.3-0.5c0-0.1,0-0.1,0-0.2s0.1-0.1,0.1-0.2s0.1-0.1,0.1-0.1s0.1,0,0.2,0c0.1,0,0.1,0,0.2,0.1
		s0.1,0.2,0.2,0.2s0.1,0.2,0.2,0.2s0.2,0.1,0.3,0.1c0.2,0,0.4,0,0.6-0.1s0.4-0.1,0.6-0.3s0.4-0.3,0.6-0.4s0.4-0.3,0.6-0.5
		c-0.1-0.4-0.2-0.8-0.4-1.3S47.2,8.7,47,8.3s-0.3-0.9-0.5-1.4s-0.3-0.8-0.5-1.2s-0.3-0.6-0.5-0.8s-0.3-0.3-0.4-0.3
		c-0.1,0-0.1,0-0.2,0S45,4.7,44.9,4.7l-0.1-0.1c0.1-0.1,0.2-0.1,0.2-0.2s0.2-0.1,0.3-0.2s0.3-0.1,0.4-0.1S46.1,4,46.3,4
		c0.2,0,0.5,0.1,0.7,0.2s0.4,0.3,0.6,0.6c0.1,0.2,0.2,0.5,0.4,0.8s0.3,0.6,0.4,1s0.3,0.8,0.4,1.2s0.3,0.9,0.4,1.4
		c0.2-0.5,0.4-1,0.6-1.6s0.2-1.2,0.2-1.8c0-0.2,0-0.4,0-0.6s-0.1-0.3-0.1-0.4s-0.1-0.2-0.1-0.3s0-0.1,0-0.2s0-0.1,0.1-0.1
		s0.1-0.1,0.2-0.1s0.1,0,0.2,0s0.1,0,0.2,0c0.1,0,0.2,0,0.2,0.1s0.1,0.1,0.1,0.2s0,0.2,0,0.3S50.7,4.8,50.7,4.9z"/>
</g>
</svg>
