<?xml version="1.0" encoding="utf-8"?>
<!-- Generator: Adobe Illustrator 23.0.1, SVG Export Plug-In . SVG Version: 6.00 Build 0)  -->
<svg version="1.1" id="Layer_1" xmlns="http://www.w3.org/2000/svg" xmlns:xlink="http://www.w3.org/1999/xlink" x="0px" y="0px"
	 viewBox="0 0 68.3 28.6" style="enable-background:new 0 0 68.3 28.6;" xml:space="preserve">
<style type="text/css">
	.st0{fill:#005F7F;}
</style>
<g>
	<g>
		<path class="st0" d="M8.1,7.9C8,8.1,7.9,8.4,7.8,8.7C7.7,9,7.6,9.4,7.5,10H7.3c0-0.2,0.1-0.4,0.1-0.6C7.4,9,7.2,8.7,7,8.5
			S6.4,8.1,5.9,8.1c-0.3,0-0.5,0.1-0.8,0.2S4.8,8.7,4.8,9.1c0,0.3,0.1,0.5,0.2,0.8c0.2,0.3,0.3,0.5,0.6,0.8c0.2,0.3,0.4,0.5,0.7,0.8
			c0.2,0.3,0.4,0.5,0.6,0.8s0.2,0.6,0.2,0.9c0,0.4-0.1,0.7-0.3,0.9c-0.2,0.3-0.4,0.5-0.7,0.6c-0.3,0.2-0.6,0.3-0.9,0.3
			c-0.3,0.1-0.6,0.1-0.9,0.1c-0.3,0-0.6,0-0.9-0.1c-0.2,0-0.4-0.1-0.6-0.2c-0.2-0.1-0.3-0.2-0.5-0.3c-0.1,0-0.1-0.1-0.2-0.1
			c-0.1,0-0.1,0-0.2,0c-0.1,0-0.2,0-0.2,0.1s-0.1,0.2-0.2,0.4H1.3c0.1-0.2,0.2-0.5,0.3-0.8c0.1-0.3,0.2-0.9,0.4-1.6h0.2
			c0,0.1-0.1,0.2-0.1,0.4s0,0.3,0,0.4c0,0.5,0.2,0.9,0.5,1.1C2.8,14.9,3.2,15,3.7,15c0.5,0,0.8-0.1,0.9-0.3s0.2-0.4,0.2-0.7
			c0-0.3-0.1-0.7-0.2-0.9c-0.1-0.3-0.3-0.5-0.5-0.8c-0.2-0.3-0.4-0.5-0.6-0.8c-0.2-0.3-0.4-0.5-0.5-0.8s-0.2-0.6-0.2-0.9
			c0-0.4,0.1-0.7,0.2-0.9c0.2-0.3,0.4-0.5,0.6-0.6S4.3,8.1,4.6,8s0.6-0.1,0.9-0.1c0.5,0,0.9,0.1,1.1,0.2c0.3,0.1,0.5,0.2,0.6,0.3
			c0.1,0,0.1,0.1,0.2,0.1c0.1,0,0.1,0,0.1,0c0.1,0,0.2-0.2,0.3-0.5H8.1z"/>
		<path class="st0" d="M9.4,14.2c0,0.2,0,0.3,0,0.3c0,0.1,0.1,0.1,0.2,0.1c0,0,0.1,0,0.2-0.1c0.1-0.1,0.2-0.2,0.3-0.5l0.2-0.6h0.2
			l-0.3,0.7c-0.1,0.3-0.2,0.5-0.4,0.6c-0.2,0.1-0.3,0.2-0.5,0.3c-0.2,0.1-0.4,0.1-0.5,0.1c-0.3,0-0.5-0.1-0.7-0.2
			c-0.2-0.1-0.3-0.3-0.3-0.6c0-0.3,0-0.6,0.1-1l1.5-5.1c0.1-0.2,0.1-0.4,0-0.5S9.1,7.7,8.7,7.7l0.1-0.2c0.5,0,1,0,1.5-0.1
			c0.4-0.1,0.8-0.2,1.2-0.3L9.4,14.2z"/>
		<path class="st0" d="M12.5,13c0.2-0.1,0.4-0.2,0.6-0.4s0.4-0.3,0.6-0.5c0.3-0.3,0.5-0.6,0.7-0.9c0.2-0.3,0.3-0.7,0.3-1.1
			c0-0.1,0-0.2,0-0.2s-0.1-0.1-0.1-0.1c-0.2,0-0.3,0.1-0.5,0.3s-0.4,0.5-0.6,0.9c-0.2,0.4-0.3,0.8-0.4,1.2s-0.2,0.8-0.2,1.2
			c0,0.4,0.1,0.6,0.2,0.8s0.4,0.2,0.6,0.2c0.1,0,0.3,0,0.6-0.1s0.5-0.3,0.8-0.5l0.2,0.1c-0.1,0.2-0.3,0.4-0.6,0.6
			c-0.2,0.2-0.5,0.4-0.9,0.5c-0.3,0.1-0.7,0.2-1.1,0.2c-0.5,0-0.9-0.1-1.2-0.4c-0.3-0.2-0.5-0.6-0.5-1.1c0-0.4,0.1-0.8,0.2-1.2
			c0.1-0.4,0.3-0.8,0.5-1.1c0.2-0.3,0.5-0.7,0.8-0.9c0.3-0.3,0.7-0.5,1.1-0.6s0.8-0.2,1.2-0.2c0.4,0,0.6,0.1,0.9,0.2
			c0.2,0.1,0.4,0.4,0.4,0.7c0,0.3-0.1,0.5-0.2,0.7c-0.1,0.2-0.3,0.4-0.6,0.6c-0.2,0.2-0.5,0.3-0.8,0.5c-0.3,0.1-0.6,0.3-0.9,0.4
			c-0.3,0.1-0.6,0.2-1,0.3L12.5,13z"/>
		<path class="st0" d="M17.4,13c0.2-0.1,0.4-0.2,0.6-0.4s0.4-0.3,0.6-0.5c0.3-0.3,0.5-0.6,0.7-0.9c0.2-0.3,0.3-0.7,0.3-1.1
			c0-0.1,0-0.2,0-0.2s-0.1-0.1-0.1-0.1c-0.2,0-0.3,0.1-0.5,0.3s-0.4,0.5-0.6,0.9c-0.2,0.4-0.3,0.8-0.4,1.2s-0.2,0.8-0.2,1.2
			c0,0.4,0.1,0.6,0.2,0.8s0.4,0.2,0.6,0.2c0.1,0,0.3,0,0.6-0.1s0.5-0.3,0.8-0.5l0.2,0.1c-0.1,0.2-0.3,0.4-0.6,0.6
			c-0.2,0.2-0.5,0.4-0.9,0.5c-0.3,0.1-0.7,0.2-1.1,0.2c-0.5,0-0.9-0.1-1.2-0.4c-0.3-0.2-0.5-0.6-0.5-1.1c0-0.4,0.1-0.8,0.2-1.2
			c0.1-0.4,0.3-0.8,0.5-1.1c0.2-0.3,0.5-0.7,0.8-0.9c0.3-0.3,0.7-0.5,1.1-0.6s0.8-0.2,1.2-0.2c0.4,0,0.6,0.1,0.9,0.2
			c0.2,0.1,0.4,0.4,0.4,0.7c0,0.3-0.1,0.5-0.2,0.7c-0.1,0.2-0.3,0.4-0.6,0.6c-0.2,0.2-0.5,0.3-0.8,0.5c-0.3,0.1-0.6,0.3-0.9,0.4
			c-0.3,0.1-0.6,0.2-1,0.3L17.4,13z"/>
		<path class="st0" d="M22.3,15.1h-1.8l2-6.7c0.1-0.2,0.1-0.4,0-0.5c-0.1-0.1-0.3-0.2-0.6-0.2L22,7.5c0.5,0,1,0,1.5-0.1
			c0.4-0.1,0.8-0.2,1.2-0.3L22.3,15.1z M25.1,14.2c0,0.2,0,0.3,0,0.3c0,0.1,0.1,0.1,0.1,0.1s0.1,0,0.2-0.1c0.1-0.1,0.2-0.2,0.3-0.5
			l0.2-0.6h0.2l-0.3,0.7c-0.1,0.3-0.2,0.5-0.4,0.6c-0.2,0.1-0.4,0.2-0.6,0.3c-0.2,0.1-0.4,0.1-0.6,0.1c-0.4,0-0.7-0.1-0.8-0.3
			s-0.2-0.5-0.1-0.9l0.2-0.7c0.1-0.3,0.1-0.6,0-0.7c-0.1-0.1-0.3-0.2-0.6-0.3v0c0.3,0,0.6,0,0.9,0s0.6,0.1,0.8,0.2
			c0.2,0.1,0.4,0.3,0.5,0.5c0.1,0.2,0.1,0.5,0.1,0.8L25.1,14.2z M25.3,9.9c-0.1,0-0.2,0-0.3,0c-0.1,0-0.1,0.1-0.2,0.1
			c-0.1,0.1-0.2,0.2-0.3,0.4c-0.1,0.2-0.1,0.4-0.2,0.6c-0.1,0.2-0.1,0.4-0.3,0.6s-0.2,0.3-0.4,0.4s-0.4,0.2-0.7,0.2l-0.1,0l0-0.1
			c0.3,0,0.5-0.1,0.7-0.2s0.3-0.3,0.4-0.4s0.2-0.4,0.2-0.5s0.1-0.4,0.2-0.5c0.1-0.2,0.2-0.3,0.3-0.4c0.1-0.1,0.2-0.1,0.3-0.2
			c0.1,0,0.2-0.1,0.3-0.1c0.4,0,0.7,0.1,0.9,0.3c0.2,0.2,0.3,0.5,0.3,0.8c0,0.3-0.1,0.6-0.3,0.8s-0.4,0.3-0.7,0.3
			c-0.3,0-0.5-0.1-0.6-0.2s-0.2-0.3-0.2-0.5c0-0.3,0.1-0.5,0.3-0.7c0.2-0.2,0.4-0.3,0.6-0.4c0,0-0.1-0.1-0.1-0.1
			C25.4,9.9,25.3,9.9,25.3,9.9z"/>
		<path class="st0" d="M33.9,9.3c0.1,0,0.3,0,0.4-0.1c0.1-0.1,0.1-0.2,0.1-0.3c0-0.1,0-0.2-0.1-0.3c-0.1-0.1-0.2-0.1-0.4-0.1
			c-0.2,0-0.4,0.1-0.6,0.2c-0.2,0.1-0.4,0.3-0.5,0.5c-0.1,0.2-0.2,0.5-0.2,0.7c0,0,0,0.1,0,0.1c0,0.1,0,0.1,0,0.2c0.1,0,0.2,0,0.4,0
			c0.1,0,0.2,0,0.3,0c0.2,0,0.4,0.1,0.4,0.2c0,0.1,0,0.1-0.1,0.2c-0.1,0-0.1,0-0.2,0c-0.1,0-0.3,0-0.4-0.1c-0.1-0.1-0.2-0.1-0.3-0.1
			c-0.3,0.1-0.5,0.4-0.7,0.8c-0.2,0.4-0.3,0.8-0.3,1.3c0,0.4,0.1,0.8,0.2,1c0.2,0.3,0.4,0.5,0.7,0.6c0.3,0.1,0.7,0.2,1.1,0.2
			c0.4,0,0.8-0.1,1.2-0.2s0.7-0.3,1-0.6s0.4-0.6,0.4-1.1c0-0.3-0.1-0.5-0.2-0.7c-0.1-0.2-0.3-0.4-0.7-0.5l0.1-0.1
			c0.3,0.1,0.5,0.3,0.7,0.6c0.2,0.3,0.2,0.6,0.2,0.9c0,0.3-0.1,0.6-0.2,0.9c-0.2,0.3-0.4,0.6-0.7,0.9c-0.3,0.3-0.7,0.5-1.2,0.7
			s-1.1,0.3-1.7,0.3c-0.6,0-1.2-0.1-1.7-0.2s-0.9-0.4-1.2-0.7c-0.3-0.3-0.4-0.8-0.4-1.3c0-0.5,0.1-0.9,0.4-1.2c0.2-0.4,0.6-0.7,1-1
			s1-0.5,1.6-0.6c-0.4-0.1-0.6-0.2-0.8-0.4c-0.2-0.2-0.2-0.4-0.2-0.6c0-0.3,0.1-0.5,0.3-0.6s0.4-0.3,0.7-0.4s0.6-0.1,0.9-0.1
			c0.5,0,0.8,0.1,1,0.2c0.2,0.1,0.3,0.3,0.3,0.5c0,0.2-0.1,0.4-0.2,0.5c-0.2,0.1-0.3,0.2-0.5,0.2L33.9,9.3z M34.9,13
			c-0.1,0.2-0.2,0.3-0.4,0.5c-0.2,0.2-0.5,0.3-0.9,0.3c-0.2,0-0.4,0-0.6-0.1c-0.2-0.1-0.4-0.2-0.5-0.4c-0.1-0.2-0.2-0.4-0.2-0.7
			c0-0.4,0.1-0.8,0.4-1.1c0.3-0.3,0.8-0.6,1.4-0.8c0.3-0.1,0.6-0.2,0.9-0.3c0.3-0.1,0.6-0.2,0.9-0.3c0.3-0.1,0.6-0.2,0.9-0.3
			c0.2-0.1,0.4-0.1,0.6-0.2s0.4-0.2,0.5-0.3c0.1-0.1,0.2-0.3,0.2-0.5c0-0.3-0.1-0.5-0.3-0.6C37.7,8.1,37.5,8,37.2,8
			c-0.1,0-0.2,0-0.3,0c0.4,0.1,0.6,0.4,0.6,0.7c0,0.3-0.1,0.5-0.3,0.6c-0.2,0.1-0.5,0.2-0.7,0.2c-0.3,0-0.5-0.1-0.7-0.2
			c-0.2-0.1-0.3-0.3-0.3-0.6c0-0.2,0.1-0.4,0.2-0.5C35.9,8.2,36,8.1,36.2,8c0.1-0.1,0.3-0.1,0.5-0.1c0.2,0,0.3,0,0.4,0
			c0.4,0,0.7,0.1,1,0.3c0.3,0.2,0.4,0.6,0.4,1.1c0,0.6-0.2,1.1-0.6,1.5c-0.4,0.3-1,0.6-1.7,0.8c-0.2,0.1-0.5,0.1-0.7,0.2
			s-0.5,0.2-0.8,0.2c-0.3,0.1-0.5,0.2-0.8,0.2c-0.2,0.1-0.4,0.1-0.5,0.2c-0.1,0.1-0.2,0.2-0.3,0.3s-0.1,0.2-0.1,0.3
			c0,0.2,0.1,0.3,0.2,0.4c0.1,0.1,0.3,0.1,0.4,0.1c0.2,0,0.4,0,0.5-0.1c0.1-0.1,0.3-0.2,0.4-0.3c0.1-0.1,0.2-0.2,0.2-0.3L34.9,13z"
			/>
		<path class="st0" d="M9.5,20.5c0,0.4-0.1,0.8-0.2,1.2c-0.1,0.4-0.3,0.8-0.5,1.2c-0.2,0.4-0.6,0.8-1,1.1c-0.4,0.3-0.9,0.6-1.4,0.8
			c-0.6,0.2-1.2,0.3-2,0.3c-0.2,0-0.4,0-0.6,0c-0.2,0-0.6,0-1,0c-0.2,0-0.3,0-0.6,0s-0.4,0-0.6,0c-0.2,0-0.4,0-0.5,0l0-0.2
			c0.2,0,0.4,0,0.5-0.1c0.1,0,0.2-0.1,0.3-0.2s0.1-0.3,0.2-0.5l1.3-5c0.1-0.3,0.1-0.5,0-0.6c-0.1-0.1-0.3-0.2-0.6-0.3L3,18
			c0.1,0,0.3,0,0.5,0c0.2,0,0.5,0,0.7,0s0.5,0,0.7,0c0.1,0,0.2,0,0.4,0c0.2,0,0.4,0,0.6,0c0.2,0,0.4,0,0.5,0c1,0,1.8,0.2,2.3,0.6
			C9.2,19,9.5,19.7,9.5,20.5z M4.5,24.9c0.5,0,0.9-0.1,1.2-0.4c0.4-0.3,0.7-0.7,0.9-1.2c0.3-0.5,0.4-1,0.6-1.5
			c0.1-0.6,0.2-1.1,0.2-1.6c0-0.6-0.1-1.1-0.3-1.5c-0.2-0.3-0.5-0.5-1-0.5c-0.1,0-0.3,0-0.3,0.1c-0.1,0-0.1,0.1-0.2,0.2
			S5.6,18.8,5.5,19l-1.3,5c-0.1,0.3-0.1,0.6-0.1,0.7C4.1,24.8,4.3,24.9,4.5,24.9z"/>
		<path class="st0" d="M10.9,20.7c0.1-0.3,0.1-0.4-0.1-0.4c-0.1,0-0.2,0-0.3,0.1s-0.2,0.3-0.3,0.5L10,21.6H9.8l0.3-0.8
			c0.1-0.4,0.3-0.6,0.6-0.8c0.3-0.2,0.6-0.2,0.9-0.2c0.3,0,0.6,0.1,0.8,0.2s0.3,0.3,0.3,0.5c0,0.2,0,0.4-0.1,0.6l-1,3.1
			c-0.1,0.2-0.1,0.3,0,0.3c0,0.1,0.1,0.1,0.1,0.1c0.1,0,0.1,0,0.2-0.1c0.1-0.1,0.2-0.2,0.3-0.5l0.2-0.6h0.2l-0.3,0.7
			c-0.1,0.4-0.4,0.7-0.6,0.8s-0.5,0.2-0.8,0.2c-0.3,0-0.5-0.1-0.7-0.2c-0.2-0.1-0.3-0.3-0.3-0.6c0-0.3,0-0.6,0.1-1L10.9,20.7z
			 M11.3,18.3c0-0.4,0.1-0.6,0.4-0.8s0.5-0.3,0.9-0.3c0.3,0,0.5,0.1,0.7,0.2c0.1,0.1,0.2,0.3,0.2,0.5c0,0.3-0.1,0.6-0.4,0.8
			c-0.2,0.2-0.5,0.3-0.9,0.3c-0.3,0-0.5-0.1-0.7-0.2S11.3,18.5,11.3,18.3z"/>
		<path class="st0" d="M13.8,24.9c0.1,0,0.1,0,0.2,0.1c0.1,0,0.1,0,0.2,0c0.2,0,0.4-0.1,0.5-0.2s0.2-0.3,0.2-0.6
			c0-0.2-0.1-0.5-0.2-0.7c-0.1-0.2-0.2-0.5-0.4-0.8c-0.2-0.3-0.3-0.5-0.4-0.7c-0.1-0.2-0.2-0.5-0.2-0.8c0-0.4,0.2-0.8,0.5-1.1
			s0.8-0.4,1.5-0.4c0.3,0,0.6,0,0.8,0.1c0.3,0.1,0.5,0.2,0.6,0.3c0.2,0.2,0.3,0.4,0.3,0.7c0,0.2-0.1,0.4-0.2,0.6
			c-0.1,0.2-0.3,0.3-0.5,0.3c-0.2,0-0.4-0.1-0.5-0.2s-0.2-0.4-0.2-0.6c0-0.2,0-0.4,0.1-0.6c0.1-0.2,0.1-0.3,0.2-0.4
			c-0.1,0-0.1,0-0.3,0c-0.2,0-0.4,0.1-0.5,0.2c-0.1,0.1-0.2,0.3-0.2,0.6c0,0.2,0.1,0.5,0.2,0.7c0.1,0.2,0.3,0.5,0.4,0.7
			c0.2,0.4,0.4,0.7,0.5,0.9c0.1,0.2,0.1,0.5,0.1,0.7c0,0.3-0.1,0.5-0.2,0.8S16,24.9,15.7,25c-0.3,0.1-0.7,0.2-1.1,0.2
			c-0.3,0-0.6,0-0.9-0.1c-0.3-0.1-0.5-0.2-0.7-0.4c-0.2-0.2-0.3-0.4-0.3-0.8c0-0.2,0.1-0.5,0.2-0.6c0.1-0.2,0.3-0.3,0.5-0.3
			c0.2,0,0.3,0.1,0.5,0.2s0.2,0.4,0.2,0.6c0,0.2,0,0.4-0.1,0.6C13.9,24.7,13.9,24.8,13.8,24.9z"/>
		<path class="st0" d="M19.4,24.2c0,0.1,0,0.2,0,0.3c0,0.1,0.1,0.1,0.2,0.1c0.1,0,0.3-0.1,0.4-0.2s0.2-0.3,0.3-0.5l0.2-0.4h0.2
			L20.4,24c-0.1,0.4-0.3,0.7-0.6,0.9c-0.3,0.2-0.6,0.3-1,0.3c-0.5,0-0.8-0.2-1-0.5c-0.1-0.3-0.2-0.7,0-1.2l1.5-5.1c0.4,0,0.7,0,1,0
			s0.6-0.1,0.8-0.1L19.4,24.2z M21.6,19.9l0,0.2h-3.7l0-0.2H21.6z"/>
		<path class="st0" d="M22.4,20.7c0.1-0.3,0.1-0.4-0.1-0.4c-0.1,0-0.2,0-0.3,0.1s-0.2,0.3-0.3,0.5l-0.2,0.6h-0.2l0.3-0.8
			c0.1-0.4,0.3-0.6,0.6-0.8c0.3-0.2,0.6-0.2,0.9-0.2c0.3,0,0.6,0.1,0.8,0.2s0.3,0.3,0.3,0.5c0,0.2,0,0.4-0.1,0.6l-1,3.1
			c-0.1,0.2-0.1,0.3,0,0.3c0,0.1,0.1,0.1,0.1,0.1c0.1,0,0.1,0,0.2-0.1c0.1-0.1,0.2-0.2,0.3-0.5l0.2-0.6H24l-0.3,0.7
			c-0.1,0.4-0.4,0.7-0.6,0.8s-0.5,0.2-0.8,0.2c-0.3,0-0.5-0.1-0.7-0.2c-0.2-0.1-0.3-0.3-0.3-0.6c0-0.3,0-0.6,0.1-1L22.4,20.7z
			 M22.8,18.3c0-0.4,0.1-0.6,0.4-0.8s0.5-0.3,0.9-0.3c0.3,0,0.5,0.1,0.7,0.2c0.1,0.1,0.2,0.3,0.2,0.5c0,0.3-0.1,0.6-0.4,0.8
			C24.3,18.9,24,19,23.7,19c-0.3,0-0.5-0.1-0.7-0.2S22.8,18.5,22.8,18.3z"/>
		<path class="st0" d="M26.3,25.1h-1.8l1.2-4.3c0-0.1,0.1-0.2,0.1-0.3c0-0.1,0-0.1,0-0.1c0,0-0.1,0-0.1,0c-0.1,0-0.2,0-0.3,0.1
			c-0.1,0.1-0.2,0.3-0.3,0.5l-0.2,0.6h-0.2l0.3-0.8c0.1-0.4,0.3-0.6,0.5-0.8c0.2-0.2,0.5-0.3,0.8-0.3c0.4,0,0.6,0.1,0.8,0.2
			c0.2,0.1,0.2,0.3,0.3,0.5c0,0.2,0,0.4,0,0.6L26.3,25.1z M26.5,23.6c0.3-0.8,0.5-1.5,0.8-2c0.2-0.5,0.5-0.9,0.7-1.2
			c0.2-0.3,0.4-0.5,0.7-0.6c0.2-0.1,0.5-0.2,0.7-0.2c0.3,0,0.6,0.1,0.7,0.2s0.2,0.3,0.2,0.5c0,0.2,0,0.5-0.1,0.8l-1,3
			c-0.1,0.2-0.1,0.3,0,0.4c0,0,0.1,0.1,0.1,0.1c0.1,0,0.1,0,0.2-0.1c0.1-0.1,0.2-0.2,0.3-0.5l0.2-0.6h0.2L30,24.2
			c-0.1,0.4-0.4,0.7-0.6,0.8s-0.5,0.2-0.8,0.2c-0.4,0-0.7-0.1-0.9-0.4c-0.1-0.1-0.2-0.3-0.2-0.5c0-0.2,0-0.5,0.2-0.8l0.9-2.6
			c0-0.1,0.1-0.2,0.1-0.3c0-0.1,0-0.1,0-0.2c0,0,0-0.1-0.1-0.1c-0.1,0-0.3,0.1-0.5,0.4s-0.4,0.6-0.6,1.1s-0.4,1-0.6,1.5
			c-0.2,0.6-0.4,1.1-0.5,1.7L26.5,23.6z"/>
		<path class="st0" d="M32.9,22.8l0.6-0.1c-0.4,0.1-0.7,0.3-0.9,0.4s-0.3,0.2-0.3,0.3c0,0.1,0,0.1,0.1,0.1c0.1,0,0.1,0.1,0.3,0.1
			l0.9,0.3c0.2,0.1,0.4,0.1,0.5,0.3s0.3,0.2,0.4,0.4s0.2,0.4,0.2,0.6c0,0.3-0.1,0.6-0.3,0.8c-0.2,0.2-0.4,0.4-0.8,0.5
			c-0.3,0.1-0.7,0.2-1,0.3c-0.4,0.1-0.7,0.1-1.1,0.1c-0.3,0-0.6,0-0.9-0.1c-0.3-0.1-0.5-0.2-0.7-0.3s-0.3-0.3-0.3-0.4
			c0-0.1,0.1-0.3,0.2-0.4c0.1-0.1,0.3-0.2,0.6-0.2c0.2-0.1,0.5-0.1,0.7-0.1c0.2,0,0.4,0,0.6,0l0,0.1c-0.2,0.1-0.4,0.2-0.5,0.4
			s-0.1,0.2-0.1,0.3c0,0.1,0.1,0.3,0.2,0.3c0.1,0.1,0.3,0.1,0.5,0.1c0.2,0,0.4,0,0.7-0.1c0.2-0.1,0.4-0.2,0.6-0.3s0.3-0.3,0.3-0.5
			c0-0.1-0.1-0.2-0.2-0.3c-0.1-0.1-0.2-0.1-0.4-0.2L31.4,25c-0.2-0.1-0.3-0.1-0.4-0.3c-0.1-0.1-0.2-0.3-0.2-0.4
			c0-0.2,0.1-0.4,0.3-0.6c0.2-0.2,0.5-0.3,0.8-0.5C32.2,23.1,32.5,23,32.9,22.8z M33.6,19.8c0.5,0,0.9,0.1,1.2,0.3
			c0.3,0.2,0.5,0.5,0.5,0.9c0,0.3-0.1,0.6-0.3,0.9s-0.5,0.6-0.9,0.8c-0.4,0.2-0.9,0.3-1.4,0.3c-0.5,0-0.9-0.1-1.2-0.3
			c-0.3-0.2-0.5-0.5-0.5-0.9c0-0.2,0.1-0.5,0.2-0.7c0.1-0.2,0.3-0.5,0.5-0.6c0.2-0.2,0.5-0.4,0.8-0.5S33.2,19.8,33.6,19.8z
			 M33.3,19.9c-0.1,0-0.2,0.1-0.3,0.2s-0.2,0.3-0.2,0.5s-0.1,0.4-0.2,0.7s-0.1,0.5-0.1,0.9c0,0.2,0,0.4,0,0.4c0,0.1,0.1,0.1,0.1,0.1
			c0.1,0,0.2-0.1,0.3-0.2c0.1-0.1,0.2-0.3,0.2-0.5c0.1-0.2,0.1-0.4,0.2-0.7s0.1-0.5,0.1-0.8c0-0.1,0-0.3,0-0.4S33.4,19.9,33.3,19.9z
			 M34.4,20.3l-0.2-0.1c0.1-0.3,0.3-0.5,0.5-0.7s0.5-0.3,0.7-0.3c0.2,0,0.4,0.1,0.5,0.2c0.1,0.1,0.2,0.3,0.2,0.5
			c0,0.2-0.1,0.3-0.2,0.4c-0.1,0.1-0.2,0.2-0.3,0.2c-0.1,0-0.2,0-0.3-0.1s-0.2-0.2-0.2-0.4c0-0.2,0-0.4,0.1-0.7l0,0.1
			c-0.2,0.1-0.4,0.2-0.5,0.3C34.6,19.9,34.5,20.1,34.4,20.3z"/>
		<path class="st0" d="M39.4,21.5c-0.3,0.8-0.5,1.4-0.7,1.9c-0.2,0.5-0.4,0.9-0.7,1.1c-0.2,0.3-0.4,0.4-0.7,0.5s-0.5,0.1-0.7,0.1
			c-0.4,0-0.7-0.1-0.8-0.4c-0.1-0.3-0.1-0.6,0-1.1l1-3c0.1-0.2,0.1-0.3,0-0.4c-0.1,0-0.1-0.1-0.1-0.1c-0.1,0-0.1,0-0.2,0.1
			c-0.1,0.1-0.2,0.2-0.3,0.5l-0.2,0.6h-0.2l0.3-0.7c0.1-0.4,0.4-0.7,0.6-0.8s0.5-0.2,0.8-0.2c0.3,0,0.5,0.1,0.7,0.2
			c0.2,0.1,0.3,0.3,0.3,0.6s0,0.6-0.1,1l-0.9,2.6c-0.1,0.4-0.1,0.5,0,0.5s0.3-0.1,0.5-0.4c0.2-0.3,0.4-0.6,0.6-1.1
			c0.2-0.5,0.4-1,0.6-1.5c0.2-0.6,0.4-1.1,0.5-1.7L39.4,21.5z M40.3,24.2c0,0.2-0.1,0.3-0.1,0.3c0,0.1,0.1,0.1,0.1,0.1
			c0.1,0,0.2,0,0.3-0.1c0.1-0.1,0.2-0.3,0.3-0.5l0.2-0.6h0.2L41,24.2c-0.1,0.4-0.3,0.6-0.6,0.8c-0.3,0.2-0.5,0.2-0.8,0.2
			c-0.2,0-0.4,0-0.6-0.1c-0.1-0.1-0.3-0.2-0.3-0.3c-0.1-0.1-0.1-0.3-0.1-0.5s0-0.4,0.1-0.5l1-3.9c0.3,0,0.7,0,1,0
			c0.3,0,0.6-0.1,0.8-0.1L40.3,24.2z"/>
		<path class="st0" d="M43,20.7c0.1-0.3,0.1-0.4-0.1-0.4c-0.1,0-0.2,0-0.3,0.1s-0.2,0.3-0.3,0.5l-0.2,0.6h-0.2l0.3-0.8
			c0.1-0.4,0.3-0.6,0.6-0.8c0.3-0.2,0.6-0.2,0.9-0.2c0.3,0,0.6,0.1,0.8,0.2s0.3,0.3,0.3,0.5c0,0.2,0,0.4-0.1,0.6l-1,3.1
			c-0.1,0.2-0.1,0.3,0,0.3c0,0.1,0.1,0.1,0.1,0.1c0.1,0,0.1,0,0.2-0.1c0.1-0.1,0.2-0.2,0.3-0.5l0.2-0.6h0.2l-0.3,0.7
			c-0.1,0.4-0.4,0.7-0.6,0.8s-0.5,0.2-0.8,0.2c-0.3,0-0.5-0.1-0.7-0.2c-0.2-0.1-0.3-0.3-0.3-0.6c0-0.3,0-0.6,0.1-1L43,20.7z
			 M43.4,18.3c0-0.4,0.1-0.6,0.4-0.8s0.5-0.3,0.9-0.3c0.3,0,0.5,0.1,0.7,0.2c0.1,0.1,0.2,0.3,0.2,0.5c0,0.3-0.1,0.6-0.4,0.8
			c-0.2,0.2-0.5,0.3-0.9,0.3c-0.3,0-0.5-0.1-0.7-0.2S43.4,18.5,43.4,18.3z"/>
		<path class="st0" d="M45.9,24.9c0.1,0,0.1,0,0.2,0.1c0.1,0,0.1,0,0.2,0c0.2,0,0.4-0.1,0.5-0.2s0.2-0.3,0.2-0.6
			c0-0.2-0.1-0.5-0.2-0.7c-0.1-0.2-0.2-0.5-0.4-0.8c-0.2-0.3-0.3-0.5-0.4-0.7c-0.1-0.2-0.2-0.5-0.2-0.8c0-0.4,0.2-0.8,0.5-1.1
			s0.8-0.4,1.5-0.4c0.3,0,0.6,0,0.8,0.1c0.3,0.1,0.5,0.2,0.6,0.3c0.2,0.2,0.3,0.4,0.3,0.7c0,0.2-0.1,0.4-0.2,0.6
			c-0.1,0.2-0.3,0.3-0.5,0.3c-0.2,0-0.4-0.1-0.5-0.2s-0.2-0.4-0.2-0.6c0-0.2,0-0.4,0.1-0.6c0.1-0.2,0.1-0.3,0.2-0.4
			c-0.1,0-0.1,0-0.3,0c-0.2,0-0.4,0.1-0.5,0.2c-0.1,0.1-0.2,0.3-0.2,0.6c0,0.2,0.1,0.5,0.2,0.7c0.1,0.2,0.3,0.5,0.4,0.7
			c0.2,0.4,0.4,0.7,0.5,0.9c0.1,0.2,0.1,0.5,0.1,0.7c0,0.3-0.1,0.5-0.2,0.8s-0.4,0.4-0.7,0.5c-0.3,0.1-0.7,0.2-1.1,0.2
			c-0.3,0-0.6,0-0.9-0.1c-0.3-0.1-0.5-0.2-0.7-0.4c-0.2-0.2-0.3-0.4-0.3-0.8c0-0.2,0.1-0.5,0.2-0.6c0.1-0.2,0.3-0.3,0.5-0.3
			c0.2,0,0.3,0.1,0.5,0.2s0.2,0.4,0.2,0.6c0,0.2,0,0.4-0.1,0.6C46,24.7,45.9,24.8,45.9,24.9z"/>
		<path class="st0" d="M51,25.1h-1.8l2-6.7c0.1-0.2,0.1-0.4,0-0.5c-0.1-0.1-0.3-0.2-0.6-0.2l0.1-0.2c0.5,0,1,0,1.5-0.1
			c0.4-0.1,0.8-0.2,1.2-0.3L51,25.1z M51.3,23.6c0.3-0.8,0.5-1.5,0.8-2c0.2-0.5,0.5-0.9,0.7-1.2c0.2-0.3,0.4-0.5,0.7-0.6
			c0.2-0.1,0.5-0.2,0.7-0.2c0.3,0,0.6,0.1,0.7,0.2c0.2,0.1,0.2,0.3,0.2,0.5s0,0.5-0.1,0.8l-1,3c-0.1,0.2-0.1,0.3,0,0.4
			c0.1,0,0.1,0.1,0.1,0.1c0.1,0,0.1,0,0.2-0.1c0.1-0.1,0.2-0.2,0.3-0.5l0.2-0.6H55l-0.3,0.7c-0.1,0.4-0.4,0.7-0.6,0.8
			s-0.5,0.2-0.8,0.2c-0.4,0-0.6-0.1-0.8-0.2c-0.2-0.2-0.3-0.4-0.3-0.6c0-0.3,0-0.5,0.1-0.9l0.9-2.6c0-0.1,0.1-0.2,0.1-0.3
			c0-0.1,0-0.1,0-0.2s0-0.1-0.1-0.1c-0.1,0-0.3,0.1-0.5,0.4s-0.4,0.6-0.6,1.1c-0.2,0.5-0.4,1-0.6,1.5c-0.2,0.6-0.4,1.1-0.5,1.7
			L51.3,23.6z"/>
		<path class="st0" d="M57,23c0.2-0.1,0.4-0.2,0.6-0.4s0.4-0.3,0.6-0.5c0.3-0.3,0.5-0.6,0.7-0.9c0.2-0.3,0.3-0.7,0.3-1.1
			c0-0.1,0-0.2,0-0.2c0,0-0.1-0.1-0.1-0.1c-0.2,0-0.4,0.1-0.6,0.3c-0.2,0.2-0.4,0.5-0.6,0.9c-0.2,0.4-0.3,0.8-0.4,1.2
			s-0.2,0.8-0.2,1.2c0,0.4,0.1,0.6,0.2,0.8s0.4,0.2,0.6,0.2c0.1,0,0.3,0,0.6-0.1s0.5-0.3,0.8-0.5l0.2,0.1c-0.1,0.2-0.3,0.4-0.6,0.6
			c-0.2,0.2-0.5,0.4-0.9,0.5c-0.3,0.1-0.7,0.2-1.1,0.2c-0.5,0-0.9-0.1-1.2-0.4c-0.3-0.2-0.5-0.6-0.5-1.1c0-0.4,0.1-0.8,0.2-1.2
			c0.1-0.4,0.3-0.8,0.5-1.1s0.5-0.7,0.8-0.9s0.7-0.5,1.1-0.6s0.8-0.2,1.2-0.2c0.4,0,0.6,0.1,0.9,0.2c0.2,0.1,0.4,0.4,0.4,0.7
			c0,0.3-0.1,0.5-0.2,0.7c-0.1,0.2-0.3,0.4-0.5,0.6c-0.2,0.2-0.5,0.3-0.8,0.5c-0.3,0.1-0.6,0.3-0.9,0.4c-0.3,0.1-0.6,0.2-1,0.3
			L57,23z"/>
		<path class="st0" d="M62.5,24.6c0.1,0,0.2-0.1,0.3-0.2c0.1-0.1,0.2-0.3,0.4-0.6c0.1-0.3,0.3-0.6,0.4-1c0.1-0.4,0.3-0.9,0.4-1.5
			l-0.1,1.1c-0.2,0.6-0.4,1.1-0.6,1.6s-0.4,0.7-0.7,0.9c-0.3,0.2-0.6,0.3-1,0.3c-0.3,0-0.6-0.1-0.9-0.3s-0.4-0.6-0.4-1.1
			c0-0.3,0-0.6,0.1-1s0.2-0.7,0.4-1.1s0.4-0.7,0.7-1c0.3-0.3,0.6-0.5,0.9-0.7s0.8-0.3,1.2-0.3c0.3,0,0.4,0,0.5,0.1
			c0.1,0.1,0.1,0.2,0.2,0.3l-0.1,0.2c0-0.1-0.1-0.2-0.1-0.3c0-0.1-0.1-0.1-0.3-0.1c-0.1,0-0.3,0.1-0.5,0.3c-0.2,0.2-0.4,0.5-0.6,0.9
			c-0.2,0.4-0.3,0.8-0.5,1.3s-0.2,1-0.2,1.5c0,0.2,0,0.3,0,0.4S62.4,24.6,62.5,24.6z M65,24.2c-0.1,0.2-0.1,0.3,0,0.3
			s0.1,0.1,0.1,0.1c0.1,0,0.1,0,0.2-0.1c0.1-0.1,0.2-0.2,0.3-0.5l0.2-0.6H66l-0.3,0.7c-0.1,0.4-0.4,0.7-0.6,0.8
			c-0.3,0.1-0.5,0.2-0.8,0.2c-0.4,0-0.7-0.1-0.9-0.4c-0.1-0.1-0.1-0.3-0.1-0.5c0-0.2,0-0.5,0.1-0.8l1.4-5.1c0.1-0.2,0.1-0.4,0-0.5
			s-0.3-0.2-0.6-0.2l0.1-0.2c0.5,0,1,0,1.5-0.1c0.4-0.1,0.8-0.2,1.2-0.3L65,24.2z"/>
	</g>
</g>
<g>
	<g>
		<g>
			<path class="st0" d="M5.5,1.9h0.4c0.1,0,0.3,0,0.4,0c0.1,0,0.2,0,0.3,0l0,0.1C6.5,2,6.4,2,6.4,2S6.3,2,6.3,2.1S6.2,2.2,6.2,2.3
				l-0.5,2c0,0.1,0,0.2,0,0.3c0,0,0.1,0.1,0.2,0.1l0,0.1c-0.1,0-0.2,0-0.3,0c-0.1,0-0.3,0-0.4,0c-0.1,0-0.3,0-0.4,0
				c-0.1,0-0.2,0-0.3,0l0-0.1c0.1,0,0.2,0,0.2,0c0,0,0.1,0,0.1-0.1c0,0,0.1-0.1,0.1-0.2l0.6-2.1L3.8,4.7H3.7L3.3,2.4L2.9,4.1
				c0,0.1,0,0.1,0,0.2c0,0.1,0,0.1,0.1,0.2c0.1,0,0.1,0.1,0.3,0.1l0,0.1c0,0-0.1,0-0.2,0c-0.1,0-0.2,0-0.3,0c-0.1,0-0.1,0-0.2,0
				c-0.1,0-0.1,0-0.2,0l0-0.1c0.1,0,0.2-0.1,0.3-0.2c0.1-0.1,0.1-0.2,0.1-0.3l0.5-1.8c0-0.1,0-0.2,0-0.3C3.3,2,3.2,2,3,2l0-0.1
				c0.1,0,0.2,0,0.3,0c0.1,0,0.2,0,0.4,0c0.1,0,0.1,0,0.2,0c0.1,0,0.1,0,0.2,0l0.2,1.8L5.5,1.9z"/>
			<path class="st0" d="M7.1,4.5C7.1,4.5,7.1,4.5,7.1,4.5c0.1-0.1,0.1-0.1,0.2-0.1s0.1-0.1,0.1-0.2c0-0.1,0.1-0.2,0.1-0.4L7.4,4.2
				C7.3,4.4,7.2,4.6,7.1,4.6S6.9,4.7,6.8,4.7c-0.2,0-0.3,0-0.4-0.1C6.3,4.5,6.3,4.4,6.3,4.2c0-0.2,0-0.3,0.1-0.5
				c0.1-0.2,0.1-0.3,0.2-0.5s0.2-0.3,0.3-0.4C7,2.8,7.1,2.7,7.2,2.7c0.1-0.1,0.2-0.1,0.3-0.1c0.1,0,0.2,0,0.2,0.1
				c0,0.1,0.1,0.1,0,0.3l0,0c0-0.1,0-0.1,0-0.1c0,0,0,0-0.1,0c-0.1,0-0.1,0-0.2,0.1S7.3,3.1,7.3,3.2C7.2,3.4,7.1,3.6,7.1,3.7
				C7,3.9,7,4.1,7,4.3C7,4.3,7,4.4,7.1,4.5C7,4.5,7.1,4.5,7.1,4.5z M7.8,2.6c0.1,0,0.3,0,0.4,0c0.1,0,0.2,0,0.3,0L8,4.4
				c0,0,0,0.1,0,0.1c0,0,0,0,0,0.1c0,0,0,0,0,0c0,0,0.1,0,0.1,0s0.1-0.1,0.1-0.2L8.4,4h0.1L8.3,4.3C8.3,4.5,8.2,4.6,8.1,4.7
				C8,4.7,7.9,4.7,7.8,4.7c-0.2,0-0.3,0-0.3-0.1c0-0.1-0.1-0.1-0.1-0.2c0-0.1,0-0.2,0-0.3L7.8,2.6z"/>
			<path class="st0" d="M9.3,4.7H8.6L9.1,3c0-0.1,0-0.1,0-0.1c0,0,0,0-0.1,0c0,0-0.1,0-0.1,0.1c0,0-0.1,0.1-0.1,0.2L8.7,3.3H8.7
				L8.8,3C8.8,2.8,8.9,2.7,9,2.7c0.1-0.1,0.2-0.1,0.4-0.1c0.1,0,0.2,0,0.3,0.1s0.1,0.1,0.1,0.2c0,0.1,0,0.2,0,0.3L9.3,4.7z
				 M10.3,2.7c-0.1,0-0.1,0-0.2,0c-0.1,0-0.1,0.1-0.2,0.1C9.9,2.9,9.9,3,9.8,3.1C9.7,3.3,9.6,3.5,9.6,3.7C9.5,4,9.4,4.3,9.3,4.7
				l0.1-0.6c0.1-0.3,0.2-0.6,0.2-0.8S9.7,3,9.8,2.9C9.9,2.8,10,2.7,10,2.6C10.1,2.6,10.2,2.6,10.3,2.7c0.1-0.1,0.2,0,0.3,0
				c0.1,0.1,0.1,0.2,0.1,0.3c0,0.1,0,0.2-0.1,0.3c-0.1,0.1-0.2,0.1-0.3,0.1c-0.1,0-0.2,0-0.2-0.1S9.9,3.3,9.9,3.2
				c0-0.1,0-0.2,0.1-0.3S10.3,2.7,10.3,2.7C10.4,2.7,10.4,2.7,10.3,2.7C10.3,2.7,10.3,2.7,10.3,2.7z"/>
			<path class="st0" d="M11.3,4.7h-0.7L11.1,3c0-0.1,0-0.1,0-0.1c0,0,0,0-0.1,0c0,0-0.1,0-0.1,0.1c0,0-0.1,0.1-0.1,0.2l-0.1,0.2
				h-0.1L10.8,3c0.1-0.1,0.1-0.3,0.2-0.3c0.1-0.1,0.2-0.1,0.4-0.1c0.1,0,0.2,0,0.3,0.1s0.1,0.1,0.1,0.2c0,0.1,0,0.2,0,0.3L11.3,4.7z
				 M12.3,2.7c-0.1,0-0.1,0-0.2,0c-0.1,0-0.1,0.1-0.2,0.1c-0.1,0.1-0.1,0.2-0.2,0.3c-0.1,0.1-0.1,0.3-0.2,0.6
				c-0.1,0.3-0.2,0.6-0.3,1l0.1-0.6c0.1-0.3,0.2-0.6,0.2-0.8s0.1-0.4,0.2-0.5c0.1-0.1,0.1-0.2,0.2-0.2C12.1,2.6,12.2,2.6,12.3,2.7
				c0.1-0.1,0.2,0,0.3,0c0.1,0.1,0.1,0.2,0.1,0.3c0,0.1,0,0.2-0.1,0.3c-0.1,0.1-0.2,0.1-0.3,0.1c-0.1,0-0.2,0-0.2-0.1
				s-0.1-0.1-0.1-0.2c0-0.1,0-0.2,0.1-0.3S12.2,2.7,12.3,2.7C12.4,2.7,12.3,2.7,12.3,2.7C12.3,2.7,12.3,2.7,12.3,2.7z"/>
			<path class="st0" d="M13.4,4.5C13.4,4.5,13.4,4.5,13.4,4.5c0.1-0.1,0.1-0.1,0.2-0.1s0.1-0.1,0.1-0.2c0-0.1,0.1-0.2,0.1-0.4
				l-0.1,0.4c-0.1,0.2-0.2,0.4-0.3,0.4S13.2,4.7,13,4.7c-0.2,0-0.3,0-0.4-0.1c-0.1-0.1-0.1-0.2-0.1-0.4c0-0.2,0-0.3,0.1-0.5
				c0.1-0.2,0.1-0.3,0.2-0.5s0.2-0.3,0.3-0.4c0.1-0.1,0.2-0.2,0.3-0.3c0.1-0.1,0.2-0.1,0.3-0.1c0.1,0,0.2,0,0.2,0.1
				c0,0.1,0.1,0.1,0,0.3l0,0c0-0.1,0-0.1,0-0.1c0,0,0,0-0.1,0c-0.1,0-0.1,0-0.2,0.1s-0.1,0.2-0.2,0.3c-0.1,0.1-0.1,0.3-0.2,0.5
				c0,0.2-0.1,0.4-0.1,0.5C13.3,4.3,13.3,4.4,13.4,4.5C13.3,4.5,13.3,4.5,13.4,4.5z M14.1,2.6c0.1,0,0.3,0,0.4,0c0.1,0,0.2,0,0.3,0
				l-0.5,1.8c0,0,0,0.1,0,0.1c0,0,0,0,0,0.1c0,0,0,0,0,0c0,0,0.1,0,0.1,0s0.1-0.1,0.1-0.2L14.6,4h0.1l-0.1,0.3
				c-0.1,0.2-0.1,0.3-0.2,0.3c-0.1,0.1-0.2,0.1-0.3,0.1c-0.2,0-0.3,0-0.3-0.1c0-0.1-0.1-0.1-0.1-0.2c0-0.1,0-0.2,0-0.3L14.1,2.6z"/>
			<path class="st0" d="M15.5,4.7h-0.7L15.6,2c0-0.1,0-0.2,0-0.2c0,0-0.1-0.1-0.2-0.1l0-0.1c0.2,0,0.4,0,0.6,0
				c0.2,0,0.3-0.1,0.5-0.1L15.5,4.7z M16.6,4.4c0,0.1,0,0.1,0,0.1s0,0,0.1,0s0.1,0,0.1,0s0.1-0.1,0.1-0.2L16.9,4H17l-0.1,0.3
				c0,0.1-0.1,0.2-0.2,0.3c-0.1,0.1-0.1,0.1-0.2,0.1c-0.1,0-0.2,0-0.2,0c-0.2,0-0.3,0-0.3-0.1c-0.1-0.1-0.1-0.2,0-0.4L16,4
				c0-0.1,0-0.2,0-0.3c0-0.1-0.1-0.1-0.3-0.1v0c0.1,0,0.3,0,0.4,0c0.1,0,0.2,0,0.3,0.1c0.1,0,0.2,0.1,0.2,0.2c0,0.1,0.1,0.2,0,0.3
				L16.6,4.4z M16.7,2.6C16.6,2.6,16.6,2.7,16.7,2.6c-0.1,0-0.2,0-0.2,0.1c0,0-0.1,0.1-0.1,0.2S16.3,3,16.3,3.1s-0.1,0.2-0.1,0.2
				c0,0.1-0.1,0.1-0.2,0.2c-0.1,0-0.2,0.1-0.3,0.1l0,0l0,0c0.1,0,0.2,0,0.3-0.1c0.1,0,0.1-0.1,0.2-0.2c0-0.1,0.1-0.1,0.1-0.2
				c0-0.1,0-0.1,0.1-0.2c0-0.1,0.1-0.1,0.1-0.2c0,0,0.1-0.1,0.1-0.1S16.6,2.6,16.7,2.6c0.2-0.1,0.3,0,0.4,0.1
				c0.1,0.1,0.1,0.2,0.1,0.3c0,0.1,0,0.2-0.1,0.3s-0.2,0.1-0.3,0.1c-0.1,0-0.2,0-0.2-0.1c-0.1-0.1-0.1-0.1-0.1-0.2
				c0-0.1,0-0.2,0.1-0.3C16.6,2.8,16.7,2.7,16.7,2.6C16.8,2.7,16.7,2.7,16.7,2.6C16.7,2.7,16.7,2.6,16.7,2.6z"/>
			<path class="st0" d="M17.8,3.9c0.1,0,0.2-0.1,0.3-0.1s0.2-0.1,0.2-0.2c0.1-0.1,0.2-0.2,0.3-0.4c0.1-0.1,0.1-0.3,0.1-0.4
				c0,0,0-0.1,0-0.1c0,0,0,0,0,0c-0.1,0-0.1,0-0.2,0.1c-0.1,0.1-0.2,0.2-0.2,0.3C18.1,3.3,18,3.4,18,3.6c0,0.2-0.1,0.3-0.1,0.5
				c0,0.2,0,0.3,0.1,0.3c0.1,0.1,0.1,0.1,0.2,0.1c0.1,0,0.1,0,0.2-0.1s0.2-0.1,0.3-0.2l0.1,0c-0.1,0.1-0.1,0.2-0.2,0.3
				c-0.1,0.1-0.2,0.1-0.3,0.2c-0.1,0.1-0.3,0.1-0.4,0.1c-0.2,0-0.3,0-0.5-0.1c-0.1-0.1-0.2-0.2-0.2-0.4c0-0.2,0-0.3,0.1-0.5
				c0-0.2,0.1-0.3,0.2-0.4c0.1-0.1,0.2-0.3,0.3-0.4c0.1-0.1,0.3-0.2,0.4-0.3s0.3-0.1,0.5-0.1c0.1,0,0.3,0,0.4,0.1s0.1,0.1,0.1,0.3
				c0,0.1,0,0.2-0.1,0.3C19,3.3,19,3.4,18.9,3.4c-0.1,0.1-0.2,0.1-0.3,0.2c-0.1,0.1-0.2,0.1-0.4,0.2S17.9,3.9,17.8,3.9L17.8,3.9z"/>
			<path class="st0" d="M19.5,4.6C19.5,4.6,19.5,4.7,19.5,4.6c0.1,0,0.1,0,0.1,0c0.1,0,0.2,0,0.2-0.1s0.1-0.1,0.1-0.2
				c0-0.1,0-0.2-0.1-0.3s-0.1-0.2-0.2-0.3c-0.1-0.1-0.1-0.2-0.2-0.3c0-0.1-0.1-0.2-0.1-0.3c0-0.2,0.1-0.3,0.2-0.4
				c0.1-0.1,0.3-0.2,0.6-0.2c0.1,0,0.2,0,0.3,0c0.1,0,0.2,0.1,0.3,0.1c0.1,0.1,0.1,0.2,0.1,0.3c0,0.1,0,0.2-0.1,0.2
				c0,0.1-0.1,0.1-0.2,0.1c-0.1,0-0.1,0-0.2-0.1c0-0.1-0.1-0.1-0.1-0.2c0-0.1,0-0.2,0-0.2c0-0.1,0.1-0.1,0.1-0.1c0,0-0.1,0-0.1,0
				c-0.1,0-0.2,0-0.2,0.1c0,0.1-0.1,0.1-0.1,0.2c0,0.1,0,0.2,0.1,0.3s0.1,0.2,0.2,0.3c0.1,0.1,0.1,0.3,0.2,0.4
				c0,0.1,0.1,0.2,0.1,0.3c0,0.1,0,0.2-0.1,0.3c-0.1,0.1-0.1,0.2-0.3,0.2c-0.1,0.1-0.3,0.1-0.4,0.1C19.7,4.7,19.5,4.7,19.5,4.6
				c-0.2,0-0.2,0-0.3-0.1c-0.1-0.1-0.1-0.2-0.1-0.3c0-0.1,0-0.2,0.1-0.3c0-0.1,0.1-0.1,0.2-0.1c0.1,0,0.1,0,0.2,0.1
				c0,0.1,0.1,0.1,0.1,0.3c0,0.1,0,0.2,0,0.2C19.5,4.5,19.5,4.6,19.5,4.6z"/>
			<path class="st0" d="M21.5,4.7h-0.7L21.6,2c0-0.1,0-0.2,0-0.2c0,0-0.1-0.1-0.2-0.1l0-0.1c0.2,0,0.4,0,0.6,0
				c0.2,0,0.3-0.1,0.5-0.1L21.5,4.7z M21.6,4.1c0.1-0.3,0.2-0.6,0.3-0.8C22,3.1,22.1,3,22.2,2.9c0.1-0.1,0.2-0.2,0.3-0.2
				s0.2-0.1,0.3-0.1c0.1,0,0.2,0,0.3,0.1c0.1,0.1,0.1,0.1,0.1,0.2c0,0.1,0,0.2,0,0.3l-0.4,1.2c0,0.1,0,0.1,0,0.1c0,0,0,0,0.1,0
				c0,0,0.1,0,0.1,0s0.1-0.1,0.1-0.2L23,4h0.1L23,4.3c-0.1,0.2-0.1,0.3-0.2,0.3c-0.1,0.1-0.2,0.1-0.3,0.1c-0.1,0-0.2,0-0.3-0.1
				C22.1,4.6,22,4.5,22,4.4s0-0.2,0.1-0.3l0.3-1c0,0,0-0.1,0-0.1s0-0.1,0-0.1c0,0,0,0,0,0c-0.1,0-0.1,0.1-0.2,0.2
				c-0.1,0.1-0.2,0.3-0.2,0.4c-0.1,0.2-0.2,0.4-0.2,0.6c-0.1,0.2-0.1,0.4-0.2,0.7L21.6,4.1z"/>
			<path class="st0" d="M26,1.7c0,0-0.1,0-0.1,0s-0.1,0-0.1,0c0,0-0.1,0.1-0.1,0.1c0,0.1-0.1,0.1-0.1,0.3l-0.9,3.3
				c-0.1,0-0.3,0-0.4,0c-0.1,0-0.2,0-0.3,0l0.7-2.7c0.1-0.2,0.1-0.4,0.2-0.6s0.2-0.3,0.3-0.4c0.1-0.1,0.2-0.1,0.3-0.1
				c0.1,0,0.2,0,0.3,0c0.2,0,0.3,0,0.5,0.1s0.2,0.2,0.2,0.3c0,0.1,0,0.2-0.1,0.3c-0.1,0.1-0.2,0.1-0.3,0.1c-0.1,0-0.2,0-0.2-0.1
				c-0.1,0-0.1-0.1-0.1-0.2c0-0.1,0-0.2,0.1-0.3c0.1-0.1,0.1-0.1,0.3-0.2C26.1,1.7,26.1,1.7,26,1.7C26.1,1.7,26,1.7,26,1.7z
				 M24.5,2.7L24.5,2.7l1.4-0.1l0,0.1H24.5z"/>
			<path class="st0" d="M25.7,4.1c0-0.2,0-0.3,0.1-0.5c0.1-0.2,0.1-0.3,0.3-0.5c0.1-0.2,0.3-0.3,0.4-0.4s0.4-0.1,0.6-0.1
				c0.2,0,0.4,0.1,0.5,0.2c0.1,0.1,0.2,0.3,0.2,0.5c0,0.2,0,0.3-0.1,0.5c-0.1,0.2-0.1,0.3-0.3,0.5c-0.1,0.2-0.3,0.3-0.4,0.4
				c-0.2,0.1-0.4,0.1-0.6,0.1c-0.2,0-0.4-0.1-0.5-0.2S25.7,4.3,25.7,4.1z M27.1,2.7c0,0-0.1,0-0.2,0.1c-0.1,0.1-0.1,0.2-0.2,0.3
				s-0.1,0.3-0.2,0.4S26.5,3.8,26.4,4c0,0.2,0,0.3,0,0.5c0,0.1,0,0.1,0,0.2c0,0,0,0,0.1,0c0,0,0.1,0,0.2-0.1
				c0.1-0.1,0.1-0.2,0.2-0.3C26.9,4.1,26.9,4,27,3.9c0.1-0.2,0.1-0.3,0.1-0.5c0-0.2,0.1-0.3,0.1-0.5C27.1,2.8,27.1,2.7,27.1,2.7
				C27.1,2.7,27.1,2.7,27.1,2.7z"/>
			<path class="st0" d="M28.6,4.7h-0.7L28.4,3c0-0.1,0-0.1,0-0.1c0,0,0,0-0.1,0c0,0-0.1,0-0.1,0.1c0,0-0.1,0.1-0.1,0.2l-0.1,0.2H28
				L28.1,3c0.1-0.1,0.1-0.3,0.2-0.3c0.1-0.1,0.2-0.1,0.4-0.1c0.1,0,0.2,0,0.3,0.1S29,2.8,29,2.9c0,0.1,0,0.2,0,0.3L28.6,4.7z
				 M29.6,2.7c-0.1,0-0.1,0-0.2,0c-0.1,0-0.1,0.1-0.2,0.1c-0.1,0.1-0.1,0.2-0.2,0.3C29,3.3,29,3.5,28.9,3.7c-0.1,0.3-0.2,0.6-0.3,1
				l0.1-0.6c0.1-0.3,0.2-0.6,0.2-0.8s0.1-0.4,0.2-0.5c0.1-0.1,0.1-0.2,0.2-0.2C29.4,2.6,29.5,2.6,29.6,2.7c0.1-0.1,0.2,0,0.3,0
				C30,2.8,30,2.8,30,3c0,0.1,0,0.2-0.1,0.3c-0.1,0.1-0.2,0.1-0.3,0.1c-0.1,0-0.2,0-0.2-0.1s-0.1-0.1-0.1-0.2c0-0.1,0-0.2,0.1-0.3
				S29.6,2.7,29.6,2.7C29.7,2.7,29.7,2.7,29.6,2.7C29.7,2.7,29.6,2.7,29.6,2.7z"/>
			<path class="st0" d="M33.9,1.9h0.4c0.1,0,0.3,0,0.4,0c0.1,0,0.2,0,0.3,0L35,2c-0.1,0-0.2,0-0.2,0s-0.1,0-0.1,0.1
				s-0.1,0.1-0.1,0.2l-0.5,2c0,0.1,0,0.2,0,0.3c0,0,0.1,0.1,0.2,0.1l0,0.1c-0.1,0-0.2,0-0.3,0c-0.1,0-0.3,0-0.4,0
				c-0.1,0-0.3,0-0.4,0c-0.1,0-0.2,0-0.3,0l0-0.1c0.1,0,0.2,0,0.2,0c0,0,0.1,0,0.1-0.1c0,0,0.1-0.1,0.1-0.2l0.6-2.1l-1.6,2.6h-0.1
				l-0.4-2.3l-0.5,1.8c0,0.1,0,0.1,0,0.2c0,0.1,0,0.1,0.1,0.2c0.1,0,0.1,0.1,0.3,0.1l0,0.1c0,0-0.1,0-0.2,0c-0.1,0-0.2,0-0.3,0
				c-0.1,0-0.1,0-0.2,0c-0.1,0-0.1,0-0.2,0l0-0.1c0.1,0,0.2-0.1,0.3-0.2c0.1-0.1,0.1-0.2,0.1-0.3l0.5-1.8c0-0.1,0-0.2,0-0.3
				c0,0-0.1-0.1-0.2-0.1l0-0.1c0.1,0,0.2,0,0.3,0c0.1,0,0.2,0,0.4,0c0.1,0,0.1,0,0.2,0c0.1,0,0.1,0,0.2,0l0.2,1.8L33.9,1.9z"/>
			<path class="st0" d="M35.3,3.9c0.1,0,0.2-0.1,0.3-0.1s0.2-0.1,0.2-0.2c0.1-0.1,0.2-0.2,0.3-0.4c0.1-0.1,0.1-0.3,0.1-0.4
				c0,0,0-0.1,0-0.1c0,0,0,0,0,0c-0.1,0-0.1,0-0.2,0.1c-0.1,0.1-0.2,0.2-0.2,0.3c-0.1,0.1-0.1,0.3-0.2,0.5c0,0.2-0.1,0.3-0.1,0.5
				c0,0.2,0,0.3,0.1,0.3c0.1,0.1,0.1,0.1,0.2,0.1c0.1,0,0.1,0,0.2-0.1s0.2-0.1,0.3-0.2l0.1,0c-0.1,0.1-0.1,0.2-0.2,0.3
				c-0.1,0.1-0.2,0.1-0.3,0.2c-0.1,0.1-0.3,0.1-0.4,0.1c-0.2,0-0.3,0-0.5-0.1c-0.1-0.1-0.2-0.2-0.2-0.4c0-0.2,0-0.3,0.1-0.5
				c0-0.2,0.1-0.3,0.2-0.4C35,3.1,35.1,3,35.3,2.9c0.1-0.1,0.3-0.2,0.4-0.3s0.3-0.1,0.5-0.1c0.1,0,0.3,0,0.4,0.1s0.1,0.1,0.1,0.3
				c0,0.1,0,0.2-0.1,0.3c-0.1,0.1-0.1,0.2-0.2,0.2c-0.1,0.1-0.2,0.1-0.3,0.2c-0.1,0.1-0.2,0.1-0.4,0.2S35.4,3.9,35.3,3.9L35.3,3.9z"
				/>
			<path class="st0" d="M37.4,4.7h-0.7L37.1,3c0,0,0-0.1,0-0.1c0,0,0,0,0-0.1c0,0,0,0,0,0c0,0-0.1,0-0.1,0.1c0,0-0.1,0.1-0.1,0.2
				l-0.1,0.2h-0.1L36.8,3C36.9,2.8,37,2.7,37,2.7c0.1-0.1,0.2-0.1,0.3-0.1c0.1,0,0.2,0,0.3,0.1c0.1,0.1,0.1,0.1,0.1,0.2
				c0,0.1,0,0.2,0,0.3L37.4,4.7z M37.5,4.1c0.1-0.3,0.2-0.6,0.3-0.8S37.9,3,38,2.9c0.1-0.1,0.2-0.2,0.3-0.2c0.1,0,0.2-0.1,0.3-0.1
				c0.1,0,0.2,0,0.3,0.1C38.9,2.7,39,2.8,39,2.9s0,0.2,0,0.3l-0.4,1.2c0,0.1,0,0.1,0,0.1c0,0,0,0,0.1,0c0,0,0.1,0,0.1,0
				s0.1-0.1,0.1-0.2L38.9,4h0.1l-0.1,0.3c-0.1,0.2-0.1,0.3-0.2,0.3c-0.1,0.1-0.2,0.1-0.3,0.1c-0.2,0-0.3,0-0.4-0.1
				c0-0.1-0.1-0.1-0.1-0.2c0-0.1,0-0.2,0.1-0.3l0.3-1c0,0,0-0.1,0-0.1c0,0,0-0.1,0-0.1c0,0,0,0,0,0c-0.1,0-0.1,0.1-0.2,0.2
				c-0.1,0.1-0.2,0.3-0.2,0.4c-0.1,0.2-0.2,0.4-0.2,0.6c-0.1,0.2-0.1,0.4-0.2,0.7L37.5,4.1z"/>
		</g>
	</g>
</g>
</svg>
