<?xml version="1.0" encoding="utf-8"?>
<!-- Generator: Adobe Illustrator 23.0.1, SVG Export Plug-In . SVG Version: 6.00 Build 0)  -->
<svg version="1.1" id="Layer_1" focusable="false" xmlns="http://www.w3.org/2000/svg" xmlns:xlink="http://www.w3.org/1999/xlink"
	 x="0px" y="0px" viewBox="0 0 30 30" style="enable-background:new 0 0 30 30;" xml:space="preserve">
<style type="text/css">
	.st0{fill:#fff;}
</style>
<path class="st0" d="M15,10.6c2.4,0,4.4,1.9,4.4,4.4s-1.9,4.4-4.4,4.4s-4.4-1.9-4.4-4.4S12.6,10.6,15,10.6z M10.6,4.4
	c0,2.4,1.9,4.4,4.4,4.4s4.4-1.9,4.4-4.4S17.4,0,15,0C12.6,0,10.6,1.9,10.6,4.4z M10.6,25.6c0,2.4,1.9,4.4,4.4,4.4s4.4-1.9,4.4-4.4
	s-1.9-4.4-4.4-4.4S10.6,23.2,10.6,25.6z"/>
</svg>
