<?xml version="1.0" encoding="utf-8"?>
<!-- Generator: Adobe Illustrator 23.0.1, SVG Export Plug-In . SVG Version: 6.00 Build 0)  -->
<svg version="1.1" id="Layer_1" focusable="false" xmlns="http://www.w3.org/2000/svg" xmlns:xlink="http://www.w3.org/1999/xlink"
	 x="0px" y="0px" viewBox="0 0 640 512" style="enable-background:new 0 0 640 512;" xml:space="preserve">
<style type="text/css">
	.st0{fill:#613D20;}
</style>
<path class="st0" d="M497.9,225.9L286.1,14.1c-9-9-21.2-14.1-33.9-14.1H48C21.5,0,0,21.5,0,48v204.1c0,12.7,5.1,24.9,14.1,33.9
	l211.9,211.9c18.7,18.7,49.1,18.7,67.9,0l204.1-204.1C516.7,275.1,516.7,244.7,497.9,225.9L497.9,225.9z M112,160
	c-26.5,0-48-21.5-48-48s21.5-48,48-48s48,21.5,48,48S138.5,160,112,160z M625.9,293.8L421.8,497.9c-18.7,18.7-49.1,18.7-67.9,0
	l-0.4-0.4l174.1-174.1c17-17,26.4-39.6,26.4-63.6s-9.4-46.6-26.4-63.6L331.4,0h48.7c12.7,0,24.9,5.1,33.9,14.1l211.9,211.9
	C644.7,244.7,644.7,275.1,625.9,293.8L625.9,293.8z"/>
</svg>
